%FSLAX45Y45*%
G04 Gerber Fmt 4.5, Leading zero omitted, Abs format (unit mm)*
G04 Created by KiCad (PCBNEW 5.1.5-br-unknown-alt1.rc1) date 2025-11-25 07:02:07*
%MOMM*%
%LPD*%
G01*
G04 APERTURE LIST*
%TA.AperFunction,Profile*%
%ADD10C,0.050000*%
%TD*%
%ADD11C,0.200000*%
%ADD12C,0.300000*%
G04 APERTURE END LIST*
D10*
X0Y-5943600D02*
X0Y0D01*
X11176000Y-5943600D02*
X0Y-5943600D01*
X11176000Y0D02*
X11176000Y-5943600D01*
X0Y0D02*
X11176000Y0D01*
D11*
X10569200Y-3846600D02*
X10629200Y-3906600D01*
X10629200Y-3846600D02*
X10569200Y-3906600D01*
X10569200Y-4424600D02*
X10629200Y-4484600D01*
X10629200Y-4424600D02*
X10569200Y-4484600D01*
X10980400Y-5588000D02*
G75*
G03*
X10980400Y-5588000I-160000J0D01*
G01*
X515600Y-5588000D02*
G75*
G03*
X515600Y-5588000I-160000J0D01*
G01*
X10980400Y-355600D02*
G75*
G03*
X10980400Y-355600I-160000J0D01*
G01*
X515600Y-355600D02*
G75*
G03*
X515600Y-355600I-160000J0D01*
G01*
D12*
X283928Y-6411814D02*
X283928Y-6111814D01*
X355357Y-6111814D01*
X398214Y-6126100D01*
X426786Y-6154671D01*
X441071Y-6183243D01*
X455357Y-6240386D01*
X455357Y-6283243D01*
X441071Y-6340386D01*
X426786Y-6368957D01*
X398214Y-6397529D01*
X355357Y-6411814D01*
X283928Y-6411814D01*
X583928Y-6411814D02*
X583928Y-6211814D01*
X583928Y-6268957D02*
X598214Y-6240386D01*
X612500Y-6226100D01*
X641071Y-6211814D01*
X669643Y-6211814D01*
X769643Y-6411814D02*
X769643Y-6211814D01*
X769643Y-6111814D02*
X755357Y-6126100D01*
X769643Y-6140386D01*
X783928Y-6126100D01*
X769643Y-6111814D01*
X769643Y-6140386D01*
X955357Y-6411814D02*
X926786Y-6397529D01*
X912500Y-6368957D01*
X912500Y-6111814D01*
X1112500Y-6411814D02*
X1083928Y-6397529D01*
X1069643Y-6368957D01*
X1069643Y-6111814D01*
X1455357Y-6411814D02*
X1455357Y-6111814D01*
X1555357Y-6326100D01*
X1655357Y-6111814D01*
X1655357Y-6411814D01*
X1926786Y-6411814D02*
X1926786Y-6254671D01*
X1912500Y-6226100D01*
X1883928Y-6211814D01*
X1826786Y-6211814D01*
X1798214Y-6226100D01*
X1926786Y-6397529D02*
X1898214Y-6411814D01*
X1826786Y-6411814D01*
X1798214Y-6397529D01*
X1783928Y-6368957D01*
X1783928Y-6340386D01*
X1798214Y-6311814D01*
X1826786Y-6297529D01*
X1898214Y-6297529D01*
X1926786Y-6283243D01*
X2069643Y-6211814D02*
X2069643Y-6511814D01*
X2069643Y-6226100D02*
X2098214Y-6211814D01*
X2155357Y-6211814D01*
X2183928Y-6226100D01*
X2198214Y-6240386D01*
X2212500Y-6268957D01*
X2212500Y-6354671D01*
X2198214Y-6383243D01*
X2183928Y-6397529D01*
X2155357Y-6411814D01*
X2098214Y-6411814D01*
X2069643Y-6397529D01*
X2341071Y-6383243D02*
X2355357Y-6397529D01*
X2341071Y-6411814D01*
X2326786Y-6397529D01*
X2341071Y-6383243D01*
X2341071Y-6411814D01*
X2341071Y-6226100D02*
X2355357Y-6240386D01*
X2341071Y-6254671D01*
X2326786Y-6240386D01*
X2341071Y-6226100D01*
X2341071Y-6254671D01*
X-62500Y-6876100D02*
X-2500Y-6936100D01*
X-2500Y-6876100D02*
X-62500Y-6936100D01*
X341071Y-6741814D02*
X369643Y-6741814D01*
X398214Y-6756100D01*
X412500Y-6770386D01*
X426786Y-6798957D01*
X441071Y-6856100D01*
X441071Y-6927529D01*
X426786Y-6984671D01*
X412500Y-7013243D01*
X398214Y-7027529D01*
X369643Y-7041814D01*
X341071Y-7041814D01*
X312500Y-7027529D01*
X298214Y-7013243D01*
X283928Y-6984671D01*
X269643Y-6927529D01*
X269643Y-6856100D01*
X283928Y-6798957D01*
X298214Y-6770386D01*
X312500Y-6756100D01*
X341071Y-6741814D01*
X569643Y-7013243D02*
X583928Y-7027529D01*
X569643Y-7041814D01*
X555357Y-7027529D01*
X569643Y-7013243D01*
X569643Y-7041814D01*
X841071Y-6741814D02*
X783928Y-6741814D01*
X755357Y-6756100D01*
X741071Y-6770386D01*
X712500Y-6813243D01*
X698214Y-6870386D01*
X698214Y-6984671D01*
X712500Y-7013243D01*
X726786Y-7027529D01*
X755357Y-7041814D01*
X812500Y-7041814D01*
X841071Y-7027529D01*
X855357Y-7013243D01*
X869643Y-6984671D01*
X869643Y-6913243D01*
X855357Y-6884671D01*
X841071Y-6870386D01*
X812500Y-6856100D01*
X755357Y-6856100D01*
X726786Y-6870386D01*
X712500Y-6884671D01*
X698214Y-6913243D01*
X1055357Y-6741814D02*
X1083928Y-6741814D01*
X1112500Y-6756100D01*
X1126786Y-6770386D01*
X1141071Y-6798957D01*
X1155357Y-6856100D01*
X1155357Y-6927529D01*
X1141071Y-6984671D01*
X1126786Y-7013243D01*
X1112500Y-7027529D01*
X1083928Y-7041814D01*
X1055357Y-7041814D01*
X1026786Y-7027529D01*
X1012500Y-7013243D01*
X998214Y-6984671D01*
X983928Y-6927529D01*
X983928Y-6856100D01*
X998214Y-6798957D01*
X1012500Y-6770386D01*
X1026786Y-6756100D01*
X1055357Y-6741814D01*
X1283928Y-7041814D02*
X1283928Y-6841814D01*
X1283928Y-6870386D02*
X1298214Y-6856100D01*
X1326786Y-6841814D01*
X1369643Y-6841814D01*
X1398214Y-6856100D01*
X1412500Y-6884671D01*
X1412500Y-7041814D01*
X1412500Y-6884671D02*
X1426786Y-6856100D01*
X1455357Y-6841814D01*
X1498214Y-6841814D01*
X1526786Y-6856100D01*
X1541071Y-6884671D01*
X1541071Y-7041814D01*
X1683928Y-7041814D02*
X1683928Y-6841814D01*
X1683928Y-6870386D02*
X1698214Y-6856100D01*
X1726786Y-6841814D01*
X1769643Y-6841814D01*
X1798214Y-6856100D01*
X1812500Y-6884671D01*
X1812500Y-7041814D01*
X1812500Y-6884671D02*
X1826786Y-6856100D01*
X1855357Y-6841814D01*
X1898214Y-6841814D01*
X1926786Y-6856100D01*
X1941071Y-6884671D01*
X1941071Y-7041814D01*
X2526786Y-6727529D02*
X2269643Y-7113243D01*
X2912500Y-6741814D02*
X2941071Y-6741814D01*
X2969643Y-6756100D01*
X2983928Y-6770386D01*
X2998214Y-6798957D01*
X3012500Y-6856100D01*
X3012500Y-6927529D01*
X2998214Y-6984671D01*
X2983928Y-7013243D01*
X2969643Y-7027529D01*
X2941071Y-7041814D01*
X2912500Y-7041814D01*
X2883928Y-7027529D01*
X2869643Y-7013243D01*
X2855357Y-6984671D01*
X2841071Y-6927529D01*
X2841071Y-6856100D01*
X2855357Y-6798957D01*
X2869643Y-6770386D01*
X2883928Y-6756100D01*
X2912500Y-6741814D01*
X3141071Y-7013243D02*
X3155357Y-7027529D01*
X3141071Y-7041814D01*
X3126786Y-7027529D01*
X3141071Y-7013243D01*
X3141071Y-7041814D01*
X3341071Y-6741814D02*
X3369643Y-6741814D01*
X3398214Y-6756100D01*
X3412500Y-6770386D01*
X3426786Y-6798957D01*
X3441071Y-6856100D01*
X3441071Y-6927529D01*
X3426786Y-6984671D01*
X3412500Y-7013243D01*
X3398214Y-7027529D01*
X3369643Y-7041814D01*
X3341071Y-7041814D01*
X3312500Y-7027529D01*
X3298214Y-7013243D01*
X3283928Y-6984671D01*
X3269643Y-6927529D01*
X3269643Y-6856100D01*
X3283928Y-6798957D01*
X3298214Y-6770386D01*
X3312500Y-6756100D01*
X3341071Y-6741814D01*
X3555357Y-6770386D02*
X3569643Y-6756100D01*
X3598214Y-6741814D01*
X3669643Y-6741814D01*
X3698214Y-6756100D01*
X3712500Y-6770386D01*
X3726786Y-6798957D01*
X3726786Y-6827529D01*
X3712500Y-6870386D01*
X3541071Y-7041814D01*
X3726786Y-7041814D01*
X3983928Y-6841814D02*
X3983928Y-7041814D01*
X3912500Y-6727529D02*
X3841071Y-6941814D01*
X4026786Y-6941814D01*
X4126786Y-6741814D02*
X4126786Y-6798957D01*
X4241071Y-6741814D02*
X4241071Y-6798957D01*
X4683928Y-7156100D02*
X4669643Y-7141814D01*
X4641071Y-7098957D01*
X4626786Y-7070386D01*
X4612500Y-7027529D01*
X4598214Y-6956100D01*
X4598214Y-6898957D01*
X4612500Y-6827529D01*
X4626786Y-6784671D01*
X4641071Y-6756100D01*
X4669643Y-6713243D01*
X4683928Y-6698957D01*
X4783928Y-6770386D02*
X4798214Y-6756100D01*
X4826786Y-6741814D01*
X4898214Y-6741814D01*
X4926786Y-6756100D01*
X4941071Y-6770386D01*
X4955357Y-6798957D01*
X4955357Y-6827529D01*
X4941071Y-6870386D01*
X4769643Y-7041814D01*
X4955357Y-7041814D01*
X5312500Y-7041814D02*
X5312500Y-6741814D01*
X5441071Y-7041814D02*
X5441071Y-6884671D01*
X5426786Y-6856100D01*
X5398214Y-6841814D01*
X5355357Y-6841814D01*
X5326786Y-6856100D01*
X5312500Y-6870386D01*
X5626786Y-7041814D02*
X5598214Y-7027529D01*
X5583928Y-7013243D01*
X5569643Y-6984671D01*
X5569643Y-6898957D01*
X5583928Y-6870386D01*
X5598214Y-6856100D01*
X5626786Y-6841814D01*
X5669643Y-6841814D01*
X5698214Y-6856100D01*
X5712500Y-6870386D01*
X5726786Y-6898957D01*
X5726786Y-6984671D01*
X5712500Y-7013243D01*
X5698214Y-7027529D01*
X5669643Y-7041814D01*
X5626786Y-7041814D01*
X5898214Y-7041814D02*
X5869643Y-7027529D01*
X5855357Y-6998957D01*
X5855357Y-6741814D01*
X6126786Y-7027529D02*
X6098214Y-7041814D01*
X6041071Y-7041814D01*
X6012500Y-7027529D01*
X5998214Y-6998957D01*
X5998214Y-6884671D01*
X6012500Y-6856100D01*
X6041071Y-6841814D01*
X6098214Y-6841814D01*
X6126786Y-6856100D01*
X6141071Y-6884671D01*
X6141071Y-6913243D01*
X5998214Y-6941814D01*
X6255357Y-7027529D02*
X6283928Y-7041814D01*
X6341071Y-7041814D01*
X6369643Y-7027529D01*
X6383928Y-6998957D01*
X6383928Y-6984671D01*
X6369643Y-6956100D01*
X6341071Y-6941814D01*
X6298214Y-6941814D01*
X6269643Y-6927529D01*
X6255357Y-6898957D01*
X6255357Y-6884671D01*
X6269643Y-6856100D01*
X6298214Y-6841814D01*
X6341071Y-6841814D01*
X6369643Y-6856100D01*
X6483928Y-7156100D02*
X6498214Y-7141814D01*
X6526786Y-7098957D01*
X6541071Y-7070386D01*
X6555357Y-7027529D01*
X6569643Y-6956100D01*
X6569643Y-6898957D01*
X6555357Y-6827529D01*
X6541071Y-6784671D01*
X6526786Y-6756100D01*
X6498214Y-6713243D01*
X6483928Y-6698957D01*
X7026786Y-7156100D02*
X7012500Y-7141814D01*
X6983928Y-7098957D01*
X6969643Y-7070386D01*
X6955357Y-7027529D01*
X6941071Y-6956100D01*
X6941071Y-6898957D01*
X6955357Y-6827529D01*
X6969643Y-6784671D01*
X6983928Y-6756100D01*
X7012500Y-6713243D01*
X7026786Y-6698957D01*
X7141071Y-6841814D02*
X7141071Y-7041814D01*
X7141071Y-6870386D02*
X7155357Y-6856100D01*
X7183928Y-6841814D01*
X7226786Y-6841814D01*
X7255357Y-6856100D01*
X7269643Y-6884671D01*
X7269643Y-7041814D01*
X7455357Y-7041814D02*
X7426786Y-7027529D01*
X7412500Y-7013243D01*
X7398214Y-6984671D01*
X7398214Y-6898957D01*
X7412500Y-6870386D01*
X7426786Y-6856100D01*
X7455357Y-6841814D01*
X7498214Y-6841814D01*
X7526786Y-6856100D01*
X7541071Y-6870386D01*
X7555357Y-6898957D01*
X7555357Y-6984671D01*
X7541071Y-7013243D01*
X7526786Y-7027529D01*
X7498214Y-7041814D01*
X7455357Y-7041814D01*
X7641071Y-6841814D02*
X7755357Y-6841814D01*
X7683928Y-6741814D02*
X7683928Y-6998957D01*
X7698214Y-7027529D01*
X7726786Y-7041814D01*
X7755357Y-7041814D01*
X8083928Y-6841814D02*
X8083928Y-7141814D01*
X8083928Y-6856100D02*
X8112500Y-6841814D01*
X8169643Y-6841814D01*
X8198214Y-6856100D01*
X8212500Y-6870386D01*
X8226786Y-6898957D01*
X8226786Y-6984671D01*
X8212500Y-7013243D01*
X8198214Y-7027529D01*
X8169643Y-7041814D01*
X8112500Y-7041814D01*
X8083928Y-7027529D01*
X8398214Y-7041814D02*
X8369643Y-7027529D01*
X8355357Y-6998957D01*
X8355357Y-6741814D01*
X8641071Y-7041814D02*
X8641071Y-6884671D01*
X8626786Y-6856100D01*
X8598214Y-6841814D01*
X8541071Y-6841814D01*
X8512500Y-6856100D01*
X8641071Y-7027529D02*
X8612500Y-7041814D01*
X8541071Y-7041814D01*
X8512500Y-7027529D01*
X8498214Y-6998957D01*
X8498214Y-6970386D01*
X8512500Y-6941814D01*
X8541071Y-6927529D01*
X8612500Y-6927529D01*
X8641071Y-6913243D01*
X8741071Y-6841814D02*
X8855357Y-6841814D01*
X8783928Y-6741814D02*
X8783928Y-6998957D01*
X8798214Y-7027529D01*
X8826786Y-7041814D01*
X8855357Y-7041814D01*
X9069643Y-7027529D02*
X9041071Y-7041814D01*
X8983928Y-7041814D01*
X8955357Y-7027529D01*
X8941071Y-6998957D01*
X8941071Y-6884671D01*
X8955357Y-6856100D01*
X8983928Y-6841814D01*
X9041071Y-6841814D01*
X9069643Y-6856100D01*
X9083928Y-6884671D01*
X9083928Y-6913243D01*
X8941071Y-6941814D01*
X9341071Y-7041814D02*
X9341071Y-6741814D01*
X9341071Y-7027529D02*
X9312500Y-7041814D01*
X9255357Y-7041814D01*
X9226786Y-7027529D01*
X9212500Y-7013243D01*
X9198214Y-6984671D01*
X9198214Y-6898957D01*
X9212500Y-6870386D01*
X9226786Y-6856100D01*
X9255357Y-6841814D01*
X9312500Y-6841814D01*
X9341071Y-6856100D01*
X9455357Y-7156100D02*
X9469643Y-7141814D01*
X9498214Y-7098957D01*
X9512500Y-7070386D01*
X9526786Y-7027529D01*
X9541071Y-6956100D01*
X9541071Y-6898957D01*
X9526786Y-6827529D01*
X9512500Y-6784671D01*
X9498214Y-6756100D01*
X9469643Y-6713243D01*
X9455357Y-6698957D01*
X-2500Y-7302100D02*
G75*
G03*
X-2500Y-7302100I-160000J0D01*
G01*
X255357Y-7137814D02*
X441071Y-7137814D01*
X341071Y-7252100D01*
X383928Y-7252100D01*
X412500Y-7266386D01*
X426786Y-7280671D01*
X441071Y-7309243D01*
X441071Y-7380671D01*
X426786Y-7409243D01*
X412500Y-7423529D01*
X383928Y-7437814D01*
X298214Y-7437814D01*
X269643Y-7423529D01*
X255357Y-7409243D01*
X569643Y-7409243D02*
X583928Y-7423529D01*
X569643Y-7437814D01*
X555357Y-7423529D01*
X569643Y-7409243D01*
X569643Y-7437814D01*
X698214Y-7166386D02*
X712500Y-7152100D01*
X741071Y-7137814D01*
X812500Y-7137814D01*
X841071Y-7152100D01*
X855357Y-7166386D01*
X869643Y-7194957D01*
X869643Y-7223529D01*
X855357Y-7266386D01*
X683928Y-7437814D01*
X869643Y-7437814D01*
X1055357Y-7137814D02*
X1083928Y-7137814D01*
X1112500Y-7152100D01*
X1126786Y-7166386D01*
X1141071Y-7194957D01*
X1155357Y-7252100D01*
X1155357Y-7323529D01*
X1141071Y-7380671D01*
X1126786Y-7409243D01*
X1112500Y-7423529D01*
X1083928Y-7437814D01*
X1055357Y-7437814D01*
X1026786Y-7423529D01*
X1012500Y-7409243D01*
X998214Y-7380671D01*
X983928Y-7323529D01*
X983928Y-7252100D01*
X998214Y-7194957D01*
X1012500Y-7166386D01*
X1026786Y-7152100D01*
X1055357Y-7137814D01*
X1283928Y-7437814D02*
X1283928Y-7237814D01*
X1283928Y-7266386D02*
X1298214Y-7252100D01*
X1326786Y-7237814D01*
X1369643Y-7237814D01*
X1398214Y-7252100D01*
X1412500Y-7280671D01*
X1412500Y-7437814D01*
X1412500Y-7280671D02*
X1426786Y-7252100D01*
X1455357Y-7237814D01*
X1498214Y-7237814D01*
X1526786Y-7252100D01*
X1541071Y-7280671D01*
X1541071Y-7437814D01*
X1683928Y-7437814D02*
X1683928Y-7237814D01*
X1683928Y-7266386D02*
X1698214Y-7252100D01*
X1726786Y-7237814D01*
X1769643Y-7237814D01*
X1798214Y-7252100D01*
X1812500Y-7280671D01*
X1812500Y-7437814D01*
X1812500Y-7280671D02*
X1826786Y-7252100D01*
X1855357Y-7237814D01*
X1898214Y-7237814D01*
X1926786Y-7252100D01*
X1941071Y-7280671D01*
X1941071Y-7437814D01*
X2526786Y-7123529D02*
X2269643Y-7509243D01*
X2912500Y-7137814D02*
X2941071Y-7137814D01*
X2969643Y-7152100D01*
X2983928Y-7166386D01*
X2998214Y-7194957D01*
X3012500Y-7252100D01*
X3012500Y-7323529D01*
X2998214Y-7380671D01*
X2983928Y-7409243D01*
X2969643Y-7423529D01*
X2941071Y-7437814D01*
X2912500Y-7437814D01*
X2883928Y-7423529D01*
X2869643Y-7409243D01*
X2855357Y-7380671D01*
X2841071Y-7323529D01*
X2841071Y-7252100D01*
X2855357Y-7194957D01*
X2869643Y-7166386D01*
X2883928Y-7152100D01*
X2912500Y-7137814D01*
X3141071Y-7409243D02*
X3155357Y-7423529D01*
X3141071Y-7437814D01*
X3126786Y-7423529D01*
X3141071Y-7409243D01*
X3141071Y-7437814D01*
X3441071Y-7437814D02*
X3269643Y-7437814D01*
X3355357Y-7437814D02*
X3355357Y-7137814D01*
X3326786Y-7180671D01*
X3298214Y-7209243D01*
X3269643Y-7223529D01*
X3555357Y-7166386D02*
X3569643Y-7152100D01*
X3598214Y-7137814D01*
X3669643Y-7137814D01*
X3698214Y-7152100D01*
X3712500Y-7166386D01*
X3726786Y-7194957D01*
X3726786Y-7223529D01*
X3712500Y-7266386D01*
X3541071Y-7437814D01*
X3726786Y-7437814D01*
X3983928Y-7137814D02*
X3926786Y-7137814D01*
X3898214Y-7152100D01*
X3883928Y-7166386D01*
X3855357Y-7209243D01*
X3841071Y-7266386D01*
X3841071Y-7380671D01*
X3855357Y-7409243D01*
X3869643Y-7423529D01*
X3898214Y-7437814D01*
X3955357Y-7437814D01*
X3983928Y-7423529D01*
X3998214Y-7409243D01*
X4012500Y-7380671D01*
X4012500Y-7309243D01*
X3998214Y-7280671D01*
X3983928Y-7266386D01*
X3955357Y-7252100D01*
X3898214Y-7252100D01*
X3869643Y-7266386D01*
X3855357Y-7280671D01*
X3841071Y-7309243D01*
X4126786Y-7137814D02*
X4126786Y-7194957D01*
X4241071Y-7137814D02*
X4241071Y-7194957D01*
X4683928Y-7552100D02*
X4669643Y-7537814D01*
X4641071Y-7494957D01*
X4626786Y-7466386D01*
X4612500Y-7423529D01*
X4598214Y-7352100D01*
X4598214Y-7294957D01*
X4612500Y-7223529D01*
X4626786Y-7180671D01*
X4641071Y-7152100D01*
X4669643Y-7109243D01*
X4683928Y-7094957D01*
X4926786Y-7237814D02*
X4926786Y-7437814D01*
X4855357Y-7123529D02*
X4783928Y-7337814D01*
X4969643Y-7337814D01*
X5312500Y-7437814D02*
X5312500Y-7137814D01*
X5441071Y-7437814D02*
X5441071Y-7280671D01*
X5426786Y-7252100D01*
X5398214Y-7237814D01*
X5355357Y-7237814D01*
X5326786Y-7252100D01*
X5312500Y-7266386D01*
X5626786Y-7437814D02*
X5598214Y-7423529D01*
X5583928Y-7409243D01*
X5569643Y-7380671D01*
X5569643Y-7294957D01*
X5583928Y-7266386D01*
X5598214Y-7252100D01*
X5626786Y-7237814D01*
X5669643Y-7237814D01*
X5698214Y-7252100D01*
X5712500Y-7266386D01*
X5726786Y-7294957D01*
X5726786Y-7380671D01*
X5712500Y-7409243D01*
X5698214Y-7423529D01*
X5669643Y-7437814D01*
X5626786Y-7437814D01*
X5898214Y-7437814D02*
X5869643Y-7423529D01*
X5855357Y-7394957D01*
X5855357Y-7137814D01*
X6126786Y-7423529D02*
X6098214Y-7437814D01*
X6041071Y-7437814D01*
X6012500Y-7423529D01*
X5998214Y-7394957D01*
X5998214Y-7280671D01*
X6012500Y-7252100D01*
X6041071Y-7237814D01*
X6098214Y-7237814D01*
X6126786Y-7252100D01*
X6141071Y-7280671D01*
X6141071Y-7309243D01*
X5998214Y-7337814D01*
X6255357Y-7423529D02*
X6283928Y-7437814D01*
X6341071Y-7437814D01*
X6369643Y-7423529D01*
X6383928Y-7394957D01*
X6383928Y-7380671D01*
X6369643Y-7352100D01*
X6341071Y-7337814D01*
X6298214Y-7337814D01*
X6269643Y-7323529D01*
X6255357Y-7294957D01*
X6255357Y-7280671D01*
X6269643Y-7252100D01*
X6298214Y-7237814D01*
X6341071Y-7237814D01*
X6369643Y-7252100D01*
X6483928Y-7552100D02*
X6498214Y-7537814D01*
X6526786Y-7494957D01*
X6541071Y-7466386D01*
X6555357Y-7423529D01*
X6569643Y-7352100D01*
X6569643Y-7294957D01*
X6555357Y-7223529D01*
X6541071Y-7180671D01*
X6526786Y-7152100D01*
X6498214Y-7109243D01*
X6483928Y-7094957D01*
X7026786Y-7552100D02*
X7012500Y-7537814D01*
X6983928Y-7494957D01*
X6969643Y-7466386D01*
X6955357Y-7423529D01*
X6941071Y-7352100D01*
X6941071Y-7294957D01*
X6955357Y-7223529D01*
X6969643Y-7180671D01*
X6983928Y-7152100D01*
X7012500Y-7109243D01*
X7026786Y-7094957D01*
X7141071Y-7237814D02*
X7141071Y-7437814D01*
X7141071Y-7266386D02*
X7155357Y-7252100D01*
X7183928Y-7237814D01*
X7226786Y-7237814D01*
X7255357Y-7252100D01*
X7269643Y-7280671D01*
X7269643Y-7437814D01*
X7455357Y-7437814D02*
X7426786Y-7423529D01*
X7412500Y-7409243D01*
X7398214Y-7380671D01*
X7398214Y-7294957D01*
X7412500Y-7266386D01*
X7426786Y-7252100D01*
X7455357Y-7237814D01*
X7498214Y-7237814D01*
X7526786Y-7252100D01*
X7541071Y-7266386D01*
X7555357Y-7294957D01*
X7555357Y-7380671D01*
X7541071Y-7409243D01*
X7526786Y-7423529D01*
X7498214Y-7437814D01*
X7455357Y-7437814D01*
X7641071Y-7237814D02*
X7755357Y-7237814D01*
X7683928Y-7137814D02*
X7683928Y-7394957D01*
X7698214Y-7423529D01*
X7726786Y-7437814D01*
X7755357Y-7437814D01*
X8083928Y-7237814D02*
X8083928Y-7537814D01*
X8083928Y-7252100D02*
X8112500Y-7237814D01*
X8169643Y-7237814D01*
X8198214Y-7252100D01*
X8212500Y-7266386D01*
X8226786Y-7294957D01*
X8226786Y-7380671D01*
X8212500Y-7409243D01*
X8198214Y-7423529D01*
X8169643Y-7437814D01*
X8112500Y-7437814D01*
X8083928Y-7423529D01*
X8398214Y-7437814D02*
X8369643Y-7423529D01*
X8355357Y-7394957D01*
X8355357Y-7137814D01*
X8641071Y-7437814D02*
X8641071Y-7280671D01*
X8626786Y-7252100D01*
X8598214Y-7237814D01*
X8541071Y-7237814D01*
X8512500Y-7252100D01*
X8641071Y-7423529D02*
X8612500Y-7437814D01*
X8541071Y-7437814D01*
X8512500Y-7423529D01*
X8498214Y-7394957D01*
X8498214Y-7366386D01*
X8512500Y-7337814D01*
X8541071Y-7323529D01*
X8612500Y-7323529D01*
X8641071Y-7309243D01*
X8741071Y-7237814D02*
X8855357Y-7237814D01*
X8783928Y-7137814D02*
X8783928Y-7394957D01*
X8798214Y-7423529D01*
X8826786Y-7437814D01*
X8855357Y-7437814D01*
X9069643Y-7423529D02*
X9041071Y-7437814D01*
X8983928Y-7437814D01*
X8955357Y-7423529D01*
X8941071Y-7394957D01*
X8941071Y-7280671D01*
X8955357Y-7252100D01*
X8983928Y-7237814D01*
X9041071Y-7237814D01*
X9069643Y-7252100D01*
X9083928Y-7280671D01*
X9083928Y-7309243D01*
X8941071Y-7337814D01*
X9341071Y-7437814D02*
X9341071Y-7137814D01*
X9341071Y-7423529D02*
X9312500Y-7437814D01*
X9255357Y-7437814D01*
X9226786Y-7423529D01*
X9212500Y-7409243D01*
X9198214Y-7380671D01*
X9198214Y-7294957D01*
X9212500Y-7266386D01*
X9226786Y-7252100D01*
X9255357Y-7237814D01*
X9312500Y-7237814D01*
X9341071Y-7252100D01*
X9455357Y-7552100D02*
X9469643Y-7537814D01*
X9498214Y-7494957D01*
X9512500Y-7466386D01*
X9526786Y-7423529D01*
X9541071Y-7352100D01*
X9541071Y-7294957D01*
X9526786Y-7223529D01*
X9512500Y-7180671D01*
X9498214Y-7152100D01*
X9469643Y-7109243D01*
X9455357Y-7094957D01*
M02*
