%FSLAX45Y45*%
G04 Gerber Fmt 4.5, Leading zero omitted, Abs format (unit mm)*
G04 Created by KiCad (PCBNEW 5.1.5-br-unknown-alt1.rc1) date 2025-11-25 07:02:07*
%MOMM*%
%LPD*%
G01*
G04 APERTURE LIST*
%TA.AperFunction,Profile*%
%ADD10C,0.050000*%
%TD*%
%ADD11C,0.200000*%
%ADD12C,0.300000*%
G04 APERTURE END LIST*
D10*
X0Y-5943600D02*
X0Y0D01*
X11176000Y-5943600D02*
X0Y-5943600D01*
X11176000Y0D02*
X11176000Y-5943600D01*
X0Y0D02*
X11176000Y0D01*
D11*
X665800Y-2647000D02*
X705800Y-2687000D01*
X705800Y-2647000D02*
X665800Y-2687000D01*
X665800Y-2824800D02*
X705800Y-2864800D01*
X705800Y-2824800D02*
X665800Y-2864800D01*
X716600Y-2926400D02*
X756600Y-2966400D01*
X756600Y-2926400D02*
X716600Y-2966400D01*
X716600Y-4323400D02*
X756600Y-4363400D01*
X756600Y-4323400D02*
X716600Y-4363400D01*
X742000Y-1808800D02*
X782000Y-1848800D01*
X782000Y-1808800D02*
X742000Y-1848800D01*
X742000Y-3053400D02*
X782000Y-3093400D01*
X782000Y-3053400D02*
X742000Y-3093400D01*
X767400Y-4425000D02*
X807400Y-4465000D01*
X807400Y-4425000D02*
X767400Y-4465000D01*
X818200Y-4094800D02*
X858200Y-4134800D01*
X858200Y-4094800D02*
X818200Y-4134800D01*
X857605Y-2990786D02*
X897605Y-3030786D01*
X897605Y-2990786D02*
X857605Y-3030786D01*
X928101Y-3064505D02*
X968101Y-3104505D01*
X968101Y-3064505D02*
X928101Y-3104505D01*
X970600Y-846799D02*
X1010600Y-886799D01*
X1010600Y-846799D02*
X970600Y-886799D01*
X1310071Y-4867710D02*
X1350071Y-4907710D01*
X1350071Y-4867710D02*
X1310071Y-4907710D01*
X1446122Y-4945719D02*
X1486122Y-4985719D01*
X1486122Y-4945719D02*
X1446122Y-4985719D01*
X1478600Y-2012000D02*
X1518600Y-2052000D01*
X1518600Y-2012000D02*
X1478600Y-2052000D01*
X1529400Y-1427800D02*
X1569400Y-1467800D01*
X1569400Y-1427800D02*
X1529400Y-1467800D01*
X1529450Y-5169972D02*
X1569450Y-5209972D01*
X1569450Y-5169972D02*
X1529450Y-5209972D01*
X1534999Y-5068122D02*
X1574999Y-5108122D01*
X1574999Y-5068122D02*
X1534999Y-5108122D01*
X1605600Y-3409000D02*
X1645600Y-3449000D01*
X1645600Y-3409000D02*
X1605600Y-3449000D01*
X1664282Y-3325571D02*
X1704282Y-3365571D01*
X1704282Y-3325571D02*
X1664282Y-3365571D01*
X1783400Y-1173800D02*
X1823400Y-1213800D01*
X1823400Y-1173800D02*
X1783400Y-1213800D01*
X1834200Y-4552000D02*
X1874200Y-4592000D01*
X1874200Y-4552000D02*
X1834200Y-4592000D01*
X1868203Y-4936900D02*
X1908203Y-4976900D01*
X1908203Y-4936900D02*
X1868203Y-4976900D01*
X1917600Y-3307400D02*
X1957600Y-3347400D01*
X1957600Y-3307400D02*
X1917600Y-3347400D01*
X1935800Y-3485200D02*
X1975800Y-3525200D01*
X1975800Y-3485200D02*
X1935800Y-3525200D01*
X1935800Y-3967800D02*
X1975800Y-4007800D01*
X1975800Y-3967800D02*
X1935800Y-4007800D01*
X1961200Y-2469200D02*
X2001200Y-2509200D01*
X2001200Y-2469200D02*
X1961200Y-2509200D01*
X1961200Y-4806000D02*
X2001200Y-4846000D01*
X2001200Y-4806000D02*
X1961200Y-4846000D01*
X2006653Y-1891899D02*
X2046653Y-1931899D01*
X2046653Y-1891899D02*
X2006653Y-1931899D01*
X2059601Y-3034176D02*
X2099601Y-3074176D01*
X2099601Y-3034176D02*
X2059601Y-3074176D01*
X2062318Y-4844791D02*
X2102318Y-4884791D01*
X2102318Y-4844791D02*
X2062318Y-4884791D01*
X2062800Y-2240600D02*
X2102800Y-2280600D01*
X2102800Y-2240600D02*
X2062800Y-2280600D01*
X2068530Y-2719109D02*
X2108530Y-2759109D01*
X2108530Y-2719109D02*
X2068530Y-2759109D01*
X2088200Y-2596200D02*
X2128200Y-2636200D01*
X2128200Y-2596200D02*
X2088200Y-2636200D01*
X2103602Y-3158200D02*
X2143602Y-3198200D01*
X2143602Y-3158200D02*
X2103602Y-3198200D01*
X2113600Y-1885000D02*
X2153600Y-1925000D01*
X2153600Y-1885000D02*
X2113600Y-1925000D01*
X2167337Y-2778421D02*
X2207337Y-2818421D01*
X2207337Y-2778421D02*
X2167337Y-2818421D01*
X2182131Y-3223296D02*
X2222131Y-3263296D01*
X2222131Y-3223296D02*
X2182131Y-3263296D01*
X2259934Y-3127609D02*
X2299934Y-3167609D01*
X2299934Y-3127609D02*
X2259934Y-3167609D01*
X2290581Y-3613019D02*
X2330581Y-3653019D01*
X2330581Y-3613019D02*
X2290581Y-3653019D01*
X2291400Y-3256600D02*
X2331400Y-3296600D01*
X2331400Y-3256600D02*
X2291400Y-3296600D01*
X2292219Y-2874781D02*
X2332219Y-2914781D01*
X2332219Y-2874781D02*
X2292219Y-2914781D01*
X2367599Y-2418400D02*
X2407599Y-2458400D01*
X2407599Y-2418400D02*
X2367599Y-2458400D01*
X2393000Y-5593400D02*
X2433000Y-5633400D01*
X2433000Y-5593400D02*
X2393000Y-5633400D01*
X2404881Y-1415919D02*
X2444881Y-1455919D01*
X2444881Y-1415919D02*
X2404881Y-1455919D01*
X2493781Y-2315981D02*
X2533781Y-2355981D01*
X2533781Y-2315981D02*
X2493781Y-2355981D01*
X2493781Y-2773181D02*
X2533781Y-2813181D01*
X2533781Y-2773181D02*
X2493781Y-2813181D01*
X2519325Y-5394425D02*
X2559325Y-5434425D01*
X2559325Y-5394425D02*
X2519325Y-5434425D01*
X2575413Y-5309229D02*
X2615413Y-5349229D01*
X2615413Y-5309229D02*
X2575413Y-5349229D01*
X2621600Y-2824800D02*
X2661600Y-2864800D01*
X2661600Y-2824800D02*
X2621600Y-2864800D01*
X2621600Y-5187000D02*
X2661600Y-5227000D01*
X2661600Y-5187000D02*
X2621600Y-5227000D01*
X2769401Y-2464601D02*
X2809401Y-2504601D01*
X2809401Y-2464601D02*
X2769401Y-2504601D01*
X2773181Y-1936619D02*
X2813181Y-1976619D01*
X2813181Y-1936619D02*
X2773181Y-1976619D01*
X2798581Y-2063619D02*
X2838581Y-2103619D01*
X2838581Y-2063619D02*
X2798581Y-2103619D01*
X2800219Y-1757181D02*
X2840219Y-1797181D01*
X2840219Y-1757181D02*
X2800219Y-1797181D01*
X2824800Y-5466400D02*
X2864800Y-5506400D01*
X2864800Y-5466400D02*
X2824800Y-5506400D01*
X2875600Y-1554800D02*
X2915600Y-1594800D01*
X2915600Y-1554800D02*
X2875600Y-1594800D01*
X2901000Y-1224600D02*
X2941000Y-1264600D01*
X2941000Y-1224600D02*
X2901000Y-1264600D01*
X2926400Y-1427800D02*
X2966400Y-1467800D01*
X2966400Y-1427800D02*
X2926400Y-1467800D01*
X2926400Y-5390200D02*
X2966400Y-5430200D01*
X2966400Y-5390200D02*
X2926400Y-5430200D01*
X2945284Y-5646050D02*
X2985284Y-5686050D01*
X2985284Y-5646050D02*
X2945284Y-5686050D01*
X2982980Y-5551270D02*
X3022980Y-5591270D01*
X3022980Y-5551270D02*
X2982980Y-5591270D01*
X3028000Y-3766403D02*
X3068000Y-3806403D01*
X3068000Y-3766403D02*
X3028000Y-3806403D01*
X3078800Y-1300800D02*
X3118800Y-1340800D01*
X3118800Y-1300800D02*
X3078800Y-1340800D01*
X3104200Y-2672400D02*
X3144200Y-2712400D01*
X3144200Y-2672400D02*
X3104200Y-2712400D01*
X3129600Y-2215200D02*
X3169600Y-2255200D01*
X3169600Y-2215200D02*
X3129600Y-2255200D01*
X3155000Y-1888200D02*
X3195000Y-1928200D01*
X3195000Y-1888200D02*
X3155000Y-1928200D01*
X3231200Y-564200D02*
X3271200Y-604200D01*
X3271200Y-564200D02*
X3231200Y-604200D01*
X3282000Y-44500D02*
X3322000Y-84500D01*
X3322000Y-44500D02*
X3282000Y-84500D01*
X3285200Y-4475800D02*
X3325200Y-4515800D01*
X3325200Y-4475800D02*
X3285200Y-4515800D01*
X3332800Y-4679000D02*
X3372800Y-4719000D01*
X3372800Y-4679000D02*
X3332800Y-4719000D01*
X3383600Y-2723200D02*
X3423600Y-2763200D01*
X3423600Y-2723200D02*
X3383600Y-2763200D01*
X3409000Y-4602800D02*
X3449000Y-4642800D01*
X3449000Y-4602800D02*
X3409000Y-4642800D01*
X3510600Y-4983800D02*
X3550600Y-5023800D01*
X3550600Y-4983800D02*
X3510600Y-5023800D01*
X3586800Y-4653600D02*
X3626800Y-4693600D01*
X3626800Y-4653600D02*
X3586800Y-4693600D01*
X3612200Y-5034600D02*
X3652200Y-5074600D01*
X3652200Y-5034600D02*
X3612200Y-5074600D01*
X3677600Y-4562800D02*
X3717600Y-4602800D01*
X3717600Y-4562800D02*
X3677600Y-4602800D01*
X3764600Y-4653600D02*
X3804600Y-4693600D01*
X3804600Y-4653600D02*
X3764600Y-4693600D01*
X3790000Y-1300800D02*
X3830000Y-1340800D01*
X3830000Y-1300800D02*
X3790000Y-1340800D01*
X3852681Y-5300482D02*
X3892681Y-5340482D01*
X3892681Y-5300482D02*
X3852681Y-5340482D01*
X4007800Y-2916333D02*
X4047800Y-2956333D01*
X4047800Y-2916333D02*
X4007800Y-2956333D01*
X4066201Y-1456175D02*
X4106201Y-1496175D01*
X4106201Y-1456175D02*
X4066201Y-1496175D01*
X4171000Y-1681800D02*
X4211000Y-1721800D01*
X4211000Y-1681800D02*
X4171000Y-1721800D01*
X4192885Y-1889992D02*
X4232885Y-1929992D01*
X4232885Y-1889992D02*
X4192885Y-1929992D01*
X4196400Y-5110800D02*
X4236400Y-5150800D01*
X4236400Y-5110800D02*
X4196400Y-5150800D01*
X4229565Y-2594439D02*
X4269565Y-2634439D01*
X4269565Y-2594439D02*
X4229565Y-2634439D01*
X4254919Y-1809022D02*
X4294919Y-1849022D01*
X4294919Y-1809022D02*
X4254919Y-1849022D01*
X4281781Y-4983800D02*
X4321781Y-5023800D01*
X4321781Y-4983800D02*
X4281781Y-5023800D01*
X4298000Y-3917000D02*
X4338000Y-3957000D01*
X4338000Y-3917000D02*
X4298000Y-3957000D01*
X4302565Y-2772573D02*
X4342565Y-2812573D01*
X4342565Y-2772573D02*
X4302565Y-2812573D01*
X4325204Y-1173800D02*
X4365204Y-1213800D01*
X4365204Y-1173800D02*
X4325204Y-1213800D01*
X4348800Y-818200D02*
X4388800Y-858200D01*
X4388800Y-818200D02*
X4348800Y-858200D01*
X4348800Y-4196400D02*
X4388800Y-4236400D01*
X4388800Y-4196400D02*
X4348800Y-4236400D01*
X4374200Y-5187000D02*
X4414200Y-5227000D01*
X4414200Y-5187000D02*
X4374200Y-5227000D01*
X4375565Y-2393000D02*
X4415565Y-2433000D01*
X4415565Y-2393000D02*
X4375565Y-2433000D01*
X4394340Y-1041540D02*
X4434340Y-1081540D01*
X4434340Y-1041540D02*
X4394340Y-1081540D01*
X4399600Y-4044000D02*
X4439600Y-4084000D01*
X4439600Y-4044000D02*
X4399600Y-4084000D01*
X4399600Y-4983800D02*
X4439600Y-5023800D01*
X4439600Y-4983800D02*
X4399600Y-5023800D01*
X4418183Y-2526817D02*
X4458183Y-2566817D01*
X4458183Y-2526817D02*
X4418183Y-2566817D01*
X4476619Y-2366781D02*
X4516619Y-2406781D01*
X4516619Y-2366781D02*
X4476619Y-2406781D01*
X4532985Y-2281770D02*
X4572985Y-2321770D01*
X4572985Y-2281770D02*
X4532985Y-2321770D01*
X4564706Y-2584359D02*
X4604706Y-2624359D01*
X4604706Y-2584359D02*
X4564706Y-2624359D01*
X4577400Y-1023947D02*
X4617400Y-1063947D01*
X4617400Y-1023947D02*
X4577400Y-1063947D01*
X4603516Y-3522949D02*
X4643516Y-3562949D01*
X4643516Y-3522949D02*
X4603516Y-3562949D01*
X4647210Y-1262919D02*
X4687210Y-1302919D01*
X4687210Y-1262919D02*
X4647210Y-1302919D01*
X4661848Y-2550218D02*
X4701848Y-2590218D01*
X4701848Y-2550218D02*
X4661848Y-2590218D01*
X4665481Y-2277881D02*
X4705481Y-2317881D01*
X4705481Y-2277881D02*
X4665481Y-2317881D01*
X4700250Y-2696141D02*
X4740250Y-2736141D01*
X4740250Y-2696141D02*
X4700250Y-2736141D01*
X4703580Y-1018201D02*
X4743580Y-1058201D01*
X4743580Y-1018201D02*
X4703580Y-1058201D01*
X4729800Y-597799D02*
X4769800Y-637799D01*
X4769800Y-597799D02*
X4729800Y-637799D01*
X4729800Y-2799801D02*
X4769800Y-2839801D01*
X4769800Y-2799801D02*
X4729800Y-2839801D01*
X4780600Y-865800D02*
X4820600Y-905800D01*
X4820600Y-865800D02*
X4780600Y-905800D01*
X4795281Y-2890281D02*
X4835281Y-2930281D01*
X4835281Y-2890281D02*
X4795281Y-2930281D01*
X4810964Y-1208203D02*
X4850964Y-1248203D01*
X4850964Y-1208203D02*
X4810964Y-1248203D01*
X4814670Y-2615820D02*
X4854670Y-2655820D01*
X4854670Y-2615820D02*
X4814670Y-2655820D01*
X4829151Y-1018201D02*
X4869151Y-1058201D01*
X4869151Y-1018201D02*
X4829151Y-1058201D01*
X4882200Y-4628200D02*
X4922200Y-4668200D01*
X4922200Y-4628200D02*
X4882200Y-4668200D01*
X4882200Y-5012399D02*
X4922200Y-5052399D01*
X4922200Y-5012399D02*
X4882200Y-5052399D01*
X4904030Y-4504081D02*
X4944030Y-4544081D01*
X4944030Y-4504081D02*
X4904030Y-4544081D01*
X4963503Y-1280970D02*
X5003503Y-1320970D01*
X5003503Y-1280970D02*
X4963503Y-1320970D01*
X4972856Y-4128763D02*
X5012856Y-4168763D01*
X5012856Y-4128763D02*
X4972856Y-4168763D01*
X4982448Y-4235108D02*
X5022448Y-4275108D01*
X5022448Y-4235108D02*
X4982448Y-4275108D01*
X4983530Y-4337266D02*
X5023530Y-4377266D01*
X5023530Y-4337266D02*
X4983530Y-4377266D01*
X4983677Y-4440358D02*
X5023677Y-4480358D01*
X5023677Y-4440358D02*
X4983677Y-4480358D01*
X5000530Y-4710180D02*
X5040530Y-4750180D01*
X5040530Y-4710180D02*
X5000530Y-4750180D01*
X5001200Y-1688572D02*
X5041200Y-1728572D01*
X5041200Y-1688572D02*
X5001200Y-1728572D01*
X5034600Y-5060000D02*
X5074600Y-5100000D01*
X5074600Y-5060000D02*
X5034600Y-5100000D01*
X5043636Y-872200D02*
X5083636Y-912200D01*
X5083636Y-872200D02*
X5043636Y-912200D01*
X5060000Y-5161600D02*
X5100000Y-5201600D01*
X5100000Y-5161600D02*
X5060000Y-5201600D01*
X5061234Y-1310175D02*
X5101234Y-1350175D01*
X5101234Y-1310175D02*
X5061234Y-1350175D01*
X5085400Y-4653600D02*
X5125400Y-4693600D01*
X5125400Y-4653600D02*
X5085400Y-4693600D01*
X5086219Y-4957581D02*
X5126219Y-4997581D01*
X5126219Y-4957581D02*
X5086219Y-4997581D01*
X5109980Y-1715803D02*
X5149980Y-1755803D01*
X5149980Y-1715803D02*
X5109980Y-1755803D01*
X5158616Y-3866200D02*
X5198616Y-3906200D01*
X5198616Y-3866200D02*
X5158616Y-3906200D01*
X5161610Y-3968157D02*
X5201610Y-4008157D01*
X5201610Y-3968157D02*
X5161610Y-4008157D01*
X5193399Y-827901D02*
X5233399Y-867901D01*
X5233399Y-827901D02*
X5193399Y-867901D01*
X5209200Y-3024483D02*
X5249200Y-3064483D01*
X5249200Y-3024483D02*
X5209200Y-3064483D01*
X5209645Y-598055D02*
X5249645Y-638055D01*
X5249645Y-598055D02*
X5209645Y-638055D01*
X5225416Y-3125186D02*
X5265416Y-3165186D01*
X5265416Y-3125186D02*
X5225416Y-3165186D01*
X5225919Y-3243081D02*
X5265919Y-3283081D01*
X5265919Y-3243081D02*
X5225919Y-3283081D01*
X5263200Y-4907600D02*
X5303200Y-4947600D01*
X5303200Y-4907600D02*
X5263200Y-4947600D01*
X5278454Y-1945290D02*
X5318454Y-1985290D01*
X5318454Y-1945290D02*
X5278454Y-1985290D01*
X5339400Y-843600D02*
X5379400Y-883600D01*
X5379400Y-843600D02*
X5339400Y-883600D01*
X5339400Y-5110800D02*
X5379400Y-5150800D01*
X5379400Y-5110800D02*
X5339400Y-5150800D01*
X5415600Y-1605600D02*
X5455600Y-1645600D01*
X5455600Y-1605600D02*
X5415600Y-1645600D01*
X5441000Y-2062800D02*
X5481000Y-2102800D01*
X5481000Y-2062800D02*
X5441000Y-2102800D01*
X5467220Y-1962020D02*
X5507220Y-2002020D01*
X5507220Y-1962020D02*
X5467220Y-2002020D01*
X5568000Y-1504000D02*
X5608000Y-1544000D01*
X5608000Y-1504000D02*
X5568000Y-1544000D01*
X5656901Y-1950138D02*
X5696901Y-1990138D01*
X5696901Y-1950138D02*
X5656901Y-1990138D01*
X5669600Y-4348800D02*
X5709600Y-4388800D01*
X5709600Y-4348800D02*
X5669600Y-4388800D01*
X5720400Y-1554800D02*
X5760400Y-1594800D01*
X5760400Y-1554800D02*
X5720400Y-1594800D01*
X5745800Y-4777400D02*
X5785800Y-4817400D01*
X5785800Y-4777400D02*
X5745800Y-4817400D01*
X5760139Y-1950139D02*
X5800139Y-1990139D01*
X5800139Y-1950139D02*
X5760139Y-1990139D01*
X5767419Y-4119625D02*
X5807419Y-4159625D01*
X5807419Y-4119625D02*
X5767419Y-4159625D01*
X5770920Y-4221566D02*
X5810920Y-4261566D01*
X5810920Y-4221566D02*
X5770920Y-4261566D01*
X5772940Y-4323547D02*
X5812940Y-4363547D01*
X5812940Y-4323547D02*
X5772940Y-4363547D01*
X5849039Y-1861239D02*
X5889039Y-1901239D01*
X5889039Y-1861239D02*
X5849039Y-1901239D01*
X5885430Y-3207560D02*
X5925430Y-3247560D01*
X5925430Y-3207560D02*
X5885430Y-3247560D01*
X5949000Y-2697800D02*
X5989000Y-2737800D01*
X5989000Y-2697800D02*
X5949000Y-2737800D01*
X5986280Y-3192280D02*
X6026280Y-3232280D01*
X6026280Y-3192280D02*
X5986280Y-3232280D01*
X6101400Y-3435477D02*
X6141400Y-3475477D01*
X6141400Y-3435477D02*
X6101400Y-3475477D01*
X6145425Y-3783666D02*
X6185425Y-3823666D01*
X6185425Y-3783666D02*
X6145425Y-3823666D01*
X6228400Y-3078800D02*
X6268400Y-3118800D01*
X6268400Y-3078800D02*
X6228400Y-3118800D01*
X6238391Y-4416880D02*
X6278391Y-4456880D01*
X6278391Y-4416880D02*
X6238391Y-4456880D01*
X6253800Y-4221800D02*
X6293800Y-4261800D01*
X6293800Y-4221800D02*
X6253800Y-4261800D01*
X6253800Y-4780600D02*
X6293800Y-4820600D01*
X6293800Y-4780600D02*
X6253800Y-4820600D01*
X6263799Y-4018200D02*
X6303799Y-4058200D01*
X6303799Y-4018200D02*
X6263799Y-4058200D01*
X6263799Y-4120200D02*
X6303799Y-4160200D01*
X6303799Y-4120200D02*
X6263799Y-4160200D01*
X6279201Y-4323399D02*
X6319201Y-4363399D01*
X6319201Y-4323399D02*
X6279201Y-4363399D01*
X6334834Y-3913801D02*
X6374834Y-3953801D01*
X6374834Y-3913801D02*
X6334834Y-3953801D01*
X6380800Y-3434400D02*
X6420800Y-3474400D01*
X6420800Y-3434400D02*
X6380800Y-3474400D01*
X6432652Y-3942711D02*
X6472652Y-3982711D01*
X6472652Y-3942711D02*
X6432652Y-3982711D01*
X6507800Y-2875600D02*
X6547800Y-2915600D01*
X6547800Y-2875600D02*
X6507800Y-2915600D01*
X6533200Y-3180400D02*
X6573200Y-3220400D01*
X6573200Y-3180400D02*
X6533200Y-3220400D01*
X6573933Y-1602401D02*
X6613933Y-1642401D01*
X6613933Y-1602401D02*
X6573933Y-1642401D01*
X6580800Y-2418400D02*
X6620800Y-2458400D01*
X6620800Y-2418400D02*
X6580800Y-2458400D01*
X6584000Y-2647000D02*
X6624000Y-2687000D01*
X6624000Y-2647000D02*
X6584000Y-2687000D01*
X6677500Y-2768101D02*
X6717500Y-2808101D01*
X6717500Y-2768101D02*
X6677500Y-2808101D01*
X6755440Y-2833901D02*
X6795440Y-2873901D01*
X6795440Y-2833901D02*
X6755440Y-2873901D01*
X6853319Y-2757748D02*
X6893319Y-2797748D01*
X6893319Y-2757748D02*
X6853319Y-2797748D01*
X6948203Y-2494600D02*
X6988203Y-2534600D01*
X6988203Y-2494600D02*
X6948203Y-2534600D01*
X6948203Y-2621600D02*
X6988203Y-2661600D01*
X6988203Y-2621600D02*
X6948203Y-2661600D01*
X6957753Y-4453599D02*
X6997753Y-4493599D01*
X6997753Y-4453599D02*
X6957753Y-4493599D01*
X6965000Y-3180400D02*
X7005000Y-3220400D01*
X7005000Y-3180400D02*
X6965000Y-3220400D01*
X6965000Y-4806000D02*
X7005000Y-4846000D01*
X7005000Y-4806000D02*
X6965000Y-4846000D01*
X7062401Y-4425000D02*
X7102401Y-4465000D01*
X7102401Y-4425000D02*
X7062401Y-4465000D01*
X7092000Y-1656400D02*
X7132000Y-1696400D01*
X7132000Y-1656400D02*
X7092000Y-1696400D01*
X7141970Y-3230370D02*
X7181970Y-3270370D01*
X7181970Y-3230370D02*
X7141970Y-3270370D01*
X7142800Y-3612200D02*
X7182800Y-3652200D01*
X7182800Y-3612200D02*
X7142800Y-3652200D01*
X7164400Y-4300162D02*
X7204400Y-4340162D01*
X7204400Y-4300162D02*
X7164400Y-4340162D01*
X7168200Y-1532600D02*
X7208200Y-1572600D01*
X7208200Y-1532600D02*
X7168200Y-1572600D01*
X7193600Y-3510600D02*
X7233600Y-3550600D01*
X7233600Y-3510600D02*
X7193600Y-3550600D01*
X7269800Y-4755200D02*
X7309800Y-4795200D01*
X7309800Y-4755200D02*
X7269800Y-4795200D01*
X7269800Y-3231200D02*
X7309800Y-3271200D01*
X7309800Y-3231200D02*
X7269800Y-3271200D01*
X7273263Y-3756140D02*
X7313263Y-3796140D01*
X7313263Y-3756140D02*
X7273263Y-3796140D01*
X7284922Y-3990143D02*
X7324922Y-4030143D01*
X7324922Y-3990143D02*
X7284922Y-4030143D01*
X7335339Y-3675202D02*
X7375339Y-3715202D01*
X7375339Y-3675202D02*
X7335339Y-3715202D01*
X7346000Y-3485200D02*
X7386000Y-3525200D01*
X7386000Y-3485200D02*
X7346000Y-3525200D01*
X7371400Y-1498697D02*
X7411400Y-1538697D01*
X7411400Y-1498697D02*
X7371400Y-1538697D01*
X7371400Y-3205800D02*
X7411400Y-3245800D01*
X7411400Y-3205800D02*
X7371400Y-3245800D01*
X7376295Y-4734695D02*
X7416295Y-4774695D01*
X7416295Y-4734695D02*
X7376295Y-4774695D01*
X7406025Y-3980012D02*
X7446025Y-4020012D01*
X7446025Y-3980012D02*
X7406025Y-4020012D01*
X7469912Y-3634794D02*
X7509912Y-3674794D01*
X7509912Y-3634794D02*
X7469912Y-3674794D01*
X7507007Y-3218369D02*
X7547007Y-3258369D01*
X7547007Y-3218369D02*
X7507007Y-3258369D01*
X7525397Y-2846221D02*
X7565397Y-2886221D01*
X7565397Y-2846221D02*
X7525397Y-2886221D01*
X7549200Y-3431201D02*
X7589200Y-3471201D01*
X7589200Y-3431201D02*
X7549200Y-3471201D01*
X7727000Y-3409000D02*
X7767000Y-3449000D01*
X7767000Y-3409000D02*
X7727000Y-3449000D01*
X7828600Y-2240600D02*
X7868600Y-2280600D01*
X7868600Y-2240600D02*
X7828600Y-2280600D01*
X7828600Y-2672400D02*
X7868600Y-2712400D01*
X7868600Y-2672400D02*
X7828600Y-2712400D01*
X8072897Y-2434097D02*
X8112897Y-2474097D01*
X8112897Y-2434097D02*
X8072897Y-2474097D01*
X8133400Y-4856800D02*
X8173400Y-4896800D01*
X8173400Y-4856800D02*
X8133400Y-4896800D01*
X8412800Y-2596200D02*
X8452800Y-2636200D01*
X8452800Y-2596200D02*
X8412800Y-2636200D01*
X9327200Y-1885000D02*
X9367200Y-1925000D01*
X9367200Y-1885000D02*
X9327200Y-1925000D01*
X9352600Y-1631000D02*
X9392600Y-1671000D01*
X9392600Y-1631000D02*
X9352600Y-1671000D01*
X9403400Y-2113600D02*
X9443400Y-2153600D01*
X9443400Y-2113600D02*
X9403400Y-2153600D01*
X9428800Y-2316800D02*
X9468800Y-2356800D01*
X9468800Y-2316800D02*
X9428800Y-2356800D01*
X9530400Y-4094800D02*
X9570400Y-4134800D01*
X9570400Y-4094800D02*
X9530400Y-4134800D01*
X9530400Y-4221800D02*
X9570400Y-4261800D01*
X9570400Y-4221800D02*
X9530400Y-4261800D01*
X10267000Y-3917000D02*
X10307000Y-3957000D01*
X10307000Y-3917000D02*
X10267000Y-3957000D01*
X10267000Y-4374200D02*
X10307000Y-4414200D01*
X10307000Y-4374200D02*
X10267000Y-4414200D01*
X11054400Y-4933000D02*
X11094400Y-4973000D01*
X11094400Y-4933000D02*
X11054400Y-4973000D01*
X893600Y-3403600D02*
G75*
G03*
X893600Y-3403600I-30000J0D01*
G01*
X944400Y-4724400D02*
G75*
G03*
X944400Y-4724400I-30000J0D01*
G01*
X1173000Y-1219200D02*
G75*
G03*
X1173000Y-1219200I-30000J0D01*
G01*
X1178000Y-3302000D02*
G75*
G03*
X1178000Y-3302000I-30000J0D01*
G01*
X1274600Y-2286000D02*
G75*
G03*
X1274600Y-2286000I-30000J0D01*
G01*
X1421539Y-4408261D02*
G75*
G03*
X1421539Y-4408261I-30000J0D01*
G01*
X1541600Y-3823000D02*
G75*
G03*
X1541600Y-3823000I-30000J0D01*
G01*
X1554000Y-2336800D02*
G75*
G03*
X1554000Y-2336800I-30000J0D01*
G01*
X1655600Y-2463800D02*
G75*
G03*
X1655600Y-2463800I-30000J0D01*
G01*
X1681000Y-2082800D02*
G75*
G03*
X1681000Y-2082800I-30000J0D01*
G01*
X1684002Y-3628399D02*
G75*
G03*
X1684002Y-3628399I-30000J0D01*
G01*
X1782600Y-5435600D02*
G75*
G03*
X1782600Y-5435600I-30000J0D01*
G01*
X2004799Y-2108200D02*
G75*
G03*
X2004799Y-2108200I-30000J0D01*
G01*
X2036600Y-965200D02*
G75*
G03*
X2036600Y-965200I-30000J0D01*
G01*
X2036600Y-1447800D02*
G75*
G03*
X2036600Y-1447800I-30000J0D01*
G01*
X2087400Y-5638800D02*
G75*
G03*
X2087400Y-5638800I-30000J0D01*
G01*
X2112800Y-5340401D02*
G75*
G03*
X2112800Y-5340401I-30000J0D01*
G01*
X2503384Y-1692551D02*
G75*
G03*
X2503384Y-1692551I-30000J0D01*
G01*
X2798600Y-4775200D02*
G75*
G03*
X2798600Y-4775200I-30000J0D01*
G01*
X2862387Y-5065934D02*
G75*
G03*
X2862387Y-5065934I-30000J0D01*
G01*
X3205000Y-3200400D02*
G75*
G03*
X3205000Y-3200400I-30000J0D01*
G01*
X3967000Y-4445000D02*
G75*
G03*
X3967000Y-4445000I-30000J0D01*
G01*
X3967000Y-4826000D02*
G75*
G03*
X3967000Y-4826000I-30000J0D01*
G01*
X4094000Y-2489200D02*
G75*
G03*
X4094000Y-2489200I-30000J0D01*
G01*
X4144800Y-3022600D02*
G75*
G03*
X4144800Y-3022600I-30000J0D01*
G01*
X4401350Y-4650750D02*
G75*
G03*
X4401350Y-4650750I-30000J0D01*
G01*
X4449600Y-3048000D02*
G75*
G03*
X4449600Y-3048000I-30000J0D01*
G01*
X4449600Y-3378200D02*
G75*
G03*
X4449600Y-3378200I-30000J0D01*
G01*
X4627400Y-3225800D02*
G75*
G03*
X4627400Y-3225800I-30000J0D01*
G01*
X4881400Y-3479800D02*
G75*
G03*
X4881400Y-3479800I-30000J0D01*
G01*
X5110000Y-3505200D02*
G75*
G03*
X5110000Y-3505200I-30000J0D01*
G01*
X5211600Y-2387600D02*
G75*
G03*
X5211600Y-2387600I-30000J0D01*
G01*
X5242390Y-2541551D02*
G75*
G03*
X5242390Y-2541551I-30000J0D01*
G01*
X5338600Y-4445000D02*
G75*
G03*
X5338600Y-4445000I-30000J0D01*
G01*
X5575800Y-5173000D02*
G75*
G03*
X5575800Y-5173000I-30000J0D01*
G01*
X5903307Y-4435337D02*
G75*
G03*
X5903307Y-4435337I-30000J0D01*
G01*
X6100599Y-4445000D02*
G75*
G03*
X6100599Y-4445000I-30000J0D01*
G01*
X6303800Y-5257800D02*
G75*
G03*
X6303800Y-5257800I-30000J0D01*
G01*
X6583200Y-5545150D02*
G75*
G03*
X6583200Y-5545150I-30000J0D01*
G01*
X6735600Y-2082800D02*
G75*
G03*
X6735600Y-2082800I-30000J0D01*
G01*
X6964200Y-1625600D02*
G75*
G03*
X6964200Y-1625600I-30000J0D01*
G01*
X7192800Y-2413000D02*
G75*
G03*
X7192800Y-2413000I-30000J0D01*
G01*
X7446800Y-4597400D02*
G75*
G03*
X7446800Y-4597400I-30000J0D01*
G01*
X7472200Y-2558999D02*
G75*
G03*
X7472200Y-2558999I-30000J0D01*
G01*
X7700800Y-4851400D02*
G75*
G03*
X7700800Y-4851400I-30000J0D01*
G01*
X7726200Y-5746800D02*
G75*
G03*
X7726200Y-5746800I-30000J0D01*
G01*
X7777000Y-5334000D02*
G75*
G03*
X7777000Y-5334000I-30000J0D01*
G01*
X7961200Y-4597400D02*
G75*
G03*
X7961200Y-4597400I-30000J0D01*
G01*
X8056400Y-1549400D02*
G75*
G03*
X8056400Y-1549400I-30000J0D01*
G01*
X8488200Y-939800D02*
G75*
G03*
X8488200Y-939800I-30000J0D01*
G01*
X8488200Y-2311400D02*
G75*
G03*
X8488200Y-2311400I-30000J0D01*
G01*
X8492638Y-1544962D02*
G75*
G03*
X8492638Y-1544962I-30000J0D01*
G01*
X8691400Y-4394200D02*
G75*
G03*
X8691400Y-4394200I-30000J0D01*
G01*
X9072400Y-4927600D02*
G75*
G03*
X9072400Y-4927600I-30000J0D01*
G01*
X9986800Y-4927600D02*
G75*
G03*
X9986800Y-4927600I-30000J0D01*
G01*
X10581200Y-3733600D02*
G75*
G03*
X10581200Y-3733600I-30000J0D01*
G01*
X10606200Y-3713600D02*
X10496200Y-3713600D01*
X10606200Y-3753600D02*
X10496200Y-3753600D01*
X10496200Y-3713600D02*
G75*
G03*
X10496200Y-3753600I0J-20000D01*
G01*
X10606200Y-3753600D02*
G75*
G03*
X10606200Y-3713600I0J20000D01*
G01*
X10581200Y-4597600D02*
G75*
G03*
X10581200Y-4597600I-30000J0D01*
G01*
X10606200Y-4577600D02*
X10496200Y-4577600D01*
X10606200Y-4617600D02*
X10496200Y-4617600D01*
X10496200Y-4577600D02*
G75*
G03*
X10496200Y-4617600I0J-20000D01*
G01*
X10606200Y-4617600D02*
G75*
G03*
X10606200Y-4577600I0J20000D01*
G01*
X10998200Y-3733600D02*
G75*
G03*
X10998200Y-3733600I-30000J0D01*
G01*
X11008200Y-3713600D02*
X10928200Y-3713600D01*
X11008200Y-3753600D02*
X10928200Y-3753600D01*
X10928200Y-3713600D02*
G75*
G03*
X10928200Y-3753600I0J-20000D01*
G01*
X11008200Y-3753600D02*
G75*
G03*
X11008200Y-3713600I0J20000D01*
G01*
X10998200Y-4597600D02*
G75*
G03*
X10998200Y-4597600I-30000J0D01*
G01*
X11008200Y-4577600D02*
X10928200Y-4577600D01*
X11008200Y-4617600D02*
X10928200Y-4617600D01*
X10928200Y-4577600D02*
G75*
G03*
X10928200Y-4617600I0J-20000D01*
G01*
X11008200Y-4617600D02*
G75*
G03*
X11008200Y-4577600I0J20000D01*
G01*
X2489200Y-1943100D02*
X2489200Y-2019300D01*
X2451100Y-1981200D02*
X2527300Y-1981200D01*
X2511100Y-1953100D02*
X2467300Y-1953100D01*
X2511100Y-2009300D02*
X2467300Y-2009300D01*
X2467300Y-1953100D02*
G75*
G03*
X2467300Y-2009300I0J-28100D01*
G01*
X2511100Y-2009300D02*
G75*
G03*
X2511100Y-1953100I0J28100D01*
G01*
X2489200Y-2603500D02*
X2489200Y-2679700D01*
X2451100Y-2641600D02*
X2527300Y-2641600D01*
X2511100Y-2613500D02*
X2467300Y-2613500D01*
X2511100Y-2669700D02*
X2467300Y-2669700D01*
X2467300Y-2613500D02*
G75*
G03*
X2467300Y-2669700I0J-28100D01*
G01*
X2511100Y-2669700D02*
G75*
G03*
X2511100Y-2613500I0J28100D01*
G01*
X3200400Y-1028700D02*
X3200400Y-1104900D01*
X3162300Y-1066800D02*
X3238500Y-1066800D01*
X3228500Y-1088700D02*
X3228500Y-1044900D01*
X3172300Y-1088700D02*
X3172300Y-1044900D01*
X3228500Y-1044900D02*
G75*
G03*
X3172300Y-1044900I-28100J0D01*
G01*
X3172300Y-1088700D02*
G75*
G03*
X3228500Y-1088700I28100J0D01*
G01*
X3860800Y-1028700D02*
X3860800Y-1104900D01*
X3822700Y-1066800D02*
X3898900Y-1066800D01*
X3888900Y-1088700D02*
X3888900Y-1044900D01*
X3832700Y-1088700D02*
X3832700Y-1044900D01*
X3888900Y-1044900D02*
G75*
G03*
X3832700Y-1044900I-28100J0D01*
G01*
X3832700Y-1088700D02*
G75*
G03*
X3888900Y-1088700I28100J0D01*
G01*
X7597484Y-311685D02*
X7597484Y-255115D01*
X7540915Y-255115D01*
X7540915Y-311685D01*
X7597484Y-311685D01*
X7597484Y-561685D02*
X7597484Y-505115D01*
X7540915Y-505115D01*
X7540915Y-561685D01*
X7597484Y-561685D01*
X9248485Y-311685D02*
X9248485Y-255115D01*
X9191916Y-255115D01*
X9191916Y-311685D01*
X9248485Y-311685D01*
X9248485Y-561685D02*
X9248485Y-505115D01*
X9191916Y-505115D01*
X9191916Y-561685D01*
X9248485Y-561685D01*
X10757245Y-1623404D02*
X10757245Y-1566835D01*
X10700676Y-1566835D01*
X10700676Y-1623404D01*
X10757245Y-1623404D01*
X10757245Y-2427505D02*
X10757245Y-2370936D01*
X10700676Y-2370936D01*
X10700676Y-2427505D01*
X10757245Y-2427505D01*
X1721194Y-688685D02*
X1721194Y-632116D01*
X1664625Y-632116D01*
X1664625Y-688685D01*
X1721194Y-688685D01*
X2450175Y-687415D02*
X2450175Y-630846D01*
X2393606Y-630846D01*
X2393606Y-687415D01*
X2450175Y-687415D01*
X990600Y-5790400D02*
X1040600Y-5740400D01*
X990600Y-5690400D01*
X940600Y-5740400D01*
X990600Y-5790400D01*
X1244600Y-5790400D02*
X1294600Y-5740400D01*
X1244600Y-5690400D01*
X1194600Y-5740400D01*
X1244600Y-5790400D01*
X1498600Y-5790400D02*
X1548600Y-5740400D01*
X1498600Y-5690400D01*
X1448600Y-5740400D01*
X1498600Y-5790400D01*
X1752600Y-5790400D02*
X1802600Y-5740400D01*
X1752600Y-5690400D01*
X1702600Y-5740400D01*
X1752600Y-5790400D01*
X3784600Y-5536400D02*
X3834600Y-5486400D01*
X3784600Y-5436400D01*
X3734600Y-5486400D01*
X3784600Y-5536400D01*
X3784600Y-5790400D02*
X3834600Y-5740400D01*
X3784600Y-5690400D01*
X3734600Y-5740400D01*
X3784600Y-5790400D01*
X4038600Y-5536400D02*
X4088600Y-5486400D01*
X4038600Y-5436400D01*
X3988600Y-5486400D01*
X4038600Y-5536400D01*
X4038600Y-5790400D02*
X4088600Y-5740400D01*
X4038600Y-5690400D01*
X3988600Y-5740400D01*
X4038600Y-5790400D01*
X4292600Y-5536400D02*
X4342600Y-5486400D01*
X4292600Y-5436400D01*
X4242600Y-5486400D01*
X4292600Y-5536400D01*
X4292600Y-5790400D02*
X4342600Y-5740400D01*
X4292600Y-5690400D01*
X4242600Y-5740400D01*
X4292600Y-5790400D01*
X4546600Y-5536400D02*
X4596600Y-5486400D01*
X4546600Y-5436400D01*
X4496600Y-5486400D01*
X4546600Y-5536400D01*
X4546600Y-5790400D02*
X4596600Y-5740400D01*
X4546600Y-5690400D01*
X4496600Y-5740400D01*
X4546600Y-5790400D01*
X4800600Y-5536400D02*
X4850600Y-5486400D01*
X4800600Y-5436400D01*
X4750600Y-5486400D01*
X4800600Y-5536400D01*
X4800600Y-5790400D02*
X4850600Y-5740400D01*
X4800600Y-5690400D01*
X4750600Y-5740400D01*
X4800600Y-5790400D01*
X5054600Y-5536400D02*
X5104600Y-5486400D01*
X5054600Y-5436400D01*
X5004600Y-5486400D01*
X5054600Y-5536400D01*
X5054600Y-5790400D02*
X5104600Y-5740400D01*
X5054600Y-5690400D01*
X5004600Y-5740400D01*
X5054600Y-5790400D01*
X5308600Y-5536400D02*
X5358600Y-5486400D01*
X5308600Y-5436400D01*
X5258600Y-5486400D01*
X5308600Y-5536400D01*
X5308600Y-5790400D02*
X5358600Y-5740400D01*
X5308600Y-5690400D01*
X5258600Y-5740400D01*
X5308600Y-5790400D01*
X5562600Y-5536400D02*
X5612600Y-5486400D01*
X5562600Y-5436400D01*
X5512600Y-5486400D01*
X5562600Y-5536400D01*
X5562600Y-5790400D02*
X5612600Y-5740400D01*
X5562600Y-5690400D01*
X5512600Y-5740400D01*
X5562600Y-5790400D01*
X5816600Y-5536400D02*
X5866600Y-5486400D01*
X5816600Y-5436400D01*
X5766600Y-5486400D01*
X5816600Y-5536400D01*
X5816600Y-5790400D02*
X5866600Y-5740400D01*
X5816600Y-5690400D01*
X5766600Y-5740400D01*
X5816600Y-5790400D01*
X6070600Y-5536400D02*
X6120600Y-5486400D01*
X6070600Y-5436400D01*
X6020600Y-5486400D01*
X6070600Y-5536400D01*
X6070600Y-5790400D02*
X6120600Y-5740400D01*
X6070600Y-5690400D01*
X6020600Y-5740400D01*
X6070600Y-5790400D01*
X228600Y-989800D02*
X278600Y-939800D01*
X228600Y-889800D01*
X178600Y-939800D01*
X228600Y-989800D01*
X228600Y-1243800D02*
X278600Y-1193800D01*
X228600Y-1143800D01*
X178600Y-1193800D01*
X228600Y-1243800D01*
X228600Y-1497800D02*
X278600Y-1447800D01*
X228600Y-1397800D01*
X178600Y-1447800D01*
X228600Y-1497800D01*
X228600Y-1751800D02*
X278600Y-1701800D01*
X228600Y-1651800D01*
X178600Y-1701800D01*
X228600Y-1751800D01*
X228600Y-2005800D02*
X278600Y-1955800D01*
X228600Y-1905800D01*
X178600Y-1955800D01*
X228600Y-2005800D01*
X228600Y-2259800D02*
X278600Y-2209800D01*
X228600Y-2159800D01*
X178600Y-2209800D01*
X228600Y-2259800D01*
X228600Y-2513800D02*
X278600Y-2463800D01*
X228600Y-2413800D01*
X178600Y-2463800D01*
X228600Y-2513800D01*
X228600Y-2767800D02*
X278600Y-2717800D01*
X228600Y-2667800D01*
X178600Y-2717800D01*
X228600Y-2767800D01*
X228600Y-3021800D02*
X278600Y-2971800D01*
X228600Y-2921800D01*
X178600Y-2971800D01*
X228600Y-3021800D01*
X228600Y-3275800D02*
X278600Y-3225800D01*
X228600Y-3175800D01*
X178600Y-3225800D01*
X228600Y-3275800D01*
X228600Y-3529800D02*
X278600Y-3479800D01*
X228600Y-3429800D01*
X178600Y-3479800D01*
X228600Y-3529800D01*
X228600Y-3783800D02*
X278600Y-3733800D01*
X228600Y-3683800D01*
X178600Y-3733800D01*
X228600Y-3783800D01*
X228600Y-4037800D02*
X278600Y-3987800D01*
X228600Y-3937800D01*
X178600Y-3987800D01*
X228600Y-4037800D01*
X228600Y-4291800D02*
X278600Y-4241800D01*
X228600Y-4191800D01*
X178600Y-4241800D01*
X228600Y-4291800D01*
X228600Y-4545800D02*
X278600Y-4495800D01*
X228600Y-4445800D01*
X178600Y-4495800D01*
X228600Y-4545800D01*
X228600Y-4799800D02*
X278600Y-4749800D01*
X228600Y-4699800D01*
X178600Y-4749800D01*
X228600Y-4799800D01*
X228600Y-5053800D02*
X278600Y-5003800D01*
X228600Y-4953800D01*
X178600Y-5003800D01*
X228600Y-5053800D01*
X482600Y-989800D02*
X532600Y-939800D01*
X482600Y-889800D01*
X432600Y-939800D01*
X482600Y-989800D01*
X482600Y-1243800D02*
X532600Y-1193800D01*
X482600Y-1143800D01*
X432600Y-1193800D01*
X482600Y-1243800D01*
X482600Y-1497800D02*
X532600Y-1447800D01*
X482600Y-1397800D01*
X432600Y-1447800D01*
X482600Y-1497800D01*
X482600Y-1751800D02*
X532600Y-1701800D01*
X482600Y-1651800D01*
X432600Y-1701800D01*
X482600Y-1751800D01*
X482600Y-2005800D02*
X532600Y-1955800D01*
X482600Y-1905800D01*
X432600Y-1955800D01*
X482600Y-2005800D01*
X482600Y-2259800D02*
X532600Y-2209800D01*
X482600Y-2159800D01*
X432600Y-2209800D01*
X482600Y-2259800D01*
X482600Y-2513800D02*
X532600Y-2463800D01*
X482600Y-2413800D01*
X432600Y-2463800D01*
X482600Y-2513800D01*
X482600Y-2767800D02*
X532600Y-2717800D01*
X482600Y-2667800D01*
X432600Y-2717800D01*
X482600Y-2767800D01*
X482600Y-3021800D02*
X532600Y-2971800D01*
X482600Y-2921800D01*
X432600Y-2971800D01*
X482600Y-3021800D01*
X482600Y-3275800D02*
X532600Y-3225800D01*
X482600Y-3175800D01*
X432600Y-3225800D01*
X482600Y-3275800D01*
X482600Y-3529800D02*
X532600Y-3479800D01*
X482600Y-3429800D01*
X432600Y-3479800D01*
X482600Y-3529800D01*
X482600Y-3783800D02*
X532600Y-3733800D01*
X482600Y-3683800D01*
X432600Y-3733800D01*
X482600Y-3783800D01*
X482600Y-4037800D02*
X532600Y-3987800D01*
X482600Y-3937800D01*
X432600Y-3987800D01*
X482600Y-4037800D01*
X482600Y-4291800D02*
X532600Y-4241800D01*
X482600Y-4191800D01*
X432600Y-4241800D01*
X482600Y-4291800D01*
X482600Y-4545800D02*
X532600Y-4495800D01*
X482600Y-4445800D01*
X432600Y-4495800D01*
X482600Y-4545800D01*
X482600Y-4799800D02*
X532600Y-4749800D01*
X482600Y-4699800D01*
X432600Y-4749800D01*
X482600Y-4799800D01*
X482600Y-5053800D02*
X532600Y-5003800D01*
X482600Y-4953800D01*
X432600Y-5003800D01*
X482600Y-5053800D01*
X2133600Y-4342600D02*
X2183600Y-4292600D01*
X2133600Y-4242600D01*
X2083600Y-4292600D01*
X2133600Y-4342600D01*
X2133600Y-4596600D02*
X2183600Y-4546600D01*
X2133600Y-4496600D01*
X2083600Y-4546600D01*
X2133600Y-4596600D01*
X9906000Y-329400D02*
X9956000Y-279400D01*
X9906000Y-229400D01*
X9856000Y-279400D01*
X9906000Y-329400D01*
X10160000Y-329400D02*
X10210000Y-279400D01*
X10160000Y-229400D01*
X10110000Y-279400D01*
X10160000Y-329400D01*
X3784600Y-253200D02*
X3834600Y-203200D01*
X3784600Y-153200D01*
X3734600Y-203200D01*
X3784600Y-253200D01*
X3784600Y-507200D02*
X3834600Y-457200D01*
X3784600Y-407200D01*
X3734600Y-457200D01*
X3784600Y-507200D01*
X4038600Y-253200D02*
X4088600Y-203200D01*
X4038600Y-153200D01*
X3988600Y-203200D01*
X4038600Y-253200D01*
X4038600Y-507200D02*
X4088600Y-457200D01*
X4038600Y-407200D01*
X3988600Y-457200D01*
X4038600Y-507200D01*
X4292600Y-253200D02*
X4342600Y-203200D01*
X4292600Y-153200D01*
X4242600Y-203200D01*
X4292600Y-253200D01*
X4292600Y-507200D02*
X4342600Y-457200D01*
X4292600Y-407200D01*
X4242600Y-457200D01*
X4292600Y-507200D01*
X4546600Y-253200D02*
X4596600Y-203200D01*
X4546600Y-153200D01*
X4496600Y-203200D01*
X4546600Y-253200D01*
X4546600Y-507200D02*
X4596600Y-457200D01*
X4546600Y-407200D01*
X4496600Y-457200D01*
X4546600Y-507200D01*
X4800600Y-253200D02*
X4850600Y-203200D01*
X4800600Y-153200D01*
X4750600Y-203200D01*
X4800600Y-253200D01*
X4800600Y-507200D02*
X4850600Y-457200D01*
X4800600Y-407200D01*
X4750600Y-457200D01*
X4800600Y-507200D01*
X5054600Y-253200D02*
X5104600Y-203200D01*
X5054600Y-153200D01*
X5004600Y-203200D01*
X5054600Y-253200D01*
X5054600Y-507200D02*
X5104600Y-457200D01*
X5054600Y-407200D01*
X5004600Y-457200D01*
X5054600Y-507200D01*
X5308600Y-253200D02*
X5358600Y-203200D01*
X5308600Y-153200D01*
X5258600Y-203200D01*
X5308600Y-253200D01*
X5308600Y-507200D02*
X5358600Y-457200D01*
X5308600Y-407200D01*
X5258600Y-457200D01*
X5308600Y-507200D01*
X5562600Y-253200D02*
X5612600Y-203200D01*
X5562600Y-153200D01*
X5512600Y-203200D01*
X5562600Y-253200D01*
X5562600Y-507200D02*
X5612600Y-457200D01*
X5562600Y-407200D01*
X5512600Y-457200D01*
X5562600Y-507200D01*
X5816600Y-253200D02*
X5866600Y-203200D01*
X5816600Y-153200D01*
X5766600Y-203200D01*
X5816600Y-253200D01*
X5816600Y-507200D02*
X5866600Y-457200D01*
X5816600Y-407200D01*
X5766600Y-457200D01*
X5816600Y-507200D01*
X6070600Y-253200D02*
X6120600Y-203200D01*
X6070600Y-153200D01*
X6020600Y-203200D01*
X6070600Y-253200D01*
X6070600Y-507200D02*
X6120600Y-457200D01*
X6070600Y-407200D01*
X6020600Y-457200D01*
X6070600Y-507200D01*
X6705600Y-253200D02*
X6755600Y-203200D01*
X6705600Y-153200D01*
X6655600Y-203200D01*
X6705600Y-253200D01*
X6705600Y-507200D02*
X6755600Y-457200D01*
X6705600Y-407200D01*
X6655600Y-457200D01*
X6705600Y-507200D01*
X6705600Y-761200D02*
X6755600Y-711200D01*
X6705600Y-661200D01*
X6655600Y-711200D01*
X6705600Y-761200D01*
X6705600Y-1015200D02*
X6755600Y-965200D01*
X6705600Y-915200D01*
X6655600Y-965200D01*
X6705600Y-1015200D01*
D12*
X283928Y-6411814D02*
X283928Y-6111814D01*
X355357Y-6111814D01*
X398214Y-6126100D01*
X426786Y-6154671D01*
X441071Y-6183243D01*
X455357Y-6240386D01*
X455357Y-6283243D01*
X441071Y-6340386D01*
X426786Y-6368957D01*
X398214Y-6397529D01*
X355357Y-6411814D01*
X283928Y-6411814D01*
X583928Y-6411814D02*
X583928Y-6211814D01*
X583928Y-6268957D02*
X598214Y-6240386D01*
X612500Y-6226100D01*
X641071Y-6211814D01*
X669643Y-6211814D01*
X769643Y-6411814D02*
X769643Y-6211814D01*
X769643Y-6111814D02*
X755357Y-6126100D01*
X769643Y-6140386D01*
X783928Y-6126100D01*
X769643Y-6111814D01*
X769643Y-6140386D01*
X955357Y-6411814D02*
X926786Y-6397529D01*
X912500Y-6368957D01*
X912500Y-6111814D01*
X1112500Y-6411814D02*
X1083928Y-6397529D01*
X1069643Y-6368957D01*
X1069643Y-6111814D01*
X1455357Y-6411814D02*
X1455357Y-6111814D01*
X1555357Y-6326100D01*
X1655357Y-6111814D01*
X1655357Y-6411814D01*
X1926786Y-6411814D02*
X1926786Y-6254671D01*
X1912500Y-6226100D01*
X1883928Y-6211814D01*
X1826786Y-6211814D01*
X1798214Y-6226100D01*
X1926786Y-6397529D02*
X1898214Y-6411814D01*
X1826786Y-6411814D01*
X1798214Y-6397529D01*
X1783928Y-6368957D01*
X1783928Y-6340386D01*
X1798214Y-6311814D01*
X1826786Y-6297529D01*
X1898214Y-6297529D01*
X1926786Y-6283243D01*
X2069643Y-6211814D02*
X2069643Y-6511814D01*
X2069643Y-6226100D02*
X2098214Y-6211814D01*
X2155357Y-6211814D01*
X2183928Y-6226100D01*
X2198214Y-6240386D01*
X2212500Y-6268957D01*
X2212500Y-6354671D01*
X2198214Y-6383243D01*
X2183928Y-6397529D01*
X2155357Y-6411814D01*
X2098214Y-6411814D01*
X2069643Y-6397529D01*
X2341071Y-6383243D02*
X2355357Y-6397529D01*
X2341071Y-6411814D01*
X2326786Y-6397529D01*
X2341071Y-6383243D01*
X2341071Y-6411814D01*
X2341071Y-6226100D02*
X2355357Y-6240386D01*
X2341071Y-6254671D01*
X2326786Y-6240386D01*
X2341071Y-6226100D01*
X2341071Y-6254671D01*
X-42500Y-6886100D02*
X-2500Y-6926100D01*
X-2500Y-6886100D02*
X-42500Y-6926100D01*
X341071Y-6741814D02*
X369643Y-6741814D01*
X398214Y-6756100D01*
X412500Y-6770386D01*
X426786Y-6798957D01*
X441071Y-6856100D01*
X441071Y-6927529D01*
X426786Y-6984671D01*
X412500Y-7013243D01*
X398214Y-7027529D01*
X369643Y-7041814D01*
X341071Y-7041814D01*
X312500Y-7027529D01*
X298214Y-7013243D01*
X283928Y-6984671D01*
X269643Y-6927529D01*
X269643Y-6856100D01*
X283928Y-6798957D01*
X298214Y-6770386D01*
X312500Y-6756100D01*
X341071Y-6741814D01*
X569643Y-7013243D02*
X583928Y-7027529D01*
X569643Y-7041814D01*
X555357Y-7027529D01*
X569643Y-7013243D01*
X569643Y-7041814D01*
X841071Y-6841814D02*
X841071Y-7041814D01*
X769643Y-6727529D02*
X698214Y-6941814D01*
X883928Y-6941814D01*
X1055357Y-6741814D02*
X1083928Y-6741814D01*
X1112500Y-6756100D01*
X1126786Y-6770386D01*
X1141071Y-6798957D01*
X1155357Y-6856100D01*
X1155357Y-6927529D01*
X1141071Y-6984671D01*
X1126786Y-7013243D01*
X1112500Y-7027529D01*
X1083928Y-7041814D01*
X1055357Y-7041814D01*
X1026786Y-7027529D01*
X1012500Y-7013243D01*
X998214Y-6984671D01*
X983928Y-6927529D01*
X983928Y-6856100D01*
X998214Y-6798957D01*
X1012500Y-6770386D01*
X1026786Y-6756100D01*
X1055357Y-6741814D01*
X1283928Y-7041814D02*
X1283928Y-6841814D01*
X1283928Y-6870386D02*
X1298214Y-6856100D01*
X1326786Y-6841814D01*
X1369643Y-6841814D01*
X1398214Y-6856100D01*
X1412500Y-6884671D01*
X1412500Y-7041814D01*
X1412500Y-6884671D02*
X1426786Y-6856100D01*
X1455357Y-6841814D01*
X1498214Y-6841814D01*
X1526786Y-6856100D01*
X1541071Y-6884671D01*
X1541071Y-7041814D01*
X1683928Y-7041814D02*
X1683928Y-6841814D01*
X1683928Y-6870386D02*
X1698214Y-6856100D01*
X1726786Y-6841814D01*
X1769643Y-6841814D01*
X1798214Y-6856100D01*
X1812500Y-6884671D01*
X1812500Y-7041814D01*
X1812500Y-6884671D02*
X1826786Y-6856100D01*
X1855357Y-6841814D01*
X1898214Y-6841814D01*
X1926786Y-6856100D01*
X1941071Y-6884671D01*
X1941071Y-7041814D01*
X2526786Y-6727529D02*
X2269643Y-7113243D01*
X2912500Y-6741814D02*
X2941071Y-6741814D01*
X2969643Y-6756100D01*
X2983928Y-6770386D01*
X2998214Y-6798957D01*
X3012500Y-6856100D01*
X3012500Y-6927529D01*
X2998214Y-6984671D01*
X2983928Y-7013243D01*
X2969643Y-7027529D01*
X2941071Y-7041814D01*
X2912500Y-7041814D01*
X2883928Y-7027529D01*
X2869643Y-7013243D01*
X2855357Y-6984671D01*
X2841071Y-6927529D01*
X2841071Y-6856100D01*
X2855357Y-6798957D01*
X2869643Y-6770386D01*
X2883928Y-6756100D01*
X2912500Y-6741814D01*
X3141071Y-7013243D02*
X3155357Y-7027529D01*
X3141071Y-7041814D01*
X3126786Y-7027529D01*
X3141071Y-7013243D01*
X3141071Y-7041814D01*
X3341071Y-6741814D02*
X3369643Y-6741814D01*
X3398214Y-6756100D01*
X3412500Y-6770386D01*
X3426786Y-6798957D01*
X3441071Y-6856100D01*
X3441071Y-6927529D01*
X3426786Y-6984671D01*
X3412500Y-7013243D01*
X3398214Y-7027529D01*
X3369643Y-7041814D01*
X3341071Y-7041814D01*
X3312500Y-7027529D01*
X3298214Y-7013243D01*
X3283928Y-6984671D01*
X3269643Y-6927529D01*
X3269643Y-6856100D01*
X3283928Y-6798957D01*
X3298214Y-6770386D01*
X3312500Y-6756100D01*
X3341071Y-6741814D01*
X3726786Y-7041814D02*
X3555357Y-7041814D01*
X3641071Y-7041814D02*
X3641071Y-6741814D01*
X3612500Y-6784671D01*
X3583928Y-6813243D01*
X3555357Y-6827529D01*
X3983928Y-6741814D02*
X3926786Y-6741814D01*
X3898214Y-6756100D01*
X3883928Y-6770386D01*
X3855357Y-6813243D01*
X3841071Y-6870386D01*
X3841071Y-6984671D01*
X3855357Y-7013243D01*
X3869643Y-7027529D01*
X3898214Y-7041814D01*
X3955357Y-7041814D01*
X3983928Y-7027529D01*
X3998214Y-7013243D01*
X4012500Y-6984671D01*
X4012500Y-6913243D01*
X3998214Y-6884671D01*
X3983928Y-6870386D01*
X3955357Y-6856100D01*
X3898214Y-6856100D01*
X3869643Y-6870386D01*
X3855357Y-6884671D01*
X3841071Y-6913243D01*
X4126786Y-6741814D02*
X4126786Y-6798957D01*
X4241071Y-6741814D02*
X4241071Y-6798957D01*
X4683928Y-7156100D02*
X4669643Y-7141814D01*
X4641071Y-7098957D01*
X4626786Y-7070386D01*
X4612500Y-7027529D01*
X4598214Y-6956100D01*
X4598214Y-6898957D01*
X4612500Y-6827529D01*
X4626786Y-6784671D01*
X4641071Y-6756100D01*
X4669643Y-6713243D01*
X4683928Y-6698957D01*
X4783928Y-6770386D02*
X4798214Y-6756100D01*
X4826786Y-6741814D01*
X4898214Y-6741814D01*
X4926786Y-6756100D01*
X4941071Y-6770386D01*
X4955357Y-6798957D01*
X4955357Y-6827529D01*
X4941071Y-6870386D01*
X4769643Y-7041814D01*
X4955357Y-7041814D01*
X5069643Y-6770386D02*
X5083928Y-6756100D01*
X5112500Y-6741814D01*
X5183928Y-6741814D01*
X5212500Y-6756100D01*
X5226786Y-6770386D01*
X5241071Y-6798957D01*
X5241071Y-6827529D01*
X5226786Y-6870386D01*
X5055357Y-7041814D01*
X5241071Y-7041814D01*
X5426786Y-6741814D02*
X5455357Y-6741814D01*
X5483928Y-6756100D01*
X5498214Y-6770386D01*
X5512500Y-6798957D01*
X5526786Y-6856100D01*
X5526786Y-6927529D01*
X5512500Y-6984671D01*
X5498214Y-7013243D01*
X5483928Y-7027529D01*
X5455357Y-7041814D01*
X5426786Y-7041814D01*
X5398214Y-7027529D01*
X5383928Y-7013243D01*
X5369643Y-6984671D01*
X5355357Y-6927529D01*
X5355357Y-6856100D01*
X5369643Y-6798957D01*
X5383928Y-6770386D01*
X5398214Y-6756100D01*
X5426786Y-6741814D01*
X5883928Y-7041814D02*
X5883928Y-6741814D01*
X6012500Y-7041814D02*
X6012500Y-6884671D01*
X5998214Y-6856100D01*
X5969643Y-6841814D01*
X5926786Y-6841814D01*
X5898214Y-6856100D01*
X5883928Y-6870386D01*
X6198214Y-7041814D02*
X6169643Y-7027529D01*
X6155357Y-7013243D01*
X6141071Y-6984671D01*
X6141071Y-6898957D01*
X6155357Y-6870386D01*
X6169643Y-6856100D01*
X6198214Y-6841814D01*
X6241071Y-6841814D01*
X6269643Y-6856100D01*
X6283928Y-6870386D01*
X6298214Y-6898957D01*
X6298214Y-6984671D01*
X6283928Y-7013243D01*
X6269643Y-7027529D01*
X6241071Y-7041814D01*
X6198214Y-7041814D01*
X6469643Y-7041814D02*
X6441071Y-7027529D01*
X6426786Y-6998957D01*
X6426786Y-6741814D01*
X6698214Y-7027529D02*
X6669643Y-7041814D01*
X6612500Y-7041814D01*
X6583928Y-7027529D01*
X6569643Y-6998957D01*
X6569643Y-6884671D01*
X6583928Y-6856100D01*
X6612500Y-6841814D01*
X6669643Y-6841814D01*
X6698214Y-6856100D01*
X6712500Y-6884671D01*
X6712500Y-6913243D01*
X6569643Y-6941814D01*
X6826786Y-7027529D02*
X6855357Y-7041814D01*
X6912500Y-7041814D01*
X6941071Y-7027529D01*
X6955357Y-6998957D01*
X6955357Y-6984671D01*
X6941071Y-6956100D01*
X6912500Y-6941814D01*
X6869643Y-6941814D01*
X6841071Y-6927529D01*
X6826786Y-6898957D01*
X6826786Y-6884671D01*
X6841071Y-6856100D01*
X6869643Y-6841814D01*
X6912500Y-6841814D01*
X6941071Y-6856100D01*
X7055357Y-7156100D02*
X7069643Y-7141814D01*
X7098214Y-7098957D01*
X7112500Y-7070386D01*
X7126786Y-7027529D01*
X7141071Y-6956100D01*
X7141071Y-6898957D01*
X7126786Y-6827529D01*
X7112500Y-6784671D01*
X7098214Y-6756100D01*
X7069643Y-6713243D01*
X7055357Y-6698957D01*
X-2500Y-7302100D02*
G75*
G03*
X-2500Y-7302100I-30000J0D01*
G01*
X341071Y-7137814D02*
X369643Y-7137814D01*
X398214Y-7152100D01*
X412500Y-7166386D01*
X426786Y-7194957D01*
X441071Y-7252100D01*
X441071Y-7323529D01*
X426786Y-7380671D01*
X412500Y-7409243D01*
X398214Y-7423529D01*
X369643Y-7437814D01*
X341071Y-7437814D01*
X312500Y-7423529D01*
X298214Y-7409243D01*
X283928Y-7380671D01*
X269643Y-7323529D01*
X269643Y-7252100D01*
X283928Y-7194957D01*
X298214Y-7166386D01*
X312500Y-7152100D01*
X341071Y-7137814D01*
X569643Y-7409243D02*
X583928Y-7423529D01*
X569643Y-7437814D01*
X555357Y-7423529D01*
X569643Y-7409243D01*
X569643Y-7437814D01*
X841071Y-7137814D02*
X783928Y-7137814D01*
X755357Y-7152100D01*
X741071Y-7166386D01*
X712500Y-7209243D01*
X698214Y-7266386D01*
X698214Y-7380671D01*
X712500Y-7409243D01*
X726786Y-7423529D01*
X755357Y-7437814D01*
X812500Y-7437814D01*
X841071Y-7423529D01*
X855357Y-7409243D01*
X869643Y-7380671D01*
X869643Y-7309243D01*
X855357Y-7280671D01*
X841071Y-7266386D01*
X812500Y-7252100D01*
X755357Y-7252100D01*
X726786Y-7266386D01*
X712500Y-7280671D01*
X698214Y-7309243D01*
X1055357Y-7137814D02*
X1083928Y-7137814D01*
X1112500Y-7152100D01*
X1126786Y-7166386D01*
X1141071Y-7194957D01*
X1155357Y-7252100D01*
X1155357Y-7323529D01*
X1141071Y-7380671D01*
X1126786Y-7409243D01*
X1112500Y-7423529D01*
X1083928Y-7437814D01*
X1055357Y-7437814D01*
X1026786Y-7423529D01*
X1012500Y-7409243D01*
X998214Y-7380671D01*
X983928Y-7323529D01*
X983928Y-7252100D01*
X998214Y-7194957D01*
X1012500Y-7166386D01*
X1026786Y-7152100D01*
X1055357Y-7137814D01*
X1283928Y-7437814D02*
X1283928Y-7237814D01*
X1283928Y-7266386D02*
X1298214Y-7252100D01*
X1326786Y-7237814D01*
X1369643Y-7237814D01*
X1398214Y-7252100D01*
X1412500Y-7280671D01*
X1412500Y-7437814D01*
X1412500Y-7280671D02*
X1426786Y-7252100D01*
X1455357Y-7237814D01*
X1498214Y-7237814D01*
X1526786Y-7252100D01*
X1541071Y-7280671D01*
X1541071Y-7437814D01*
X1683928Y-7437814D02*
X1683928Y-7237814D01*
X1683928Y-7266386D02*
X1698214Y-7252100D01*
X1726786Y-7237814D01*
X1769643Y-7237814D01*
X1798214Y-7252100D01*
X1812500Y-7280671D01*
X1812500Y-7437814D01*
X1812500Y-7280671D02*
X1826786Y-7252100D01*
X1855357Y-7237814D01*
X1898214Y-7237814D01*
X1926786Y-7252100D01*
X1941071Y-7280671D01*
X1941071Y-7437814D01*
X2526786Y-7123529D02*
X2269643Y-7509243D01*
X2912500Y-7137814D02*
X2941071Y-7137814D01*
X2969643Y-7152100D01*
X2983928Y-7166386D01*
X2998214Y-7194957D01*
X3012500Y-7252100D01*
X3012500Y-7323529D01*
X2998214Y-7380671D01*
X2983928Y-7409243D01*
X2969643Y-7423529D01*
X2941071Y-7437814D01*
X2912500Y-7437814D01*
X2883928Y-7423529D01*
X2869643Y-7409243D01*
X2855357Y-7380671D01*
X2841071Y-7323529D01*
X2841071Y-7252100D01*
X2855357Y-7194957D01*
X2869643Y-7166386D01*
X2883928Y-7152100D01*
X2912500Y-7137814D01*
X3141071Y-7409243D02*
X3155357Y-7423529D01*
X3141071Y-7437814D01*
X3126786Y-7423529D01*
X3141071Y-7409243D01*
X3141071Y-7437814D01*
X3341071Y-7137814D02*
X3369643Y-7137814D01*
X3398214Y-7152100D01*
X3412500Y-7166386D01*
X3426786Y-7194957D01*
X3441071Y-7252100D01*
X3441071Y-7323529D01*
X3426786Y-7380671D01*
X3412500Y-7409243D01*
X3398214Y-7423529D01*
X3369643Y-7437814D01*
X3341071Y-7437814D01*
X3312500Y-7423529D01*
X3298214Y-7409243D01*
X3283928Y-7380671D01*
X3269643Y-7323529D01*
X3269643Y-7252100D01*
X3283928Y-7194957D01*
X3298214Y-7166386D01*
X3312500Y-7152100D01*
X3341071Y-7137814D01*
X3555357Y-7166386D02*
X3569643Y-7152100D01*
X3598214Y-7137814D01*
X3669643Y-7137814D01*
X3698214Y-7152100D01*
X3712500Y-7166386D01*
X3726786Y-7194957D01*
X3726786Y-7223529D01*
X3712500Y-7266386D01*
X3541071Y-7437814D01*
X3726786Y-7437814D01*
X3983928Y-7237814D02*
X3983928Y-7437814D01*
X3912500Y-7123529D02*
X3841071Y-7337814D01*
X4026786Y-7337814D01*
X4126786Y-7137814D02*
X4126786Y-7194957D01*
X4241071Y-7137814D02*
X4241071Y-7194957D01*
X4683928Y-7552100D02*
X4669643Y-7537814D01*
X4641071Y-7494957D01*
X4626786Y-7466386D01*
X4612500Y-7423529D01*
X4598214Y-7352100D01*
X4598214Y-7294957D01*
X4612500Y-7223529D01*
X4626786Y-7180671D01*
X4641071Y-7152100D01*
X4669643Y-7109243D01*
X4683928Y-7094957D01*
X4941071Y-7137814D02*
X4798214Y-7137814D01*
X4783928Y-7280671D01*
X4798214Y-7266386D01*
X4826786Y-7252100D01*
X4898214Y-7252100D01*
X4926786Y-7266386D01*
X4941071Y-7280671D01*
X4955357Y-7309243D01*
X4955357Y-7380671D01*
X4941071Y-7409243D01*
X4926786Y-7423529D01*
X4898214Y-7437814D01*
X4826786Y-7437814D01*
X4798214Y-7423529D01*
X4783928Y-7409243D01*
X5226786Y-7137814D02*
X5083928Y-7137814D01*
X5069643Y-7280671D01*
X5083928Y-7266386D01*
X5112500Y-7252100D01*
X5183928Y-7252100D01*
X5212500Y-7266386D01*
X5226786Y-7280671D01*
X5241071Y-7309243D01*
X5241071Y-7380671D01*
X5226786Y-7409243D01*
X5212500Y-7423529D01*
X5183928Y-7437814D01*
X5112500Y-7437814D01*
X5083928Y-7423529D01*
X5069643Y-7409243D01*
X5598214Y-7437814D02*
X5598214Y-7137814D01*
X5726786Y-7437814D02*
X5726786Y-7280671D01*
X5712500Y-7252100D01*
X5683928Y-7237814D01*
X5641071Y-7237814D01*
X5612500Y-7252100D01*
X5598214Y-7266386D01*
X5912500Y-7437814D02*
X5883928Y-7423529D01*
X5869643Y-7409243D01*
X5855357Y-7380671D01*
X5855357Y-7294957D01*
X5869643Y-7266386D01*
X5883928Y-7252100D01*
X5912500Y-7237814D01*
X5955357Y-7237814D01*
X5983928Y-7252100D01*
X5998214Y-7266386D01*
X6012500Y-7294957D01*
X6012500Y-7380671D01*
X5998214Y-7409243D01*
X5983928Y-7423529D01*
X5955357Y-7437814D01*
X5912500Y-7437814D01*
X6183928Y-7437814D02*
X6155357Y-7423529D01*
X6141071Y-7394957D01*
X6141071Y-7137814D01*
X6412500Y-7423529D02*
X6383928Y-7437814D01*
X6326786Y-7437814D01*
X6298214Y-7423529D01*
X6283928Y-7394957D01*
X6283928Y-7280671D01*
X6298214Y-7252100D01*
X6326786Y-7237814D01*
X6383928Y-7237814D01*
X6412500Y-7252100D01*
X6426786Y-7280671D01*
X6426786Y-7309243D01*
X6283928Y-7337814D01*
X6541071Y-7423529D02*
X6569643Y-7437814D01*
X6626786Y-7437814D01*
X6655357Y-7423529D01*
X6669643Y-7394957D01*
X6669643Y-7380671D01*
X6655357Y-7352100D01*
X6626786Y-7337814D01*
X6583928Y-7337814D01*
X6555357Y-7323529D01*
X6541071Y-7294957D01*
X6541071Y-7280671D01*
X6555357Y-7252100D01*
X6583928Y-7237814D01*
X6626786Y-7237814D01*
X6655357Y-7252100D01*
X7026786Y-7323529D02*
X7255357Y-7323529D01*
X7141071Y-7437814D02*
X7141071Y-7209243D01*
X7755357Y-7237814D02*
X7755357Y-7437814D01*
X7683928Y-7123529D02*
X7612500Y-7337814D01*
X7798214Y-7337814D01*
X8126786Y-7423529D02*
X8155357Y-7437814D01*
X8212500Y-7437814D01*
X8241071Y-7423529D01*
X8255357Y-7394957D01*
X8255357Y-7380671D01*
X8241071Y-7352100D01*
X8212500Y-7337814D01*
X8169643Y-7337814D01*
X8141071Y-7323529D01*
X8126786Y-7294957D01*
X8126786Y-7280671D01*
X8141071Y-7252100D01*
X8169643Y-7237814D01*
X8212500Y-7237814D01*
X8241071Y-7252100D01*
X8426786Y-7437814D02*
X8398214Y-7423529D01*
X8383928Y-7394957D01*
X8383928Y-7137814D01*
X8583928Y-7437814D02*
X8555357Y-7423529D01*
X8541071Y-7409243D01*
X8526786Y-7380671D01*
X8526786Y-7294957D01*
X8541071Y-7266386D01*
X8555357Y-7252100D01*
X8583928Y-7237814D01*
X8626786Y-7237814D01*
X8655357Y-7252100D01*
X8669643Y-7266386D01*
X8683928Y-7294957D01*
X8683928Y-7380671D01*
X8669643Y-7409243D01*
X8655357Y-7423529D01*
X8626786Y-7437814D01*
X8583928Y-7437814D01*
X8769643Y-7237814D02*
X8883928Y-7237814D01*
X8812500Y-7137814D02*
X8812500Y-7394957D01*
X8826786Y-7423529D01*
X8855357Y-7437814D01*
X8883928Y-7437814D01*
X8969643Y-7423529D02*
X8998214Y-7437814D01*
X9055357Y-7437814D01*
X9083928Y-7423529D01*
X9098214Y-7394957D01*
X9098214Y-7380671D01*
X9083928Y-7352100D01*
X9055357Y-7337814D01*
X9012500Y-7337814D01*
X8983928Y-7323529D01*
X8969643Y-7294957D01*
X8969643Y-7280671D01*
X8983928Y-7252100D01*
X9012500Y-7237814D01*
X9055357Y-7237814D01*
X9083928Y-7252100D01*
X9198214Y-7552100D02*
X9212500Y-7537814D01*
X9241071Y-7494957D01*
X9255357Y-7466386D01*
X9269643Y-7423529D01*
X9283928Y-7352100D01*
X9283928Y-7294957D01*
X9269643Y-7223529D01*
X9255357Y-7180671D01*
X9241071Y-7152100D01*
X9212500Y-7109243D01*
X9198214Y-7094957D01*
X-40600Y-7660000D02*
X-40600Y-7736200D01*
X-78700Y-7698100D02*
X-2500Y-7698100D01*
X341071Y-7533814D02*
X369643Y-7533814D01*
X398214Y-7548100D01*
X412500Y-7562386D01*
X426786Y-7590957D01*
X441071Y-7648100D01*
X441071Y-7719529D01*
X426786Y-7776671D01*
X412500Y-7805243D01*
X398214Y-7819529D01*
X369643Y-7833814D01*
X341071Y-7833814D01*
X312500Y-7819529D01*
X298214Y-7805243D01*
X283928Y-7776671D01*
X269643Y-7719529D01*
X269643Y-7648100D01*
X283928Y-7590957D01*
X298214Y-7562386D01*
X312500Y-7548100D01*
X341071Y-7533814D01*
X569643Y-7805243D02*
X583928Y-7819529D01*
X569643Y-7833814D01*
X555357Y-7819529D01*
X569643Y-7805243D01*
X569643Y-7833814D01*
X683928Y-7533814D02*
X883928Y-7533814D01*
X755357Y-7833814D01*
X1126786Y-7533814D02*
X1069643Y-7533814D01*
X1041071Y-7548100D01*
X1026786Y-7562386D01*
X998214Y-7605243D01*
X983928Y-7662386D01*
X983928Y-7776671D01*
X998214Y-7805243D01*
X1012500Y-7819529D01*
X1041071Y-7833814D01*
X1098214Y-7833814D01*
X1126786Y-7819529D01*
X1141071Y-7805243D01*
X1155357Y-7776671D01*
X1155357Y-7705243D01*
X1141071Y-7676671D01*
X1126786Y-7662386D01*
X1098214Y-7648100D01*
X1041071Y-7648100D01*
X1012500Y-7662386D01*
X998214Y-7676671D01*
X983928Y-7705243D01*
X1283928Y-7833814D02*
X1283928Y-7633814D01*
X1283928Y-7662386D02*
X1298214Y-7648100D01*
X1326786Y-7633814D01*
X1369643Y-7633814D01*
X1398214Y-7648100D01*
X1412500Y-7676671D01*
X1412500Y-7833814D01*
X1412500Y-7676671D02*
X1426786Y-7648100D01*
X1455357Y-7633814D01*
X1498214Y-7633814D01*
X1526786Y-7648100D01*
X1541071Y-7676671D01*
X1541071Y-7833814D01*
X1683928Y-7833814D02*
X1683928Y-7633814D01*
X1683928Y-7662386D02*
X1698214Y-7648100D01*
X1726786Y-7633814D01*
X1769643Y-7633814D01*
X1798214Y-7648100D01*
X1812500Y-7676671D01*
X1812500Y-7833814D01*
X1812500Y-7676671D02*
X1826786Y-7648100D01*
X1855357Y-7633814D01*
X1898214Y-7633814D01*
X1926786Y-7648100D01*
X1941071Y-7676671D01*
X1941071Y-7833814D01*
X2526786Y-7519529D02*
X2269643Y-7905243D01*
X2912500Y-7533814D02*
X2941071Y-7533814D01*
X2969643Y-7548100D01*
X2983928Y-7562386D01*
X2998214Y-7590957D01*
X3012500Y-7648100D01*
X3012500Y-7719529D01*
X2998214Y-7776671D01*
X2983928Y-7805243D01*
X2969643Y-7819529D01*
X2941071Y-7833814D01*
X2912500Y-7833814D01*
X2883928Y-7819529D01*
X2869643Y-7805243D01*
X2855357Y-7776671D01*
X2841071Y-7719529D01*
X2841071Y-7648100D01*
X2855357Y-7590957D01*
X2869643Y-7562386D01*
X2883928Y-7548100D01*
X2912500Y-7533814D01*
X3141071Y-7805243D02*
X3155357Y-7819529D01*
X3141071Y-7833814D01*
X3126786Y-7819529D01*
X3141071Y-7805243D01*
X3141071Y-7833814D01*
X3341071Y-7533814D02*
X3369643Y-7533814D01*
X3398214Y-7548100D01*
X3412500Y-7562386D01*
X3426786Y-7590957D01*
X3441071Y-7648100D01*
X3441071Y-7719529D01*
X3426786Y-7776671D01*
X3412500Y-7805243D01*
X3398214Y-7819529D01*
X3369643Y-7833814D01*
X3341071Y-7833814D01*
X3312500Y-7819529D01*
X3298214Y-7805243D01*
X3283928Y-7776671D01*
X3269643Y-7719529D01*
X3269643Y-7648100D01*
X3283928Y-7590957D01*
X3298214Y-7562386D01*
X3312500Y-7548100D01*
X3341071Y-7533814D01*
X3541071Y-7533814D02*
X3726786Y-7533814D01*
X3626786Y-7648100D01*
X3669643Y-7648100D01*
X3698214Y-7662386D01*
X3712500Y-7676671D01*
X3726786Y-7705243D01*
X3726786Y-7776671D01*
X3712500Y-7805243D01*
X3698214Y-7819529D01*
X3669643Y-7833814D01*
X3583928Y-7833814D01*
X3555357Y-7819529D01*
X3541071Y-7805243D01*
X3912500Y-7533814D02*
X3941071Y-7533814D01*
X3969643Y-7548100D01*
X3983928Y-7562386D01*
X3998214Y-7590957D01*
X4012500Y-7648100D01*
X4012500Y-7719529D01*
X3998214Y-7776671D01*
X3983928Y-7805243D01*
X3969643Y-7819529D01*
X3941071Y-7833814D01*
X3912500Y-7833814D01*
X3883928Y-7819529D01*
X3869643Y-7805243D01*
X3855357Y-7776671D01*
X3841071Y-7719529D01*
X3841071Y-7648100D01*
X3855357Y-7590957D01*
X3869643Y-7562386D01*
X3883928Y-7548100D01*
X3912500Y-7533814D01*
X4126786Y-7533814D02*
X4126786Y-7590957D01*
X4241071Y-7533814D02*
X4241071Y-7590957D01*
X4683928Y-7948100D02*
X4669643Y-7933814D01*
X4641071Y-7890957D01*
X4626786Y-7862386D01*
X4612500Y-7819529D01*
X4598214Y-7748100D01*
X4598214Y-7690957D01*
X4612500Y-7619529D01*
X4626786Y-7576671D01*
X4641071Y-7548100D01*
X4669643Y-7505243D01*
X4683928Y-7490957D01*
X4855357Y-7533814D02*
X4883928Y-7533814D01*
X4912500Y-7548100D01*
X4926786Y-7562386D01*
X4941071Y-7590957D01*
X4955357Y-7648100D01*
X4955357Y-7719529D01*
X4941071Y-7776671D01*
X4926786Y-7805243D01*
X4912500Y-7819529D01*
X4883928Y-7833814D01*
X4855357Y-7833814D01*
X4826786Y-7819529D01*
X4812500Y-7805243D01*
X4798214Y-7776671D01*
X4783928Y-7719529D01*
X4783928Y-7648100D01*
X4798214Y-7590957D01*
X4812500Y-7562386D01*
X4826786Y-7548100D01*
X4855357Y-7533814D01*
X5312500Y-7833814D02*
X5312500Y-7533814D01*
X5441071Y-7833814D02*
X5441071Y-7676671D01*
X5426786Y-7648100D01*
X5398214Y-7633814D01*
X5355357Y-7633814D01*
X5326786Y-7648100D01*
X5312500Y-7662386D01*
X5626786Y-7833814D02*
X5598214Y-7819529D01*
X5583928Y-7805243D01*
X5569643Y-7776671D01*
X5569643Y-7690957D01*
X5583928Y-7662386D01*
X5598214Y-7648100D01*
X5626786Y-7633814D01*
X5669643Y-7633814D01*
X5698214Y-7648100D01*
X5712500Y-7662386D01*
X5726786Y-7690957D01*
X5726786Y-7776671D01*
X5712500Y-7805243D01*
X5698214Y-7819529D01*
X5669643Y-7833814D01*
X5626786Y-7833814D01*
X5898214Y-7833814D02*
X5869643Y-7819529D01*
X5855357Y-7790957D01*
X5855357Y-7533814D01*
X6126786Y-7819529D02*
X6098214Y-7833814D01*
X6041071Y-7833814D01*
X6012500Y-7819529D01*
X5998214Y-7790957D01*
X5998214Y-7676671D01*
X6012500Y-7648100D01*
X6041071Y-7633814D01*
X6098214Y-7633814D01*
X6126786Y-7648100D01*
X6141071Y-7676671D01*
X6141071Y-7705243D01*
X5998214Y-7733814D01*
X6255357Y-7819529D02*
X6283928Y-7833814D01*
X6341071Y-7833814D01*
X6369643Y-7819529D01*
X6383928Y-7790957D01*
X6383928Y-7776671D01*
X6369643Y-7748100D01*
X6341071Y-7733814D01*
X6298214Y-7733814D01*
X6269643Y-7719529D01*
X6255357Y-7690957D01*
X6255357Y-7676671D01*
X6269643Y-7648100D01*
X6298214Y-7633814D01*
X6341071Y-7633814D01*
X6369643Y-7648100D01*
X6741071Y-7719529D02*
X6969643Y-7719529D01*
X6855357Y-7833814D02*
X6855357Y-7605243D01*
X7469643Y-7633814D02*
X7469643Y-7833814D01*
X7398214Y-7519529D02*
X7326786Y-7733814D01*
X7512500Y-7733814D01*
X7841071Y-7819529D02*
X7869643Y-7833814D01*
X7926786Y-7833814D01*
X7955357Y-7819529D01*
X7969643Y-7790957D01*
X7969643Y-7776671D01*
X7955357Y-7748100D01*
X7926786Y-7733814D01*
X7883928Y-7733814D01*
X7855357Y-7719529D01*
X7841071Y-7690957D01*
X7841071Y-7676671D01*
X7855357Y-7648100D01*
X7883928Y-7633814D01*
X7926786Y-7633814D01*
X7955357Y-7648100D01*
X8141071Y-7833814D02*
X8112500Y-7819529D01*
X8098214Y-7790957D01*
X8098214Y-7533814D01*
X8298214Y-7833814D02*
X8269643Y-7819529D01*
X8255357Y-7805243D01*
X8241071Y-7776671D01*
X8241071Y-7690957D01*
X8255357Y-7662386D01*
X8269643Y-7648100D01*
X8298214Y-7633814D01*
X8341071Y-7633814D01*
X8369643Y-7648100D01*
X8383928Y-7662386D01*
X8398214Y-7690957D01*
X8398214Y-7776671D01*
X8383928Y-7805243D01*
X8369643Y-7819529D01*
X8341071Y-7833814D01*
X8298214Y-7833814D01*
X8483928Y-7633814D02*
X8598214Y-7633814D01*
X8526786Y-7533814D02*
X8526786Y-7790957D01*
X8541071Y-7819529D01*
X8569643Y-7833814D01*
X8598214Y-7833814D01*
X8683928Y-7819529D02*
X8712500Y-7833814D01*
X8769643Y-7833814D01*
X8798214Y-7819529D01*
X8812500Y-7790957D01*
X8812500Y-7776671D01*
X8798214Y-7748100D01*
X8769643Y-7733814D01*
X8726786Y-7733814D01*
X8698214Y-7719529D01*
X8683928Y-7690957D01*
X8683928Y-7676671D01*
X8698214Y-7648100D01*
X8726786Y-7633814D01*
X8769643Y-7633814D01*
X8798214Y-7648100D01*
X8912500Y-7948100D02*
X8926786Y-7933814D01*
X8955357Y-7890957D01*
X8969643Y-7862386D01*
X8983928Y-7819529D01*
X8998214Y-7748100D01*
X8998214Y-7690957D01*
X8983928Y-7619529D01*
X8969643Y-7576671D01*
X8955357Y-7548100D01*
X8926786Y-7505243D01*
X8912500Y-7490957D01*
X-14216Y-8122385D02*
X-14216Y-8065816D01*
X-70785Y-8065816D01*
X-70785Y-8122385D01*
X-14216Y-8122385D01*
X341071Y-7929814D02*
X369643Y-7929814D01*
X398214Y-7944100D01*
X412500Y-7958386D01*
X426786Y-7986957D01*
X441071Y-8044100D01*
X441071Y-8115529D01*
X426786Y-8172671D01*
X412500Y-8201243D01*
X398214Y-8215529D01*
X369643Y-8229814D01*
X341071Y-8229814D01*
X312500Y-8215529D01*
X298214Y-8201243D01*
X283928Y-8172671D01*
X269643Y-8115529D01*
X269643Y-8044100D01*
X283928Y-7986957D01*
X298214Y-7958386D01*
X312500Y-7944100D01*
X341071Y-7929814D01*
X569643Y-8201243D02*
X583928Y-8215529D01*
X569643Y-8229814D01*
X555357Y-8215529D01*
X569643Y-8201243D01*
X569643Y-8229814D01*
X755357Y-8058386D02*
X726786Y-8044100D01*
X712500Y-8029814D01*
X698214Y-8001243D01*
X698214Y-7986957D01*
X712500Y-7958386D01*
X726786Y-7944100D01*
X755357Y-7929814D01*
X812500Y-7929814D01*
X841071Y-7944100D01*
X855357Y-7958386D01*
X869643Y-7986957D01*
X869643Y-8001243D01*
X855357Y-8029814D01*
X841071Y-8044100D01*
X812500Y-8058386D01*
X755357Y-8058386D01*
X726786Y-8072671D01*
X712500Y-8086957D01*
X698214Y-8115529D01*
X698214Y-8172671D01*
X712500Y-8201243D01*
X726786Y-8215529D01*
X755357Y-8229814D01*
X812500Y-8229814D01*
X841071Y-8215529D01*
X855357Y-8201243D01*
X869643Y-8172671D01*
X869643Y-8115529D01*
X855357Y-8086957D01*
X841071Y-8072671D01*
X812500Y-8058386D01*
X1055357Y-7929814D02*
X1083928Y-7929814D01*
X1112500Y-7944100D01*
X1126786Y-7958386D01*
X1141071Y-7986957D01*
X1155357Y-8044100D01*
X1155357Y-8115529D01*
X1141071Y-8172671D01*
X1126786Y-8201243D01*
X1112500Y-8215529D01*
X1083928Y-8229814D01*
X1055357Y-8229814D01*
X1026786Y-8215529D01*
X1012500Y-8201243D01*
X998214Y-8172671D01*
X983928Y-8115529D01*
X983928Y-8044100D01*
X998214Y-7986957D01*
X1012500Y-7958386D01*
X1026786Y-7944100D01*
X1055357Y-7929814D01*
X1283928Y-8229814D02*
X1283928Y-8029814D01*
X1283928Y-8058386D02*
X1298214Y-8044100D01*
X1326786Y-8029814D01*
X1369643Y-8029814D01*
X1398214Y-8044100D01*
X1412500Y-8072671D01*
X1412500Y-8229814D01*
X1412500Y-8072671D02*
X1426786Y-8044100D01*
X1455357Y-8029814D01*
X1498214Y-8029814D01*
X1526786Y-8044100D01*
X1541071Y-8072671D01*
X1541071Y-8229814D01*
X1683928Y-8229814D02*
X1683928Y-8029814D01*
X1683928Y-8058386D02*
X1698214Y-8044100D01*
X1726786Y-8029814D01*
X1769643Y-8029814D01*
X1798214Y-8044100D01*
X1812500Y-8072671D01*
X1812500Y-8229814D01*
X1812500Y-8072671D02*
X1826786Y-8044100D01*
X1855357Y-8029814D01*
X1898214Y-8029814D01*
X1926786Y-8044100D01*
X1941071Y-8072671D01*
X1941071Y-8229814D01*
X2526786Y-7915529D02*
X2269643Y-8301243D01*
X2912500Y-7929814D02*
X2941071Y-7929814D01*
X2969643Y-7944100D01*
X2983928Y-7958386D01*
X2998214Y-7986957D01*
X3012500Y-8044100D01*
X3012500Y-8115529D01*
X2998214Y-8172671D01*
X2983928Y-8201243D01*
X2969643Y-8215529D01*
X2941071Y-8229814D01*
X2912500Y-8229814D01*
X2883928Y-8215529D01*
X2869643Y-8201243D01*
X2855357Y-8172671D01*
X2841071Y-8115529D01*
X2841071Y-8044100D01*
X2855357Y-7986957D01*
X2869643Y-7958386D01*
X2883928Y-7944100D01*
X2912500Y-7929814D01*
X3141071Y-8201243D02*
X3155357Y-8215529D01*
X3141071Y-8229814D01*
X3126786Y-8215529D01*
X3141071Y-8201243D01*
X3141071Y-8229814D01*
X3341071Y-7929814D02*
X3369643Y-7929814D01*
X3398214Y-7944100D01*
X3412500Y-7958386D01*
X3426786Y-7986957D01*
X3441071Y-8044100D01*
X3441071Y-8115529D01*
X3426786Y-8172671D01*
X3412500Y-8201243D01*
X3398214Y-8215529D01*
X3369643Y-8229814D01*
X3341071Y-8229814D01*
X3312500Y-8215529D01*
X3298214Y-8201243D01*
X3283928Y-8172671D01*
X3269643Y-8115529D01*
X3269643Y-8044100D01*
X3283928Y-7986957D01*
X3298214Y-7958386D01*
X3312500Y-7944100D01*
X3341071Y-7929814D01*
X3541071Y-7929814D02*
X3726786Y-7929814D01*
X3626786Y-8044100D01*
X3669643Y-8044100D01*
X3698214Y-8058386D01*
X3712500Y-8072671D01*
X3726786Y-8101243D01*
X3726786Y-8172671D01*
X3712500Y-8201243D01*
X3698214Y-8215529D01*
X3669643Y-8229814D01*
X3583928Y-8229814D01*
X3555357Y-8215529D01*
X3541071Y-8201243D01*
X4012500Y-8229814D02*
X3841071Y-8229814D01*
X3926786Y-8229814D02*
X3926786Y-7929814D01*
X3898214Y-7972671D01*
X3869643Y-8001243D01*
X3841071Y-8015529D01*
X4126786Y-7929814D02*
X4126786Y-7986957D01*
X4241071Y-7929814D02*
X4241071Y-7986957D01*
X4683928Y-8344100D02*
X4669643Y-8329814D01*
X4641071Y-8286957D01*
X4626786Y-8258386D01*
X4612500Y-8215529D01*
X4598214Y-8144100D01*
X4598214Y-8086957D01*
X4612500Y-8015529D01*
X4626786Y-7972671D01*
X4641071Y-7944100D01*
X4669643Y-7901243D01*
X4683928Y-7886957D01*
X4841071Y-8058386D02*
X4812500Y-8044100D01*
X4798214Y-8029814D01*
X4783928Y-8001243D01*
X4783928Y-7986957D01*
X4798214Y-7958386D01*
X4812500Y-7944100D01*
X4841071Y-7929814D01*
X4898214Y-7929814D01*
X4926786Y-7944100D01*
X4941071Y-7958386D01*
X4955357Y-7986957D01*
X4955357Y-8001243D01*
X4941071Y-8029814D01*
X4926786Y-8044100D01*
X4898214Y-8058386D01*
X4841071Y-8058386D01*
X4812500Y-8072671D01*
X4798214Y-8086957D01*
X4783928Y-8115529D01*
X4783928Y-8172671D01*
X4798214Y-8201243D01*
X4812500Y-8215529D01*
X4841071Y-8229814D01*
X4898214Y-8229814D01*
X4926786Y-8215529D01*
X4941071Y-8201243D01*
X4955357Y-8172671D01*
X4955357Y-8115529D01*
X4941071Y-8086957D01*
X4926786Y-8072671D01*
X4898214Y-8058386D01*
X5312500Y-8229814D02*
X5312500Y-7929814D01*
X5441071Y-8229814D02*
X5441071Y-8072671D01*
X5426786Y-8044100D01*
X5398214Y-8029814D01*
X5355357Y-8029814D01*
X5326786Y-8044100D01*
X5312500Y-8058386D01*
X5626786Y-8229814D02*
X5598214Y-8215529D01*
X5583928Y-8201243D01*
X5569643Y-8172671D01*
X5569643Y-8086957D01*
X5583928Y-8058386D01*
X5598214Y-8044100D01*
X5626786Y-8029814D01*
X5669643Y-8029814D01*
X5698214Y-8044100D01*
X5712500Y-8058386D01*
X5726786Y-8086957D01*
X5726786Y-8172671D01*
X5712500Y-8201243D01*
X5698214Y-8215529D01*
X5669643Y-8229814D01*
X5626786Y-8229814D01*
X5898214Y-8229814D02*
X5869643Y-8215529D01*
X5855357Y-8186957D01*
X5855357Y-7929814D01*
X6126786Y-8215529D02*
X6098214Y-8229814D01*
X6041071Y-8229814D01*
X6012500Y-8215529D01*
X5998214Y-8186957D01*
X5998214Y-8072671D01*
X6012500Y-8044100D01*
X6041071Y-8029814D01*
X6098214Y-8029814D01*
X6126786Y-8044100D01*
X6141071Y-8072671D01*
X6141071Y-8101243D01*
X5998214Y-8129814D01*
X6255357Y-8215529D02*
X6283928Y-8229814D01*
X6341071Y-8229814D01*
X6369643Y-8215529D01*
X6383928Y-8186957D01*
X6383928Y-8172671D01*
X6369643Y-8144100D01*
X6341071Y-8129814D01*
X6298214Y-8129814D01*
X6269643Y-8115529D01*
X6255357Y-8086957D01*
X6255357Y-8072671D01*
X6269643Y-8044100D01*
X6298214Y-8029814D01*
X6341071Y-8029814D01*
X6369643Y-8044100D01*
X6483928Y-8344100D02*
X6498214Y-8329814D01*
X6526786Y-8286957D01*
X6541071Y-8258386D01*
X6555357Y-8215529D01*
X6569643Y-8144100D01*
X6569643Y-8086957D01*
X6555357Y-8015529D01*
X6541071Y-7972671D01*
X6526786Y-7944100D01*
X6498214Y-7901243D01*
X6483928Y-7886957D01*
X-52500Y-8540100D02*
X-2500Y-8490100D01*
X-52500Y-8440100D01*
X-102500Y-8490100D01*
X-52500Y-8540100D01*
X441071Y-8625814D02*
X269643Y-8625814D01*
X355357Y-8625814D02*
X355357Y-8325814D01*
X326786Y-8368671D01*
X298214Y-8397243D01*
X269643Y-8411529D01*
X569643Y-8597243D02*
X583928Y-8611529D01*
X569643Y-8625814D01*
X555357Y-8611529D01*
X569643Y-8597243D01*
X569643Y-8625814D01*
X769643Y-8325814D02*
X798214Y-8325814D01*
X826786Y-8340100D01*
X841071Y-8354386D01*
X855357Y-8382957D01*
X869643Y-8440100D01*
X869643Y-8511529D01*
X855357Y-8568672D01*
X841071Y-8597243D01*
X826786Y-8611529D01*
X798214Y-8625814D01*
X769643Y-8625814D01*
X741071Y-8611529D01*
X726786Y-8597243D01*
X712500Y-8568672D01*
X698214Y-8511529D01*
X698214Y-8440100D01*
X712500Y-8382957D01*
X726786Y-8354386D01*
X741071Y-8340100D01*
X769643Y-8325814D01*
X1055357Y-8325814D02*
X1083928Y-8325814D01*
X1112500Y-8340100D01*
X1126786Y-8354386D01*
X1141071Y-8382957D01*
X1155357Y-8440100D01*
X1155357Y-8511529D01*
X1141071Y-8568672D01*
X1126786Y-8597243D01*
X1112500Y-8611529D01*
X1083928Y-8625814D01*
X1055357Y-8625814D01*
X1026786Y-8611529D01*
X1012500Y-8597243D01*
X998214Y-8568672D01*
X983928Y-8511529D01*
X983928Y-8440100D01*
X998214Y-8382957D01*
X1012500Y-8354386D01*
X1026786Y-8340100D01*
X1055357Y-8325814D01*
X1283928Y-8625814D02*
X1283928Y-8425814D01*
X1283928Y-8454386D02*
X1298214Y-8440100D01*
X1326786Y-8425814D01*
X1369643Y-8425814D01*
X1398214Y-8440100D01*
X1412500Y-8468672D01*
X1412500Y-8625814D01*
X1412500Y-8468672D02*
X1426786Y-8440100D01*
X1455357Y-8425814D01*
X1498214Y-8425814D01*
X1526786Y-8440100D01*
X1541071Y-8468672D01*
X1541071Y-8625814D01*
X1683928Y-8625814D02*
X1683928Y-8425814D01*
X1683928Y-8454386D02*
X1698214Y-8440100D01*
X1726786Y-8425814D01*
X1769643Y-8425814D01*
X1798214Y-8440100D01*
X1812500Y-8468672D01*
X1812500Y-8625814D01*
X1812500Y-8468672D02*
X1826786Y-8440100D01*
X1855357Y-8425814D01*
X1898214Y-8425814D01*
X1926786Y-8440100D01*
X1941071Y-8468672D01*
X1941071Y-8625814D01*
X2526786Y-8311529D02*
X2269643Y-8697243D01*
X2912500Y-8325814D02*
X2941071Y-8325814D01*
X2969643Y-8340100D01*
X2983928Y-8354386D01*
X2998214Y-8382957D01*
X3012500Y-8440100D01*
X3012500Y-8511529D01*
X2998214Y-8568672D01*
X2983928Y-8597243D01*
X2969643Y-8611529D01*
X2941071Y-8625814D01*
X2912500Y-8625814D01*
X2883928Y-8611529D01*
X2869643Y-8597243D01*
X2855357Y-8568672D01*
X2841071Y-8511529D01*
X2841071Y-8440100D01*
X2855357Y-8382957D01*
X2869643Y-8354386D01*
X2883928Y-8340100D01*
X2912500Y-8325814D01*
X3141071Y-8597243D02*
X3155357Y-8611529D01*
X3141071Y-8625814D01*
X3126786Y-8611529D01*
X3141071Y-8597243D01*
X3141071Y-8625814D01*
X3341071Y-8325814D02*
X3369643Y-8325814D01*
X3398214Y-8340100D01*
X3412500Y-8354386D01*
X3426786Y-8382957D01*
X3441071Y-8440100D01*
X3441071Y-8511529D01*
X3426786Y-8568672D01*
X3412500Y-8597243D01*
X3398214Y-8611529D01*
X3369643Y-8625814D01*
X3341071Y-8625814D01*
X3312500Y-8611529D01*
X3298214Y-8597243D01*
X3283928Y-8568672D01*
X3269643Y-8511529D01*
X3269643Y-8440100D01*
X3283928Y-8382957D01*
X3298214Y-8354386D01*
X3312500Y-8340100D01*
X3341071Y-8325814D01*
X3541071Y-8325814D02*
X3726786Y-8325814D01*
X3626786Y-8440100D01*
X3669643Y-8440100D01*
X3698214Y-8454386D01*
X3712500Y-8468672D01*
X3726786Y-8497243D01*
X3726786Y-8568672D01*
X3712500Y-8597243D01*
X3698214Y-8611529D01*
X3669643Y-8625814D01*
X3583928Y-8625814D01*
X3555357Y-8611529D01*
X3541071Y-8597243D01*
X3869643Y-8625814D02*
X3926786Y-8625814D01*
X3955357Y-8611529D01*
X3969643Y-8597243D01*
X3998214Y-8554386D01*
X4012500Y-8497243D01*
X4012500Y-8382957D01*
X3998214Y-8354386D01*
X3983928Y-8340100D01*
X3955357Y-8325814D01*
X3898214Y-8325814D01*
X3869643Y-8340100D01*
X3855357Y-8354386D01*
X3841071Y-8382957D01*
X3841071Y-8454386D01*
X3855357Y-8482957D01*
X3869643Y-8497243D01*
X3898214Y-8511529D01*
X3955357Y-8511529D01*
X3983928Y-8497243D01*
X3998214Y-8482957D01*
X4012500Y-8454386D01*
X4126786Y-8325814D02*
X4126786Y-8382957D01*
X4241071Y-8325814D02*
X4241071Y-8382957D01*
X4683928Y-8740100D02*
X4669643Y-8725814D01*
X4641071Y-8682957D01*
X4626786Y-8654386D01*
X4612500Y-8611529D01*
X4598214Y-8540100D01*
X4598214Y-8482957D01*
X4612500Y-8411529D01*
X4626786Y-8368671D01*
X4641071Y-8340100D01*
X4669643Y-8297243D01*
X4683928Y-8282957D01*
X4841071Y-8454386D02*
X4812500Y-8440100D01*
X4798214Y-8425814D01*
X4783928Y-8397243D01*
X4783928Y-8382957D01*
X4798214Y-8354386D01*
X4812500Y-8340100D01*
X4841071Y-8325814D01*
X4898214Y-8325814D01*
X4926786Y-8340100D01*
X4941071Y-8354386D01*
X4955357Y-8382957D01*
X4955357Y-8397243D01*
X4941071Y-8425814D01*
X4926786Y-8440100D01*
X4898214Y-8454386D01*
X4841071Y-8454386D01*
X4812500Y-8468672D01*
X4798214Y-8482957D01*
X4783928Y-8511529D01*
X4783928Y-8568672D01*
X4798214Y-8597243D01*
X4812500Y-8611529D01*
X4841071Y-8625814D01*
X4898214Y-8625814D01*
X4926786Y-8611529D01*
X4941071Y-8597243D01*
X4955357Y-8568672D01*
X4955357Y-8511529D01*
X4941071Y-8482957D01*
X4926786Y-8468672D01*
X4898214Y-8454386D01*
X5212500Y-8325814D02*
X5155357Y-8325814D01*
X5126786Y-8340100D01*
X5112500Y-8354386D01*
X5083928Y-8397243D01*
X5069643Y-8454386D01*
X5069643Y-8568672D01*
X5083928Y-8597243D01*
X5098214Y-8611529D01*
X5126786Y-8625814D01*
X5183928Y-8625814D01*
X5212500Y-8611529D01*
X5226786Y-8597243D01*
X5241071Y-8568672D01*
X5241071Y-8497243D01*
X5226786Y-8468672D01*
X5212500Y-8454386D01*
X5183928Y-8440100D01*
X5126786Y-8440100D01*
X5098214Y-8454386D01*
X5083928Y-8468672D01*
X5069643Y-8497243D01*
X5598214Y-8625814D02*
X5598214Y-8325814D01*
X5726786Y-8625814D02*
X5726786Y-8468672D01*
X5712500Y-8440100D01*
X5683928Y-8425814D01*
X5641071Y-8425814D01*
X5612500Y-8440100D01*
X5598214Y-8454386D01*
X5912500Y-8625814D02*
X5883928Y-8611529D01*
X5869643Y-8597243D01*
X5855357Y-8568672D01*
X5855357Y-8482957D01*
X5869643Y-8454386D01*
X5883928Y-8440100D01*
X5912500Y-8425814D01*
X5955357Y-8425814D01*
X5983928Y-8440100D01*
X5998214Y-8454386D01*
X6012500Y-8482957D01*
X6012500Y-8568672D01*
X5998214Y-8597243D01*
X5983928Y-8611529D01*
X5955357Y-8625814D01*
X5912500Y-8625814D01*
X6183928Y-8625814D02*
X6155357Y-8611529D01*
X6141071Y-8582957D01*
X6141071Y-8325814D01*
X6412500Y-8611529D02*
X6383928Y-8625814D01*
X6326786Y-8625814D01*
X6298214Y-8611529D01*
X6283928Y-8582957D01*
X6283928Y-8468672D01*
X6298214Y-8440100D01*
X6326786Y-8425814D01*
X6383928Y-8425814D01*
X6412500Y-8440100D01*
X6426786Y-8468672D01*
X6426786Y-8497243D01*
X6283928Y-8525814D01*
X6541071Y-8611529D02*
X6569643Y-8625814D01*
X6626786Y-8625814D01*
X6655357Y-8611529D01*
X6669643Y-8582957D01*
X6669643Y-8568672D01*
X6655357Y-8540100D01*
X6626786Y-8525814D01*
X6583928Y-8525814D01*
X6555357Y-8511529D01*
X6541071Y-8482957D01*
X6541071Y-8468672D01*
X6555357Y-8440100D01*
X6583928Y-8425814D01*
X6626786Y-8425814D01*
X6655357Y-8440100D01*
X6769643Y-8740100D02*
X6783928Y-8725814D01*
X6812500Y-8682957D01*
X6826786Y-8654386D01*
X6841071Y-8611529D01*
X6855357Y-8540100D01*
X6855357Y-8482957D01*
X6841071Y-8411529D01*
X6826786Y-8368671D01*
X6812500Y-8340100D01*
X6783928Y-8297243D01*
X6769643Y-8282957D01*
M02*
