%TF.GenerationSoftware,KiCad,Pcbnew,5.1.5-br-unknown-alt1.rc1*%
%TF.CreationDate,2025-11-25T07:02:03+07:00*%
%TF.ProjectId,ch32v307_100,63683332-7633-4303-975f-3130302e6b69,rev?*%
%TF.SameCoordinates,PX21e9a40PY1d11680*%
%TF.FileFunction,Paste,Bot*%
%TF.FilePolarity,Positive*%
%FSLAX46Y46*%
G04 Gerber Fmt 4.6, Leading zero omitted, Abs format (unit mm)*
G04 Created by KiCad (PCBNEW 5.1.5-br-unknown-alt1.rc1) date 2025-11-25 07:02:03*
%MOMM*%
%LPD*%
G01*
G04 APERTURE LIST*
%ADD10R,2.200000X1.800000*%
%ADD11R,1.300000X0.300000*%
G04 APERTURE END LIST*
D10*
%TO.C,J8*%
X14856000Y-17814000D03*
X14856000Y-41114000D03*
D11*
X18106000Y-39214000D03*
X18106000Y-38714000D03*
X18106000Y-38214000D03*
X18106000Y-37714000D03*
X18106000Y-37214000D03*
X18106000Y-36714000D03*
X18106000Y-36214000D03*
X18106000Y-35714000D03*
X18106000Y-35214000D03*
X18106000Y-34714000D03*
X18106000Y-34214000D03*
X18106000Y-33714000D03*
X18106000Y-33214000D03*
X18106000Y-32714000D03*
X18106000Y-32214000D03*
X18106000Y-31714000D03*
X18106000Y-31214000D03*
X18106000Y-30714000D03*
X18106000Y-30214000D03*
X18106000Y-29714000D03*
X18106000Y-29214000D03*
X18106000Y-28714000D03*
X18106000Y-28214000D03*
X18106000Y-27714000D03*
X18106000Y-27214000D03*
X18106000Y-26714000D03*
X18106000Y-26214000D03*
X18106000Y-25714000D03*
X18106000Y-25214000D03*
X18106000Y-24714000D03*
X18106000Y-24214000D03*
X18106000Y-23714000D03*
X18106000Y-23214000D03*
X18106000Y-22714000D03*
X18106000Y-22214000D03*
X18106000Y-21714000D03*
X18106000Y-21214000D03*
X18106000Y-20714000D03*
X18106000Y-20214000D03*
X18106000Y-19714000D03*
%TD*%
M02*
