%TF.GenerationSoftware,KiCad,Pcbnew,5.1.5-br-unknown-alt1.rc1*%
%TF.CreationDate,2025-10-05T01:50:59+07:00*%
%TF.ProjectId,ch32v307_100,63683332-7633-4303-975f-3130302e6b69,rev?*%
%TF.SameCoordinates,PX21e9a40PY1d11680*%
%TF.FileFunction,Legend,Top*%
%TF.FilePolarity,Positive*%
%FSLAX46Y46*%
G04 Gerber Fmt 4.6, Leading zero omitted, Abs format (unit mm)*
G04 Created by KiCad (PCBNEW 5.1.5-br-unknown-alt1.rc1) date 2025-10-05 01:50:59*
%MOMM*%
%LPD*%
G01*
G04 APERTURE LIST*
%ADD10C,0.100000*%
%ADD11C,0.200000*%
%ADD12C,0.300000*%
%ADD13C,0.150000*%
%ADD14C,0.120000*%
G04 APERTURE END LIST*
D10*
X9978000Y-55242666D02*
X10444666Y-55942666D01*
X10444666Y-55242666D02*
X9978000Y-55942666D01*
X10711333Y-55676000D02*
X11244666Y-55676000D01*
X10978000Y-55942666D02*
X10978000Y-55409333D01*
X12778000Y-55609333D02*
X12778000Y-55942666D01*
X12544666Y-55242666D02*
X12778000Y-55609333D01*
X13011333Y-55242666D01*
X13244666Y-55676000D02*
X13778000Y-55676000D01*
X13511333Y-55942666D02*
X13511333Y-55409333D01*
X15111333Y-55242666D02*
X15578000Y-55942666D01*
X15578000Y-55242666D02*
X15111333Y-55942666D01*
X15844666Y-55676000D02*
X16378000Y-55676000D01*
X17911333Y-55609333D02*
X17911333Y-55942666D01*
X17678000Y-55242666D02*
X17911333Y-55609333D01*
X18144666Y-55242666D01*
X18378000Y-55676000D02*
X18911333Y-55676000D01*
D11*
X96044285Y-5673714D02*
X96958571Y-5673714D01*
X96501428Y-6130857D02*
X96501428Y-5216571D01*
X98101428Y-4930857D02*
X97530000Y-4930857D01*
X97472857Y-5502285D01*
X97530000Y-5445142D01*
X97644285Y-5388000D01*
X97930000Y-5388000D01*
X98044285Y-5445142D01*
X98101428Y-5502285D01*
X98158571Y-5616571D01*
X98158571Y-5902285D01*
X98101428Y-6016571D01*
X98044285Y-6073714D01*
X97930000Y-6130857D01*
X97644285Y-6130857D01*
X97530000Y-6073714D01*
X97472857Y-6016571D01*
X98501428Y-4930857D02*
X98901428Y-6130857D01*
X99301428Y-4930857D01*
X102158571Y-4988000D02*
X102044285Y-4930857D01*
X101872857Y-4930857D01*
X101701428Y-4988000D01*
X101587142Y-5102285D01*
X101530000Y-5216571D01*
X101472857Y-5445142D01*
X101472857Y-5616571D01*
X101530000Y-5845142D01*
X101587142Y-5959428D01*
X101701428Y-6073714D01*
X101872857Y-6130857D01*
X101987142Y-6130857D01*
X102158571Y-6073714D01*
X102215714Y-6016571D01*
X102215714Y-5616571D01*
X101987142Y-5616571D01*
X102730000Y-6130857D02*
X102730000Y-4930857D01*
X103415714Y-6130857D01*
X103415714Y-4930857D01*
X103987142Y-6130857D02*
X103987142Y-4930857D01*
X104272857Y-4930857D01*
X104444285Y-4988000D01*
X104558571Y-5102285D01*
X104615714Y-5216571D01*
X104672857Y-5445142D01*
X104672857Y-5616571D01*
X104615714Y-5845142D01*
X104558571Y-5959428D01*
X104444285Y-6073714D01*
X104272857Y-6130857D01*
X103987142Y-6130857D01*
X22964857Y-43944857D02*
X22964857Y-43259142D01*
X24164857Y-43602000D02*
X22964857Y-43602000D01*
X24107714Y-42916285D02*
X24164857Y-42744857D01*
X24164857Y-42459142D01*
X24107714Y-42344857D01*
X24050571Y-42287714D01*
X23936285Y-42230571D01*
X23822000Y-42230571D01*
X23707714Y-42287714D01*
X23650571Y-42344857D01*
X23593428Y-42459142D01*
X23536285Y-42687714D01*
X23479142Y-42802000D01*
X23422000Y-42859142D01*
X23307714Y-42916285D01*
X23193428Y-42916285D01*
X23079142Y-42859142D01*
X23022000Y-42802000D01*
X22964857Y-42687714D01*
X22964857Y-42402000D01*
X23022000Y-42230571D01*
X24279142Y-42002000D02*
X24279142Y-41087714D01*
X24050571Y-40116285D02*
X24107714Y-40173428D01*
X24164857Y-40344857D01*
X24164857Y-40459142D01*
X24107714Y-40630571D01*
X23993428Y-40744857D01*
X23879142Y-40802000D01*
X23650571Y-40859142D01*
X23479142Y-40859142D01*
X23250571Y-40802000D01*
X23136285Y-40744857D01*
X23022000Y-40630571D01*
X22964857Y-40459142D01*
X22964857Y-40344857D01*
X23022000Y-40173428D01*
X23079142Y-40116285D01*
X24107714Y-39659142D02*
X24164857Y-39487714D01*
X24164857Y-39202000D01*
X24107714Y-39087714D01*
X24050571Y-39030571D01*
X23936285Y-38973428D01*
X23822000Y-38973428D01*
X23707714Y-39030571D01*
X23650571Y-39087714D01*
X23593428Y-39202000D01*
X23536285Y-39430571D01*
X23479142Y-39544857D01*
X23422000Y-39602000D01*
X23307714Y-39659142D01*
X23193428Y-39659142D01*
X23079142Y-39602000D01*
X23022000Y-39544857D01*
X22964857Y-39430571D01*
X22964857Y-39144857D01*
X23022000Y-38973428D01*
D12*
X6544571Y-38218857D02*
X6544571Y-37361714D01*
X8044571Y-37790285D02*
X6544571Y-37790285D01*
X7258857Y-36361714D02*
X7258857Y-36861714D01*
X8044571Y-36861714D02*
X6544571Y-36861714D01*
X6544571Y-36147428D01*
X6544571Y-35790285D02*
X6544571Y-34933142D01*
X8044571Y-35361714D02*
X6544571Y-35361714D01*
X45890857Y-51962857D02*
X46390857Y-51962857D01*
X46605142Y-52748571D02*
X45890857Y-52748571D01*
X45890857Y-51248571D01*
X46605142Y-51248571D01*
X47105142Y-51248571D02*
X48105142Y-52748571D01*
X48105142Y-51248571D02*
X47105142Y-52748571D01*
X48462285Y-51248571D02*
X49319428Y-51248571D01*
X48890857Y-52748571D02*
X48890857Y-51248571D01*
X55249142Y-8298571D02*
X55249142Y-6798571D01*
X55606285Y-6798571D01*
X55820571Y-6870000D01*
X55963428Y-7012857D01*
X56034857Y-7155714D01*
X56106285Y-7441428D01*
X56106285Y-7655714D01*
X56034857Y-7941428D01*
X55963428Y-8084285D01*
X55820571Y-8227142D01*
X55606285Y-8298571D01*
X55249142Y-8298571D01*
X56534857Y-6798571D02*
X57034857Y-8298571D01*
X57534857Y-6798571D01*
X58034857Y-8298571D02*
X58034857Y-6798571D01*
D11*
X25511142Y-34375428D02*
X25454000Y-34489714D01*
X25396857Y-34546857D01*
X25282571Y-34604000D01*
X25225428Y-34604000D01*
X25111142Y-34546857D01*
X25054000Y-34489714D01*
X24996857Y-34375428D01*
X24996857Y-34146857D01*
X25054000Y-34032571D01*
X25111142Y-33975428D01*
X25225428Y-33918285D01*
X25282571Y-33918285D01*
X25396857Y-33975428D01*
X25454000Y-34032571D01*
X25511142Y-34146857D01*
X25511142Y-34375428D01*
X25568285Y-34489714D01*
X25625428Y-34546857D01*
X25739714Y-34604000D01*
X25968285Y-34604000D01*
X26082571Y-34546857D01*
X26139714Y-34489714D01*
X26196857Y-34375428D01*
X26196857Y-34146857D01*
X26139714Y-34032571D01*
X26082571Y-33975428D01*
X25968285Y-33918285D01*
X25739714Y-33918285D01*
X25625428Y-33975428D01*
X25568285Y-34032571D01*
X25511142Y-34146857D01*
X26196857Y-32489714D02*
X24996857Y-32489714D01*
X25854000Y-32089714D01*
X24996857Y-31689714D01*
X26196857Y-31689714D01*
X26196857Y-31118285D02*
X24996857Y-31118285D01*
X25568285Y-31118285D02*
X25568285Y-30432571D01*
X26196857Y-30432571D02*
X24996857Y-30432571D01*
X25396857Y-29975428D02*
X25396857Y-29346857D01*
X26196857Y-29975428D01*
X26196857Y-29346857D01*
X32852000Y-8042285D02*
X33023428Y-8099428D01*
X33080571Y-8156571D01*
X33137714Y-8270857D01*
X33137714Y-8442285D01*
X33080571Y-8556571D01*
X33023428Y-8613714D01*
X32909142Y-8670857D01*
X32452000Y-8670857D01*
X32452000Y-7470857D01*
X32852000Y-7470857D01*
X32966285Y-7528000D01*
X33023428Y-7585142D01*
X33080571Y-7699428D01*
X33080571Y-7813714D01*
X33023428Y-7928000D01*
X32966285Y-7985142D01*
X32852000Y-8042285D01*
X32452000Y-8042285D01*
X33880571Y-7470857D02*
X34109142Y-7470857D01*
X34223428Y-7528000D01*
X34337714Y-7642285D01*
X34394857Y-7870857D01*
X34394857Y-8270857D01*
X34337714Y-8499428D01*
X34223428Y-8613714D01*
X34109142Y-8670857D01*
X33880571Y-8670857D01*
X33766285Y-8613714D01*
X33652000Y-8499428D01*
X33594857Y-8270857D01*
X33594857Y-7870857D01*
X33652000Y-7642285D01*
X33766285Y-7528000D01*
X33880571Y-7470857D01*
X35137714Y-7470857D02*
X35366285Y-7470857D01*
X35480571Y-7528000D01*
X35594857Y-7642285D01*
X35652000Y-7870857D01*
X35652000Y-8270857D01*
X35594857Y-8499428D01*
X35480571Y-8613714D01*
X35366285Y-8670857D01*
X35137714Y-8670857D01*
X35023428Y-8613714D01*
X34909142Y-8499428D01*
X34852000Y-8270857D01*
X34852000Y-7870857D01*
X34909142Y-7642285D01*
X35023428Y-7528000D01*
X35137714Y-7470857D01*
X35994857Y-7470857D02*
X36680571Y-7470857D01*
X36337714Y-8670857D02*
X36337714Y-7470857D01*
X37309142Y-7470857D02*
X37423428Y-7470857D01*
X37537714Y-7528000D01*
X37594857Y-7585142D01*
X37652000Y-7699428D01*
X37709142Y-7928000D01*
X37709142Y-8213714D01*
X37652000Y-8442285D01*
X37594857Y-8556571D01*
X37537714Y-8613714D01*
X37423428Y-8670857D01*
X37309142Y-8670857D01*
X37194857Y-8613714D01*
X37137714Y-8556571D01*
X37080571Y-8442285D01*
X37023428Y-8213714D01*
X37023428Y-7928000D01*
X37080571Y-7699428D01*
X37137714Y-7585142D01*
X37194857Y-7528000D01*
X37309142Y-7470857D01*
X22894857Y-25110857D02*
X22323428Y-25510857D01*
X22894857Y-25796571D02*
X21694857Y-25796571D01*
X21694857Y-25339428D01*
X21752000Y-25225142D01*
X21809142Y-25168000D01*
X21923428Y-25110857D01*
X22094857Y-25110857D01*
X22209142Y-25168000D01*
X22266285Y-25225142D01*
X22323428Y-25339428D01*
X22323428Y-25796571D01*
X22266285Y-24596571D02*
X22266285Y-24196571D01*
X22894857Y-24025142D02*
X22894857Y-24596571D01*
X21694857Y-24596571D01*
X21694857Y-24025142D01*
X22837714Y-23568000D02*
X22894857Y-23396571D01*
X22894857Y-23110857D01*
X22837714Y-22996571D01*
X22780571Y-22939428D01*
X22666285Y-22882285D01*
X22552000Y-22882285D01*
X22437714Y-22939428D01*
X22380571Y-22996571D01*
X22323428Y-23110857D01*
X22266285Y-23339428D01*
X22209142Y-23453714D01*
X22152000Y-23510857D01*
X22037714Y-23568000D01*
X21923428Y-23568000D01*
X21809142Y-23510857D01*
X21752000Y-23453714D01*
X21694857Y-23339428D01*
X21694857Y-23053714D01*
X21752000Y-22882285D01*
X22266285Y-22368000D02*
X22266285Y-21968000D01*
X22894857Y-21796571D02*
X22894857Y-22368000D01*
X21694857Y-22368000D01*
X21694857Y-21796571D01*
X21694857Y-21453714D02*
X21694857Y-20768000D01*
X22894857Y-21110857D02*
X21694857Y-21110857D01*
D13*
X64545333Y-11446000D02*
X64578666Y-11346000D01*
X64578666Y-11179333D01*
X64545333Y-11112666D01*
X64512000Y-11079333D01*
X64445333Y-11046000D01*
X64378666Y-11046000D01*
X64312000Y-11079333D01*
X64278666Y-11112666D01*
X64245333Y-11179333D01*
X64212000Y-11312666D01*
X64178666Y-11379333D01*
X64145333Y-11412666D01*
X64078666Y-11446000D01*
X64012000Y-11446000D01*
X63945333Y-11412666D01*
X63912000Y-11379333D01*
X63878666Y-11312666D01*
X63878666Y-11146000D01*
X63912000Y-11046000D01*
X63878666Y-10812666D02*
X64578666Y-10646000D01*
X64078666Y-10512666D01*
X64578666Y-10379333D01*
X63878666Y-10212666D01*
X64512000Y-9546000D02*
X64545333Y-9579333D01*
X64578666Y-9679333D01*
X64578666Y-9746000D01*
X64545333Y-9846000D01*
X64478666Y-9912666D01*
X64412000Y-9946000D01*
X64278666Y-9979333D01*
X64178666Y-9979333D01*
X64045333Y-9946000D01*
X63978666Y-9912666D01*
X63912000Y-9846000D01*
X63878666Y-9746000D01*
X63878666Y-9679333D01*
X63912000Y-9579333D01*
X63945333Y-9546000D01*
X64545333Y-8746000D02*
X64578666Y-8646000D01*
X64578666Y-8479333D01*
X64545333Y-8412666D01*
X64512000Y-8379333D01*
X64445333Y-8346000D01*
X64378666Y-8346000D01*
X64312000Y-8379333D01*
X64278666Y-8412666D01*
X64245333Y-8479333D01*
X64212000Y-8612666D01*
X64178666Y-8679333D01*
X64145333Y-8712666D01*
X64078666Y-8746000D01*
X64012000Y-8746000D01*
X63945333Y-8712666D01*
X63912000Y-8679333D01*
X63878666Y-8612666D01*
X63878666Y-8446000D01*
X63912000Y-8346000D01*
X63878666Y-8112666D02*
X64578666Y-7946000D01*
X64078666Y-7812666D01*
X64578666Y-7679333D01*
X63878666Y-7512666D01*
X64578666Y-7246000D02*
X63878666Y-7246000D01*
X63878666Y-6779333D02*
X63878666Y-6646000D01*
X63912000Y-6579333D01*
X63978666Y-6512666D01*
X64112000Y-6479333D01*
X64345333Y-6479333D01*
X64478666Y-6512666D01*
X64545333Y-6579333D01*
X64578666Y-6646000D01*
X64578666Y-6779333D01*
X64545333Y-6846000D01*
X64478666Y-6912666D01*
X64345333Y-6946000D01*
X64112000Y-6946000D01*
X63978666Y-6912666D01*
X63912000Y-6846000D01*
X63878666Y-6779333D01*
X63912000Y-5279333D02*
X63878666Y-5346000D01*
X63878666Y-5446000D01*
X63912000Y-5546000D01*
X63978666Y-5612666D01*
X64045333Y-5646000D01*
X64178666Y-5679333D01*
X64278666Y-5679333D01*
X64412000Y-5646000D01*
X64478666Y-5612666D01*
X64545333Y-5546000D01*
X64578666Y-5446000D01*
X64578666Y-5379333D01*
X64545333Y-5279333D01*
X64512000Y-5246000D01*
X64278666Y-5246000D01*
X64278666Y-5379333D01*
X64578666Y-4946000D02*
X63878666Y-4946000D01*
X64578666Y-4546000D01*
X63878666Y-4546000D01*
X64578666Y-4212666D02*
X63878666Y-4212666D01*
X63878666Y-4046000D01*
X63912000Y-3946000D01*
X63978666Y-3879333D01*
X64045333Y-3846000D01*
X64178666Y-3812666D01*
X64278666Y-3812666D01*
X64412000Y-3846000D01*
X64478666Y-3879333D01*
X64545333Y-3946000D01*
X64578666Y-4046000D01*
X64578666Y-4212666D01*
X64312000Y-2979333D02*
X64312000Y-2446000D01*
X64578666Y-2712666D02*
X64045333Y-2712666D01*
X63878666Y-2179333D02*
X63878666Y-1746000D01*
X64145333Y-1979333D01*
X64145333Y-1879333D01*
X64178666Y-1812666D01*
X64212000Y-1779333D01*
X64278666Y-1746000D01*
X64445333Y-1746000D01*
X64512000Y-1779333D01*
X64545333Y-1812666D01*
X64578666Y-1879333D01*
X64578666Y-2079333D01*
X64545333Y-2146000D01*
X64512000Y-2179333D01*
X64512000Y-1446000D02*
X64545333Y-1412666D01*
X64578666Y-1446000D01*
X64545333Y-1479333D01*
X64512000Y-1446000D01*
X64578666Y-1446000D01*
X63878666Y-1179333D02*
X63878666Y-746000D01*
X64145333Y-979333D01*
X64145333Y-879333D01*
X64178666Y-812666D01*
X64212000Y-779333D01*
X64278666Y-746000D01*
X64445333Y-746000D01*
X64512000Y-779333D01*
X64545333Y-812666D01*
X64578666Y-879333D01*
X64578666Y-1079333D01*
X64545333Y-1146000D01*
X64512000Y-1179333D01*
D14*
%TO.C,U3*%
X39372000Y-22800000D02*
X38007000Y-22800000D01*
X39372000Y-22100000D02*
X39372000Y-22800000D01*
X40072000Y-22100000D02*
X39372000Y-22100000D01*
X53592000Y-22100000D02*
X53592000Y-22800000D01*
X52892000Y-22100000D02*
X53592000Y-22100000D01*
X39372000Y-36320000D02*
X39372000Y-35620000D01*
X40072000Y-36320000D02*
X39372000Y-36320000D01*
X53592000Y-36320000D02*
X53592000Y-35620000D01*
X52892000Y-36320000D02*
X53592000Y-36320000D01*
%TO.C,U7*%
X82849000Y-30878000D02*
X82849000Y-29718000D01*
X83229000Y-30878000D02*
X82849000Y-30878000D01*
X83229000Y-36068000D02*
X83229000Y-30878000D01*
X83229000Y-41258000D02*
X82849000Y-41258000D01*
X83229000Y-36068000D02*
X83229000Y-41258000D01*
X64599000Y-30878000D02*
X64979000Y-30878000D01*
X64599000Y-36068000D02*
X64599000Y-30878000D01*
X64599000Y-41258000D02*
X64979000Y-41258000D01*
X64599000Y-36068000D02*
X64599000Y-41258000D01*
D13*
%TO.C,U4*%
X11770000Y-51239000D02*
X16170000Y-51239000D01*
X10195000Y-45714000D02*
X16170000Y-45714000D01*
D14*
%TO.C,R2*%
X29555221Y-39876000D02*
X29880779Y-39876000D01*
X29555221Y-40896000D02*
X29880779Y-40896000D01*
%TO.C,C2*%
X25999221Y-40638000D02*
X26324779Y-40638000D01*
X25999221Y-41658000D02*
X26324779Y-41658000D01*
%TO.C,J6*%
X22666000Y-46796000D02*
X21336000Y-46796000D01*
X22666000Y-45466000D02*
X22666000Y-46796000D01*
X22666000Y-44196000D02*
X20006000Y-44196000D01*
X20006000Y-44196000D02*
X20006000Y-41596000D01*
X22666000Y-44196000D02*
X22666000Y-41596000D01*
X22666000Y-41596000D02*
X20006000Y-41596000D01*
%TO.C,C8*%
X32256000Y-33944779D02*
X32256000Y-33619221D01*
X33276000Y-33944779D02*
X33276000Y-33619221D01*
%TO.C,RN1*%
X34896000Y-49014000D02*
X34896000Y-48014000D01*
X38256000Y-49014000D02*
X38256000Y-48014000D01*
%TO.C,BT1*%
X25628600Y-12915900D02*
X28181300Y-12915900D01*
X28181300Y-12915900D02*
X28181300Y-203200D01*
X28181300Y-203200D02*
X25641300Y-215900D01*
X25641300Y-215900D02*
X25641300Y-1498600D01*
X25641300Y-1498600D02*
X24384000Y-1498600D01*
X24384000Y-1498600D02*
X24384000Y-254000D01*
X24384000Y-254000D02*
X18059400Y-241300D01*
X18059400Y-241300D02*
X14224000Y-4089400D01*
X14224000Y-4089400D02*
X14236700Y-9169400D01*
X14236700Y-9169400D02*
X18059400Y-12979400D01*
X18059400Y-12979400D02*
X24384000Y-12954000D01*
X24384000Y-12954000D02*
X24384000Y-11671300D01*
X24384000Y-11671300D02*
X25641300Y-11671300D01*
X25641300Y-11671300D02*
X25641300Y-12890500D01*
%TO.C,C1*%
X23205221Y-53846000D02*
X23530779Y-53846000D01*
X23205221Y-54866000D02*
X23530779Y-54866000D01*
%TO.C,C3*%
X25555500Y-51914500D02*
X25555500Y-51539500D01*
X25743000Y-51727000D02*
X25368000Y-51727000D01*
X24938563Y-49232000D02*
X24238563Y-48532000D01*
X24938563Y-51352000D02*
X24238563Y-52052000D01*
X24238563Y-48532000D02*
X21608000Y-48532000D01*
X24238563Y-52052000D02*
X21608000Y-52052000D01*
X21608000Y-52052000D02*
X21608000Y-51352000D01*
X21608000Y-48532000D02*
X21608000Y-49232000D01*
%TO.C,C4*%
X24402000Y-42944000D02*
X24402000Y-43644000D01*
X24402000Y-46464000D02*
X24402000Y-45764000D01*
X27032563Y-46464000D02*
X24402000Y-46464000D01*
X27032563Y-42944000D02*
X24402000Y-42944000D01*
X27732563Y-45764000D02*
X27032563Y-46464000D01*
X27732563Y-43644000D02*
X27032563Y-42944000D01*
X28537000Y-46139000D02*
X28162000Y-46139000D01*
X28349500Y-46326500D02*
X28349500Y-45951500D01*
%TO.C,C5*%
X33276000Y-22697221D02*
X33276000Y-23022779D01*
X32256000Y-22697221D02*
X32256000Y-23022779D01*
%TO.C,C6*%
X32256000Y-26761221D02*
X32256000Y-27086779D01*
X33276000Y-26761221D02*
X33276000Y-27086779D01*
%TO.C,C7*%
X33276000Y-30642779D02*
X33276000Y-30317221D01*
X32256000Y-30642779D02*
X32256000Y-30317221D01*
%TO.C,C9*%
X22610578Y-14022000D02*
X22093422Y-14022000D01*
X22610578Y-15442000D02*
X22093422Y-15442000D01*
%TO.C,C10*%
X100492779Y-7876000D02*
X100167221Y-7876000D01*
X100492779Y-6856000D02*
X100167221Y-6856000D01*
%TO.C,C11*%
X74076779Y-44194000D02*
X73751221Y-44194000D01*
X74076779Y-45214000D02*
X73751221Y-45214000D01*
%TO.C,C12*%
X77307221Y-13460000D02*
X77632779Y-13460000D01*
X77307221Y-14480000D02*
X77632779Y-14480000D01*
%TO.C,C14*%
X73497221Y-28450000D02*
X73822779Y-28450000D01*
X73497221Y-27430000D02*
X73822779Y-27430000D01*
%TO.C,C15*%
X54955221Y-38610000D02*
X55280779Y-38610000D01*
X54955221Y-37590000D02*
X55280779Y-37590000D01*
%TO.C,C17*%
X57910000Y-23022779D02*
X57910000Y-22697221D01*
X58930000Y-23022779D02*
X58930000Y-22697221D01*
%TO.C,C18*%
X34796000Y-27777221D02*
X34796000Y-28102779D01*
X35816000Y-27777221D02*
X35816000Y-28102779D01*
%TO.C,C19*%
X73060779Y-58168000D02*
X72735221Y-58168000D01*
X73060779Y-57148000D02*
X72735221Y-57148000D01*
%TO.C,C20*%
X41239221Y-41404000D02*
X41564779Y-41404000D01*
X41239221Y-40384000D02*
X41564779Y-40384000D01*
%TO.C,C21*%
X38516779Y-17524000D02*
X38191221Y-17524000D01*
X38516779Y-18544000D02*
X38191221Y-18544000D01*
%TO.C,C22*%
X78962000Y-4084000D02*
G75*
G03*
X78962000Y-4084000I-3270000J0D01*
G01*
X72462000Y-4084000D02*
X78922000Y-4084000D01*
X72462000Y-4044000D02*
X78922000Y-4044000D01*
X72462000Y-4004000D02*
X78922000Y-4004000D01*
X72464000Y-3964000D02*
X78920000Y-3964000D01*
X72465000Y-3924000D02*
X78919000Y-3924000D01*
X72468000Y-3884000D02*
X78916000Y-3884000D01*
X72470000Y-3844000D02*
X74652000Y-3844000D01*
X76732000Y-3844000D02*
X78914000Y-3844000D01*
X72474000Y-3804000D02*
X74652000Y-3804000D01*
X76732000Y-3804000D02*
X78910000Y-3804000D01*
X72477000Y-3764000D02*
X74652000Y-3764000D01*
X76732000Y-3764000D02*
X78907000Y-3764000D01*
X72481000Y-3724000D02*
X74652000Y-3724000D01*
X76732000Y-3724000D02*
X78903000Y-3724000D01*
X72486000Y-3684000D02*
X74652000Y-3684000D01*
X76732000Y-3684000D02*
X78898000Y-3684000D01*
X72491000Y-3644000D02*
X74652000Y-3644000D01*
X76732000Y-3644000D02*
X78893000Y-3644000D01*
X72497000Y-3604000D02*
X74652000Y-3604000D01*
X76732000Y-3604000D02*
X78887000Y-3604000D01*
X72503000Y-3564000D02*
X74652000Y-3564000D01*
X76732000Y-3564000D02*
X78881000Y-3564000D01*
X72510000Y-3524000D02*
X74652000Y-3524000D01*
X76732000Y-3524000D02*
X78874000Y-3524000D01*
X72517000Y-3484000D02*
X74652000Y-3484000D01*
X76732000Y-3484000D02*
X78867000Y-3484000D01*
X72525000Y-3444000D02*
X74652000Y-3444000D01*
X76732000Y-3444000D02*
X78859000Y-3444000D01*
X72533000Y-3404000D02*
X74652000Y-3404000D01*
X76732000Y-3404000D02*
X78851000Y-3404000D01*
X72542000Y-3363000D02*
X74652000Y-3363000D01*
X76732000Y-3363000D02*
X78842000Y-3363000D01*
X72551000Y-3323000D02*
X74652000Y-3323000D01*
X76732000Y-3323000D02*
X78833000Y-3323000D01*
X72561000Y-3283000D02*
X74652000Y-3283000D01*
X76732000Y-3283000D02*
X78823000Y-3283000D01*
X72571000Y-3243000D02*
X74652000Y-3243000D01*
X76732000Y-3243000D02*
X78813000Y-3243000D01*
X72582000Y-3203000D02*
X74652000Y-3203000D01*
X76732000Y-3203000D02*
X78802000Y-3203000D01*
X72594000Y-3163000D02*
X74652000Y-3163000D01*
X76732000Y-3163000D02*
X78790000Y-3163000D01*
X72606000Y-3123000D02*
X74652000Y-3123000D01*
X76732000Y-3123000D02*
X78778000Y-3123000D01*
X72618000Y-3083000D02*
X74652000Y-3083000D01*
X76732000Y-3083000D02*
X78766000Y-3083000D01*
X72631000Y-3043000D02*
X74652000Y-3043000D01*
X76732000Y-3043000D02*
X78753000Y-3043000D01*
X72645000Y-3003000D02*
X74652000Y-3003000D01*
X76732000Y-3003000D02*
X78739000Y-3003000D01*
X72659000Y-2963000D02*
X74652000Y-2963000D01*
X76732000Y-2963000D02*
X78725000Y-2963000D01*
X72674000Y-2923000D02*
X74652000Y-2923000D01*
X76732000Y-2923000D02*
X78710000Y-2923000D01*
X72690000Y-2883000D02*
X74652000Y-2883000D01*
X76732000Y-2883000D02*
X78694000Y-2883000D01*
X72706000Y-2843000D02*
X74652000Y-2843000D01*
X76732000Y-2843000D02*
X78678000Y-2843000D01*
X72722000Y-2803000D02*
X74652000Y-2803000D01*
X76732000Y-2803000D02*
X78662000Y-2803000D01*
X72740000Y-2763000D02*
X74652000Y-2763000D01*
X76732000Y-2763000D02*
X78644000Y-2763000D01*
X72758000Y-2723000D02*
X74652000Y-2723000D01*
X76732000Y-2723000D02*
X78626000Y-2723000D01*
X72776000Y-2683000D02*
X74652000Y-2683000D01*
X76732000Y-2683000D02*
X78608000Y-2683000D01*
X72796000Y-2643000D02*
X74652000Y-2643000D01*
X76732000Y-2643000D02*
X78588000Y-2643000D01*
X72816000Y-2603000D02*
X74652000Y-2603000D01*
X76732000Y-2603000D02*
X78568000Y-2603000D01*
X72836000Y-2563000D02*
X74652000Y-2563000D01*
X76732000Y-2563000D02*
X78548000Y-2563000D01*
X72858000Y-2523000D02*
X74652000Y-2523000D01*
X76732000Y-2523000D02*
X78526000Y-2523000D01*
X72880000Y-2483000D02*
X74652000Y-2483000D01*
X76732000Y-2483000D02*
X78504000Y-2483000D01*
X72902000Y-2443000D02*
X74652000Y-2443000D01*
X76732000Y-2443000D02*
X78482000Y-2443000D01*
X72926000Y-2403000D02*
X74652000Y-2403000D01*
X76732000Y-2403000D02*
X78458000Y-2403000D01*
X72950000Y-2363000D02*
X74652000Y-2363000D01*
X76732000Y-2363000D02*
X78434000Y-2363000D01*
X72976000Y-2323000D02*
X74652000Y-2323000D01*
X76732000Y-2323000D02*
X78408000Y-2323000D01*
X73002000Y-2283000D02*
X74652000Y-2283000D01*
X76732000Y-2283000D02*
X78382000Y-2283000D01*
X73028000Y-2243000D02*
X74652000Y-2243000D01*
X76732000Y-2243000D02*
X78356000Y-2243000D01*
X73056000Y-2203000D02*
X74652000Y-2203000D01*
X76732000Y-2203000D02*
X78328000Y-2203000D01*
X73085000Y-2163000D02*
X74652000Y-2163000D01*
X76732000Y-2163000D02*
X78299000Y-2163000D01*
X73114000Y-2123000D02*
X74652000Y-2123000D01*
X76732000Y-2123000D02*
X78270000Y-2123000D01*
X73144000Y-2083000D02*
X74652000Y-2083000D01*
X76732000Y-2083000D02*
X78240000Y-2083000D01*
X73176000Y-2043000D02*
X74652000Y-2043000D01*
X76732000Y-2043000D02*
X78208000Y-2043000D01*
X73208000Y-2003000D02*
X74652000Y-2003000D01*
X76732000Y-2003000D02*
X78176000Y-2003000D01*
X73242000Y-1963000D02*
X74652000Y-1963000D01*
X76732000Y-1963000D02*
X78142000Y-1963000D01*
X73276000Y-1923000D02*
X74652000Y-1923000D01*
X76732000Y-1923000D02*
X78108000Y-1923000D01*
X73312000Y-1883000D02*
X74652000Y-1883000D01*
X76732000Y-1883000D02*
X78072000Y-1883000D01*
X73349000Y-1843000D02*
X74652000Y-1843000D01*
X76732000Y-1843000D02*
X78035000Y-1843000D01*
X73387000Y-1803000D02*
X74652000Y-1803000D01*
X76732000Y-1803000D02*
X77997000Y-1803000D01*
X73427000Y-1763000D02*
X77957000Y-1763000D01*
X73468000Y-1723000D02*
X77916000Y-1723000D01*
X73510000Y-1683000D02*
X77874000Y-1683000D01*
X73555000Y-1643000D02*
X77829000Y-1643000D01*
X73600000Y-1603000D02*
X77784000Y-1603000D01*
X73648000Y-1563000D02*
X77736000Y-1563000D01*
X73697000Y-1523000D02*
X77687000Y-1523000D01*
X73748000Y-1483000D02*
X77636000Y-1483000D01*
X73802000Y-1443000D02*
X77582000Y-1443000D01*
X73858000Y-1403000D02*
X77526000Y-1403000D01*
X73916000Y-1363000D02*
X77468000Y-1363000D01*
X73978000Y-1323000D02*
X77406000Y-1323000D01*
X74042000Y-1283000D02*
X77342000Y-1283000D01*
X74111000Y-1243000D02*
X77273000Y-1243000D01*
X74183000Y-1203000D02*
X77201000Y-1203000D01*
X74260000Y-1163000D02*
X77124000Y-1163000D01*
X74342000Y-1123000D02*
X77042000Y-1123000D01*
X74430000Y-1083000D02*
X76954000Y-1083000D01*
X74527000Y-1043000D02*
X76857000Y-1043000D01*
X74633000Y-1003000D02*
X76751000Y-1003000D01*
X74752000Y-963000D02*
X76632000Y-963000D01*
X74890000Y-923000D02*
X76494000Y-923000D01*
X75059000Y-883000D02*
X76325000Y-883000D01*
X75290000Y-843000D02*
X76094000Y-843000D01*
X73853000Y-7584241D02*
X73853000Y-6954241D01*
X73538000Y-7269241D02*
X74168000Y-7269241D01*
%TO.C,C23*%
X64518000Y-55971221D02*
X64518000Y-56296779D01*
X63498000Y-55971221D02*
X63498000Y-56296779D01*
%TO.C,C25*%
X13807221Y-52322000D02*
X14132779Y-52322000D01*
X13807221Y-53342000D02*
X14132779Y-53342000D01*
%TO.C,C26*%
X92085279Y-21842000D02*
X91759721Y-21842000D01*
X92085279Y-22862000D02*
X91759721Y-22862000D01*
%TO.C,D1*%
X105157000Y-51369000D02*
X109042000Y-51369000D01*
X105157000Y-48199000D02*
X105157000Y-51369000D01*
X109042000Y-48199000D02*
X105157000Y-48199000D01*
%TO.C,D2*%
X89061000Y-8946000D02*
X86376000Y-8946000D01*
X89061000Y-10866000D02*
X89061000Y-8946000D01*
X86376000Y-10866000D02*
X89061000Y-10866000D01*
%TO.C,J1*%
X102930000Y-1464000D02*
X102930000Y-2794000D01*
X101600000Y-1464000D02*
X102930000Y-1464000D01*
X100330000Y-1464000D02*
X100330000Y-4124000D01*
X100330000Y-4124000D02*
X97730000Y-4124000D01*
X100330000Y-1464000D02*
X97730000Y-1464000D01*
X97730000Y-1464000D02*
X97730000Y-4124000D01*
%TO.C,J2*%
X36516000Y-58734000D02*
X36516000Y-57404000D01*
X37846000Y-58734000D02*
X36516000Y-58734000D01*
X36516000Y-56134000D02*
X36516000Y-53534000D01*
X39116000Y-56134000D02*
X36516000Y-56134000D01*
X39116000Y-58734000D02*
X39116000Y-56134000D01*
X36516000Y-53534000D02*
X62036000Y-53534000D01*
X39116000Y-58734000D02*
X62036000Y-58734000D01*
X62036000Y-58734000D02*
X62036000Y-53534000D01*
%TO.C,J3*%
X62036000Y-5902000D02*
X62036000Y-702000D01*
X39116000Y-5902000D02*
X62036000Y-5902000D01*
X36516000Y-702000D02*
X62036000Y-702000D01*
X39116000Y-5902000D02*
X39116000Y-3302000D01*
X39116000Y-3302000D02*
X36516000Y-3302000D01*
X36516000Y-3302000D02*
X36516000Y-702000D01*
X37846000Y-5902000D02*
X36516000Y-5902000D01*
X36516000Y-5902000D02*
X36516000Y-4572000D01*
%TO.C,J4*%
X18856000Y-56074000D02*
X18856000Y-57404000D01*
X17526000Y-56074000D02*
X18856000Y-56074000D01*
X16256000Y-56074000D02*
X16256000Y-58734000D01*
X16256000Y-58734000D02*
X8576000Y-58734000D01*
X16256000Y-56074000D02*
X8576000Y-56074000D01*
X8576000Y-56074000D02*
X8576000Y-58734000D01*
%TO.C,J5*%
X65726000Y-10982000D02*
X68386000Y-10982000D01*
X65726000Y-3302000D02*
X65726000Y-10982000D01*
X68386000Y-3302000D02*
X68386000Y-10982000D01*
X65726000Y-3302000D02*
X68386000Y-3302000D01*
X65726000Y-2032000D02*
X65726000Y-702000D01*
X65726000Y-702000D02*
X67056000Y-702000D01*
%TO.C,J7*%
X956000Y-8068000D02*
X2286000Y-8068000D01*
X956000Y-9398000D02*
X956000Y-8068000D01*
X3556000Y-8068000D02*
X6156000Y-8068000D01*
X3556000Y-10668000D02*
X3556000Y-8068000D01*
X956000Y-10668000D02*
X3556000Y-10668000D01*
X6156000Y-8068000D02*
X6156000Y-51368000D01*
X956000Y-10668000D02*
X956000Y-51368000D01*
X956000Y-51368000D02*
X6156000Y-51368000D01*
%TO.C,J9*%
X105281600Y-23977600D02*
X106627800Y-23977600D01*
X105332400Y-15976600D02*
X106577000Y-15976600D01*
X107315000Y-16738600D02*
X107315000Y-23241000D01*
X96520000Y-13081000D02*
X96520000Y-16433800D01*
X96647000Y-12954000D02*
X96520000Y-13081000D01*
X98679000Y-12954000D02*
X96647000Y-12954000D01*
X98679000Y-12139000D02*
X98679000Y-12954000D01*
X98679000Y-12139000D02*
X105892600Y-12129900D01*
X96520000Y-26543000D02*
X96520000Y-26162000D01*
X96509000Y-26543000D02*
X100119000Y-26543000D01*
X101819000Y-26609000D02*
X105422700Y-26612700D01*
X108254800Y-26663500D02*
X111633000Y-26670000D01*
X111620300Y-12104500D02*
X111633000Y-26638100D01*
X108331000Y-12104500D02*
X111620300Y-12104500D01*
%TO.C,J10*%
X106772000Y-46126000D02*
X108572000Y-46126000D01*
X112282000Y-46126000D02*
X110822000Y-46126000D01*
X112282000Y-37186000D02*
X110822000Y-37186000D01*
X106772000Y-37186000D02*
X108572000Y-37186000D01*
X112282000Y-37186000D02*
X112282000Y-46126000D01*
%TO.C,R1*%
X28954000Y-47589221D02*
X28954000Y-47914779D01*
X29974000Y-47589221D02*
X29974000Y-47914779D01*
%TO.C,R3*%
X30990000Y-44104779D02*
X30990000Y-43779221D01*
X29970000Y-44104779D02*
X29970000Y-43779221D01*
%TO.C,R4*%
X92206578Y-39676000D02*
X91689422Y-39676000D01*
X92206578Y-41096000D02*
X91689422Y-41096000D01*
%TO.C,R5*%
X37657721Y-15242000D02*
X37983279Y-15242000D01*
X37657721Y-14222000D02*
X37983279Y-14222000D01*
%TO.C,R6*%
X46484000Y-45557221D02*
X46484000Y-45882779D01*
X45464000Y-45557221D02*
X45464000Y-45882779D01*
%TO.C,R7*%
X32857221Y-15242000D02*
X33182779Y-15242000D01*
X32857221Y-14222000D02*
X33182779Y-14222000D01*
%TO.C,R8*%
X91785221Y-26160000D02*
X92110779Y-26160000D01*
X91785221Y-27180000D02*
X92110779Y-27180000D01*
%TO.C,R9*%
X92110779Y-13464000D02*
X91785221Y-13464000D01*
X92110779Y-12444000D02*
X91785221Y-12444000D01*
%TO.C,R10*%
X92110779Y-15496000D02*
X91785221Y-15496000D01*
X92110779Y-14476000D02*
X91785221Y-14476000D01*
%TO.C,R11*%
X92110779Y-24128000D02*
X91785221Y-24128000D01*
X92110779Y-25148000D02*
X91785221Y-25148000D01*
%TO.C,R12*%
X100746779Y-40130000D02*
X100421221Y-40130000D01*
X100746779Y-41150000D02*
X100421221Y-41150000D01*
%TO.C,R13*%
X100746779Y-42162000D02*
X100421221Y-42162000D01*
X100746779Y-43182000D02*
X100421221Y-43182000D01*
%TO.C,R14*%
X100421221Y-39118000D02*
X100746779Y-39118000D01*
X100421221Y-38098000D02*
X100746779Y-38098000D01*
%TO.C,R15*%
X100421221Y-44194000D02*
X100746779Y-44194000D01*
X100421221Y-45214000D02*
X100746779Y-45214000D01*
%TO.C,RN2*%
X34896000Y-43442000D02*
X34896000Y-44442000D01*
X38256000Y-43442000D02*
X38256000Y-44442000D01*
%TO.C,SW1*%
X23368000Y-20193000D02*
X23622000Y-20193000D01*
X26416000Y-20193000D02*
X26162000Y-20193000D01*
X23622000Y-26035000D02*
X23368000Y-26035000D01*
X26416000Y-26035000D02*
X26162000Y-26035000D01*
X23368000Y-20193000D02*
X23368000Y-26035000D01*
X26416000Y-20193000D02*
X26416000Y-26035000D01*
%TO.C,SW2*%
X38227000Y-12192000D02*
X32385000Y-12192000D01*
X38227000Y-9144000D02*
X32385000Y-9144000D01*
X32385000Y-12192000D02*
X32385000Y-11938000D01*
X32385000Y-9398000D02*
X32385000Y-9144000D01*
X38227000Y-12192000D02*
X38227000Y-11938000D01*
X38227000Y-9144000D02*
X38227000Y-9398000D01*
D13*
%TO.C,U5*%
X79287000Y-16362000D02*
X79287000Y-16462000D01*
X79287000Y-23187000D02*
X79287000Y-23162000D01*
X74637000Y-23187000D02*
X74637000Y-23162000D01*
X73562000Y-16362000D02*
X79287000Y-16362000D01*
X74637000Y-23187000D02*
X79287000Y-23187000D01*
%TO.C,U6*%
X74969000Y-48949000D02*
X70319000Y-48949000D01*
X76044000Y-55774000D02*
X70319000Y-55774000D01*
X74969000Y-48949000D02*
X74969000Y-48974000D01*
X70319000Y-48949000D02*
X70319000Y-48974000D01*
X70319000Y-55774000D02*
X70319000Y-55674000D01*
D14*
%TO.C,Y1*%
X28589000Y-25567000D02*
X28589000Y-24217000D01*
X30339000Y-25567000D02*
X30339000Y-24217000D01*
%TO.C,Y2*%
X26452000Y-29558000D02*
X26452000Y-34958000D01*
X30952000Y-29558000D02*
X26452000Y-29558000D01*
%TO.C,R17*%
X15148779Y-22608000D02*
X14823221Y-22608000D01*
X15148779Y-21588000D02*
X14823221Y-21588000D01*
%TO.C,R18*%
X13370779Y-13460000D02*
X13045221Y-13460000D01*
X13370779Y-14480000D02*
X13045221Y-14480000D01*
%TO.C,R19*%
X17324000Y-19553422D02*
X17324000Y-20070578D01*
X18744000Y-19553422D02*
X18744000Y-20070578D01*
%TO.C,R16*%
X92618779Y-9396000D02*
X92293221Y-9396000D01*
X92618779Y-10416000D02*
X92293221Y-10416000D01*
%TO.C,U1*%
X93474000Y-43320000D02*
X93474000Y-44520000D01*
X89474000Y-43320000D02*
X93474000Y-43320000D01*
X93474000Y-48120000D02*
X90774000Y-48120000D01*
X93474000Y-46920000D02*
X93474000Y-48120000D01*
%TO.C,U2*%
X85274000Y-2792000D02*
X86474000Y-2792000D01*
X86474000Y-2792000D02*
X86474000Y-5492000D01*
X81674000Y-6792000D02*
X81674000Y-2792000D01*
X81674000Y-2792000D02*
X82874000Y-2792000D01*
%TO.C,C28*%
X20318000Y-37018279D02*
X20318000Y-36692721D01*
X21338000Y-37018279D02*
X21338000Y-36692721D01*
%TO.C,U8*%
X12008000Y-28704000D02*
X10808000Y-28704000D01*
X10808000Y-28704000D02*
X10808000Y-26004000D01*
X15608000Y-24704000D02*
X15608000Y-28704000D01*
X15608000Y-28704000D02*
X14408000Y-28704000D01*
%TO.C,C13*%
X90048000Y-7269241D02*
X90678000Y-7269241D01*
X90363000Y-7584241D02*
X90363000Y-6954241D01*
X91800000Y-843000D02*
X92604000Y-843000D01*
X91569000Y-883000D02*
X92835000Y-883000D01*
X91400000Y-923000D02*
X93004000Y-923000D01*
X91262000Y-963000D02*
X93142000Y-963000D01*
X91143000Y-1003000D02*
X93261000Y-1003000D01*
X91037000Y-1043000D02*
X93367000Y-1043000D01*
X90940000Y-1083000D02*
X93464000Y-1083000D01*
X90852000Y-1123000D02*
X93552000Y-1123000D01*
X90770000Y-1163000D02*
X93634000Y-1163000D01*
X90693000Y-1203000D02*
X93711000Y-1203000D01*
X90621000Y-1243000D02*
X93783000Y-1243000D01*
X90552000Y-1283000D02*
X93852000Y-1283000D01*
X90488000Y-1323000D02*
X93916000Y-1323000D01*
X90426000Y-1363000D02*
X93978000Y-1363000D01*
X90368000Y-1403000D02*
X94036000Y-1403000D01*
X90312000Y-1443000D02*
X94092000Y-1443000D01*
X90258000Y-1483000D02*
X94146000Y-1483000D01*
X90207000Y-1523000D02*
X94197000Y-1523000D01*
X90158000Y-1563000D02*
X94246000Y-1563000D01*
X90110000Y-1603000D02*
X94294000Y-1603000D01*
X90065000Y-1643000D02*
X94339000Y-1643000D01*
X90020000Y-1683000D02*
X94384000Y-1683000D01*
X89978000Y-1723000D02*
X94426000Y-1723000D01*
X89937000Y-1763000D02*
X94467000Y-1763000D01*
X93242000Y-1803000D02*
X94507000Y-1803000D01*
X89897000Y-1803000D02*
X91162000Y-1803000D01*
X93242000Y-1843000D02*
X94545000Y-1843000D01*
X89859000Y-1843000D02*
X91162000Y-1843000D01*
X93242000Y-1883000D02*
X94582000Y-1883000D01*
X89822000Y-1883000D02*
X91162000Y-1883000D01*
X93242000Y-1923000D02*
X94618000Y-1923000D01*
X89786000Y-1923000D02*
X91162000Y-1923000D01*
X93242000Y-1963000D02*
X94652000Y-1963000D01*
X89752000Y-1963000D02*
X91162000Y-1963000D01*
X93242000Y-2003000D02*
X94686000Y-2003000D01*
X89718000Y-2003000D02*
X91162000Y-2003000D01*
X93242000Y-2043000D02*
X94718000Y-2043000D01*
X89686000Y-2043000D02*
X91162000Y-2043000D01*
X93242000Y-2083000D02*
X94750000Y-2083000D01*
X89654000Y-2083000D02*
X91162000Y-2083000D01*
X93242000Y-2123000D02*
X94780000Y-2123000D01*
X89624000Y-2123000D02*
X91162000Y-2123000D01*
X93242000Y-2163000D02*
X94809000Y-2163000D01*
X89595000Y-2163000D02*
X91162000Y-2163000D01*
X93242000Y-2203000D02*
X94838000Y-2203000D01*
X89566000Y-2203000D02*
X91162000Y-2203000D01*
X93242000Y-2243000D02*
X94866000Y-2243000D01*
X89538000Y-2243000D02*
X91162000Y-2243000D01*
X93242000Y-2283000D02*
X94892000Y-2283000D01*
X89512000Y-2283000D02*
X91162000Y-2283000D01*
X93242000Y-2323000D02*
X94918000Y-2323000D01*
X89486000Y-2323000D02*
X91162000Y-2323000D01*
X93242000Y-2363000D02*
X94944000Y-2363000D01*
X89460000Y-2363000D02*
X91162000Y-2363000D01*
X93242000Y-2403000D02*
X94968000Y-2403000D01*
X89436000Y-2403000D02*
X91162000Y-2403000D01*
X93242000Y-2443000D02*
X94992000Y-2443000D01*
X89412000Y-2443000D02*
X91162000Y-2443000D01*
X93242000Y-2483000D02*
X95014000Y-2483000D01*
X89390000Y-2483000D02*
X91162000Y-2483000D01*
X93242000Y-2523000D02*
X95036000Y-2523000D01*
X89368000Y-2523000D02*
X91162000Y-2523000D01*
X93242000Y-2563000D02*
X95058000Y-2563000D01*
X89346000Y-2563000D02*
X91162000Y-2563000D01*
X93242000Y-2603000D02*
X95078000Y-2603000D01*
X89326000Y-2603000D02*
X91162000Y-2603000D01*
X93242000Y-2643000D02*
X95098000Y-2643000D01*
X89306000Y-2643000D02*
X91162000Y-2643000D01*
X93242000Y-2683000D02*
X95118000Y-2683000D01*
X89286000Y-2683000D02*
X91162000Y-2683000D01*
X93242000Y-2723000D02*
X95136000Y-2723000D01*
X89268000Y-2723000D02*
X91162000Y-2723000D01*
X93242000Y-2763000D02*
X95154000Y-2763000D01*
X89250000Y-2763000D02*
X91162000Y-2763000D01*
X93242000Y-2803000D02*
X95172000Y-2803000D01*
X89232000Y-2803000D02*
X91162000Y-2803000D01*
X93242000Y-2843000D02*
X95188000Y-2843000D01*
X89216000Y-2843000D02*
X91162000Y-2843000D01*
X93242000Y-2883000D02*
X95204000Y-2883000D01*
X89200000Y-2883000D02*
X91162000Y-2883000D01*
X93242000Y-2923000D02*
X95220000Y-2923000D01*
X89184000Y-2923000D02*
X91162000Y-2923000D01*
X93242000Y-2963000D02*
X95235000Y-2963000D01*
X89169000Y-2963000D02*
X91162000Y-2963000D01*
X93242000Y-3003000D02*
X95249000Y-3003000D01*
X89155000Y-3003000D02*
X91162000Y-3003000D01*
X93242000Y-3043000D02*
X95263000Y-3043000D01*
X89141000Y-3043000D02*
X91162000Y-3043000D01*
X93242000Y-3083000D02*
X95276000Y-3083000D01*
X89128000Y-3083000D02*
X91162000Y-3083000D01*
X93242000Y-3123000D02*
X95288000Y-3123000D01*
X89116000Y-3123000D02*
X91162000Y-3123000D01*
X93242000Y-3163000D02*
X95300000Y-3163000D01*
X89104000Y-3163000D02*
X91162000Y-3163000D01*
X93242000Y-3203000D02*
X95312000Y-3203000D01*
X89092000Y-3203000D02*
X91162000Y-3203000D01*
X93242000Y-3243000D02*
X95323000Y-3243000D01*
X89081000Y-3243000D02*
X91162000Y-3243000D01*
X93242000Y-3283000D02*
X95333000Y-3283000D01*
X89071000Y-3283000D02*
X91162000Y-3283000D01*
X93242000Y-3323000D02*
X95343000Y-3323000D01*
X89061000Y-3323000D02*
X91162000Y-3323000D01*
X93242000Y-3363000D02*
X95352000Y-3363000D01*
X89052000Y-3363000D02*
X91162000Y-3363000D01*
X93242000Y-3404000D02*
X95361000Y-3404000D01*
X89043000Y-3404000D02*
X91162000Y-3404000D01*
X93242000Y-3444000D02*
X95369000Y-3444000D01*
X89035000Y-3444000D02*
X91162000Y-3444000D01*
X93242000Y-3484000D02*
X95377000Y-3484000D01*
X89027000Y-3484000D02*
X91162000Y-3484000D01*
X93242000Y-3524000D02*
X95384000Y-3524000D01*
X89020000Y-3524000D02*
X91162000Y-3524000D01*
X93242000Y-3564000D02*
X95391000Y-3564000D01*
X89013000Y-3564000D02*
X91162000Y-3564000D01*
X93242000Y-3604000D02*
X95397000Y-3604000D01*
X89007000Y-3604000D02*
X91162000Y-3604000D01*
X93242000Y-3644000D02*
X95403000Y-3644000D01*
X89001000Y-3644000D02*
X91162000Y-3644000D01*
X93242000Y-3684000D02*
X95408000Y-3684000D01*
X88996000Y-3684000D02*
X91162000Y-3684000D01*
X93242000Y-3724000D02*
X95413000Y-3724000D01*
X88991000Y-3724000D02*
X91162000Y-3724000D01*
X93242000Y-3764000D02*
X95417000Y-3764000D01*
X88987000Y-3764000D02*
X91162000Y-3764000D01*
X93242000Y-3804000D02*
X95420000Y-3804000D01*
X88984000Y-3804000D02*
X91162000Y-3804000D01*
X93242000Y-3844000D02*
X95424000Y-3844000D01*
X88980000Y-3844000D02*
X91162000Y-3844000D01*
X88978000Y-3884000D02*
X95426000Y-3884000D01*
X88975000Y-3924000D02*
X95429000Y-3924000D01*
X88974000Y-3964000D02*
X95430000Y-3964000D01*
X88972000Y-4004000D02*
X95432000Y-4004000D01*
X88972000Y-4044000D02*
X95432000Y-4044000D01*
X88972000Y-4084000D02*
X95432000Y-4084000D01*
X95472000Y-4084000D02*
G75*
G03*
X95472000Y-4084000I-3270000J0D01*
G01*
%TO.C,C16*%
X87904250Y-51860750D02*
X87904250Y-52648250D01*
X87510500Y-52254500D02*
X88298000Y-52254500D01*
X88538000Y-56447563D02*
X89602437Y-57512000D01*
X88538000Y-51756437D02*
X89602437Y-50692000D01*
X88538000Y-51756437D02*
X88538000Y-53042000D01*
X88538000Y-56447563D02*
X88538000Y-55162000D01*
X89602437Y-57512000D02*
X95358000Y-57512000D01*
X89602437Y-50692000D02*
X95358000Y-50692000D01*
X95358000Y-50692000D02*
X95358000Y-53042000D01*
X95358000Y-57512000D02*
X95358000Y-55162000D01*
%TO.C,C24*%
X54345500Y-47278500D02*
X54345500Y-47903500D01*
X54033000Y-47591000D02*
X54658000Y-47591000D01*
X54898000Y-50971563D02*
X55962437Y-52036000D01*
X54898000Y-47580437D02*
X55962437Y-46516000D01*
X54898000Y-47580437D02*
X54898000Y-48216000D01*
X54898000Y-50971563D02*
X54898000Y-50336000D01*
X55962437Y-52036000D02*
X60418000Y-52036000D01*
X55962437Y-46516000D02*
X60418000Y-46516000D01*
X60418000Y-46516000D02*
X60418000Y-48216000D01*
X60418000Y-52036000D02*
X60418000Y-50336000D01*
%TO.C,C27*%
X104692000Y-30448000D02*
X104692000Y-30948000D01*
X104442000Y-30698000D02*
X104942000Y-30698000D01*
X105182000Y-33453563D02*
X106246437Y-34518000D01*
X105182000Y-31062437D02*
X106246437Y-29998000D01*
X105182000Y-31062437D02*
X105182000Y-31198000D01*
X105182000Y-33453563D02*
X105182000Y-33318000D01*
X106246437Y-34518000D02*
X109702000Y-34518000D01*
X106246437Y-29998000D02*
X109702000Y-29998000D01*
X109702000Y-29998000D02*
X109702000Y-31198000D01*
X109702000Y-34518000D02*
X109702000Y-33318000D01*
%TO.C,C29*%
X15449250Y-33294250D02*
X14661750Y-33294250D01*
X15055500Y-32900500D02*
X15055500Y-33688000D01*
X10862437Y-33928000D02*
X9798000Y-34992437D01*
X15553563Y-33928000D02*
X16618000Y-34992437D01*
X15553563Y-33928000D02*
X14268000Y-33928000D01*
X10862437Y-33928000D02*
X12148000Y-33928000D01*
X9798000Y-34992437D02*
X9798000Y-40748000D01*
X16618000Y-34992437D02*
X16618000Y-40748000D01*
X16618000Y-40748000D02*
X14268000Y-40748000D01*
X9798000Y-40748000D02*
X12148000Y-40748000D01*
%TO.C,C30*%
X28086000Y-58020000D02*
X30436000Y-58020000D01*
X34906000Y-58020000D02*
X32556000Y-58020000D01*
X34906000Y-52264437D02*
X34906000Y-58020000D01*
X28086000Y-52264437D02*
X28086000Y-58020000D01*
X29150437Y-51200000D02*
X30436000Y-51200000D01*
X33841563Y-51200000D02*
X32556000Y-51200000D01*
X33841563Y-51200000D02*
X34906000Y-52264437D01*
X29150437Y-51200000D02*
X28086000Y-52264437D01*
X33343500Y-50172500D02*
X33343500Y-50960000D01*
X33737250Y-50566250D02*
X32949750Y-50566250D01*
%TO.C,Q1*%
X11250000Y-16892000D02*
X13650000Y-16892000D01*
X13650000Y-16892000D02*
X13650000Y-17942000D01*
X11850000Y-20192000D02*
X13650000Y-20192000D01*
X13650000Y-20192000D02*
X13650000Y-19142000D01*
%TO.C,U3*%
D13*
X45720095Y-18756380D02*
X45720095Y-19565904D01*
X45767714Y-19661142D01*
X45815333Y-19708761D01*
X45910571Y-19756380D01*
X46101047Y-19756380D01*
X46196285Y-19708761D01*
X46243904Y-19661142D01*
X46291523Y-19565904D01*
X46291523Y-18756380D01*
X46672476Y-18756380D02*
X47291523Y-18756380D01*
X46958190Y-19137333D01*
X47101047Y-19137333D01*
X47196285Y-19184952D01*
X47243904Y-19232571D01*
X47291523Y-19327809D01*
X47291523Y-19565904D01*
X47243904Y-19661142D01*
X47196285Y-19708761D01*
X47101047Y-19756380D01*
X46815333Y-19756380D01*
X46720095Y-19708761D01*
X46672476Y-19661142D01*
%TO.C,U7*%
X83526380Y-36829904D02*
X84335904Y-36829904D01*
X84431142Y-36782285D01*
X84478761Y-36734666D01*
X84526380Y-36639428D01*
X84526380Y-36448952D01*
X84478761Y-36353714D01*
X84431142Y-36306095D01*
X84335904Y-36258476D01*
X83526380Y-36258476D01*
X83526380Y-35877523D02*
X83526380Y-35210857D01*
X84526380Y-35639428D01*
%TO.C,U4*%
X13208095Y-44416380D02*
X13208095Y-45225904D01*
X13255714Y-45321142D01*
X13303333Y-45368761D01*
X13398571Y-45416380D01*
X13589047Y-45416380D01*
X13684285Y-45368761D01*
X13731904Y-45321142D01*
X13779523Y-45225904D01*
X13779523Y-44416380D01*
X14684285Y-44749714D02*
X14684285Y-45416380D01*
X14446190Y-44368761D02*
X14208095Y-45083047D01*
X14827142Y-45083047D01*
%TO.C,R2*%
X29551333Y-39408380D02*
X29218000Y-38932190D01*
X28979904Y-39408380D02*
X28979904Y-38408380D01*
X29360857Y-38408380D01*
X29456095Y-38456000D01*
X29503714Y-38503619D01*
X29551333Y-38598857D01*
X29551333Y-38741714D01*
X29503714Y-38836952D01*
X29456095Y-38884571D01*
X29360857Y-38932190D01*
X28979904Y-38932190D01*
X29932285Y-38503619D02*
X29979904Y-38456000D01*
X30075142Y-38408380D01*
X30313238Y-38408380D01*
X30408476Y-38456000D01*
X30456095Y-38503619D01*
X30503714Y-38598857D01*
X30503714Y-38694095D01*
X30456095Y-38836952D01*
X29884666Y-39408380D01*
X30503714Y-39408380D01*
%TO.C,C2*%
X25995333Y-40075142D02*
X25947714Y-40122761D01*
X25804857Y-40170380D01*
X25709619Y-40170380D01*
X25566761Y-40122761D01*
X25471523Y-40027523D01*
X25423904Y-39932285D01*
X25376285Y-39741809D01*
X25376285Y-39598952D01*
X25423904Y-39408476D01*
X25471523Y-39313238D01*
X25566761Y-39218000D01*
X25709619Y-39170380D01*
X25804857Y-39170380D01*
X25947714Y-39218000D01*
X25995333Y-39265619D01*
X26376285Y-39265619D02*
X26423904Y-39218000D01*
X26519142Y-39170380D01*
X26757238Y-39170380D01*
X26852476Y-39218000D01*
X26900095Y-39265619D01*
X26947714Y-39360857D01*
X26947714Y-39456095D01*
X26900095Y-39598952D01*
X26328666Y-40170380D01*
X26947714Y-40170380D01*
%TO.C,J6*%
X21002666Y-47248380D02*
X21002666Y-47962666D01*
X20955047Y-48105523D01*
X20859809Y-48200761D01*
X20716952Y-48248380D01*
X20621714Y-48248380D01*
X21907428Y-47248380D02*
X21716952Y-47248380D01*
X21621714Y-47296000D01*
X21574095Y-47343619D01*
X21478857Y-47486476D01*
X21431238Y-47676952D01*
X21431238Y-48057904D01*
X21478857Y-48153142D01*
X21526476Y-48200761D01*
X21621714Y-48248380D01*
X21812190Y-48248380D01*
X21907428Y-48200761D01*
X21955047Y-48153142D01*
X22002666Y-48057904D01*
X22002666Y-47819809D01*
X21955047Y-47724571D01*
X21907428Y-47676952D01*
X21812190Y-47629333D01*
X21621714Y-47629333D01*
X21526476Y-47676952D01*
X21478857Y-47724571D01*
X21431238Y-47819809D01*
%TO.C,C8*%
X34393142Y-34202666D02*
X34440761Y-34250285D01*
X34488380Y-34393142D01*
X34488380Y-34488380D01*
X34440761Y-34631238D01*
X34345523Y-34726476D01*
X34250285Y-34774095D01*
X34059809Y-34821714D01*
X33916952Y-34821714D01*
X33726476Y-34774095D01*
X33631238Y-34726476D01*
X33536000Y-34631238D01*
X33488380Y-34488380D01*
X33488380Y-34393142D01*
X33536000Y-34250285D01*
X33583619Y-34202666D01*
X33916952Y-33631238D02*
X33869333Y-33726476D01*
X33821714Y-33774095D01*
X33726476Y-33821714D01*
X33678857Y-33821714D01*
X33583619Y-33774095D01*
X33536000Y-33726476D01*
X33488380Y-33631238D01*
X33488380Y-33440761D01*
X33536000Y-33345523D01*
X33583619Y-33297904D01*
X33678857Y-33250285D01*
X33726476Y-33250285D01*
X33821714Y-33297904D01*
X33869333Y-33345523D01*
X33916952Y-33440761D01*
X33916952Y-33631238D01*
X33964571Y-33726476D01*
X34012190Y-33774095D01*
X34107428Y-33821714D01*
X34297904Y-33821714D01*
X34393142Y-33774095D01*
X34440761Y-33726476D01*
X34488380Y-33631238D01*
X34488380Y-33440761D01*
X34440761Y-33345523D01*
X34393142Y-33297904D01*
X34297904Y-33250285D01*
X34107428Y-33250285D01*
X34012190Y-33297904D01*
X33964571Y-33345523D01*
X33916952Y-33440761D01*
%TO.C,RN1*%
X39314380Y-51236476D02*
X38838190Y-51569809D01*
X39314380Y-51807904D02*
X38314380Y-51807904D01*
X38314380Y-51426952D01*
X38362000Y-51331714D01*
X38409619Y-51284095D01*
X38504857Y-51236476D01*
X38647714Y-51236476D01*
X38742952Y-51284095D01*
X38790571Y-51331714D01*
X38838190Y-51426952D01*
X38838190Y-51807904D01*
X39314380Y-50807904D02*
X38314380Y-50807904D01*
X39314380Y-50236476D01*
X38314380Y-50236476D01*
X39314380Y-49236476D02*
X39314380Y-49807904D01*
X39314380Y-49522190D02*
X38314380Y-49522190D01*
X38457238Y-49617428D01*
X38552476Y-49712666D01*
X38600095Y-49807904D01*
%TO.C,REF\u002A\u002A*%
X2222666Y191620D02*
X1889333Y667810D01*
X1651238Y191620D02*
X1651238Y1191620D01*
X2032190Y1191620D01*
X2127428Y1144000D01*
X2175047Y1096381D01*
X2222666Y1001143D01*
X2222666Y858286D01*
X2175047Y763048D01*
X2127428Y715429D01*
X2032190Y667810D01*
X1651238Y667810D01*
X2651238Y715429D02*
X2984571Y715429D01*
X3127428Y191620D02*
X2651238Y191620D01*
X2651238Y1191620D01*
X3127428Y1191620D01*
X3889333Y715429D02*
X3556000Y715429D01*
X3556000Y191620D02*
X3556000Y1191620D01*
X4032190Y1191620D01*
X4556000Y1191620D02*
X4556000Y953524D01*
X4317904Y1048762D02*
X4556000Y953524D01*
X4794095Y1048762D01*
X4413142Y763048D02*
X4556000Y953524D01*
X4698857Y763048D01*
X5317904Y1191620D02*
X5317904Y953524D01*
X5079809Y1048762D02*
X5317904Y953524D01*
X5556000Y1048762D01*
X5175047Y763048D02*
X5317904Y953524D01*
X5460761Y763048D01*
%TO.C,C1*%
X22693333Y-56491142D02*
X22645714Y-56538761D01*
X22502857Y-56586380D01*
X22407619Y-56586380D01*
X22264761Y-56538761D01*
X22169523Y-56443523D01*
X22121904Y-56348285D01*
X22074285Y-56157809D01*
X22074285Y-56014952D01*
X22121904Y-55824476D01*
X22169523Y-55729238D01*
X22264761Y-55634000D01*
X22407619Y-55586380D01*
X22502857Y-55586380D01*
X22645714Y-55634000D01*
X22693333Y-55681619D01*
X23645714Y-56586380D02*
X23074285Y-56586380D01*
X23360000Y-56586380D02*
X23360000Y-55586380D01*
X23264761Y-55729238D01*
X23169523Y-55824476D01*
X23074285Y-55872095D01*
%TO.C,C3*%
X23201333Y-53349142D02*
X23153714Y-53396761D01*
X23010857Y-53444380D01*
X22915619Y-53444380D01*
X22772761Y-53396761D01*
X22677523Y-53301523D01*
X22629904Y-53206285D01*
X22582285Y-53015809D01*
X22582285Y-52872952D01*
X22629904Y-52682476D01*
X22677523Y-52587238D01*
X22772761Y-52492000D01*
X22915619Y-52444380D01*
X23010857Y-52444380D01*
X23153714Y-52492000D01*
X23201333Y-52539619D01*
X23534666Y-52444380D02*
X24153714Y-52444380D01*
X23820380Y-52825333D01*
X23963238Y-52825333D01*
X24058476Y-52872952D01*
X24106095Y-52920571D01*
X24153714Y-53015809D01*
X24153714Y-53253904D01*
X24106095Y-53349142D01*
X24058476Y-53396761D01*
X23963238Y-53444380D01*
X23677523Y-53444380D01*
X23582285Y-53396761D01*
X23534666Y-53349142D01*
%TO.C,C4*%
X25995333Y-47761142D02*
X25947714Y-47808761D01*
X25804857Y-47856380D01*
X25709619Y-47856380D01*
X25566761Y-47808761D01*
X25471523Y-47713523D01*
X25423904Y-47618285D01*
X25376285Y-47427809D01*
X25376285Y-47284952D01*
X25423904Y-47094476D01*
X25471523Y-46999238D01*
X25566761Y-46904000D01*
X25709619Y-46856380D01*
X25804857Y-46856380D01*
X25947714Y-46904000D01*
X25995333Y-46951619D01*
X26852476Y-47189714D02*
X26852476Y-47856380D01*
X26614380Y-46808761D02*
X26376285Y-47523047D01*
X26995333Y-47523047D01*
%TO.C,C5*%
X34553142Y-23026666D02*
X34600761Y-23074285D01*
X34648380Y-23217142D01*
X34648380Y-23312380D01*
X34600761Y-23455238D01*
X34505523Y-23550476D01*
X34410285Y-23598095D01*
X34219809Y-23645714D01*
X34076952Y-23645714D01*
X33886476Y-23598095D01*
X33791238Y-23550476D01*
X33696000Y-23455238D01*
X33648380Y-23312380D01*
X33648380Y-23217142D01*
X33696000Y-23074285D01*
X33743619Y-23026666D01*
X33648380Y-22121904D02*
X33648380Y-22598095D01*
X34124571Y-22645714D01*
X34076952Y-22598095D01*
X34029333Y-22502857D01*
X34029333Y-22264761D01*
X34076952Y-22169523D01*
X34124571Y-22121904D01*
X34219809Y-22074285D01*
X34457904Y-22074285D01*
X34553142Y-22121904D01*
X34600761Y-22169523D01*
X34648380Y-22264761D01*
X34648380Y-22502857D01*
X34600761Y-22598095D01*
X34553142Y-22645714D01*
%TO.C,C6*%
X34553142Y-26328666D02*
X34600761Y-26376285D01*
X34648380Y-26519142D01*
X34648380Y-26614380D01*
X34600761Y-26757238D01*
X34505523Y-26852476D01*
X34410285Y-26900095D01*
X34219809Y-26947714D01*
X34076952Y-26947714D01*
X33886476Y-26900095D01*
X33791238Y-26852476D01*
X33696000Y-26757238D01*
X33648380Y-26614380D01*
X33648380Y-26519142D01*
X33696000Y-26376285D01*
X33743619Y-26328666D01*
X33648380Y-25471523D02*
X33648380Y-25662000D01*
X33696000Y-25757238D01*
X33743619Y-25804857D01*
X33886476Y-25900095D01*
X34076952Y-25947714D01*
X34457904Y-25947714D01*
X34553142Y-25900095D01*
X34600761Y-25852476D01*
X34648380Y-25757238D01*
X34648380Y-25566761D01*
X34600761Y-25471523D01*
X34553142Y-25423904D01*
X34457904Y-25376285D01*
X34219809Y-25376285D01*
X34124571Y-25423904D01*
X34076952Y-25471523D01*
X34029333Y-25566761D01*
X34029333Y-25757238D01*
X34076952Y-25852476D01*
X34124571Y-25900095D01*
X34219809Y-25947714D01*
%TO.C,C7*%
X34393142Y-30646666D02*
X34440761Y-30694285D01*
X34488380Y-30837142D01*
X34488380Y-30932380D01*
X34440761Y-31075238D01*
X34345523Y-31170476D01*
X34250285Y-31218095D01*
X34059809Y-31265714D01*
X33916952Y-31265714D01*
X33726476Y-31218095D01*
X33631238Y-31170476D01*
X33536000Y-31075238D01*
X33488380Y-30932380D01*
X33488380Y-30837142D01*
X33536000Y-30694285D01*
X33583619Y-30646666D01*
X33488380Y-30313333D02*
X33488380Y-29646666D01*
X34488380Y-30075238D01*
%TO.C,C9*%
X22185333Y-16739142D02*
X22137714Y-16786761D01*
X21994857Y-16834380D01*
X21899619Y-16834380D01*
X21756761Y-16786761D01*
X21661523Y-16691523D01*
X21613904Y-16596285D01*
X21566285Y-16405809D01*
X21566285Y-16262952D01*
X21613904Y-16072476D01*
X21661523Y-15977238D01*
X21756761Y-15882000D01*
X21899619Y-15834380D01*
X21994857Y-15834380D01*
X22137714Y-15882000D01*
X22185333Y-15929619D01*
X22661523Y-16834380D02*
X22852000Y-16834380D01*
X22947238Y-16786761D01*
X22994857Y-16739142D01*
X23090095Y-16596285D01*
X23137714Y-16405809D01*
X23137714Y-16024857D01*
X23090095Y-15929619D01*
X23042476Y-15882000D01*
X22947238Y-15834380D01*
X22756761Y-15834380D01*
X22661523Y-15882000D01*
X22613904Y-15929619D01*
X22566285Y-16024857D01*
X22566285Y-16262952D01*
X22613904Y-16358190D01*
X22661523Y-16405809D01*
X22756761Y-16453428D01*
X22947238Y-16453428D01*
X23042476Y-16405809D01*
X23090095Y-16358190D01*
X23137714Y-16262952D01*
%TO.C,C10*%
X99687142Y-9153142D02*
X99639523Y-9200761D01*
X99496666Y-9248380D01*
X99401428Y-9248380D01*
X99258571Y-9200761D01*
X99163333Y-9105523D01*
X99115714Y-9010285D01*
X99068095Y-8819809D01*
X99068095Y-8676952D01*
X99115714Y-8486476D01*
X99163333Y-8391238D01*
X99258571Y-8296000D01*
X99401428Y-8248380D01*
X99496666Y-8248380D01*
X99639523Y-8296000D01*
X99687142Y-8343619D01*
X100639523Y-9248380D02*
X100068095Y-9248380D01*
X100353809Y-9248380D02*
X100353809Y-8248380D01*
X100258571Y-8391238D01*
X100163333Y-8486476D01*
X100068095Y-8534095D01*
X101258571Y-8248380D02*
X101353809Y-8248380D01*
X101449047Y-8296000D01*
X101496666Y-8343619D01*
X101544285Y-8438857D01*
X101591904Y-8629333D01*
X101591904Y-8867428D01*
X101544285Y-9057904D01*
X101496666Y-9153142D01*
X101449047Y-9200761D01*
X101353809Y-9248380D01*
X101258571Y-9248380D01*
X101163333Y-9200761D01*
X101115714Y-9153142D01*
X101068095Y-9057904D01*
X101020476Y-8867428D01*
X101020476Y-8629333D01*
X101068095Y-8438857D01*
X101115714Y-8343619D01*
X101163333Y-8296000D01*
X101258571Y-8248380D01*
%TO.C,C11*%
X76065142Y-45315142D02*
X76017523Y-45362761D01*
X75874666Y-45410380D01*
X75779428Y-45410380D01*
X75636571Y-45362761D01*
X75541333Y-45267523D01*
X75493714Y-45172285D01*
X75446095Y-44981809D01*
X75446095Y-44838952D01*
X75493714Y-44648476D01*
X75541333Y-44553238D01*
X75636571Y-44458000D01*
X75779428Y-44410380D01*
X75874666Y-44410380D01*
X76017523Y-44458000D01*
X76065142Y-44505619D01*
X77017523Y-45410380D02*
X76446095Y-45410380D01*
X76731809Y-45410380D02*
X76731809Y-44410380D01*
X76636571Y-44553238D01*
X76541333Y-44648476D01*
X76446095Y-44696095D01*
X77969904Y-45410380D02*
X77398476Y-45410380D01*
X77684190Y-45410380D02*
X77684190Y-44410380D01*
X77588952Y-44553238D01*
X77493714Y-44648476D01*
X77398476Y-44696095D01*
%TO.C,C12*%
X76827142Y-12897142D02*
X76779523Y-12944761D01*
X76636666Y-12992380D01*
X76541428Y-12992380D01*
X76398571Y-12944761D01*
X76303333Y-12849523D01*
X76255714Y-12754285D01*
X76208095Y-12563809D01*
X76208095Y-12420952D01*
X76255714Y-12230476D01*
X76303333Y-12135238D01*
X76398571Y-12040000D01*
X76541428Y-11992380D01*
X76636666Y-11992380D01*
X76779523Y-12040000D01*
X76827142Y-12087619D01*
X77779523Y-12992380D02*
X77208095Y-12992380D01*
X77493809Y-12992380D02*
X77493809Y-11992380D01*
X77398571Y-12135238D01*
X77303333Y-12230476D01*
X77208095Y-12278095D01*
X78160476Y-12087619D02*
X78208095Y-12040000D01*
X78303333Y-11992380D01*
X78541428Y-11992380D01*
X78636666Y-12040000D01*
X78684285Y-12087619D01*
X78731904Y-12182857D01*
X78731904Y-12278095D01*
X78684285Y-12420952D01*
X78112857Y-12992380D01*
X78731904Y-12992380D01*
%TO.C,C14*%
X75811142Y-28043142D02*
X75763523Y-28090761D01*
X75620666Y-28138380D01*
X75525428Y-28138380D01*
X75382571Y-28090761D01*
X75287333Y-27995523D01*
X75239714Y-27900285D01*
X75192095Y-27709809D01*
X75192095Y-27566952D01*
X75239714Y-27376476D01*
X75287333Y-27281238D01*
X75382571Y-27186000D01*
X75525428Y-27138380D01*
X75620666Y-27138380D01*
X75763523Y-27186000D01*
X75811142Y-27233619D01*
X76763523Y-28138380D02*
X76192095Y-28138380D01*
X76477809Y-28138380D02*
X76477809Y-27138380D01*
X76382571Y-27281238D01*
X76287333Y-27376476D01*
X76192095Y-27424095D01*
X77620666Y-27471714D02*
X77620666Y-28138380D01*
X77382571Y-27090761D02*
X77144476Y-27805047D01*
X77763523Y-27805047D01*
%TO.C,C15*%
X54475142Y-37027142D02*
X54427523Y-37074761D01*
X54284666Y-37122380D01*
X54189428Y-37122380D01*
X54046571Y-37074761D01*
X53951333Y-36979523D01*
X53903714Y-36884285D01*
X53856095Y-36693809D01*
X53856095Y-36550952D01*
X53903714Y-36360476D01*
X53951333Y-36265238D01*
X54046571Y-36170000D01*
X54189428Y-36122380D01*
X54284666Y-36122380D01*
X54427523Y-36170000D01*
X54475142Y-36217619D01*
X55427523Y-37122380D02*
X54856095Y-37122380D01*
X55141809Y-37122380D02*
X55141809Y-36122380D01*
X55046571Y-36265238D01*
X54951333Y-36360476D01*
X54856095Y-36408095D01*
X56332285Y-36122380D02*
X55856095Y-36122380D01*
X55808476Y-36598571D01*
X55856095Y-36550952D01*
X55951333Y-36503333D01*
X56189428Y-36503333D01*
X56284666Y-36550952D01*
X56332285Y-36598571D01*
X56379904Y-36693809D01*
X56379904Y-36931904D01*
X56332285Y-37027142D01*
X56284666Y-37074761D01*
X56189428Y-37122380D01*
X55951333Y-37122380D01*
X55856095Y-37074761D01*
X55808476Y-37027142D01*
%TO.C,C17*%
X57347142Y-23502857D02*
X57394761Y-23550476D01*
X57442380Y-23693333D01*
X57442380Y-23788571D01*
X57394761Y-23931428D01*
X57299523Y-24026666D01*
X57204285Y-24074285D01*
X57013809Y-24121904D01*
X56870952Y-24121904D01*
X56680476Y-24074285D01*
X56585238Y-24026666D01*
X56490000Y-23931428D01*
X56442380Y-23788571D01*
X56442380Y-23693333D01*
X56490000Y-23550476D01*
X56537619Y-23502857D01*
X57442380Y-22550476D02*
X57442380Y-23121904D01*
X57442380Y-22836190D02*
X56442380Y-22836190D01*
X56585238Y-22931428D01*
X56680476Y-23026666D01*
X56728095Y-23121904D01*
X56442380Y-22217142D02*
X56442380Y-21550476D01*
X57442380Y-21979047D01*
%TO.C,C18*%
X37093142Y-28582857D02*
X37140761Y-28630476D01*
X37188380Y-28773333D01*
X37188380Y-28868571D01*
X37140761Y-29011428D01*
X37045523Y-29106666D01*
X36950285Y-29154285D01*
X36759809Y-29201904D01*
X36616952Y-29201904D01*
X36426476Y-29154285D01*
X36331238Y-29106666D01*
X36236000Y-29011428D01*
X36188380Y-28868571D01*
X36188380Y-28773333D01*
X36236000Y-28630476D01*
X36283619Y-28582857D01*
X37188380Y-27630476D02*
X37188380Y-28201904D01*
X37188380Y-27916190D02*
X36188380Y-27916190D01*
X36331238Y-28011428D01*
X36426476Y-28106666D01*
X36474095Y-28201904D01*
X36616952Y-27059047D02*
X36569333Y-27154285D01*
X36521714Y-27201904D01*
X36426476Y-27249523D01*
X36378857Y-27249523D01*
X36283619Y-27201904D01*
X36236000Y-27154285D01*
X36188380Y-27059047D01*
X36188380Y-26868571D01*
X36236000Y-26773333D01*
X36283619Y-26725714D01*
X36378857Y-26678095D01*
X36426476Y-26678095D01*
X36521714Y-26725714D01*
X36569333Y-26773333D01*
X36616952Y-26868571D01*
X36616952Y-27059047D01*
X36664571Y-27154285D01*
X36712190Y-27201904D01*
X36807428Y-27249523D01*
X36997904Y-27249523D01*
X37093142Y-27201904D01*
X37140761Y-27154285D01*
X37188380Y-27059047D01*
X37188380Y-26868571D01*
X37140761Y-26773333D01*
X37093142Y-26725714D01*
X36997904Y-26678095D01*
X36807428Y-26678095D01*
X36712190Y-26725714D01*
X36664571Y-26773333D01*
X36616952Y-26868571D01*
%TO.C,C19*%
X69207142Y-58015142D02*
X69159523Y-58062761D01*
X69016666Y-58110380D01*
X68921428Y-58110380D01*
X68778571Y-58062761D01*
X68683333Y-57967523D01*
X68635714Y-57872285D01*
X68588095Y-57681809D01*
X68588095Y-57538952D01*
X68635714Y-57348476D01*
X68683333Y-57253238D01*
X68778571Y-57158000D01*
X68921428Y-57110380D01*
X69016666Y-57110380D01*
X69159523Y-57158000D01*
X69207142Y-57205619D01*
X70159523Y-58110380D02*
X69588095Y-58110380D01*
X69873809Y-58110380D02*
X69873809Y-57110380D01*
X69778571Y-57253238D01*
X69683333Y-57348476D01*
X69588095Y-57396095D01*
X70635714Y-58110380D02*
X70826190Y-58110380D01*
X70921428Y-58062761D01*
X70969047Y-58015142D01*
X71064285Y-57872285D01*
X71111904Y-57681809D01*
X71111904Y-57300857D01*
X71064285Y-57205619D01*
X71016666Y-57158000D01*
X70921428Y-57110380D01*
X70730952Y-57110380D01*
X70635714Y-57158000D01*
X70588095Y-57205619D01*
X70540476Y-57300857D01*
X70540476Y-57538952D01*
X70588095Y-57634190D01*
X70635714Y-57681809D01*
X70730952Y-57729428D01*
X70921428Y-57729428D01*
X71016666Y-57681809D01*
X71064285Y-57634190D01*
X71111904Y-57538952D01*
%TO.C,C20*%
X40759142Y-39821142D02*
X40711523Y-39868761D01*
X40568666Y-39916380D01*
X40473428Y-39916380D01*
X40330571Y-39868761D01*
X40235333Y-39773523D01*
X40187714Y-39678285D01*
X40140095Y-39487809D01*
X40140095Y-39344952D01*
X40187714Y-39154476D01*
X40235333Y-39059238D01*
X40330571Y-38964000D01*
X40473428Y-38916380D01*
X40568666Y-38916380D01*
X40711523Y-38964000D01*
X40759142Y-39011619D01*
X41140095Y-39011619D02*
X41187714Y-38964000D01*
X41282952Y-38916380D01*
X41521047Y-38916380D01*
X41616285Y-38964000D01*
X41663904Y-39011619D01*
X41711523Y-39106857D01*
X41711523Y-39202095D01*
X41663904Y-39344952D01*
X41092476Y-39916380D01*
X41711523Y-39916380D01*
X42330571Y-38916380D02*
X42425809Y-38916380D01*
X42521047Y-38964000D01*
X42568666Y-39011619D01*
X42616285Y-39106857D01*
X42663904Y-39297333D01*
X42663904Y-39535428D01*
X42616285Y-39725904D01*
X42568666Y-39821142D01*
X42521047Y-39868761D01*
X42425809Y-39916380D01*
X42330571Y-39916380D01*
X42235333Y-39868761D01*
X42187714Y-39821142D01*
X42140095Y-39725904D01*
X42092476Y-39535428D01*
X42092476Y-39297333D01*
X42140095Y-39106857D01*
X42187714Y-39011619D01*
X42235333Y-38964000D01*
X42330571Y-38916380D01*
%TO.C,C21*%
X37711142Y-19821142D02*
X37663523Y-19868761D01*
X37520666Y-19916380D01*
X37425428Y-19916380D01*
X37282571Y-19868761D01*
X37187333Y-19773523D01*
X37139714Y-19678285D01*
X37092095Y-19487809D01*
X37092095Y-19344952D01*
X37139714Y-19154476D01*
X37187333Y-19059238D01*
X37282571Y-18964000D01*
X37425428Y-18916380D01*
X37520666Y-18916380D01*
X37663523Y-18964000D01*
X37711142Y-19011619D01*
X38092095Y-19011619D02*
X38139714Y-18964000D01*
X38234952Y-18916380D01*
X38473047Y-18916380D01*
X38568285Y-18964000D01*
X38615904Y-19011619D01*
X38663523Y-19106857D01*
X38663523Y-19202095D01*
X38615904Y-19344952D01*
X38044476Y-19916380D01*
X38663523Y-19916380D01*
X39615904Y-19916380D02*
X39044476Y-19916380D01*
X39330190Y-19916380D02*
X39330190Y-18916380D01*
X39234952Y-19059238D01*
X39139714Y-19154476D01*
X39044476Y-19202095D01*
%TO.C,C22*%
X71649142Y-4726857D02*
X71696761Y-4774476D01*
X71744380Y-4917333D01*
X71744380Y-5012571D01*
X71696761Y-5155428D01*
X71601523Y-5250666D01*
X71506285Y-5298285D01*
X71315809Y-5345904D01*
X71172952Y-5345904D01*
X70982476Y-5298285D01*
X70887238Y-5250666D01*
X70792000Y-5155428D01*
X70744380Y-5012571D01*
X70744380Y-4917333D01*
X70792000Y-4774476D01*
X70839619Y-4726857D01*
X70839619Y-4345904D02*
X70792000Y-4298285D01*
X70744380Y-4203047D01*
X70744380Y-3964952D01*
X70792000Y-3869714D01*
X70839619Y-3822095D01*
X70934857Y-3774476D01*
X71030095Y-3774476D01*
X71172952Y-3822095D01*
X71744380Y-4393523D01*
X71744380Y-3774476D01*
X70839619Y-3393523D02*
X70792000Y-3345904D01*
X70744380Y-3250666D01*
X70744380Y-3012571D01*
X70792000Y-2917333D01*
X70839619Y-2869714D01*
X70934857Y-2822095D01*
X71030095Y-2822095D01*
X71172952Y-2869714D01*
X71744380Y-3441142D01*
X71744380Y-2822095D01*
%TO.C,C23*%
X64619142Y-53728857D02*
X64666761Y-53776476D01*
X64714380Y-53919333D01*
X64714380Y-54014571D01*
X64666761Y-54157428D01*
X64571523Y-54252666D01*
X64476285Y-54300285D01*
X64285809Y-54347904D01*
X64142952Y-54347904D01*
X63952476Y-54300285D01*
X63857238Y-54252666D01*
X63762000Y-54157428D01*
X63714380Y-54014571D01*
X63714380Y-53919333D01*
X63762000Y-53776476D01*
X63809619Y-53728857D01*
X63809619Y-53347904D02*
X63762000Y-53300285D01*
X63714380Y-53205047D01*
X63714380Y-52966952D01*
X63762000Y-52871714D01*
X63809619Y-52824095D01*
X63904857Y-52776476D01*
X64000095Y-52776476D01*
X64142952Y-52824095D01*
X64714380Y-53395523D01*
X64714380Y-52776476D01*
X63714380Y-52443142D02*
X63714380Y-51824095D01*
X64095333Y-52157428D01*
X64095333Y-52014571D01*
X64142952Y-51919333D01*
X64190571Y-51871714D01*
X64285809Y-51824095D01*
X64523904Y-51824095D01*
X64619142Y-51871714D01*
X64666761Y-51919333D01*
X64714380Y-52014571D01*
X64714380Y-52300285D01*
X64666761Y-52395523D01*
X64619142Y-52443142D01*
%TO.C,C25*%
X10279142Y-53189142D02*
X10231523Y-53236761D01*
X10088666Y-53284380D01*
X9993428Y-53284380D01*
X9850571Y-53236761D01*
X9755333Y-53141523D01*
X9707714Y-53046285D01*
X9660095Y-52855809D01*
X9660095Y-52712952D01*
X9707714Y-52522476D01*
X9755333Y-52427238D01*
X9850571Y-52332000D01*
X9993428Y-52284380D01*
X10088666Y-52284380D01*
X10231523Y-52332000D01*
X10279142Y-52379619D01*
X10660095Y-52379619D02*
X10707714Y-52332000D01*
X10802952Y-52284380D01*
X11041047Y-52284380D01*
X11136285Y-52332000D01*
X11183904Y-52379619D01*
X11231523Y-52474857D01*
X11231523Y-52570095D01*
X11183904Y-52712952D01*
X10612476Y-53284380D01*
X11231523Y-53284380D01*
X12136285Y-52284380D02*
X11660095Y-52284380D01*
X11612476Y-52760571D01*
X11660095Y-52712952D01*
X11755333Y-52665333D01*
X11993428Y-52665333D01*
X12088666Y-52712952D01*
X12136285Y-52760571D01*
X12183904Y-52855809D01*
X12183904Y-53093904D01*
X12136285Y-53189142D01*
X12088666Y-53236761D01*
X11993428Y-53284380D01*
X11755333Y-53284380D01*
X11660095Y-53236761D01*
X11612476Y-53189142D01*
%TO.C,C26*%
X88257142Y-22709142D02*
X88209523Y-22756761D01*
X88066666Y-22804380D01*
X87971428Y-22804380D01*
X87828571Y-22756761D01*
X87733333Y-22661523D01*
X87685714Y-22566285D01*
X87638095Y-22375809D01*
X87638095Y-22232952D01*
X87685714Y-22042476D01*
X87733333Y-21947238D01*
X87828571Y-21852000D01*
X87971428Y-21804380D01*
X88066666Y-21804380D01*
X88209523Y-21852000D01*
X88257142Y-21899619D01*
X88638095Y-21899619D02*
X88685714Y-21852000D01*
X88780952Y-21804380D01*
X89019047Y-21804380D01*
X89114285Y-21852000D01*
X89161904Y-21899619D01*
X89209523Y-21994857D01*
X89209523Y-22090095D01*
X89161904Y-22232952D01*
X88590476Y-22804380D01*
X89209523Y-22804380D01*
X90066666Y-21804380D02*
X89876190Y-21804380D01*
X89780952Y-21852000D01*
X89733333Y-21899619D01*
X89638095Y-22042476D01*
X89590476Y-22232952D01*
X89590476Y-22613904D01*
X89638095Y-22709142D01*
X89685714Y-22756761D01*
X89780952Y-22804380D01*
X89971428Y-22804380D01*
X90066666Y-22756761D01*
X90114285Y-22709142D01*
X90161904Y-22613904D01*
X90161904Y-22375809D01*
X90114285Y-22280571D01*
X90066666Y-22232952D01*
X89971428Y-22185333D01*
X89780952Y-22185333D01*
X89685714Y-22232952D01*
X89638095Y-22280571D01*
X89590476Y-22375809D01*
%TO.C,D1*%
X106703904Y-47956380D02*
X106703904Y-46956380D01*
X106942000Y-46956380D01*
X107084857Y-47004000D01*
X107180095Y-47099238D01*
X107227714Y-47194476D01*
X107275333Y-47384952D01*
X107275333Y-47527809D01*
X107227714Y-47718285D01*
X107180095Y-47813523D01*
X107084857Y-47908761D01*
X106942000Y-47956380D01*
X106703904Y-47956380D01*
X108227714Y-47956380D02*
X107656285Y-47956380D01*
X107942000Y-47956380D02*
X107942000Y-46956380D01*
X107846761Y-47099238D01*
X107751523Y-47194476D01*
X107656285Y-47242095D01*
%TO.C,D2*%
X86637904Y-11882380D02*
X86637904Y-10882380D01*
X86876000Y-10882380D01*
X87018857Y-10930000D01*
X87114095Y-11025238D01*
X87161714Y-11120476D01*
X87209333Y-11310952D01*
X87209333Y-11453809D01*
X87161714Y-11644285D01*
X87114095Y-11739523D01*
X87018857Y-11834761D01*
X86876000Y-11882380D01*
X86637904Y-11882380D01*
X87590285Y-10977619D02*
X87637904Y-10930000D01*
X87733142Y-10882380D01*
X87971238Y-10882380D01*
X88066476Y-10930000D01*
X88114095Y-10977619D01*
X88161714Y-11072857D01*
X88161714Y-11168095D01*
X88114095Y-11310952D01*
X87542666Y-11882380D01*
X88161714Y-11882380D01*
%TO.C,J1*%
X103382380Y-3127333D02*
X104096666Y-3127333D01*
X104239523Y-3174952D01*
X104334761Y-3270190D01*
X104382380Y-3413047D01*
X104382380Y-3508285D01*
X104382380Y-2127333D02*
X104382380Y-2698761D01*
X104382380Y-2413047D02*
X103382380Y-2413047D01*
X103525238Y-2508285D01*
X103620476Y-2603523D01*
X103668095Y-2698761D01*
%TO.C,J2*%
X34968380Y-56467333D02*
X35682666Y-56467333D01*
X35825523Y-56514952D01*
X35920761Y-56610190D01*
X35968380Y-56753047D01*
X35968380Y-56848285D01*
X35063619Y-56038761D02*
X35016000Y-55991142D01*
X34968380Y-55895904D01*
X34968380Y-55657809D01*
X35016000Y-55562571D01*
X35063619Y-55514952D01*
X35158857Y-55467333D01*
X35254095Y-55467333D01*
X35396952Y-55514952D01*
X35968380Y-56086380D01*
X35968380Y-55467333D01*
%TO.C,J3*%
X34968380Y-3635333D02*
X35682666Y-3635333D01*
X35825523Y-3682952D01*
X35920761Y-3778190D01*
X35968380Y-3921047D01*
X35968380Y-4016285D01*
X34968380Y-3254380D02*
X34968380Y-2635333D01*
X35349333Y-2968666D01*
X35349333Y-2825809D01*
X35396952Y-2730571D01*
X35444571Y-2682952D01*
X35539809Y-2635333D01*
X35777904Y-2635333D01*
X35873142Y-2682952D01*
X35920761Y-2730571D01*
X35968380Y-2825809D01*
X35968380Y-3111523D01*
X35920761Y-3206761D01*
X35873142Y-3254380D01*
%TO.C,J4*%
X19308380Y-57737333D02*
X20022666Y-57737333D01*
X20165523Y-57784952D01*
X20260761Y-57880190D01*
X20308380Y-58023047D01*
X20308380Y-58118285D01*
X19641714Y-56832571D02*
X20308380Y-56832571D01*
X19260761Y-57070666D02*
X19975047Y-57308761D01*
X19975047Y-56689714D01*
%TO.C,J5*%
X69516666Y-6818380D02*
X69516666Y-7532666D01*
X69469047Y-7675523D01*
X69373809Y-7770761D01*
X69230952Y-7818380D01*
X69135714Y-7818380D01*
X70469047Y-6818380D02*
X69992857Y-6818380D01*
X69945238Y-7294571D01*
X69992857Y-7246952D01*
X70088095Y-7199333D01*
X70326190Y-7199333D01*
X70421428Y-7246952D01*
X70469047Y-7294571D01*
X70516666Y-7389809D01*
X70516666Y-7627904D01*
X70469047Y-7723142D01*
X70421428Y-7770761D01*
X70326190Y-7818380D01*
X70088095Y-7818380D01*
X69992857Y-7770761D01*
X69945238Y-7723142D01*
%TO.C,J7*%
X7032666Y-7580380D02*
X7032666Y-8294666D01*
X6985047Y-8437523D01*
X6889809Y-8532761D01*
X6746952Y-8580380D01*
X6651714Y-8580380D01*
X7413619Y-7580380D02*
X8080285Y-7580380D01*
X7651714Y-8580380D01*
%TO.C,J9*%
X94321380Y-18442333D02*
X95035666Y-18442333D01*
X95178523Y-18489952D01*
X95273761Y-18585190D01*
X95321380Y-18728047D01*
X95321380Y-18823285D01*
X95321380Y-17918523D02*
X95321380Y-17728047D01*
X95273761Y-17632809D01*
X95226142Y-17585190D01*
X95083285Y-17489952D01*
X94892809Y-17442333D01*
X94511857Y-17442333D01*
X94416619Y-17489952D01*
X94369000Y-17537571D01*
X94321380Y-17632809D01*
X94321380Y-17823285D01*
X94369000Y-17918523D01*
X94416619Y-17966142D01*
X94511857Y-18013761D01*
X94749952Y-18013761D01*
X94845190Y-17966142D01*
X94892809Y-17918523D01*
X94940428Y-17823285D01*
X94940428Y-17632809D01*
X94892809Y-17537571D01*
X94845190Y-17489952D01*
X94749952Y-17442333D01*
%TO.C,J10*%
X102314380Y-42465523D02*
X103028666Y-42465523D01*
X103171523Y-42513142D01*
X103266761Y-42608380D01*
X103314380Y-42751238D01*
X103314380Y-42846476D01*
X103314380Y-41465523D02*
X103314380Y-42036952D01*
X103314380Y-41751238D02*
X102314380Y-41751238D01*
X102457238Y-41846476D01*
X102552476Y-41941714D01*
X102600095Y-42036952D01*
X102314380Y-40846476D02*
X102314380Y-40751238D01*
X102362000Y-40656000D01*
X102409619Y-40608380D01*
X102504857Y-40560761D01*
X102695333Y-40513142D01*
X102933428Y-40513142D01*
X103123904Y-40560761D01*
X103219142Y-40608380D01*
X103266761Y-40656000D01*
X103314380Y-40751238D01*
X103314380Y-40846476D01*
X103266761Y-40941714D01*
X103219142Y-40989333D01*
X103123904Y-41036952D01*
X102933428Y-41084571D01*
X102695333Y-41084571D01*
X102504857Y-41036952D01*
X102409619Y-40989333D01*
X102362000Y-40941714D01*
X102314380Y-40846476D01*
%TO.C,R1*%
X31346380Y-47918666D02*
X30870190Y-48252000D01*
X31346380Y-48490095D02*
X30346380Y-48490095D01*
X30346380Y-48109142D01*
X30394000Y-48013904D01*
X30441619Y-47966285D01*
X30536857Y-47918666D01*
X30679714Y-47918666D01*
X30774952Y-47966285D01*
X30822571Y-48013904D01*
X30870190Y-48109142D01*
X30870190Y-48490095D01*
X31346380Y-46966285D02*
X31346380Y-47537714D01*
X31346380Y-47252000D02*
X30346380Y-47252000D01*
X30489238Y-47347238D01*
X30584476Y-47442476D01*
X30632095Y-47537714D01*
%TO.C,R3*%
X32456380Y-42330666D02*
X31980190Y-42664000D01*
X32456380Y-42902095D02*
X31456380Y-42902095D01*
X31456380Y-42521142D01*
X31504000Y-42425904D01*
X31551619Y-42378285D01*
X31646857Y-42330666D01*
X31789714Y-42330666D01*
X31884952Y-42378285D01*
X31932571Y-42425904D01*
X31980190Y-42521142D01*
X31980190Y-42902095D01*
X31456380Y-41997333D02*
X31456380Y-41378285D01*
X31837333Y-41711619D01*
X31837333Y-41568761D01*
X31884952Y-41473523D01*
X31932571Y-41425904D01*
X32027809Y-41378285D01*
X32265904Y-41378285D01*
X32361142Y-41425904D01*
X32408761Y-41473523D01*
X32456380Y-41568761D01*
X32456380Y-41854476D01*
X32408761Y-41949714D01*
X32361142Y-41997333D01*
%TO.C,R4*%
X91019333Y-38806380D02*
X90686000Y-38330190D01*
X90447904Y-38806380D02*
X90447904Y-37806380D01*
X90828857Y-37806380D01*
X90924095Y-37854000D01*
X90971714Y-37901619D01*
X91019333Y-37996857D01*
X91019333Y-38139714D01*
X90971714Y-38234952D01*
X90924095Y-38282571D01*
X90828857Y-38330190D01*
X90447904Y-38330190D01*
X91876476Y-38139714D02*
X91876476Y-38806380D01*
X91638380Y-37758761D02*
X91400285Y-38473047D01*
X92019333Y-38473047D01*
%TO.C,R5*%
X37425333Y-16708380D02*
X37092000Y-16232190D01*
X36853904Y-16708380D02*
X36853904Y-15708380D01*
X37234857Y-15708380D01*
X37330095Y-15756000D01*
X37377714Y-15803619D01*
X37425333Y-15898857D01*
X37425333Y-16041714D01*
X37377714Y-16136952D01*
X37330095Y-16184571D01*
X37234857Y-16232190D01*
X36853904Y-16232190D01*
X38330095Y-15708380D02*
X37853904Y-15708380D01*
X37806285Y-16184571D01*
X37853904Y-16136952D01*
X37949142Y-16089333D01*
X38187238Y-16089333D01*
X38282476Y-16136952D01*
X38330095Y-16184571D01*
X38377714Y-16279809D01*
X38377714Y-16517904D01*
X38330095Y-16613142D01*
X38282476Y-16660761D01*
X38187238Y-16708380D01*
X37949142Y-16708380D01*
X37853904Y-16660761D01*
X37806285Y-16613142D01*
%TO.C,R6*%
X47856380Y-45886666D02*
X47380190Y-46220000D01*
X47856380Y-46458095D02*
X46856380Y-46458095D01*
X46856380Y-46077142D01*
X46904000Y-45981904D01*
X46951619Y-45934285D01*
X47046857Y-45886666D01*
X47189714Y-45886666D01*
X47284952Y-45934285D01*
X47332571Y-45981904D01*
X47380190Y-46077142D01*
X47380190Y-46458095D01*
X46856380Y-45029523D02*
X46856380Y-45220000D01*
X46904000Y-45315238D01*
X46951619Y-45362857D01*
X47094476Y-45458095D01*
X47284952Y-45505714D01*
X47665904Y-45505714D01*
X47761142Y-45458095D01*
X47808761Y-45410476D01*
X47856380Y-45315238D01*
X47856380Y-45124761D01*
X47808761Y-45029523D01*
X47761142Y-44981904D01*
X47665904Y-44934285D01*
X47427809Y-44934285D01*
X47332571Y-44981904D01*
X47284952Y-45029523D01*
X47237333Y-45124761D01*
X47237333Y-45315238D01*
X47284952Y-45410476D01*
X47332571Y-45458095D01*
X47427809Y-45505714D01*
%TO.C,R7*%
X32853333Y-13754380D02*
X32520000Y-13278190D01*
X32281904Y-13754380D02*
X32281904Y-12754380D01*
X32662857Y-12754380D01*
X32758095Y-12802000D01*
X32805714Y-12849619D01*
X32853333Y-12944857D01*
X32853333Y-13087714D01*
X32805714Y-13182952D01*
X32758095Y-13230571D01*
X32662857Y-13278190D01*
X32281904Y-13278190D01*
X33186666Y-12754380D02*
X33853333Y-12754380D01*
X33424761Y-13754380D01*
%TO.C,R8*%
X88987333Y-27122380D02*
X88654000Y-26646190D01*
X88415904Y-27122380D02*
X88415904Y-26122380D01*
X88796857Y-26122380D01*
X88892095Y-26170000D01*
X88939714Y-26217619D01*
X88987333Y-26312857D01*
X88987333Y-26455714D01*
X88939714Y-26550952D01*
X88892095Y-26598571D01*
X88796857Y-26646190D01*
X88415904Y-26646190D01*
X89558761Y-26550952D02*
X89463523Y-26503333D01*
X89415904Y-26455714D01*
X89368285Y-26360476D01*
X89368285Y-26312857D01*
X89415904Y-26217619D01*
X89463523Y-26170000D01*
X89558761Y-26122380D01*
X89749238Y-26122380D01*
X89844476Y-26170000D01*
X89892095Y-26217619D01*
X89939714Y-26312857D01*
X89939714Y-26360476D01*
X89892095Y-26455714D01*
X89844476Y-26503333D01*
X89749238Y-26550952D01*
X89558761Y-26550952D01*
X89463523Y-26598571D01*
X89415904Y-26646190D01*
X89368285Y-26741428D01*
X89368285Y-26931904D01*
X89415904Y-27027142D01*
X89463523Y-27074761D01*
X89558761Y-27122380D01*
X89749238Y-27122380D01*
X89844476Y-27074761D01*
X89892095Y-27027142D01*
X89939714Y-26931904D01*
X89939714Y-26741428D01*
X89892095Y-26646190D01*
X89844476Y-26598571D01*
X89749238Y-26550952D01*
%TO.C,R9*%
X89495333Y-13660380D02*
X89162000Y-13184190D01*
X88923904Y-13660380D02*
X88923904Y-12660380D01*
X89304857Y-12660380D01*
X89400095Y-12708000D01*
X89447714Y-12755619D01*
X89495333Y-12850857D01*
X89495333Y-12993714D01*
X89447714Y-13088952D01*
X89400095Y-13136571D01*
X89304857Y-13184190D01*
X88923904Y-13184190D01*
X89971523Y-13660380D02*
X90162000Y-13660380D01*
X90257238Y-13612761D01*
X90304857Y-13565142D01*
X90400095Y-13422285D01*
X90447714Y-13231809D01*
X90447714Y-12850857D01*
X90400095Y-12755619D01*
X90352476Y-12708000D01*
X90257238Y-12660380D01*
X90066761Y-12660380D01*
X89971523Y-12708000D01*
X89923904Y-12755619D01*
X89876285Y-12850857D01*
X89876285Y-13088952D01*
X89923904Y-13184190D01*
X89971523Y-13231809D01*
X90066761Y-13279428D01*
X90257238Y-13279428D01*
X90352476Y-13231809D01*
X90400095Y-13184190D01*
X90447714Y-13088952D01*
%TO.C,R10*%
X88511142Y-15438380D02*
X88177809Y-14962190D01*
X87939714Y-15438380D02*
X87939714Y-14438380D01*
X88320666Y-14438380D01*
X88415904Y-14486000D01*
X88463523Y-14533619D01*
X88511142Y-14628857D01*
X88511142Y-14771714D01*
X88463523Y-14866952D01*
X88415904Y-14914571D01*
X88320666Y-14962190D01*
X87939714Y-14962190D01*
X89463523Y-15438380D02*
X88892095Y-15438380D01*
X89177809Y-15438380D02*
X89177809Y-14438380D01*
X89082571Y-14581238D01*
X88987333Y-14676476D01*
X88892095Y-14724095D01*
X90082571Y-14438380D02*
X90177809Y-14438380D01*
X90273047Y-14486000D01*
X90320666Y-14533619D01*
X90368285Y-14628857D01*
X90415904Y-14819333D01*
X90415904Y-15057428D01*
X90368285Y-15247904D01*
X90320666Y-15343142D01*
X90273047Y-15390761D01*
X90177809Y-15438380D01*
X90082571Y-15438380D01*
X89987333Y-15390761D01*
X89939714Y-15343142D01*
X89892095Y-15247904D01*
X89844476Y-15057428D01*
X89844476Y-14819333D01*
X89892095Y-14628857D01*
X89939714Y-14533619D01*
X89987333Y-14486000D01*
X90082571Y-14438380D01*
%TO.C,R11*%
X88257142Y-25090380D02*
X87923809Y-24614190D01*
X87685714Y-25090380D02*
X87685714Y-24090380D01*
X88066666Y-24090380D01*
X88161904Y-24138000D01*
X88209523Y-24185619D01*
X88257142Y-24280857D01*
X88257142Y-24423714D01*
X88209523Y-24518952D01*
X88161904Y-24566571D01*
X88066666Y-24614190D01*
X87685714Y-24614190D01*
X89209523Y-25090380D02*
X88638095Y-25090380D01*
X88923809Y-25090380D02*
X88923809Y-24090380D01*
X88828571Y-24233238D01*
X88733333Y-24328476D01*
X88638095Y-24376095D01*
X90161904Y-25090380D02*
X89590476Y-25090380D01*
X89876190Y-25090380D02*
X89876190Y-24090380D01*
X89780952Y-24233238D01*
X89685714Y-24328476D01*
X89590476Y-24376095D01*
%TO.C,R12*%
X96893142Y-41346380D02*
X96559809Y-40870190D01*
X96321714Y-41346380D02*
X96321714Y-40346380D01*
X96702666Y-40346380D01*
X96797904Y-40394000D01*
X96845523Y-40441619D01*
X96893142Y-40536857D01*
X96893142Y-40679714D01*
X96845523Y-40774952D01*
X96797904Y-40822571D01*
X96702666Y-40870190D01*
X96321714Y-40870190D01*
X97845523Y-41346380D02*
X97274095Y-41346380D01*
X97559809Y-41346380D02*
X97559809Y-40346380D01*
X97464571Y-40489238D01*
X97369333Y-40584476D01*
X97274095Y-40632095D01*
X98226476Y-40441619D02*
X98274095Y-40394000D01*
X98369333Y-40346380D01*
X98607428Y-40346380D01*
X98702666Y-40394000D01*
X98750285Y-40441619D01*
X98797904Y-40536857D01*
X98797904Y-40632095D01*
X98750285Y-40774952D01*
X98178857Y-41346380D01*
X98797904Y-41346380D01*
%TO.C,R13*%
X96893142Y-43124380D02*
X96559809Y-42648190D01*
X96321714Y-43124380D02*
X96321714Y-42124380D01*
X96702666Y-42124380D01*
X96797904Y-42172000D01*
X96845523Y-42219619D01*
X96893142Y-42314857D01*
X96893142Y-42457714D01*
X96845523Y-42552952D01*
X96797904Y-42600571D01*
X96702666Y-42648190D01*
X96321714Y-42648190D01*
X97845523Y-43124380D02*
X97274095Y-43124380D01*
X97559809Y-43124380D02*
X97559809Y-42124380D01*
X97464571Y-42267238D01*
X97369333Y-42362476D01*
X97274095Y-42410095D01*
X98178857Y-42124380D02*
X98797904Y-42124380D01*
X98464571Y-42505333D01*
X98607428Y-42505333D01*
X98702666Y-42552952D01*
X98750285Y-42600571D01*
X98797904Y-42695809D01*
X98797904Y-42933904D01*
X98750285Y-43029142D01*
X98702666Y-43076761D01*
X98607428Y-43124380D01*
X98321714Y-43124380D01*
X98226476Y-43076761D01*
X98178857Y-43029142D01*
%TO.C,R14*%
X96893142Y-39060380D02*
X96559809Y-38584190D01*
X96321714Y-39060380D02*
X96321714Y-38060380D01*
X96702666Y-38060380D01*
X96797904Y-38108000D01*
X96845523Y-38155619D01*
X96893142Y-38250857D01*
X96893142Y-38393714D01*
X96845523Y-38488952D01*
X96797904Y-38536571D01*
X96702666Y-38584190D01*
X96321714Y-38584190D01*
X97845523Y-39060380D02*
X97274095Y-39060380D01*
X97559809Y-39060380D02*
X97559809Y-38060380D01*
X97464571Y-38203238D01*
X97369333Y-38298476D01*
X97274095Y-38346095D01*
X98702666Y-38393714D02*
X98702666Y-39060380D01*
X98464571Y-38012761D02*
X98226476Y-38727047D01*
X98845523Y-38727047D01*
%TO.C,R15*%
X96893142Y-45156380D02*
X96559809Y-44680190D01*
X96321714Y-45156380D02*
X96321714Y-44156380D01*
X96702666Y-44156380D01*
X96797904Y-44204000D01*
X96845523Y-44251619D01*
X96893142Y-44346857D01*
X96893142Y-44489714D01*
X96845523Y-44584952D01*
X96797904Y-44632571D01*
X96702666Y-44680190D01*
X96321714Y-44680190D01*
X97845523Y-45156380D02*
X97274095Y-45156380D01*
X97559809Y-45156380D02*
X97559809Y-44156380D01*
X97464571Y-44299238D01*
X97369333Y-44394476D01*
X97274095Y-44442095D01*
X98750285Y-44156380D02*
X98274095Y-44156380D01*
X98226476Y-44632571D01*
X98274095Y-44584952D01*
X98369333Y-44537333D01*
X98607428Y-44537333D01*
X98702666Y-44584952D01*
X98750285Y-44632571D01*
X98797904Y-44727809D01*
X98797904Y-44965904D01*
X98750285Y-45061142D01*
X98702666Y-45108761D01*
X98607428Y-45156380D01*
X98369333Y-45156380D01*
X98274095Y-45108761D01*
X98226476Y-45061142D01*
%TO.C,RN2*%
X34488380Y-44124476D02*
X34012190Y-44457809D01*
X34488380Y-44695904D02*
X33488380Y-44695904D01*
X33488380Y-44314952D01*
X33536000Y-44219714D01*
X33583619Y-44172095D01*
X33678857Y-44124476D01*
X33821714Y-44124476D01*
X33916952Y-44172095D01*
X33964571Y-44219714D01*
X34012190Y-44314952D01*
X34012190Y-44695904D01*
X34488380Y-43695904D02*
X33488380Y-43695904D01*
X34488380Y-43124476D01*
X33488380Y-43124476D01*
X33583619Y-42695904D02*
X33536000Y-42648285D01*
X33488380Y-42553047D01*
X33488380Y-42314952D01*
X33536000Y-42219714D01*
X33583619Y-42172095D01*
X33678857Y-42124476D01*
X33774095Y-42124476D01*
X33916952Y-42172095D01*
X34488380Y-42743523D01*
X34488380Y-42124476D01*
%TO.C,SW1*%
X27582761Y-20891333D02*
X27630380Y-20748476D01*
X27630380Y-20510380D01*
X27582761Y-20415142D01*
X27535142Y-20367523D01*
X27439904Y-20319904D01*
X27344666Y-20319904D01*
X27249428Y-20367523D01*
X27201809Y-20415142D01*
X27154190Y-20510380D01*
X27106571Y-20700857D01*
X27058952Y-20796095D01*
X27011333Y-20843714D01*
X26916095Y-20891333D01*
X26820857Y-20891333D01*
X26725619Y-20843714D01*
X26678000Y-20796095D01*
X26630380Y-20700857D01*
X26630380Y-20462761D01*
X26678000Y-20319904D01*
X26630380Y-19986571D02*
X27630380Y-19748476D01*
X26916095Y-19558000D01*
X27630380Y-19367523D01*
X26630380Y-19129428D01*
X27630380Y-18224666D02*
X27630380Y-18796095D01*
X27630380Y-18510380D02*
X26630380Y-18510380D01*
X26773238Y-18605619D01*
X26868476Y-18700857D01*
X26916095Y-18796095D01*
%TO.C,SW2*%
X39814666Y-11072761D02*
X39957523Y-11120380D01*
X40195619Y-11120380D01*
X40290857Y-11072761D01*
X40338476Y-11025142D01*
X40386095Y-10929904D01*
X40386095Y-10834666D01*
X40338476Y-10739428D01*
X40290857Y-10691809D01*
X40195619Y-10644190D01*
X40005142Y-10596571D01*
X39909904Y-10548952D01*
X39862285Y-10501333D01*
X39814666Y-10406095D01*
X39814666Y-10310857D01*
X39862285Y-10215619D01*
X39909904Y-10168000D01*
X40005142Y-10120380D01*
X40243238Y-10120380D01*
X40386095Y-10168000D01*
X40719428Y-10120380D02*
X40957523Y-11120380D01*
X41148000Y-10406095D01*
X41338476Y-11120380D01*
X41576571Y-10120380D01*
X41909904Y-10215619D02*
X41957523Y-10168000D01*
X42052761Y-10120380D01*
X42290857Y-10120380D01*
X42386095Y-10168000D01*
X42433714Y-10215619D01*
X42481333Y-10310857D01*
X42481333Y-10406095D01*
X42433714Y-10548952D01*
X41862285Y-11120380D01*
X42481333Y-11120380D01*
%TO.C,U5*%
X76200095Y-14964380D02*
X76200095Y-15773904D01*
X76247714Y-15869142D01*
X76295333Y-15916761D01*
X76390571Y-15964380D01*
X76581047Y-15964380D01*
X76676285Y-15916761D01*
X76723904Y-15869142D01*
X76771523Y-15773904D01*
X76771523Y-14964380D01*
X77723904Y-14964380D02*
X77247714Y-14964380D01*
X77200095Y-15440571D01*
X77247714Y-15392952D01*
X77342952Y-15345333D01*
X77581047Y-15345333D01*
X77676285Y-15392952D01*
X77723904Y-15440571D01*
X77771523Y-15535809D01*
X77771523Y-15773904D01*
X77723904Y-15869142D01*
X77676285Y-15916761D01*
X77581047Y-15964380D01*
X77342952Y-15964380D01*
X77247714Y-15916761D01*
X77200095Y-15869142D01*
%TO.C,U6*%
X66802095Y-52792380D02*
X66802095Y-53601904D01*
X66849714Y-53697142D01*
X66897333Y-53744761D01*
X66992571Y-53792380D01*
X67183047Y-53792380D01*
X67278285Y-53744761D01*
X67325904Y-53697142D01*
X67373523Y-53601904D01*
X67373523Y-52792380D01*
X68278285Y-52792380D02*
X68087809Y-52792380D01*
X67992571Y-52840000D01*
X67944952Y-52887619D01*
X67849714Y-53030476D01*
X67802095Y-53220952D01*
X67802095Y-53601904D01*
X67849714Y-53697142D01*
X67897333Y-53744761D01*
X67992571Y-53792380D01*
X68183047Y-53792380D01*
X68278285Y-53744761D01*
X68325904Y-53697142D01*
X68373523Y-53601904D01*
X68373523Y-53363809D01*
X68325904Y-53268571D01*
X68278285Y-53220952D01*
X68183047Y-53173333D01*
X67992571Y-53173333D01*
X67897333Y-53220952D01*
X67849714Y-53268571D01*
X67802095Y-53363809D01*
%TO.C,Y1*%
X27662190Y-26638190D02*
X28138380Y-26638190D01*
X27138380Y-26971523D02*
X27662190Y-26638190D01*
X27138380Y-26304857D01*
X28138380Y-25447714D02*
X28138380Y-26019142D01*
X28138380Y-25733428D02*
X27138380Y-25733428D01*
X27281238Y-25828666D01*
X27376476Y-25923904D01*
X27424095Y-26019142D01*
%TO.C,Y2*%
X31728190Y-32734190D02*
X32204380Y-32734190D01*
X31204380Y-33067523D02*
X31728190Y-32734190D01*
X31204380Y-32400857D01*
X31299619Y-32115142D02*
X31252000Y-32067523D01*
X31204380Y-31972285D01*
X31204380Y-31734190D01*
X31252000Y-31638952D01*
X31299619Y-31591333D01*
X31394857Y-31543714D01*
X31490095Y-31543714D01*
X31632952Y-31591333D01*
X32204380Y-32162761D01*
X32204380Y-31543714D01*
%TO.C,R17*%
X11549142Y-22042380D02*
X11215809Y-21566190D01*
X10977714Y-22042380D02*
X10977714Y-21042380D01*
X11358666Y-21042380D01*
X11453904Y-21090000D01*
X11501523Y-21137619D01*
X11549142Y-21232857D01*
X11549142Y-21375714D01*
X11501523Y-21470952D01*
X11453904Y-21518571D01*
X11358666Y-21566190D01*
X10977714Y-21566190D01*
X12501523Y-22042380D02*
X11930095Y-22042380D01*
X12215809Y-22042380D02*
X12215809Y-21042380D01*
X12120571Y-21185238D01*
X12025333Y-21280476D01*
X11930095Y-21328095D01*
X12834857Y-21042380D02*
X13501523Y-21042380D01*
X13072952Y-22042380D01*
%TO.C,R18*%
X13073142Y-12898380D02*
X12739809Y-12422190D01*
X12501714Y-12898380D02*
X12501714Y-11898380D01*
X12882666Y-11898380D01*
X12977904Y-11946000D01*
X13025523Y-11993619D01*
X13073142Y-12088857D01*
X13073142Y-12231714D01*
X13025523Y-12326952D01*
X12977904Y-12374571D01*
X12882666Y-12422190D01*
X12501714Y-12422190D01*
X14025523Y-12898380D02*
X13454095Y-12898380D01*
X13739809Y-12898380D02*
X13739809Y-11898380D01*
X13644571Y-12041238D01*
X13549333Y-12136476D01*
X13454095Y-12184095D01*
X14596952Y-12326952D02*
X14501714Y-12279333D01*
X14454095Y-12231714D01*
X14406476Y-12136476D01*
X14406476Y-12088857D01*
X14454095Y-11993619D01*
X14501714Y-11946000D01*
X14596952Y-11898380D01*
X14787428Y-11898380D01*
X14882666Y-11946000D01*
X14930285Y-11993619D01*
X14977904Y-12088857D01*
X14977904Y-12136476D01*
X14930285Y-12231714D01*
X14882666Y-12279333D01*
X14787428Y-12326952D01*
X14596952Y-12326952D01*
X14501714Y-12374571D01*
X14454095Y-12422190D01*
X14406476Y-12517428D01*
X14406476Y-12707904D01*
X14454095Y-12803142D01*
X14501714Y-12850761D01*
X14596952Y-12898380D01*
X14787428Y-12898380D01*
X14882666Y-12850761D01*
X14930285Y-12803142D01*
X14977904Y-12707904D01*
X14977904Y-12517428D01*
X14930285Y-12422190D01*
X14882666Y-12374571D01*
X14787428Y-12326952D01*
%TO.C,R19*%
X18153142Y-17978380D02*
X17819809Y-17502190D01*
X17581714Y-17978380D02*
X17581714Y-16978380D01*
X17962666Y-16978380D01*
X18057904Y-17026000D01*
X18105523Y-17073619D01*
X18153142Y-17168857D01*
X18153142Y-17311714D01*
X18105523Y-17406952D01*
X18057904Y-17454571D01*
X17962666Y-17502190D01*
X17581714Y-17502190D01*
X19105523Y-17978380D02*
X18534095Y-17978380D01*
X18819809Y-17978380D02*
X18819809Y-16978380D01*
X18724571Y-17121238D01*
X18629333Y-17216476D01*
X18534095Y-17264095D01*
X19581714Y-17978380D02*
X19772190Y-17978380D01*
X19867428Y-17930761D01*
X19915047Y-17883142D01*
X20010285Y-17740285D01*
X20057904Y-17549809D01*
X20057904Y-17168857D01*
X20010285Y-17073619D01*
X19962666Y-17026000D01*
X19867428Y-16978380D01*
X19676952Y-16978380D01*
X19581714Y-17026000D01*
X19534095Y-17073619D01*
X19486476Y-17168857D01*
X19486476Y-17406952D01*
X19534095Y-17502190D01*
X19581714Y-17549809D01*
X19676952Y-17597428D01*
X19867428Y-17597428D01*
X19962666Y-17549809D01*
X20010285Y-17502190D01*
X20057904Y-17406952D01*
%TO.C,R16*%
X94861142Y-10358380D02*
X94527809Y-9882190D01*
X94289714Y-10358380D02*
X94289714Y-9358380D01*
X94670666Y-9358380D01*
X94765904Y-9406000D01*
X94813523Y-9453619D01*
X94861142Y-9548857D01*
X94861142Y-9691714D01*
X94813523Y-9786952D01*
X94765904Y-9834571D01*
X94670666Y-9882190D01*
X94289714Y-9882190D01*
X95813523Y-10358380D02*
X95242095Y-10358380D01*
X95527809Y-10358380D02*
X95527809Y-9358380D01*
X95432571Y-9501238D01*
X95337333Y-9596476D01*
X95242095Y-9644095D01*
X96670666Y-9358380D02*
X96480190Y-9358380D01*
X96384952Y-9406000D01*
X96337333Y-9453619D01*
X96242095Y-9596476D01*
X96194476Y-9786952D01*
X96194476Y-10167904D01*
X96242095Y-10263142D01*
X96289714Y-10310761D01*
X96384952Y-10358380D01*
X96575428Y-10358380D01*
X96670666Y-10310761D01*
X96718285Y-10263142D01*
X96765904Y-10167904D01*
X96765904Y-9929809D01*
X96718285Y-9834571D01*
X96670666Y-9786952D01*
X96575428Y-9739333D01*
X96384952Y-9739333D01*
X96289714Y-9786952D01*
X96242095Y-9834571D01*
X96194476Y-9929809D01*
%TO.C,U1*%
X91382095Y-41972380D02*
X91382095Y-42781904D01*
X91429714Y-42877142D01*
X91477333Y-42924761D01*
X91572571Y-42972380D01*
X91763047Y-42972380D01*
X91858285Y-42924761D01*
X91905904Y-42877142D01*
X91953523Y-42781904D01*
X91953523Y-41972380D01*
X92953523Y-42972380D02*
X92382095Y-42972380D01*
X92667809Y-42972380D02*
X92667809Y-41972380D01*
X92572571Y-42115238D01*
X92477333Y-42210476D01*
X92382095Y-42258095D01*
%TO.C,U2*%
X80326380Y-4883904D02*
X81135904Y-4883904D01*
X81231142Y-4836285D01*
X81278761Y-4788666D01*
X81326380Y-4693428D01*
X81326380Y-4502952D01*
X81278761Y-4407714D01*
X81231142Y-4360095D01*
X81135904Y-4312476D01*
X80326380Y-4312476D01*
X80421619Y-3883904D02*
X80374000Y-3836285D01*
X80326380Y-3741047D01*
X80326380Y-3502952D01*
X80374000Y-3407714D01*
X80421619Y-3360095D01*
X80516857Y-3312476D01*
X80612095Y-3312476D01*
X80754952Y-3360095D01*
X81326380Y-3931523D01*
X81326380Y-3312476D01*
%TO.C,C28*%
X19755142Y-37498357D02*
X19802761Y-37545976D01*
X19850380Y-37688833D01*
X19850380Y-37784071D01*
X19802761Y-37926928D01*
X19707523Y-38022166D01*
X19612285Y-38069785D01*
X19421809Y-38117404D01*
X19278952Y-38117404D01*
X19088476Y-38069785D01*
X18993238Y-38022166D01*
X18898000Y-37926928D01*
X18850380Y-37784071D01*
X18850380Y-37688833D01*
X18898000Y-37545976D01*
X18945619Y-37498357D01*
X18945619Y-37117404D02*
X18898000Y-37069785D01*
X18850380Y-36974547D01*
X18850380Y-36736452D01*
X18898000Y-36641214D01*
X18945619Y-36593595D01*
X19040857Y-36545976D01*
X19136095Y-36545976D01*
X19278952Y-36593595D01*
X19850380Y-37165023D01*
X19850380Y-36545976D01*
X19278952Y-35974547D02*
X19231333Y-36069785D01*
X19183714Y-36117404D01*
X19088476Y-36165023D01*
X19040857Y-36165023D01*
X18945619Y-36117404D01*
X18898000Y-36069785D01*
X18850380Y-35974547D01*
X18850380Y-35784071D01*
X18898000Y-35688833D01*
X18945619Y-35641214D01*
X19040857Y-35593595D01*
X19088476Y-35593595D01*
X19183714Y-35641214D01*
X19231333Y-35688833D01*
X19278952Y-35784071D01*
X19278952Y-35974547D01*
X19326571Y-36069785D01*
X19374190Y-36117404D01*
X19469428Y-36165023D01*
X19659904Y-36165023D01*
X19755142Y-36117404D01*
X19802761Y-36069785D01*
X19850380Y-35974547D01*
X19850380Y-35784071D01*
X19802761Y-35688833D01*
X19755142Y-35641214D01*
X19659904Y-35593595D01*
X19469428Y-35593595D01*
X19374190Y-35641214D01*
X19326571Y-35688833D01*
X19278952Y-35784071D01*
%TO.C,U8*%
X15860380Y-28135904D02*
X16669904Y-28135904D01*
X16765142Y-28088285D01*
X16812761Y-28040666D01*
X16860380Y-27945428D01*
X16860380Y-27754952D01*
X16812761Y-27659714D01*
X16765142Y-27612095D01*
X16669904Y-27564476D01*
X15860380Y-27564476D01*
X16288952Y-26945428D02*
X16241333Y-27040666D01*
X16193714Y-27088285D01*
X16098476Y-27135904D01*
X16050857Y-27135904D01*
X15955619Y-27088285D01*
X15908000Y-27040666D01*
X15860380Y-26945428D01*
X15860380Y-26754952D01*
X15908000Y-26659714D01*
X15955619Y-26612095D01*
X16050857Y-26564476D01*
X16098476Y-26564476D01*
X16193714Y-26612095D01*
X16241333Y-26659714D01*
X16288952Y-26754952D01*
X16288952Y-26945428D01*
X16336571Y-27040666D01*
X16384190Y-27088285D01*
X16479428Y-27135904D01*
X16669904Y-27135904D01*
X16765142Y-27088285D01*
X16812761Y-27040666D01*
X16860380Y-26945428D01*
X16860380Y-26754952D01*
X16812761Y-26659714D01*
X16765142Y-26612095D01*
X16669904Y-26564476D01*
X16479428Y-26564476D01*
X16384190Y-26612095D01*
X16336571Y-26659714D01*
X16288952Y-26754952D01*
%TO.C,C13*%
X88159142Y-4726857D02*
X88206761Y-4774476D01*
X88254380Y-4917333D01*
X88254380Y-5012571D01*
X88206761Y-5155428D01*
X88111523Y-5250666D01*
X88016285Y-5298285D01*
X87825809Y-5345904D01*
X87682952Y-5345904D01*
X87492476Y-5298285D01*
X87397238Y-5250666D01*
X87302000Y-5155428D01*
X87254380Y-5012571D01*
X87254380Y-4917333D01*
X87302000Y-4774476D01*
X87349619Y-4726857D01*
X88254380Y-3774476D02*
X88254380Y-4345904D01*
X88254380Y-4060190D02*
X87254380Y-4060190D01*
X87397238Y-4155428D01*
X87492476Y-4250666D01*
X87540095Y-4345904D01*
X87254380Y-3441142D02*
X87254380Y-2822095D01*
X87635333Y-3155428D01*
X87635333Y-3012571D01*
X87682952Y-2917333D01*
X87730571Y-2869714D01*
X87825809Y-2822095D01*
X88063904Y-2822095D01*
X88159142Y-2869714D01*
X88206761Y-2917333D01*
X88254380Y-3012571D01*
X88254380Y-3298285D01*
X88206761Y-3393523D01*
X88159142Y-3441142D01*
%TO.C,C16*%
X92067142Y-50109142D02*
X92019523Y-50156761D01*
X91876666Y-50204380D01*
X91781428Y-50204380D01*
X91638571Y-50156761D01*
X91543333Y-50061523D01*
X91495714Y-49966285D01*
X91448095Y-49775809D01*
X91448095Y-49632952D01*
X91495714Y-49442476D01*
X91543333Y-49347238D01*
X91638571Y-49252000D01*
X91781428Y-49204380D01*
X91876666Y-49204380D01*
X92019523Y-49252000D01*
X92067142Y-49299619D01*
X93019523Y-50204380D02*
X92448095Y-50204380D01*
X92733809Y-50204380D02*
X92733809Y-49204380D01*
X92638571Y-49347238D01*
X92543333Y-49442476D01*
X92448095Y-49490095D01*
X93876666Y-49204380D02*
X93686190Y-49204380D01*
X93590952Y-49252000D01*
X93543333Y-49299619D01*
X93448095Y-49442476D01*
X93400476Y-49632952D01*
X93400476Y-50013904D01*
X93448095Y-50109142D01*
X93495714Y-50156761D01*
X93590952Y-50204380D01*
X93781428Y-50204380D01*
X93876666Y-50156761D01*
X93924285Y-50109142D01*
X93971904Y-50013904D01*
X93971904Y-49775809D01*
X93924285Y-49680571D01*
X93876666Y-49632952D01*
X93781428Y-49585333D01*
X93590952Y-49585333D01*
X93495714Y-49632952D01*
X93448095Y-49680571D01*
X93400476Y-49775809D01*
%TO.C,C24*%
X57015142Y-46077142D02*
X56967523Y-46124761D01*
X56824666Y-46172380D01*
X56729428Y-46172380D01*
X56586571Y-46124761D01*
X56491333Y-46029523D01*
X56443714Y-45934285D01*
X56396095Y-45743809D01*
X56396095Y-45600952D01*
X56443714Y-45410476D01*
X56491333Y-45315238D01*
X56586571Y-45220000D01*
X56729428Y-45172380D01*
X56824666Y-45172380D01*
X56967523Y-45220000D01*
X57015142Y-45267619D01*
X57396095Y-45267619D02*
X57443714Y-45220000D01*
X57538952Y-45172380D01*
X57777047Y-45172380D01*
X57872285Y-45220000D01*
X57919904Y-45267619D01*
X57967523Y-45362857D01*
X57967523Y-45458095D01*
X57919904Y-45600952D01*
X57348476Y-46172380D01*
X57967523Y-46172380D01*
X58824666Y-45505714D02*
X58824666Y-46172380D01*
X58586571Y-45124761D02*
X58348476Y-45839047D01*
X58967523Y-45839047D01*
%TO.C,C27*%
X106799142Y-29415142D02*
X106751523Y-29462761D01*
X106608666Y-29510380D01*
X106513428Y-29510380D01*
X106370571Y-29462761D01*
X106275333Y-29367523D01*
X106227714Y-29272285D01*
X106180095Y-29081809D01*
X106180095Y-28938952D01*
X106227714Y-28748476D01*
X106275333Y-28653238D01*
X106370571Y-28558000D01*
X106513428Y-28510380D01*
X106608666Y-28510380D01*
X106751523Y-28558000D01*
X106799142Y-28605619D01*
X107180095Y-28605619D02*
X107227714Y-28558000D01*
X107322952Y-28510380D01*
X107561047Y-28510380D01*
X107656285Y-28558000D01*
X107703904Y-28605619D01*
X107751523Y-28700857D01*
X107751523Y-28796095D01*
X107703904Y-28938952D01*
X107132476Y-29510380D01*
X107751523Y-29510380D01*
X108084857Y-28510380D02*
X108751523Y-28510380D01*
X108322952Y-29510380D01*
%TO.C,C29*%
X17915142Y-37980857D02*
X17962761Y-38028476D01*
X18010380Y-38171333D01*
X18010380Y-38266571D01*
X17962761Y-38409428D01*
X17867523Y-38504666D01*
X17772285Y-38552285D01*
X17581809Y-38599904D01*
X17438952Y-38599904D01*
X17248476Y-38552285D01*
X17153238Y-38504666D01*
X17058000Y-38409428D01*
X17010380Y-38266571D01*
X17010380Y-38171333D01*
X17058000Y-38028476D01*
X17105619Y-37980857D01*
X17105619Y-37599904D02*
X17058000Y-37552285D01*
X17010380Y-37457047D01*
X17010380Y-37218952D01*
X17058000Y-37123714D01*
X17105619Y-37076095D01*
X17200857Y-37028476D01*
X17296095Y-37028476D01*
X17438952Y-37076095D01*
X18010380Y-37647523D01*
X18010380Y-37028476D01*
X18010380Y-36552285D02*
X18010380Y-36361809D01*
X17962761Y-36266571D01*
X17915142Y-36218952D01*
X17772285Y-36123714D01*
X17581809Y-36076095D01*
X17200857Y-36076095D01*
X17105619Y-36123714D01*
X17058000Y-36171333D01*
X17010380Y-36266571D01*
X17010380Y-36457047D01*
X17058000Y-36552285D01*
X17105619Y-36599904D01*
X17200857Y-36647523D01*
X17438952Y-36647523D01*
X17534190Y-36599904D01*
X17581809Y-36552285D01*
X17629428Y-36457047D01*
X17629428Y-36266571D01*
X17581809Y-36171333D01*
X17534190Y-36123714D01*
X17438952Y-36076095D01*
%TO.C,C30*%
X36203142Y-55252857D02*
X36250761Y-55300476D01*
X36298380Y-55443333D01*
X36298380Y-55538571D01*
X36250761Y-55681428D01*
X36155523Y-55776666D01*
X36060285Y-55824285D01*
X35869809Y-55871904D01*
X35726952Y-55871904D01*
X35536476Y-55824285D01*
X35441238Y-55776666D01*
X35346000Y-55681428D01*
X35298380Y-55538571D01*
X35298380Y-55443333D01*
X35346000Y-55300476D01*
X35393619Y-55252857D01*
X35298380Y-54919523D02*
X35298380Y-54300476D01*
X35679333Y-54633809D01*
X35679333Y-54490952D01*
X35726952Y-54395714D01*
X35774571Y-54348095D01*
X35869809Y-54300476D01*
X36107904Y-54300476D01*
X36203142Y-54348095D01*
X36250761Y-54395714D01*
X36298380Y-54490952D01*
X36298380Y-54776666D01*
X36250761Y-54871904D01*
X36203142Y-54919523D01*
X35298380Y-53681428D02*
X35298380Y-53586190D01*
X35346000Y-53490952D01*
X35393619Y-53443333D01*
X35488857Y-53395714D01*
X35679333Y-53348095D01*
X35917428Y-53348095D01*
X36107904Y-53395714D01*
X36203142Y-53443333D01*
X36250761Y-53490952D01*
X36298380Y-53586190D01*
X36298380Y-53681428D01*
X36250761Y-53776666D01*
X36203142Y-53824285D01*
X36107904Y-53871904D01*
X35917428Y-53919523D01*
X35679333Y-53919523D01*
X35488857Y-53871904D01*
X35393619Y-53824285D01*
X35346000Y-53776666D01*
X35298380Y-53681428D01*
%TO.C,Q1*%
X12604761Y-16589619D02*
X12509523Y-16542000D01*
X12414285Y-16446761D01*
X12271428Y-16303904D01*
X12176190Y-16256285D01*
X12080952Y-16256285D01*
X12128571Y-16494380D02*
X12033333Y-16446761D01*
X11938095Y-16351523D01*
X11890476Y-16161047D01*
X11890476Y-15827714D01*
X11938095Y-15637238D01*
X12033333Y-15542000D01*
X12128571Y-15494380D01*
X12319047Y-15494380D01*
X12414285Y-15542000D01*
X12509523Y-15637238D01*
X12557142Y-15827714D01*
X12557142Y-16161047D01*
X12509523Y-16351523D01*
X12414285Y-16446761D01*
X12319047Y-16494380D01*
X12128571Y-16494380D01*
X13509523Y-16494380D02*
X12938095Y-16494380D01*
X13223809Y-16494380D02*
X13223809Y-15494380D01*
X13128571Y-15637238D01*
X13033333Y-15732476D01*
X12938095Y-15780095D01*
%TD*%
M02*
