%TF.GenerationSoftware,KiCad,Pcbnew,5.1.5-br-unknown-alt1.rc1*%
%TF.CreationDate,2025-10-05T01:50:59+07:00*%
%TF.ProjectId,ch32v307_100,63683332-7633-4303-975f-3130302e6b69,rev?*%
%TF.SameCoordinates,PX21e9a40PY1d11680*%
%TF.FileFunction,Soldermask,Top*%
%TF.FilePolarity,Negative*%
%FSLAX46Y46*%
G04 Gerber Fmt 4.6, Leading zero omitted, Abs format (unit mm)*
G04 Created by KiCad (PCBNEW 5.1.5-br-unknown-alt1.rc1) date 2025-10-05 01:50:59*
%MOMM*%
%LPD*%
G01*
G04 APERTURE LIST*
%ADD10R,1.600000X0.550000*%
%ADD11R,1.800000X1.800000*%
%ADD12O,1.800000X1.800000*%
%ADD13R,0.740000X0.800000*%
%ADD14R,0.600000X0.800000*%
%ADD15C,3.300000*%
%ADD16R,3.600000X2.350000*%
%ADD17C,1.400000*%
%ADD18R,2.300000X1.700000*%
%ADD19C,1.700000*%
%ADD20R,1.700000X1.700000*%
%ADD21R,1.300000X0.800000*%
%ADD22R,1.600000X1.100000*%
%ADD23R,2.100000X1.400000*%
%ADD24C,1.300000*%
%ADD25O,2.100000X1.000000*%
%ADD26O,1.800000X1.000000*%
%ADD27R,1.260000X0.400000*%
%ADD28C,0.700000*%
%ADD29R,1.260000X0.700000*%
%ADD30O,2.624000X1.624000*%
%ADD31O,1.624000X2.624000*%
%ADD32R,1.100000X0.500000*%
%ADD33R,1.900000X1.100000*%
%ADD34R,1.900000X2.200000*%
%ADD35C,0.100000*%
%ADD36R,1.940000X2.300000*%
%ADD37R,2.300000X1.940000*%
%ADD38R,1.100000X1.600000*%
%ADD39R,1.100000X1.900000*%
%ADD40R,1.900000X0.900000*%
G04 APERTURE END LIST*
%TO.C,U3*%
G36*
G01*
X37957000Y-23310000D02*
X37957000Y-23110000D01*
G75*
G02*
X38057000Y-23010000I100000J0D01*
G01*
X39557000Y-23010000D01*
G75*
G02*
X39657000Y-23110000I0J-100000D01*
G01*
X39657000Y-23310000D01*
G75*
G02*
X39557000Y-23410000I-100000J0D01*
G01*
X38057000Y-23410000D01*
G75*
G02*
X37957000Y-23310000I0J100000D01*
G01*
G37*
G36*
G01*
X37957000Y-23810000D02*
X37957000Y-23610000D01*
G75*
G02*
X38057000Y-23510000I100000J0D01*
G01*
X39557000Y-23510000D01*
G75*
G02*
X39657000Y-23610000I0J-100000D01*
G01*
X39657000Y-23810000D01*
G75*
G02*
X39557000Y-23910000I-100000J0D01*
G01*
X38057000Y-23910000D01*
G75*
G02*
X37957000Y-23810000I0J100000D01*
G01*
G37*
G36*
G01*
X37957000Y-24310000D02*
X37957000Y-24110000D01*
G75*
G02*
X38057000Y-24010000I100000J0D01*
G01*
X39557000Y-24010000D01*
G75*
G02*
X39657000Y-24110000I0J-100000D01*
G01*
X39657000Y-24310000D01*
G75*
G02*
X39557000Y-24410000I-100000J0D01*
G01*
X38057000Y-24410000D01*
G75*
G02*
X37957000Y-24310000I0J100000D01*
G01*
G37*
G36*
G01*
X37957000Y-24810000D02*
X37957000Y-24610000D01*
G75*
G02*
X38057000Y-24510000I100000J0D01*
G01*
X39557000Y-24510000D01*
G75*
G02*
X39657000Y-24610000I0J-100000D01*
G01*
X39657000Y-24810000D01*
G75*
G02*
X39557000Y-24910000I-100000J0D01*
G01*
X38057000Y-24910000D01*
G75*
G02*
X37957000Y-24810000I0J100000D01*
G01*
G37*
G36*
G01*
X37957000Y-25310000D02*
X37957000Y-25110000D01*
G75*
G02*
X38057000Y-25010000I100000J0D01*
G01*
X39557000Y-25010000D01*
G75*
G02*
X39657000Y-25110000I0J-100000D01*
G01*
X39657000Y-25310000D01*
G75*
G02*
X39557000Y-25410000I-100000J0D01*
G01*
X38057000Y-25410000D01*
G75*
G02*
X37957000Y-25310000I0J100000D01*
G01*
G37*
G36*
G01*
X37957000Y-25810000D02*
X37957000Y-25610000D01*
G75*
G02*
X38057000Y-25510000I100000J0D01*
G01*
X39557000Y-25510000D01*
G75*
G02*
X39657000Y-25610000I0J-100000D01*
G01*
X39657000Y-25810000D01*
G75*
G02*
X39557000Y-25910000I-100000J0D01*
G01*
X38057000Y-25910000D01*
G75*
G02*
X37957000Y-25810000I0J100000D01*
G01*
G37*
G36*
G01*
X37957000Y-26310000D02*
X37957000Y-26110000D01*
G75*
G02*
X38057000Y-26010000I100000J0D01*
G01*
X39557000Y-26010000D01*
G75*
G02*
X39657000Y-26110000I0J-100000D01*
G01*
X39657000Y-26310000D01*
G75*
G02*
X39557000Y-26410000I-100000J0D01*
G01*
X38057000Y-26410000D01*
G75*
G02*
X37957000Y-26310000I0J100000D01*
G01*
G37*
G36*
G01*
X37957000Y-26810000D02*
X37957000Y-26610000D01*
G75*
G02*
X38057000Y-26510000I100000J0D01*
G01*
X39557000Y-26510000D01*
G75*
G02*
X39657000Y-26610000I0J-100000D01*
G01*
X39657000Y-26810000D01*
G75*
G02*
X39557000Y-26910000I-100000J0D01*
G01*
X38057000Y-26910000D01*
G75*
G02*
X37957000Y-26810000I0J100000D01*
G01*
G37*
G36*
G01*
X37957000Y-27310000D02*
X37957000Y-27110000D01*
G75*
G02*
X38057000Y-27010000I100000J0D01*
G01*
X39557000Y-27010000D01*
G75*
G02*
X39657000Y-27110000I0J-100000D01*
G01*
X39657000Y-27310000D01*
G75*
G02*
X39557000Y-27410000I-100000J0D01*
G01*
X38057000Y-27410000D01*
G75*
G02*
X37957000Y-27310000I0J100000D01*
G01*
G37*
G36*
G01*
X37957000Y-27810000D02*
X37957000Y-27610000D01*
G75*
G02*
X38057000Y-27510000I100000J0D01*
G01*
X39557000Y-27510000D01*
G75*
G02*
X39657000Y-27610000I0J-100000D01*
G01*
X39657000Y-27810000D01*
G75*
G02*
X39557000Y-27910000I-100000J0D01*
G01*
X38057000Y-27910000D01*
G75*
G02*
X37957000Y-27810000I0J100000D01*
G01*
G37*
G36*
G01*
X37957000Y-28310000D02*
X37957000Y-28110000D01*
G75*
G02*
X38057000Y-28010000I100000J0D01*
G01*
X39557000Y-28010000D01*
G75*
G02*
X39657000Y-28110000I0J-100000D01*
G01*
X39657000Y-28310000D01*
G75*
G02*
X39557000Y-28410000I-100000J0D01*
G01*
X38057000Y-28410000D01*
G75*
G02*
X37957000Y-28310000I0J100000D01*
G01*
G37*
G36*
G01*
X37957000Y-28810000D02*
X37957000Y-28610000D01*
G75*
G02*
X38057000Y-28510000I100000J0D01*
G01*
X39557000Y-28510000D01*
G75*
G02*
X39657000Y-28610000I0J-100000D01*
G01*
X39657000Y-28810000D01*
G75*
G02*
X39557000Y-28910000I-100000J0D01*
G01*
X38057000Y-28910000D01*
G75*
G02*
X37957000Y-28810000I0J100000D01*
G01*
G37*
G36*
G01*
X37957000Y-29310000D02*
X37957000Y-29110000D01*
G75*
G02*
X38057000Y-29010000I100000J0D01*
G01*
X39557000Y-29010000D01*
G75*
G02*
X39657000Y-29110000I0J-100000D01*
G01*
X39657000Y-29310000D01*
G75*
G02*
X39557000Y-29410000I-100000J0D01*
G01*
X38057000Y-29410000D01*
G75*
G02*
X37957000Y-29310000I0J100000D01*
G01*
G37*
G36*
G01*
X37957000Y-29810000D02*
X37957000Y-29610000D01*
G75*
G02*
X38057000Y-29510000I100000J0D01*
G01*
X39557000Y-29510000D01*
G75*
G02*
X39657000Y-29610000I0J-100000D01*
G01*
X39657000Y-29810000D01*
G75*
G02*
X39557000Y-29910000I-100000J0D01*
G01*
X38057000Y-29910000D01*
G75*
G02*
X37957000Y-29810000I0J100000D01*
G01*
G37*
G36*
G01*
X37957000Y-30310000D02*
X37957000Y-30110000D01*
G75*
G02*
X38057000Y-30010000I100000J0D01*
G01*
X39557000Y-30010000D01*
G75*
G02*
X39657000Y-30110000I0J-100000D01*
G01*
X39657000Y-30310000D01*
G75*
G02*
X39557000Y-30410000I-100000J0D01*
G01*
X38057000Y-30410000D01*
G75*
G02*
X37957000Y-30310000I0J100000D01*
G01*
G37*
G36*
G01*
X37957000Y-30810000D02*
X37957000Y-30610000D01*
G75*
G02*
X38057000Y-30510000I100000J0D01*
G01*
X39557000Y-30510000D01*
G75*
G02*
X39657000Y-30610000I0J-100000D01*
G01*
X39657000Y-30810000D01*
G75*
G02*
X39557000Y-30910000I-100000J0D01*
G01*
X38057000Y-30910000D01*
G75*
G02*
X37957000Y-30810000I0J100000D01*
G01*
G37*
G36*
G01*
X37957000Y-31310000D02*
X37957000Y-31110000D01*
G75*
G02*
X38057000Y-31010000I100000J0D01*
G01*
X39557000Y-31010000D01*
G75*
G02*
X39657000Y-31110000I0J-100000D01*
G01*
X39657000Y-31310000D01*
G75*
G02*
X39557000Y-31410000I-100000J0D01*
G01*
X38057000Y-31410000D01*
G75*
G02*
X37957000Y-31310000I0J100000D01*
G01*
G37*
G36*
G01*
X37957000Y-31810000D02*
X37957000Y-31610000D01*
G75*
G02*
X38057000Y-31510000I100000J0D01*
G01*
X39557000Y-31510000D01*
G75*
G02*
X39657000Y-31610000I0J-100000D01*
G01*
X39657000Y-31810000D01*
G75*
G02*
X39557000Y-31910000I-100000J0D01*
G01*
X38057000Y-31910000D01*
G75*
G02*
X37957000Y-31810000I0J100000D01*
G01*
G37*
G36*
G01*
X37957000Y-32310000D02*
X37957000Y-32110000D01*
G75*
G02*
X38057000Y-32010000I100000J0D01*
G01*
X39557000Y-32010000D01*
G75*
G02*
X39657000Y-32110000I0J-100000D01*
G01*
X39657000Y-32310000D01*
G75*
G02*
X39557000Y-32410000I-100000J0D01*
G01*
X38057000Y-32410000D01*
G75*
G02*
X37957000Y-32310000I0J100000D01*
G01*
G37*
G36*
G01*
X37957000Y-32810000D02*
X37957000Y-32610000D01*
G75*
G02*
X38057000Y-32510000I100000J0D01*
G01*
X39557000Y-32510000D01*
G75*
G02*
X39657000Y-32610000I0J-100000D01*
G01*
X39657000Y-32810000D01*
G75*
G02*
X39557000Y-32910000I-100000J0D01*
G01*
X38057000Y-32910000D01*
G75*
G02*
X37957000Y-32810000I0J100000D01*
G01*
G37*
G36*
G01*
X37957000Y-33310000D02*
X37957000Y-33110000D01*
G75*
G02*
X38057000Y-33010000I100000J0D01*
G01*
X39557000Y-33010000D01*
G75*
G02*
X39657000Y-33110000I0J-100000D01*
G01*
X39657000Y-33310000D01*
G75*
G02*
X39557000Y-33410000I-100000J0D01*
G01*
X38057000Y-33410000D01*
G75*
G02*
X37957000Y-33310000I0J100000D01*
G01*
G37*
G36*
G01*
X37957000Y-33810000D02*
X37957000Y-33610000D01*
G75*
G02*
X38057000Y-33510000I100000J0D01*
G01*
X39557000Y-33510000D01*
G75*
G02*
X39657000Y-33610000I0J-100000D01*
G01*
X39657000Y-33810000D01*
G75*
G02*
X39557000Y-33910000I-100000J0D01*
G01*
X38057000Y-33910000D01*
G75*
G02*
X37957000Y-33810000I0J100000D01*
G01*
G37*
G36*
G01*
X37957000Y-34310000D02*
X37957000Y-34110000D01*
G75*
G02*
X38057000Y-34010000I100000J0D01*
G01*
X39557000Y-34010000D01*
G75*
G02*
X39657000Y-34110000I0J-100000D01*
G01*
X39657000Y-34310000D01*
G75*
G02*
X39557000Y-34410000I-100000J0D01*
G01*
X38057000Y-34410000D01*
G75*
G02*
X37957000Y-34310000I0J100000D01*
G01*
G37*
G36*
G01*
X37957000Y-34810000D02*
X37957000Y-34610000D01*
G75*
G02*
X38057000Y-34510000I100000J0D01*
G01*
X39557000Y-34510000D01*
G75*
G02*
X39657000Y-34610000I0J-100000D01*
G01*
X39657000Y-34810000D01*
G75*
G02*
X39557000Y-34910000I-100000J0D01*
G01*
X38057000Y-34910000D01*
G75*
G02*
X37957000Y-34810000I0J100000D01*
G01*
G37*
G36*
G01*
X37957000Y-35310000D02*
X37957000Y-35110000D01*
G75*
G02*
X38057000Y-35010000I100000J0D01*
G01*
X39557000Y-35010000D01*
G75*
G02*
X39657000Y-35110000I0J-100000D01*
G01*
X39657000Y-35310000D01*
G75*
G02*
X39557000Y-35410000I-100000J0D01*
G01*
X38057000Y-35410000D01*
G75*
G02*
X37957000Y-35310000I0J100000D01*
G01*
G37*
G36*
G01*
X40282000Y-37635000D02*
X40282000Y-36135000D01*
G75*
G02*
X40382000Y-36035000I100000J0D01*
G01*
X40582000Y-36035000D01*
G75*
G02*
X40682000Y-36135000I0J-100000D01*
G01*
X40682000Y-37635000D01*
G75*
G02*
X40582000Y-37735000I-100000J0D01*
G01*
X40382000Y-37735000D01*
G75*
G02*
X40282000Y-37635000I0J100000D01*
G01*
G37*
G36*
G01*
X40782000Y-37635000D02*
X40782000Y-36135000D01*
G75*
G02*
X40882000Y-36035000I100000J0D01*
G01*
X41082000Y-36035000D01*
G75*
G02*
X41182000Y-36135000I0J-100000D01*
G01*
X41182000Y-37635000D01*
G75*
G02*
X41082000Y-37735000I-100000J0D01*
G01*
X40882000Y-37735000D01*
G75*
G02*
X40782000Y-37635000I0J100000D01*
G01*
G37*
G36*
G01*
X41282000Y-37635000D02*
X41282000Y-36135000D01*
G75*
G02*
X41382000Y-36035000I100000J0D01*
G01*
X41582000Y-36035000D01*
G75*
G02*
X41682000Y-36135000I0J-100000D01*
G01*
X41682000Y-37635000D01*
G75*
G02*
X41582000Y-37735000I-100000J0D01*
G01*
X41382000Y-37735000D01*
G75*
G02*
X41282000Y-37635000I0J100000D01*
G01*
G37*
G36*
G01*
X41782000Y-37635000D02*
X41782000Y-36135000D01*
G75*
G02*
X41882000Y-36035000I100000J0D01*
G01*
X42082000Y-36035000D01*
G75*
G02*
X42182000Y-36135000I0J-100000D01*
G01*
X42182000Y-37635000D01*
G75*
G02*
X42082000Y-37735000I-100000J0D01*
G01*
X41882000Y-37735000D01*
G75*
G02*
X41782000Y-37635000I0J100000D01*
G01*
G37*
G36*
G01*
X42282000Y-37635000D02*
X42282000Y-36135000D01*
G75*
G02*
X42382000Y-36035000I100000J0D01*
G01*
X42582000Y-36035000D01*
G75*
G02*
X42682000Y-36135000I0J-100000D01*
G01*
X42682000Y-37635000D01*
G75*
G02*
X42582000Y-37735000I-100000J0D01*
G01*
X42382000Y-37735000D01*
G75*
G02*
X42282000Y-37635000I0J100000D01*
G01*
G37*
G36*
G01*
X42782000Y-37635000D02*
X42782000Y-36135000D01*
G75*
G02*
X42882000Y-36035000I100000J0D01*
G01*
X43082000Y-36035000D01*
G75*
G02*
X43182000Y-36135000I0J-100000D01*
G01*
X43182000Y-37635000D01*
G75*
G02*
X43082000Y-37735000I-100000J0D01*
G01*
X42882000Y-37735000D01*
G75*
G02*
X42782000Y-37635000I0J100000D01*
G01*
G37*
G36*
G01*
X43282000Y-37635000D02*
X43282000Y-36135000D01*
G75*
G02*
X43382000Y-36035000I100000J0D01*
G01*
X43582000Y-36035000D01*
G75*
G02*
X43682000Y-36135000I0J-100000D01*
G01*
X43682000Y-37635000D01*
G75*
G02*
X43582000Y-37735000I-100000J0D01*
G01*
X43382000Y-37735000D01*
G75*
G02*
X43282000Y-37635000I0J100000D01*
G01*
G37*
G36*
G01*
X43782000Y-37635000D02*
X43782000Y-36135000D01*
G75*
G02*
X43882000Y-36035000I100000J0D01*
G01*
X44082000Y-36035000D01*
G75*
G02*
X44182000Y-36135000I0J-100000D01*
G01*
X44182000Y-37635000D01*
G75*
G02*
X44082000Y-37735000I-100000J0D01*
G01*
X43882000Y-37735000D01*
G75*
G02*
X43782000Y-37635000I0J100000D01*
G01*
G37*
G36*
G01*
X44282000Y-37635000D02*
X44282000Y-36135000D01*
G75*
G02*
X44382000Y-36035000I100000J0D01*
G01*
X44582000Y-36035000D01*
G75*
G02*
X44682000Y-36135000I0J-100000D01*
G01*
X44682000Y-37635000D01*
G75*
G02*
X44582000Y-37735000I-100000J0D01*
G01*
X44382000Y-37735000D01*
G75*
G02*
X44282000Y-37635000I0J100000D01*
G01*
G37*
G36*
G01*
X44782000Y-37635000D02*
X44782000Y-36135000D01*
G75*
G02*
X44882000Y-36035000I100000J0D01*
G01*
X45082000Y-36035000D01*
G75*
G02*
X45182000Y-36135000I0J-100000D01*
G01*
X45182000Y-37635000D01*
G75*
G02*
X45082000Y-37735000I-100000J0D01*
G01*
X44882000Y-37735000D01*
G75*
G02*
X44782000Y-37635000I0J100000D01*
G01*
G37*
G36*
G01*
X45282000Y-37635000D02*
X45282000Y-36135000D01*
G75*
G02*
X45382000Y-36035000I100000J0D01*
G01*
X45582000Y-36035000D01*
G75*
G02*
X45682000Y-36135000I0J-100000D01*
G01*
X45682000Y-37635000D01*
G75*
G02*
X45582000Y-37735000I-100000J0D01*
G01*
X45382000Y-37735000D01*
G75*
G02*
X45282000Y-37635000I0J100000D01*
G01*
G37*
G36*
G01*
X45782000Y-37635000D02*
X45782000Y-36135000D01*
G75*
G02*
X45882000Y-36035000I100000J0D01*
G01*
X46082000Y-36035000D01*
G75*
G02*
X46182000Y-36135000I0J-100000D01*
G01*
X46182000Y-37635000D01*
G75*
G02*
X46082000Y-37735000I-100000J0D01*
G01*
X45882000Y-37735000D01*
G75*
G02*
X45782000Y-37635000I0J100000D01*
G01*
G37*
G36*
G01*
X46282000Y-37635000D02*
X46282000Y-36135000D01*
G75*
G02*
X46382000Y-36035000I100000J0D01*
G01*
X46582000Y-36035000D01*
G75*
G02*
X46682000Y-36135000I0J-100000D01*
G01*
X46682000Y-37635000D01*
G75*
G02*
X46582000Y-37735000I-100000J0D01*
G01*
X46382000Y-37735000D01*
G75*
G02*
X46282000Y-37635000I0J100000D01*
G01*
G37*
G36*
G01*
X46782000Y-37635000D02*
X46782000Y-36135000D01*
G75*
G02*
X46882000Y-36035000I100000J0D01*
G01*
X47082000Y-36035000D01*
G75*
G02*
X47182000Y-36135000I0J-100000D01*
G01*
X47182000Y-37635000D01*
G75*
G02*
X47082000Y-37735000I-100000J0D01*
G01*
X46882000Y-37735000D01*
G75*
G02*
X46782000Y-37635000I0J100000D01*
G01*
G37*
G36*
G01*
X47282000Y-37635000D02*
X47282000Y-36135000D01*
G75*
G02*
X47382000Y-36035000I100000J0D01*
G01*
X47582000Y-36035000D01*
G75*
G02*
X47682000Y-36135000I0J-100000D01*
G01*
X47682000Y-37635000D01*
G75*
G02*
X47582000Y-37735000I-100000J0D01*
G01*
X47382000Y-37735000D01*
G75*
G02*
X47282000Y-37635000I0J100000D01*
G01*
G37*
G36*
G01*
X47782000Y-37635000D02*
X47782000Y-36135000D01*
G75*
G02*
X47882000Y-36035000I100000J0D01*
G01*
X48082000Y-36035000D01*
G75*
G02*
X48182000Y-36135000I0J-100000D01*
G01*
X48182000Y-37635000D01*
G75*
G02*
X48082000Y-37735000I-100000J0D01*
G01*
X47882000Y-37735000D01*
G75*
G02*
X47782000Y-37635000I0J100000D01*
G01*
G37*
G36*
G01*
X48282000Y-37635000D02*
X48282000Y-36135000D01*
G75*
G02*
X48382000Y-36035000I100000J0D01*
G01*
X48582000Y-36035000D01*
G75*
G02*
X48682000Y-36135000I0J-100000D01*
G01*
X48682000Y-37635000D01*
G75*
G02*
X48582000Y-37735000I-100000J0D01*
G01*
X48382000Y-37735000D01*
G75*
G02*
X48282000Y-37635000I0J100000D01*
G01*
G37*
G36*
G01*
X48782000Y-37635000D02*
X48782000Y-36135000D01*
G75*
G02*
X48882000Y-36035000I100000J0D01*
G01*
X49082000Y-36035000D01*
G75*
G02*
X49182000Y-36135000I0J-100000D01*
G01*
X49182000Y-37635000D01*
G75*
G02*
X49082000Y-37735000I-100000J0D01*
G01*
X48882000Y-37735000D01*
G75*
G02*
X48782000Y-37635000I0J100000D01*
G01*
G37*
G36*
G01*
X49282000Y-37635000D02*
X49282000Y-36135000D01*
G75*
G02*
X49382000Y-36035000I100000J0D01*
G01*
X49582000Y-36035000D01*
G75*
G02*
X49682000Y-36135000I0J-100000D01*
G01*
X49682000Y-37635000D01*
G75*
G02*
X49582000Y-37735000I-100000J0D01*
G01*
X49382000Y-37735000D01*
G75*
G02*
X49282000Y-37635000I0J100000D01*
G01*
G37*
G36*
G01*
X49782000Y-37635000D02*
X49782000Y-36135000D01*
G75*
G02*
X49882000Y-36035000I100000J0D01*
G01*
X50082000Y-36035000D01*
G75*
G02*
X50182000Y-36135000I0J-100000D01*
G01*
X50182000Y-37635000D01*
G75*
G02*
X50082000Y-37735000I-100000J0D01*
G01*
X49882000Y-37735000D01*
G75*
G02*
X49782000Y-37635000I0J100000D01*
G01*
G37*
G36*
G01*
X50282000Y-37635000D02*
X50282000Y-36135000D01*
G75*
G02*
X50382000Y-36035000I100000J0D01*
G01*
X50582000Y-36035000D01*
G75*
G02*
X50682000Y-36135000I0J-100000D01*
G01*
X50682000Y-37635000D01*
G75*
G02*
X50582000Y-37735000I-100000J0D01*
G01*
X50382000Y-37735000D01*
G75*
G02*
X50282000Y-37635000I0J100000D01*
G01*
G37*
G36*
G01*
X50782000Y-37635000D02*
X50782000Y-36135000D01*
G75*
G02*
X50882000Y-36035000I100000J0D01*
G01*
X51082000Y-36035000D01*
G75*
G02*
X51182000Y-36135000I0J-100000D01*
G01*
X51182000Y-37635000D01*
G75*
G02*
X51082000Y-37735000I-100000J0D01*
G01*
X50882000Y-37735000D01*
G75*
G02*
X50782000Y-37635000I0J100000D01*
G01*
G37*
G36*
G01*
X51282000Y-37635000D02*
X51282000Y-36135000D01*
G75*
G02*
X51382000Y-36035000I100000J0D01*
G01*
X51582000Y-36035000D01*
G75*
G02*
X51682000Y-36135000I0J-100000D01*
G01*
X51682000Y-37635000D01*
G75*
G02*
X51582000Y-37735000I-100000J0D01*
G01*
X51382000Y-37735000D01*
G75*
G02*
X51282000Y-37635000I0J100000D01*
G01*
G37*
G36*
G01*
X51782000Y-37635000D02*
X51782000Y-36135000D01*
G75*
G02*
X51882000Y-36035000I100000J0D01*
G01*
X52082000Y-36035000D01*
G75*
G02*
X52182000Y-36135000I0J-100000D01*
G01*
X52182000Y-37635000D01*
G75*
G02*
X52082000Y-37735000I-100000J0D01*
G01*
X51882000Y-37735000D01*
G75*
G02*
X51782000Y-37635000I0J100000D01*
G01*
G37*
G36*
G01*
X52282000Y-37635000D02*
X52282000Y-36135000D01*
G75*
G02*
X52382000Y-36035000I100000J0D01*
G01*
X52582000Y-36035000D01*
G75*
G02*
X52682000Y-36135000I0J-100000D01*
G01*
X52682000Y-37635000D01*
G75*
G02*
X52582000Y-37735000I-100000J0D01*
G01*
X52382000Y-37735000D01*
G75*
G02*
X52282000Y-37635000I0J100000D01*
G01*
G37*
G36*
G01*
X53307000Y-35310000D02*
X53307000Y-35110000D01*
G75*
G02*
X53407000Y-35010000I100000J0D01*
G01*
X54907000Y-35010000D01*
G75*
G02*
X55007000Y-35110000I0J-100000D01*
G01*
X55007000Y-35310000D01*
G75*
G02*
X54907000Y-35410000I-100000J0D01*
G01*
X53407000Y-35410000D01*
G75*
G02*
X53307000Y-35310000I0J100000D01*
G01*
G37*
G36*
G01*
X53307000Y-34810000D02*
X53307000Y-34610000D01*
G75*
G02*
X53407000Y-34510000I100000J0D01*
G01*
X54907000Y-34510000D01*
G75*
G02*
X55007000Y-34610000I0J-100000D01*
G01*
X55007000Y-34810000D01*
G75*
G02*
X54907000Y-34910000I-100000J0D01*
G01*
X53407000Y-34910000D01*
G75*
G02*
X53307000Y-34810000I0J100000D01*
G01*
G37*
G36*
G01*
X53307000Y-34310000D02*
X53307000Y-34110000D01*
G75*
G02*
X53407000Y-34010000I100000J0D01*
G01*
X54907000Y-34010000D01*
G75*
G02*
X55007000Y-34110000I0J-100000D01*
G01*
X55007000Y-34310000D01*
G75*
G02*
X54907000Y-34410000I-100000J0D01*
G01*
X53407000Y-34410000D01*
G75*
G02*
X53307000Y-34310000I0J100000D01*
G01*
G37*
G36*
G01*
X53307000Y-33810000D02*
X53307000Y-33610000D01*
G75*
G02*
X53407000Y-33510000I100000J0D01*
G01*
X54907000Y-33510000D01*
G75*
G02*
X55007000Y-33610000I0J-100000D01*
G01*
X55007000Y-33810000D01*
G75*
G02*
X54907000Y-33910000I-100000J0D01*
G01*
X53407000Y-33910000D01*
G75*
G02*
X53307000Y-33810000I0J100000D01*
G01*
G37*
G36*
G01*
X53307000Y-33310000D02*
X53307000Y-33110000D01*
G75*
G02*
X53407000Y-33010000I100000J0D01*
G01*
X54907000Y-33010000D01*
G75*
G02*
X55007000Y-33110000I0J-100000D01*
G01*
X55007000Y-33310000D01*
G75*
G02*
X54907000Y-33410000I-100000J0D01*
G01*
X53407000Y-33410000D01*
G75*
G02*
X53307000Y-33310000I0J100000D01*
G01*
G37*
G36*
G01*
X53307000Y-32810000D02*
X53307000Y-32610000D01*
G75*
G02*
X53407000Y-32510000I100000J0D01*
G01*
X54907000Y-32510000D01*
G75*
G02*
X55007000Y-32610000I0J-100000D01*
G01*
X55007000Y-32810000D01*
G75*
G02*
X54907000Y-32910000I-100000J0D01*
G01*
X53407000Y-32910000D01*
G75*
G02*
X53307000Y-32810000I0J100000D01*
G01*
G37*
G36*
G01*
X53307000Y-32310000D02*
X53307000Y-32110000D01*
G75*
G02*
X53407000Y-32010000I100000J0D01*
G01*
X54907000Y-32010000D01*
G75*
G02*
X55007000Y-32110000I0J-100000D01*
G01*
X55007000Y-32310000D01*
G75*
G02*
X54907000Y-32410000I-100000J0D01*
G01*
X53407000Y-32410000D01*
G75*
G02*
X53307000Y-32310000I0J100000D01*
G01*
G37*
G36*
G01*
X53307000Y-31810000D02*
X53307000Y-31610000D01*
G75*
G02*
X53407000Y-31510000I100000J0D01*
G01*
X54907000Y-31510000D01*
G75*
G02*
X55007000Y-31610000I0J-100000D01*
G01*
X55007000Y-31810000D01*
G75*
G02*
X54907000Y-31910000I-100000J0D01*
G01*
X53407000Y-31910000D01*
G75*
G02*
X53307000Y-31810000I0J100000D01*
G01*
G37*
G36*
G01*
X53307000Y-31310000D02*
X53307000Y-31110000D01*
G75*
G02*
X53407000Y-31010000I100000J0D01*
G01*
X54907000Y-31010000D01*
G75*
G02*
X55007000Y-31110000I0J-100000D01*
G01*
X55007000Y-31310000D01*
G75*
G02*
X54907000Y-31410000I-100000J0D01*
G01*
X53407000Y-31410000D01*
G75*
G02*
X53307000Y-31310000I0J100000D01*
G01*
G37*
G36*
G01*
X53307000Y-30810000D02*
X53307000Y-30610000D01*
G75*
G02*
X53407000Y-30510000I100000J0D01*
G01*
X54907000Y-30510000D01*
G75*
G02*
X55007000Y-30610000I0J-100000D01*
G01*
X55007000Y-30810000D01*
G75*
G02*
X54907000Y-30910000I-100000J0D01*
G01*
X53407000Y-30910000D01*
G75*
G02*
X53307000Y-30810000I0J100000D01*
G01*
G37*
G36*
G01*
X53307000Y-30310000D02*
X53307000Y-30110000D01*
G75*
G02*
X53407000Y-30010000I100000J0D01*
G01*
X54907000Y-30010000D01*
G75*
G02*
X55007000Y-30110000I0J-100000D01*
G01*
X55007000Y-30310000D01*
G75*
G02*
X54907000Y-30410000I-100000J0D01*
G01*
X53407000Y-30410000D01*
G75*
G02*
X53307000Y-30310000I0J100000D01*
G01*
G37*
G36*
G01*
X53307000Y-29810000D02*
X53307000Y-29610000D01*
G75*
G02*
X53407000Y-29510000I100000J0D01*
G01*
X54907000Y-29510000D01*
G75*
G02*
X55007000Y-29610000I0J-100000D01*
G01*
X55007000Y-29810000D01*
G75*
G02*
X54907000Y-29910000I-100000J0D01*
G01*
X53407000Y-29910000D01*
G75*
G02*
X53307000Y-29810000I0J100000D01*
G01*
G37*
G36*
G01*
X53307000Y-29310000D02*
X53307000Y-29110000D01*
G75*
G02*
X53407000Y-29010000I100000J0D01*
G01*
X54907000Y-29010000D01*
G75*
G02*
X55007000Y-29110000I0J-100000D01*
G01*
X55007000Y-29310000D01*
G75*
G02*
X54907000Y-29410000I-100000J0D01*
G01*
X53407000Y-29410000D01*
G75*
G02*
X53307000Y-29310000I0J100000D01*
G01*
G37*
G36*
G01*
X53307000Y-28810000D02*
X53307000Y-28610000D01*
G75*
G02*
X53407000Y-28510000I100000J0D01*
G01*
X54907000Y-28510000D01*
G75*
G02*
X55007000Y-28610000I0J-100000D01*
G01*
X55007000Y-28810000D01*
G75*
G02*
X54907000Y-28910000I-100000J0D01*
G01*
X53407000Y-28910000D01*
G75*
G02*
X53307000Y-28810000I0J100000D01*
G01*
G37*
G36*
G01*
X53307000Y-28310000D02*
X53307000Y-28110000D01*
G75*
G02*
X53407000Y-28010000I100000J0D01*
G01*
X54907000Y-28010000D01*
G75*
G02*
X55007000Y-28110000I0J-100000D01*
G01*
X55007000Y-28310000D01*
G75*
G02*
X54907000Y-28410000I-100000J0D01*
G01*
X53407000Y-28410000D01*
G75*
G02*
X53307000Y-28310000I0J100000D01*
G01*
G37*
G36*
G01*
X53307000Y-27810000D02*
X53307000Y-27610000D01*
G75*
G02*
X53407000Y-27510000I100000J0D01*
G01*
X54907000Y-27510000D01*
G75*
G02*
X55007000Y-27610000I0J-100000D01*
G01*
X55007000Y-27810000D01*
G75*
G02*
X54907000Y-27910000I-100000J0D01*
G01*
X53407000Y-27910000D01*
G75*
G02*
X53307000Y-27810000I0J100000D01*
G01*
G37*
G36*
G01*
X53307000Y-27310000D02*
X53307000Y-27110000D01*
G75*
G02*
X53407000Y-27010000I100000J0D01*
G01*
X54907000Y-27010000D01*
G75*
G02*
X55007000Y-27110000I0J-100000D01*
G01*
X55007000Y-27310000D01*
G75*
G02*
X54907000Y-27410000I-100000J0D01*
G01*
X53407000Y-27410000D01*
G75*
G02*
X53307000Y-27310000I0J100000D01*
G01*
G37*
G36*
G01*
X53307000Y-26810000D02*
X53307000Y-26610000D01*
G75*
G02*
X53407000Y-26510000I100000J0D01*
G01*
X54907000Y-26510000D01*
G75*
G02*
X55007000Y-26610000I0J-100000D01*
G01*
X55007000Y-26810000D01*
G75*
G02*
X54907000Y-26910000I-100000J0D01*
G01*
X53407000Y-26910000D01*
G75*
G02*
X53307000Y-26810000I0J100000D01*
G01*
G37*
G36*
G01*
X53307000Y-26310000D02*
X53307000Y-26110000D01*
G75*
G02*
X53407000Y-26010000I100000J0D01*
G01*
X54907000Y-26010000D01*
G75*
G02*
X55007000Y-26110000I0J-100000D01*
G01*
X55007000Y-26310000D01*
G75*
G02*
X54907000Y-26410000I-100000J0D01*
G01*
X53407000Y-26410000D01*
G75*
G02*
X53307000Y-26310000I0J100000D01*
G01*
G37*
G36*
G01*
X53307000Y-25810000D02*
X53307000Y-25610000D01*
G75*
G02*
X53407000Y-25510000I100000J0D01*
G01*
X54907000Y-25510000D01*
G75*
G02*
X55007000Y-25610000I0J-100000D01*
G01*
X55007000Y-25810000D01*
G75*
G02*
X54907000Y-25910000I-100000J0D01*
G01*
X53407000Y-25910000D01*
G75*
G02*
X53307000Y-25810000I0J100000D01*
G01*
G37*
G36*
G01*
X53307000Y-25310000D02*
X53307000Y-25110000D01*
G75*
G02*
X53407000Y-25010000I100000J0D01*
G01*
X54907000Y-25010000D01*
G75*
G02*
X55007000Y-25110000I0J-100000D01*
G01*
X55007000Y-25310000D01*
G75*
G02*
X54907000Y-25410000I-100000J0D01*
G01*
X53407000Y-25410000D01*
G75*
G02*
X53307000Y-25310000I0J100000D01*
G01*
G37*
G36*
G01*
X53307000Y-24810000D02*
X53307000Y-24610000D01*
G75*
G02*
X53407000Y-24510000I100000J0D01*
G01*
X54907000Y-24510000D01*
G75*
G02*
X55007000Y-24610000I0J-100000D01*
G01*
X55007000Y-24810000D01*
G75*
G02*
X54907000Y-24910000I-100000J0D01*
G01*
X53407000Y-24910000D01*
G75*
G02*
X53307000Y-24810000I0J100000D01*
G01*
G37*
G36*
G01*
X53307000Y-24310000D02*
X53307000Y-24110000D01*
G75*
G02*
X53407000Y-24010000I100000J0D01*
G01*
X54907000Y-24010000D01*
G75*
G02*
X55007000Y-24110000I0J-100000D01*
G01*
X55007000Y-24310000D01*
G75*
G02*
X54907000Y-24410000I-100000J0D01*
G01*
X53407000Y-24410000D01*
G75*
G02*
X53307000Y-24310000I0J100000D01*
G01*
G37*
G36*
G01*
X53307000Y-23810000D02*
X53307000Y-23610000D01*
G75*
G02*
X53407000Y-23510000I100000J0D01*
G01*
X54907000Y-23510000D01*
G75*
G02*
X55007000Y-23610000I0J-100000D01*
G01*
X55007000Y-23810000D01*
G75*
G02*
X54907000Y-23910000I-100000J0D01*
G01*
X53407000Y-23910000D01*
G75*
G02*
X53307000Y-23810000I0J100000D01*
G01*
G37*
G36*
G01*
X53307000Y-23310000D02*
X53307000Y-23110000D01*
G75*
G02*
X53407000Y-23010000I100000J0D01*
G01*
X54907000Y-23010000D01*
G75*
G02*
X55007000Y-23110000I0J-100000D01*
G01*
X55007000Y-23310000D01*
G75*
G02*
X54907000Y-23410000I-100000J0D01*
G01*
X53407000Y-23410000D01*
G75*
G02*
X53307000Y-23310000I0J100000D01*
G01*
G37*
G36*
G01*
X52282000Y-22285000D02*
X52282000Y-20785000D01*
G75*
G02*
X52382000Y-20685000I100000J0D01*
G01*
X52582000Y-20685000D01*
G75*
G02*
X52682000Y-20785000I0J-100000D01*
G01*
X52682000Y-22285000D01*
G75*
G02*
X52582000Y-22385000I-100000J0D01*
G01*
X52382000Y-22385000D01*
G75*
G02*
X52282000Y-22285000I0J100000D01*
G01*
G37*
G36*
G01*
X51782000Y-22285000D02*
X51782000Y-20785000D01*
G75*
G02*
X51882000Y-20685000I100000J0D01*
G01*
X52082000Y-20685000D01*
G75*
G02*
X52182000Y-20785000I0J-100000D01*
G01*
X52182000Y-22285000D01*
G75*
G02*
X52082000Y-22385000I-100000J0D01*
G01*
X51882000Y-22385000D01*
G75*
G02*
X51782000Y-22285000I0J100000D01*
G01*
G37*
G36*
G01*
X51282000Y-22285000D02*
X51282000Y-20785000D01*
G75*
G02*
X51382000Y-20685000I100000J0D01*
G01*
X51582000Y-20685000D01*
G75*
G02*
X51682000Y-20785000I0J-100000D01*
G01*
X51682000Y-22285000D01*
G75*
G02*
X51582000Y-22385000I-100000J0D01*
G01*
X51382000Y-22385000D01*
G75*
G02*
X51282000Y-22285000I0J100000D01*
G01*
G37*
G36*
G01*
X50782000Y-22285000D02*
X50782000Y-20785000D01*
G75*
G02*
X50882000Y-20685000I100000J0D01*
G01*
X51082000Y-20685000D01*
G75*
G02*
X51182000Y-20785000I0J-100000D01*
G01*
X51182000Y-22285000D01*
G75*
G02*
X51082000Y-22385000I-100000J0D01*
G01*
X50882000Y-22385000D01*
G75*
G02*
X50782000Y-22285000I0J100000D01*
G01*
G37*
G36*
G01*
X50282000Y-22285000D02*
X50282000Y-20785000D01*
G75*
G02*
X50382000Y-20685000I100000J0D01*
G01*
X50582000Y-20685000D01*
G75*
G02*
X50682000Y-20785000I0J-100000D01*
G01*
X50682000Y-22285000D01*
G75*
G02*
X50582000Y-22385000I-100000J0D01*
G01*
X50382000Y-22385000D01*
G75*
G02*
X50282000Y-22285000I0J100000D01*
G01*
G37*
G36*
G01*
X49782000Y-22285000D02*
X49782000Y-20785000D01*
G75*
G02*
X49882000Y-20685000I100000J0D01*
G01*
X50082000Y-20685000D01*
G75*
G02*
X50182000Y-20785000I0J-100000D01*
G01*
X50182000Y-22285000D01*
G75*
G02*
X50082000Y-22385000I-100000J0D01*
G01*
X49882000Y-22385000D01*
G75*
G02*
X49782000Y-22285000I0J100000D01*
G01*
G37*
G36*
G01*
X49282000Y-22285000D02*
X49282000Y-20785000D01*
G75*
G02*
X49382000Y-20685000I100000J0D01*
G01*
X49582000Y-20685000D01*
G75*
G02*
X49682000Y-20785000I0J-100000D01*
G01*
X49682000Y-22285000D01*
G75*
G02*
X49582000Y-22385000I-100000J0D01*
G01*
X49382000Y-22385000D01*
G75*
G02*
X49282000Y-22285000I0J100000D01*
G01*
G37*
G36*
G01*
X48782000Y-22285000D02*
X48782000Y-20785000D01*
G75*
G02*
X48882000Y-20685000I100000J0D01*
G01*
X49082000Y-20685000D01*
G75*
G02*
X49182000Y-20785000I0J-100000D01*
G01*
X49182000Y-22285000D01*
G75*
G02*
X49082000Y-22385000I-100000J0D01*
G01*
X48882000Y-22385000D01*
G75*
G02*
X48782000Y-22285000I0J100000D01*
G01*
G37*
G36*
G01*
X48282000Y-22285000D02*
X48282000Y-20785000D01*
G75*
G02*
X48382000Y-20685000I100000J0D01*
G01*
X48582000Y-20685000D01*
G75*
G02*
X48682000Y-20785000I0J-100000D01*
G01*
X48682000Y-22285000D01*
G75*
G02*
X48582000Y-22385000I-100000J0D01*
G01*
X48382000Y-22385000D01*
G75*
G02*
X48282000Y-22285000I0J100000D01*
G01*
G37*
G36*
G01*
X47782000Y-22285000D02*
X47782000Y-20785000D01*
G75*
G02*
X47882000Y-20685000I100000J0D01*
G01*
X48082000Y-20685000D01*
G75*
G02*
X48182000Y-20785000I0J-100000D01*
G01*
X48182000Y-22285000D01*
G75*
G02*
X48082000Y-22385000I-100000J0D01*
G01*
X47882000Y-22385000D01*
G75*
G02*
X47782000Y-22285000I0J100000D01*
G01*
G37*
G36*
G01*
X47282000Y-22285000D02*
X47282000Y-20785000D01*
G75*
G02*
X47382000Y-20685000I100000J0D01*
G01*
X47582000Y-20685000D01*
G75*
G02*
X47682000Y-20785000I0J-100000D01*
G01*
X47682000Y-22285000D01*
G75*
G02*
X47582000Y-22385000I-100000J0D01*
G01*
X47382000Y-22385000D01*
G75*
G02*
X47282000Y-22285000I0J100000D01*
G01*
G37*
G36*
G01*
X46782000Y-22285000D02*
X46782000Y-20785000D01*
G75*
G02*
X46882000Y-20685000I100000J0D01*
G01*
X47082000Y-20685000D01*
G75*
G02*
X47182000Y-20785000I0J-100000D01*
G01*
X47182000Y-22285000D01*
G75*
G02*
X47082000Y-22385000I-100000J0D01*
G01*
X46882000Y-22385000D01*
G75*
G02*
X46782000Y-22285000I0J100000D01*
G01*
G37*
G36*
G01*
X46282000Y-22285000D02*
X46282000Y-20785000D01*
G75*
G02*
X46382000Y-20685000I100000J0D01*
G01*
X46582000Y-20685000D01*
G75*
G02*
X46682000Y-20785000I0J-100000D01*
G01*
X46682000Y-22285000D01*
G75*
G02*
X46582000Y-22385000I-100000J0D01*
G01*
X46382000Y-22385000D01*
G75*
G02*
X46282000Y-22285000I0J100000D01*
G01*
G37*
G36*
G01*
X45782000Y-22285000D02*
X45782000Y-20785000D01*
G75*
G02*
X45882000Y-20685000I100000J0D01*
G01*
X46082000Y-20685000D01*
G75*
G02*
X46182000Y-20785000I0J-100000D01*
G01*
X46182000Y-22285000D01*
G75*
G02*
X46082000Y-22385000I-100000J0D01*
G01*
X45882000Y-22385000D01*
G75*
G02*
X45782000Y-22285000I0J100000D01*
G01*
G37*
G36*
G01*
X45282000Y-22285000D02*
X45282000Y-20785000D01*
G75*
G02*
X45382000Y-20685000I100000J0D01*
G01*
X45582000Y-20685000D01*
G75*
G02*
X45682000Y-20785000I0J-100000D01*
G01*
X45682000Y-22285000D01*
G75*
G02*
X45582000Y-22385000I-100000J0D01*
G01*
X45382000Y-22385000D01*
G75*
G02*
X45282000Y-22285000I0J100000D01*
G01*
G37*
G36*
G01*
X44782000Y-22285000D02*
X44782000Y-20785000D01*
G75*
G02*
X44882000Y-20685000I100000J0D01*
G01*
X45082000Y-20685000D01*
G75*
G02*
X45182000Y-20785000I0J-100000D01*
G01*
X45182000Y-22285000D01*
G75*
G02*
X45082000Y-22385000I-100000J0D01*
G01*
X44882000Y-22385000D01*
G75*
G02*
X44782000Y-22285000I0J100000D01*
G01*
G37*
G36*
G01*
X44282000Y-22285000D02*
X44282000Y-20785000D01*
G75*
G02*
X44382000Y-20685000I100000J0D01*
G01*
X44582000Y-20685000D01*
G75*
G02*
X44682000Y-20785000I0J-100000D01*
G01*
X44682000Y-22285000D01*
G75*
G02*
X44582000Y-22385000I-100000J0D01*
G01*
X44382000Y-22385000D01*
G75*
G02*
X44282000Y-22285000I0J100000D01*
G01*
G37*
G36*
G01*
X43782000Y-22285000D02*
X43782000Y-20785000D01*
G75*
G02*
X43882000Y-20685000I100000J0D01*
G01*
X44082000Y-20685000D01*
G75*
G02*
X44182000Y-20785000I0J-100000D01*
G01*
X44182000Y-22285000D01*
G75*
G02*
X44082000Y-22385000I-100000J0D01*
G01*
X43882000Y-22385000D01*
G75*
G02*
X43782000Y-22285000I0J100000D01*
G01*
G37*
G36*
G01*
X43282000Y-22285000D02*
X43282000Y-20785000D01*
G75*
G02*
X43382000Y-20685000I100000J0D01*
G01*
X43582000Y-20685000D01*
G75*
G02*
X43682000Y-20785000I0J-100000D01*
G01*
X43682000Y-22285000D01*
G75*
G02*
X43582000Y-22385000I-100000J0D01*
G01*
X43382000Y-22385000D01*
G75*
G02*
X43282000Y-22285000I0J100000D01*
G01*
G37*
G36*
G01*
X42782000Y-22285000D02*
X42782000Y-20785000D01*
G75*
G02*
X42882000Y-20685000I100000J0D01*
G01*
X43082000Y-20685000D01*
G75*
G02*
X43182000Y-20785000I0J-100000D01*
G01*
X43182000Y-22285000D01*
G75*
G02*
X43082000Y-22385000I-100000J0D01*
G01*
X42882000Y-22385000D01*
G75*
G02*
X42782000Y-22285000I0J100000D01*
G01*
G37*
G36*
G01*
X42282000Y-22285000D02*
X42282000Y-20785000D01*
G75*
G02*
X42382000Y-20685000I100000J0D01*
G01*
X42582000Y-20685000D01*
G75*
G02*
X42682000Y-20785000I0J-100000D01*
G01*
X42682000Y-22285000D01*
G75*
G02*
X42582000Y-22385000I-100000J0D01*
G01*
X42382000Y-22385000D01*
G75*
G02*
X42282000Y-22285000I0J100000D01*
G01*
G37*
G36*
G01*
X41782000Y-22285000D02*
X41782000Y-20785000D01*
G75*
G02*
X41882000Y-20685000I100000J0D01*
G01*
X42082000Y-20685000D01*
G75*
G02*
X42182000Y-20785000I0J-100000D01*
G01*
X42182000Y-22285000D01*
G75*
G02*
X42082000Y-22385000I-100000J0D01*
G01*
X41882000Y-22385000D01*
G75*
G02*
X41782000Y-22285000I0J100000D01*
G01*
G37*
G36*
G01*
X41282000Y-22285000D02*
X41282000Y-20785000D01*
G75*
G02*
X41382000Y-20685000I100000J0D01*
G01*
X41582000Y-20685000D01*
G75*
G02*
X41682000Y-20785000I0J-100000D01*
G01*
X41682000Y-22285000D01*
G75*
G02*
X41582000Y-22385000I-100000J0D01*
G01*
X41382000Y-22385000D01*
G75*
G02*
X41282000Y-22285000I0J100000D01*
G01*
G37*
G36*
G01*
X40782000Y-22285000D02*
X40782000Y-20785000D01*
G75*
G02*
X40882000Y-20685000I100000J0D01*
G01*
X41082000Y-20685000D01*
G75*
G02*
X41182000Y-20785000I0J-100000D01*
G01*
X41182000Y-22285000D01*
G75*
G02*
X41082000Y-22385000I-100000J0D01*
G01*
X40882000Y-22385000D01*
G75*
G02*
X40782000Y-22285000I0J100000D01*
G01*
G37*
G36*
G01*
X40282000Y-22285000D02*
X40282000Y-20785000D01*
G75*
G02*
X40382000Y-20685000I100000J0D01*
G01*
X40582000Y-20685000D01*
G75*
G02*
X40682000Y-20785000I0J-100000D01*
G01*
X40682000Y-22285000D01*
G75*
G02*
X40582000Y-22385000I-100000J0D01*
G01*
X40382000Y-22385000D01*
G75*
G02*
X40282000Y-22285000I0J100000D01*
G01*
G37*
%TD*%
%TO.C,U7*%
G36*
G01*
X82151500Y-29668000D02*
X82476500Y-29668000D01*
G75*
G02*
X82639000Y-29830500I0J-162500D01*
G01*
X82639000Y-31130500D01*
G75*
G02*
X82476500Y-31293000I-162500J0D01*
G01*
X82151500Y-31293000D01*
G75*
G02*
X81989000Y-31130500I0J162500D01*
G01*
X81989000Y-29830500D01*
G75*
G02*
X82151500Y-29668000I162500J0D01*
G01*
G37*
G36*
G01*
X81351500Y-29668000D02*
X81676500Y-29668000D01*
G75*
G02*
X81839000Y-29830500I0J-162500D01*
G01*
X81839000Y-31130500D01*
G75*
G02*
X81676500Y-31293000I-162500J0D01*
G01*
X81351500Y-31293000D01*
G75*
G02*
X81189000Y-31130500I0J162500D01*
G01*
X81189000Y-29830500D01*
G75*
G02*
X81351500Y-29668000I162500J0D01*
G01*
G37*
G36*
G01*
X80551500Y-29668000D02*
X80876500Y-29668000D01*
G75*
G02*
X81039000Y-29830500I0J-162500D01*
G01*
X81039000Y-31130500D01*
G75*
G02*
X80876500Y-31293000I-162500J0D01*
G01*
X80551500Y-31293000D01*
G75*
G02*
X80389000Y-31130500I0J162500D01*
G01*
X80389000Y-29830500D01*
G75*
G02*
X80551500Y-29668000I162500J0D01*
G01*
G37*
G36*
G01*
X79751500Y-29668000D02*
X80076500Y-29668000D01*
G75*
G02*
X80239000Y-29830500I0J-162500D01*
G01*
X80239000Y-31130500D01*
G75*
G02*
X80076500Y-31293000I-162500J0D01*
G01*
X79751500Y-31293000D01*
G75*
G02*
X79589000Y-31130500I0J162500D01*
G01*
X79589000Y-29830500D01*
G75*
G02*
X79751500Y-29668000I162500J0D01*
G01*
G37*
G36*
G01*
X78951500Y-29668000D02*
X79276500Y-29668000D01*
G75*
G02*
X79439000Y-29830500I0J-162500D01*
G01*
X79439000Y-31130500D01*
G75*
G02*
X79276500Y-31293000I-162500J0D01*
G01*
X78951500Y-31293000D01*
G75*
G02*
X78789000Y-31130500I0J162500D01*
G01*
X78789000Y-29830500D01*
G75*
G02*
X78951500Y-29668000I162500J0D01*
G01*
G37*
G36*
G01*
X78151500Y-29668000D02*
X78476500Y-29668000D01*
G75*
G02*
X78639000Y-29830500I0J-162500D01*
G01*
X78639000Y-31130500D01*
G75*
G02*
X78476500Y-31293000I-162500J0D01*
G01*
X78151500Y-31293000D01*
G75*
G02*
X77989000Y-31130500I0J162500D01*
G01*
X77989000Y-29830500D01*
G75*
G02*
X78151500Y-29668000I162500J0D01*
G01*
G37*
G36*
G01*
X77351500Y-29668000D02*
X77676500Y-29668000D01*
G75*
G02*
X77839000Y-29830500I0J-162500D01*
G01*
X77839000Y-31130500D01*
G75*
G02*
X77676500Y-31293000I-162500J0D01*
G01*
X77351500Y-31293000D01*
G75*
G02*
X77189000Y-31130500I0J162500D01*
G01*
X77189000Y-29830500D01*
G75*
G02*
X77351500Y-29668000I162500J0D01*
G01*
G37*
G36*
G01*
X76551500Y-29668000D02*
X76876500Y-29668000D01*
G75*
G02*
X77039000Y-29830500I0J-162500D01*
G01*
X77039000Y-31130500D01*
G75*
G02*
X76876500Y-31293000I-162500J0D01*
G01*
X76551500Y-31293000D01*
G75*
G02*
X76389000Y-31130500I0J162500D01*
G01*
X76389000Y-29830500D01*
G75*
G02*
X76551500Y-29668000I162500J0D01*
G01*
G37*
G36*
G01*
X75751500Y-29668000D02*
X76076500Y-29668000D01*
G75*
G02*
X76239000Y-29830500I0J-162500D01*
G01*
X76239000Y-31130500D01*
G75*
G02*
X76076500Y-31293000I-162500J0D01*
G01*
X75751500Y-31293000D01*
G75*
G02*
X75589000Y-31130500I0J162500D01*
G01*
X75589000Y-29830500D01*
G75*
G02*
X75751500Y-29668000I162500J0D01*
G01*
G37*
G36*
G01*
X74951500Y-29668000D02*
X75276500Y-29668000D01*
G75*
G02*
X75439000Y-29830500I0J-162500D01*
G01*
X75439000Y-31130500D01*
G75*
G02*
X75276500Y-31293000I-162500J0D01*
G01*
X74951500Y-31293000D01*
G75*
G02*
X74789000Y-31130500I0J162500D01*
G01*
X74789000Y-29830500D01*
G75*
G02*
X74951500Y-29668000I162500J0D01*
G01*
G37*
G36*
G01*
X74151500Y-29668000D02*
X74476500Y-29668000D01*
G75*
G02*
X74639000Y-29830500I0J-162500D01*
G01*
X74639000Y-31130500D01*
G75*
G02*
X74476500Y-31293000I-162500J0D01*
G01*
X74151500Y-31293000D01*
G75*
G02*
X73989000Y-31130500I0J162500D01*
G01*
X73989000Y-29830500D01*
G75*
G02*
X74151500Y-29668000I162500J0D01*
G01*
G37*
G36*
G01*
X73351500Y-29668000D02*
X73676500Y-29668000D01*
G75*
G02*
X73839000Y-29830500I0J-162500D01*
G01*
X73839000Y-31130500D01*
G75*
G02*
X73676500Y-31293000I-162500J0D01*
G01*
X73351500Y-31293000D01*
G75*
G02*
X73189000Y-31130500I0J162500D01*
G01*
X73189000Y-29830500D01*
G75*
G02*
X73351500Y-29668000I162500J0D01*
G01*
G37*
G36*
G01*
X72551500Y-29668000D02*
X72876500Y-29668000D01*
G75*
G02*
X73039000Y-29830500I0J-162500D01*
G01*
X73039000Y-31130500D01*
G75*
G02*
X72876500Y-31293000I-162500J0D01*
G01*
X72551500Y-31293000D01*
G75*
G02*
X72389000Y-31130500I0J162500D01*
G01*
X72389000Y-29830500D01*
G75*
G02*
X72551500Y-29668000I162500J0D01*
G01*
G37*
G36*
G01*
X71751500Y-29668000D02*
X72076500Y-29668000D01*
G75*
G02*
X72239000Y-29830500I0J-162500D01*
G01*
X72239000Y-31130500D01*
G75*
G02*
X72076500Y-31293000I-162500J0D01*
G01*
X71751500Y-31293000D01*
G75*
G02*
X71589000Y-31130500I0J162500D01*
G01*
X71589000Y-29830500D01*
G75*
G02*
X71751500Y-29668000I162500J0D01*
G01*
G37*
G36*
G01*
X70951500Y-29668000D02*
X71276500Y-29668000D01*
G75*
G02*
X71439000Y-29830500I0J-162500D01*
G01*
X71439000Y-31130500D01*
G75*
G02*
X71276500Y-31293000I-162500J0D01*
G01*
X70951500Y-31293000D01*
G75*
G02*
X70789000Y-31130500I0J162500D01*
G01*
X70789000Y-29830500D01*
G75*
G02*
X70951500Y-29668000I162500J0D01*
G01*
G37*
G36*
G01*
X70151500Y-29668000D02*
X70476500Y-29668000D01*
G75*
G02*
X70639000Y-29830500I0J-162500D01*
G01*
X70639000Y-31130500D01*
G75*
G02*
X70476500Y-31293000I-162500J0D01*
G01*
X70151500Y-31293000D01*
G75*
G02*
X69989000Y-31130500I0J162500D01*
G01*
X69989000Y-29830500D01*
G75*
G02*
X70151500Y-29668000I162500J0D01*
G01*
G37*
G36*
G01*
X69351500Y-29668000D02*
X69676500Y-29668000D01*
G75*
G02*
X69839000Y-29830500I0J-162500D01*
G01*
X69839000Y-31130500D01*
G75*
G02*
X69676500Y-31293000I-162500J0D01*
G01*
X69351500Y-31293000D01*
G75*
G02*
X69189000Y-31130500I0J162500D01*
G01*
X69189000Y-29830500D01*
G75*
G02*
X69351500Y-29668000I162500J0D01*
G01*
G37*
G36*
G01*
X68551500Y-29668000D02*
X68876500Y-29668000D01*
G75*
G02*
X69039000Y-29830500I0J-162500D01*
G01*
X69039000Y-31130500D01*
G75*
G02*
X68876500Y-31293000I-162500J0D01*
G01*
X68551500Y-31293000D01*
G75*
G02*
X68389000Y-31130500I0J162500D01*
G01*
X68389000Y-29830500D01*
G75*
G02*
X68551500Y-29668000I162500J0D01*
G01*
G37*
G36*
G01*
X67751500Y-29668000D02*
X68076500Y-29668000D01*
G75*
G02*
X68239000Y-29830500I0J-162500D01*
G01*
X68239000Y-31130500D01*
G75*
G02*
X68076500Y-31293000I-162500J0D01*
G01*
X67751500Y-31293000D01*
G75*
G02*
X67589000Y-31130500I0J162500D01*
G01*
X67589000Y-29830500D01*
G75*
G02*
X67751500Y-29668000I162500J0D01*
G01*
G37*
G36*
G01*
X66951500Y-29668000D02*
X67276500Y-29668000D01*
G75*
G02*
X67439000Y-29830500I0J-162500D01*
G01*
X67439000Y-31130500D01*
G75*
G02*
X67276500Y-31293000I-162500J0D01*
G01*
X66951500Y-31293000D01*
G75*
G02*
X66789000Y-31130500I0J162500D01*
G01*
X66789000Y-29830500D01*
G75*
G02*
X66951500Y-29668000I162500J0D01*
G01*
G37*
G36*
G01*
X66151500Y-29668000D02*
X66476500Y-29668000D01*
G75*
G02*
X66639000Y-29830500I0J-162500D01*
G01*
X66639000Y-31130500D01*
G75*
G02*
X66476500Y-31293000I-162500J0D01*
G01*
X66151500Y-31293000D01*
G75*
G02*
X65989000Y-31130500I0J162500D01*
G01*
X65989000Y-29830500D01*
G75*
G02*
X66151500Y-29668000I162500J0D01*
G01*
G37*
G36*
G01*
X65351500Y-29668000D02*
X65676500Y-29668000D01*
G75*
G02*
X65839000Y-29830500I0J-162500D01*
G01*
X65839000Y-31130500D01*
G75*
G02*
X65676500Y-31293000I-162500J0D01*
G01*
X65351500Y-31293000D01*
G75*
G02*
X65189000Y-31130500I0J162500D01*
G01*
X65189000Y-29830500D01*
G75*
G02*
X65351500Y-29668000I162500J0D01*
G01*
G37*
G36*
G01*
X65351500Y-40843000D02*
X65676500Y-40843000D01*
G75*
G02*
X65839000Y-41005500I0J-162500D01*
G01*
X65839000Y-42305500D01*
G75*
G02*
X65676500Y-42468000I-162500J0D01*
G01*
X65351500Y-42468000D01*
G75*
G02*
X65189000Y-42305500I0J162500D01*
G01*
X65189000Y-41005500D01*
G75*
G02*
X65351500Y-40843000I162500J0D01*
G01*
G37*
G36*
G01*
X66151500Y-40843000D02*
X66476500Y-40843000D01*
G75*
G02*
X66639000Y-41005500I0J-162500D01*
G01*
X66639000Y-42305500D01*
G75*
G02*
X66476500Y-42468000I-162500J0D01*
G01*
X66151500Y-42468000D01*
G75*
G02*
X65989000Y-42305500I0J162500D01*
G01*
X65989000Y-41005500D01*
G75*
G02*
X66151500Y-40843000I162500J0D01*
G01*
G37*
G36*
G01*
X66951500Y-40843000D02*
X67276500Y-40843000D01*
G75*
G02*
X67439000Y-41005500I0J-162500D01*
G01*
X67439000Y-42305500D01*
G75*
G02*
X67276500Y-42468000I-162500J0D01*
G01*
X66951500Y-42468000D01*
G75*
G02*
X66789000Y-42305500I0J162500D01*
G01*
X66789000Y-41005500D01*
G75*
G02*
X66951500Y-40843000I162500J0D01*
G01*
G37*
G36*
G01*
X67751500Y-40843000D02*
X68076500Y-40843000D01*
G75*
G02*
X68239000Y-41005500I0J-162500D01*
G01*
X68239000Y-42305500D01*
G75*
G02*
X68076500Y-42468000I-162500J0D01*
G01*
X67751500Y-42468000D01*
G75*
G02*
X67589000Y-42305500I0J162500D01*
G01*
X67589000Y-41005500D01*
G75*
G02*
X67751500Y-40843000I162500J0D01*
G01*
G37*
G36*
G01*
X68551500Y-40843000D02*
X68876500Y-40843000D01*
G75*
G02*
X69039000Y-41005500I0J-162500D01*
G01*
X69039000Y-42305500D01*
G75*
G02*
X68876500Y-42468000I-162500J0D01*
G01*
X68551500Y-42468000D01*
G75*
G02*
X68389000Y-42305500I0J162500D01*
G01*
X68389000Y-41005500D01*
G75*
G02*
X68551500Y-40843000I162500J0D01*
G01*
G37*
G36*
G01*
X69351500Y-40843000D02*
X69676500Y-40843000D01*
G75*
G02*
X69839000Y-41005500I0J-162500D01*
G01*
X69839000Y-42305500D01*
G75*
G02*
X69676500Y-42468000I-162500J0D01*
G01*
X69351500Y-42468000D01*
G75*
G02*
X69189000Y-42305500I0J162500D01*
G01*
X69189000Y-41005500D01*
G75*
G02*
X69351500Y-40843000I162500J0D01*
G01*
G37*
G36*
G01*
X70151500Y-40843000D02*
X70476500Y-40843000D01*
G75*
G02*
X70639000Y-41005500I0J-162500D01*
G01*
X70639000Y-42305500D01*
G75*
G02*
X70476500Y-42468000I-162500J0D01*
G01*
X70151500Y-42468000D01*
G75*
G02*
X69989000Y-42305500I0J162500D01*
G01*
X69989000Y-41005500D01*
G75*
G02*
X70151500Y-40843000I162500J0D01*
G01*
G37*
G36*
G01*
X70951500Y-40843000D02*
X71276500Y-40843000D01*
G75*
G02*
X71439000Y-41005500I0J-162500D01*
G01*
X71439000Y-42305500D01*
G75*
G02*
X71276500Y-42468000I-162500J0D01*
G01*
X70951500Y-42468000D01*
G75*
G02*
X70789000Y-42305500I0J162500D01*
G01*
X70789000Y-41005500D01*
G75*
G02*
X70951500Y-40843000I162500J0D01*
G01*
G37*
G36*
G01*
X71751500Y-40843000D02*
X72076500Y-40843000D01*
G75*
G02*
X72239000Y-41005500I0J-162500D01*
G01*
X72239000Y-42305500D01*
G75*
G02*
X72076500Y-42468000I-162500J0D01*
G01*
X71751500Y-42468000D01*
G75*
G02*
X71589000Y-42305500I0J162500D01*
G01*
X71589000Y-41005500D01*
G75*
G02*
X71751500Y-40843000I162500J0D01*
G01*
G37*
G36*
G01*
X72551500Y-40843000D02*
X72876500Y-40843000D01*
G75*
G02*
X73039000Y-41005500I0J-162500D01*
G01*
X73039000Y-42305500D01*
G75*
G02*
X72876500Y-42468000I-162500J0D01*
G01*
X72551500Y-42468000D01*
G75*
G02*
X72389000Y-42305500I0J162500D01*
G01*
X72389000Y-41005500D01*
G75*
G02*
X72551500Y-40843000I162500J0D01*
G01*
G37*
G36*
G01*
X73351500Y-40843000D02*
X73676500Y-40843000D01*
G75*
G02*
X73839000Y-41005500I0J-162500D01*
G01*
X73839000Y-42305500D01*
G75*
G02*
X73676500Y-42468000I-162500J0D01*
G01*
X73351500Y-42468000D01*
G75*
G02*
X73189000Y-42305500I0J162500D01*
G01*
X73189000Y-41005500D01*
G75*
G02*
X73351500Y-40843000I162500J0D01*
G01*
G37*
G36*
G01*
X74151500Y-40843000D02*
X74476500Y-40843000D01*
G75*
G02*
X74639000Y-41005500I0J-162500D01*
G01*
X74639000Y-42305500D01*
G75*
G02*
X74476500Y-42468000I-162500J0D01*
G01*
X74151500Y-42468000D01*
G75*
G02*
X73989000Y-42305500I0J162500D01*
G01*
X73989000Y-41005500D01*
G75*
G02*
X74151500Y-40843000I162500J0D01*
G01*
G37*
G36*
G01*
X74951500Y-40843000D02*
X75276500Y-40843000D01*
G75*
G02*
X75439000Y-41005500I0J-162500D01*
G01*
X75439000Y-42305500D01*
G75*
G02*
X75276500Y-42468000I-162500J0D01*
G01*
X74951500Y-42468000D01*
G75*
G02*
X74789000Y-42305500I0J162500D01*
G01*
X74789000Y-41005500D01*
G75*
G02*
X74951500Y-40843000I162500J0D01*
G01*
G37*
G36*
G01*
X75751500Y-40843000D02*
X76076500Y-40843000D01*
G75*
G02*
X76239000Y-41005500I0J-162500D01*
G01*
X76239000Y-42305500D01*
G75*
G02*
X76076500Y-42468000I-162500J0D01*
G01*
X75751500Y-42468000D01*
G75*
G02*
X75589000Y-42305500I0J162500D01*
G01*
X75589000Y-41005500D01*
G75*
G02*
X75751500Y-40843000I162500J0D01*
G01*
G37*
G36*
G01*
X76551500Y-40843000D02*
X76876500Y-40843000D01*
G75*
G02*
X77039000Y-41005500I0J-162500D01*
G01*
X77039000Y-42305500D01*
G75*
G02*
X76876500Y-42468000I-162500J0D01*
G01*
X76551500Y-42468000D01*
G75*
G02*
X76389000Y-42305500I0J162500D01*
G01*
X76389000Y-41005500D01*
G75*
G02*
X76551500Y-40843000I162500J0D01*
G01*
G37*
G36*
G01*
X77351500Y-40843000D02*
X77676500Y-40843000D01*
G75*
G02*
X77839000Y-41005500I0J-162500D01*
G01*
X77839000Y-42305500D01*
G75*
G02*
X77676500Y-42468000I-162500J0D01*
G01*
X77351500Y-42468000D01*
G75*
G02*
X77189000Y-42305500I0J162500D01*
G01*
X77189000Y-41005500D01*
G75*
G02*
X77351500Y-40843000I162500J0D01*
G01*
G37*
G36*
G01*
X78151500Y-40843000D02*
X78476500Y-40843000D01*
G75*
G02*
X78639000Y-41005500I0J-162500D01*
G01*
X78639000Y-42305500D01*
G75*
G02*
X78476500Y-42468000I-162500J0D01*
G01*
X78151500Y-42468000D01*
G75*
G02*
X77989000Y-42305500I0J162500D01*
G01*
X77989000Y-41005500D01*
G75*
G02*
X78151500Y-40843000I162500J0D01*
G01*
G37*
G36*
G01*
X78951500Y-40843000D02*
X79276500Y-40843000D01*
G75*
G02*
X79439000Y-41005500I0J-162500D01*
G01*
X79439000Y-42305500D01*
G75*
G02*
X79276500Y-42468000I-162500J0D01*
G01*
X78951500Y-42468000D01*
G75*
G02*
X78789000Y-42305500I0J162500D01*
G01*
X78789000Y-41005500D01*
G75*
G02*
X78951500Y-40843000I162500J0D01*
G01*
G37*
G36*
G01*
X79751500Y-40843000D02*
X80076500Y-40843000D01*
G75*
G02*
X80239000Y-41005500I0J-162500D01*
G01*
X80239000Y-42305500D01*
G75*
G02*
X80076500Y-42468000I-162500J0D01*
G01*
X79751500Y-42468000D01*
G75*
G02*
X79589000Y-42305500I0J162500D01*
G01*
X79589000Y-41005500D01*
G75*
G02*
X79751500Y-40843000I162500J0D01*
G01*
G37*
G36*
G01*
X80551500Y-40843000D02*
X80876500Y-40843000D01*
G75*
G02*
X81039000Y-41005500I0J-162500D01*
G01*
X81039000Y-42305500D01*
G75*
G02*
X80876500Y-42468000I-162500J0D01*
G01*
X80551500Y-42468000D01*
G75*
G02*
X80389000Y-42305500I0J162500D01*
G01*
X80389000Y-41005500D01*
G75*
G02*
X80551500Y-40843000I162500J0D01*
G01*
G37*
G36*
G01*
X81351500Y-40843000D02*
X81676500Y-40843000D01*
G75*
G02*
X81839000Y-41005500I0J-162500D01*
G01*
X81839000Y-42305500D01*
G75*
G02*
X81676500Y-42468000I-162500J0D01*
G01*
X81351500Y-42468000D01*
G75*
G02*
X81189000Y-42305500I0J162500D01*
G01*
X81189000Y-41005500D01*
G75*
G02*
X81351500Y-40843000I162500J0D01*
G01*
G37*
G36*
G01*
X82151500Y-40843000D02*
X82476500Y-40843000D01*
G75*
G02*
X82639000Y-41005500I0J-162500D01*
G01*
X82639000Y-42305500D01*
G75*
G02*
X82476500Y-42468000I-162500J0D01*
G01*
X82151500Y-42468000D01*
G75*
G02*
X81989000Y-42305500I0J162500D01*
G01*
X81989000Y-41005500D01*
G75*
G02*
X82151500Y-40843000I162500J0D01*
G01*
G37*
%TD*%
D10*
%TO.C,U4*%
X11020000Y-46239000D03*
X11020000Y-46889000D03*
X11020000Y-47539000D03*
X11020000Y-48189000D03*
X11020000Y-48839000D03*
X11020000Y-49489000D03*
X11020000Y-50139000D03*
X11020000Y-50789000D03*
X16920000Y-50789000D03*
X16920000Y-50139000D03*
X16920000Y-49489000D03*
X16920000Y-48839000D03*
X16920000Y-48189000D03*
X16920000Y-47539000D03*
X16920000Y-46889000D03*
X16920000Y-46239000D03*
%TD*%
%TO.C,R2*%
G36*
G01*
X30018000Y-40667250D02*
X30018000Y-40104750D01*
G75*
G02*
X30261750Y-39861000I243750J0D01*
G01*
X30749250Y-39861000D01*
G75*
G02*
X30993000Y-40104750I0J-243750D01*
G01*
X30993000Y-40667250D01*
G75*
G02*
X30749250Y-40911000I-243750J0D01*
G01*
X30261750Y-40911000D01*
G75*
G02*
X30018000Y-40667250I0J243750D01*
G01*
G37*
G36*
G01*
X28443000Y-40667250D02*
X28443000Y-40104750D01*
G75*
G02*
X28686750Y-39861000I243750J0D01*
G01*
X29174250Y-39861000D01*
G75*
G02*
X29418000Y-40104750I0J-243750D01*
G01*
X29418000Y-40667250D01*
G75*
G02*
X29174250Y-40911000I-243750J0D01*
G01*
X28686750Y-40911000D01*
G75*
G02*
X28443000Y-40667250I0J243750D01*
G01*
G37*
%TD*%
%TO.C,C2*%
G36*
G01*
X26462000Y-41429250D02*
X26462000Y-40866750D01*
G75*
G02*
X26705750Y-40623000I243750J0D01*
G01*
X27193250Y-40623000D01*
G75*
G02*
X27437000Y-40866750I0J-243750D01*
G01*
X27437000Y-41429250D01*
G75*
G02*
X27193250Y-41673000I-243750J0D01*
G01*
X26705750Y-41673000D01*
G75*
G02*
X26462000Y-41429250I0J243750D01*
G01*
G37*
G36*
G01*
X24887000Y-41429250D02*
X24887000Y-40866750D01*
G75*
G02*
X25130750Y-40623000I243750J0D01*
G01*
X25618250Y-40623000D01*
G75*
G02*
X25862000Y-40866750I0J-243750D01*
G01*
X25862000Y-41429250D01*
G75*
G02*
X25618250Y-41673000I-243750J0D01*
G01*
X25130750Y-41673000D01*
G75*
G02*
X24887000Y-41429250I0J243750D01*
G01*
G37*
%TD*%
D11*
%TO.C,J6*%
X21336000Y-45466000D03*
D12*
X21336000Y-42926000D03*
%TD*%
%TO.C,C8*%
G36*
G01*
X33047250Y-33482000D02*
X32484750Y-33482000D01*
G75*
G02*
X32241000Y-33238250I0J243750D01*
G01*
X32241000Y-32750750D01*
G75*
G02*
X32484750Y-32507000I243750J0D01*
G01*
X33047250Y-32507000D01*
G75*
G02*
X33291000Y-32750750I0J-243750D01*
G01*
X33291000Y-33238250D01*
G75*
G02*
X33047250Y-33482000I-243750J0D01*
G01*
G37*
G36*
G01*
X33047250Y-35057000D02*
X32484750Y-35057000D01*
G75*
G02*
X32241000Y-34813250I0J243750D01*
G01*
X32241000Y-34325750D01*
G75*
G02*
X32484750Y-34082000I243750J0D01*
G01*
X33047250Y-34082000D01*
G75*
G02*
X33291000Y-34325750I0J-243750D01*
G01*
X33291000Y-34813250D01*
G75*
G02*
X33047250Y-35057000I-243750J0D01*
G01*
G37*
%TD*%
D13*
%TO.C,RN1*%
X35306000Y-49214000D03*
D14*
X36176000Y-49214000D03*
D13*
X37846000Y-49214000D03*
D14*
X36976000Y-49214000D03*
D13*
X35306000Y-47814000D03*
D14*
X36976000Y-47814000D03*
X36176000Y-47814000D03*
D13*
X37846000Y-47814000D03*
%TD*%
D15*
%TO.C,REF\u002A\u002A*%
X3556000Y-55880000D03*
%TD*%
%TO.C,REF\u002A\u002A*%
X3556000Y-3556000D03*
%TD*%
%TO.C,REF\u002A\u002A*%
X108204000Y-3556000D03*
%TD*%
%TO.C,REF\u002A\u002A*%
X108204000Y-55880000D03*
%TD*%
D16*
%TO.C,BT1*%
X12471400Y-6604000D03*
X28638500Y-6527800D03*
D17*
X16929100Y-6604000D03*
X24218900Y-6591300D03*
%TD*%
%TO.C,C1*%
G36*
G01*
X23668000Y-54637250D02*
X23668000Y-54074750D01*
G75*
G02*
X23911750Y-53831000I243750J0D01*
G01*
X24399250Y-53831000D01*
G75*
G02*
X24643000Y-54074750I0J-243750D01*
G01*
X24643000Y-54637250D01*
G75*
G02*
X24399250Y-54881000I-243750J0D01*
G01*
X23911750Y-54881000D01*
G75*
G02*
X23668000Y-54637250I0J243750D01*
G01*
G37*
G36*
G01*
X22093000Y-54637250D02*
X22093000Y-54074750D01*
G75*
G02*
X22336750Y-53831000I243750J0D01*
G01*
X22824250Y-53831000D01*
G75*
G02*
X23068000Y-54074750I0J-243750D01*
G01*
X23068000Y-54637250D01*
G75*
G02*
X22824250Y-54881000I-243750J0D01*
G01*
X22336750Y-54881000D01*
G75*
G02*
X22093000Y-54637250I0J243750D01*
G01*
G37*
%TD*%
D18*
%TO.C,C3*%
X24868000Y-50292000D03*
X21868000Y-50292000D03*
%TD*%
%TO.C,C4*%
X24662000Y-44704000D03*
X27662000Y-44704000D03*
%TD*%
%TO.C,C5*%
G36*
G01*
X32484750Y-23160000D02*
X33047250Y-23160000D01*
G75*
G02*
X33291000Y-23403750I0J-243750D01*
G01*
X33291000Y-23891250D01*
G75*
G02*
X33047250Y-24135000I-243750J0D01*
G01*
X32484750Y-24135000D01*
G75*
G02*
X32241000Y-23891250I0J243750D01*
G01*
X32241000Y-23403750D01*
G75*
G02*
X32484750Y-23160000I243750J0D01*
G01*
G37*
G36*
G01*
X32484750Y-21585000D02*
X33047250Y-21585000D01*
G75*
G02*
X33291000Y-21828750I0J-243750D01*
G01*
X33291000Y-22316250D01*
G75*
G02*
X33047250Y-22560000I-243750J0D01*
G01*
X32484750Y-22560000D01*
G75*
G02*
X32241000Y-22316250I0J243750D01*
G01*
X32241000Y-21828750D01*
G75*
G02*
X32484750Y-21585000I243750J0D01*
G01*
G37*
%TD*%
%TO.C,C6*%
G36*
G01*
X32484750Y-25649000D02*
X33047250Y-25649000D01*
G75*
G02*
X33291000Y-25892750I0J-243750D01*
G01*
X33291000Y-26380250D01*
G75*
G02*
X33047250Y-26624000I-243750J0D01*
G01*
X32484750Y-26624000D01*
G75*
G02*
X32241000Y-26380250I0J243750D01*
G01*
X32241000Y-25892750D01*
G75*
G02*
X32484750Y-25649000I243750J0D01*
G01*
G37*
G36*
G01*
X32484750Y-27224000D02*
X33047250Y-27224000D01*
G75*
G02*
X33291000Y-27467750I0J-243750D01*
G01*
X33291000Y-27955250D01*
G75*
G02*
X33047250Y-28199000I-243750J0D01*
G01*
X32484750Y-28199000D01*
G75*
G02*
X32241000Y-27955250I0J243750D01*
G01*
X32241000Y-27467750D01*
G75*
G02*
X32484750Y-27224000I243750J0D01*
G01*
G37*
%TD*%
%TO.C,C7*%
G36*
G01*
X33047250Y-31755000D02*
X32484750Y-31755000D01*
G75*
G02*
X32241000Y-31511250I0J243750D01*
G01*
X32241000Y-31023750D01*
G75*
G02*
X32484750Y-30780000I243750J0D01*
G01*
X33047250Y-30780000D01*
G75*
G02*
X33291000Y-31023750I0J-243750D01*
G01*
X33291000Y-31511250D01*
G75*
G02*
X33047250Y-31755000I-243750J0D01*
G01*
G37*
G36*
G01*
X33047250Y-30180000D02*
X32484750Y-30180000D01*
G75*
G02*
X32241000Y-29936250I0J243750D01*
G01*
X32241000Y-29448750D01*
G75*
G02*
X32484750Y-29205000I243750J0D01*
G01*
X33047250Y-29205000D01*
G75*
G02*
X33291000Y-29448750I0J-243750D01*
G01*
X33291000Y-29936250D01*
G75*
G02*
X33047250Y-30180000I-243750J0D01*
G01*
G37*
%TD*%
%TO.C,C9*%
G36*
G01*
X23827000Y-14250750D02*
X23827000Y-15213250D01*
G75*
G02*
X23558250Y-15482000I-268750J0D01*
G01*
X23020750Y-15482000D01*
G75*
G02*
X22752000Y-15213250I0J268750D01*
G01*
X22752000Y-14250750D01*
G75*
G02*
X23020750Y-13982000I268750J0D01*
G01*
X23558250Y-13982000D01*
G75*
G02*
X23827000Y-14250750I0J-268750D01*
G01*
G37*
G36*
G01*
X21952000Y-14250750D02*
X21952000Y-15213250D01*
G75*
G02*
X21683250Y-15482000I-268750J0D01*
G01*
X21145750Y-15482000D01*
G75*
G02*
X20877000Y-15213250I0J268750D01*
G01*
X20877000Y-14250750D01*
G75*
G02*
X21145750Y-13982000I268750J0D01*
G01*
X21683250Y-13982000D01*
G75*
G02*
X21952000Y-14250750I0J-268750D01*
G01*
G37*
%TD*%
%TO.C,C10*%
G36*
G01*
X100030000Y-7084750D02*
X100030000Y-7647250D01*
G75*
G02*
X99786250Y-7891000I-243750J0D01*
G01*
X99298750Y-7891000D01*
G75*
G02*
X99055000Y-7647250I0J243750D01*
G01*
X99055000Y-7084750D01*
G75*
G02*
X99298750Y-6841000I243750J0D01*
G01*
X99786250Y-6841000D01*
G75*
G02*
X100030000Y-7084750I0J-243750D01*
G01*
G37*
G36*
G01*
X101605000Y-7084750D02*
X101605000Y-7647250D01*
G75*
G02*
X101361250Y-7891000I-243750J0D01*
G01*
X100873750Y-7891000D01*
G75*
G02*
X100630000Y-7647250I0J243750D01*
G01*
X100630000Y-7084750D01*
G75*
G02*
X100873750Y-6841000I243750J0D01*
G01*
X101361250Y-6841000D01*
G75*
G02*
X101605000Y-7084750I0J-243750D01*
G01*
G37*
%TD*%
%TO.C,C11*%
G36*
G01*
X75189000Y-44422750D02*
X75189000Y-44985250D01*
G75*
G02*
X74945250Y-45229000I-243750J0D01*
G01*
X74457750Y-45229000D01*
G75*
G02*
X74214000Y-44985250I0J243750D01*
G01*
X74214000Y-44422750D01*
G75*
G02*
X74457750Y-44179000I243750J0D01*
G01*
X74945250Y-44179000D01*
G75*
G02*
X75189000Y-44422750I0J-243750D01*
G01*
G37*
G36*
G01*
X73614000Y-44422750D02*
X73614000Y-44985250D01*
G75*
G02*
X73370250Y-45229000I-243750J0D01*
G01*
X72882750Y-45229000D01*
G75*
G02*
X72639000Y-44985250I0J243750D01*
G01*
X72639000Y-44422750D01*
G75*
G02*
X72882750Y-44179000I243750J0D01*
G01*
X73370250Y-44179000D01*
G75*
G02*
X73614000Y-44422750I0J-243750D01*
G01*
G37*
%TD*%
%TO.C,C12*%
G36*
G01*
X77770000Y-14251250D02*
X77770000Y-13688750D01*
G75*
G02*
X78013750Y-13445000I243750J0D01*
G01*
X78501250Y-13445000D01*
G75*
G02*
X78745000Y-13688750I0J-243750D01*
G01*
X78745000Y-14251250D01*
G75*
G02*
X78501250Y-14495000I-243750J0D01*
G01*
X78013750Y-14495000D01*
G75*
G02*
X77770000Y-14251250I0J243750D01*
G01*
G37*
G36*
G01*
X76195000Y-14251250D02*
X76195000Y-13688750D01*
G75*
G02*
X76438750Y-13445000I243750J0D01*
G01*
X76926250Y-13445000D01*
G75*
G02*
X77170000Y-13688750I0J-243750D01*
G01*
X77170000Y-14251250D01*
G75*
G02*
X76926250Y-14495000I-243750J0D01*
G01*
X76438750Y-14495000D01*
G75*
G02*
X76195000Y-14251250I0J243750D01*
G01*
G37*
%TD*%
%TO.C,C14*%
G36*
G01*
X72385000Y-28221250D02*
X72385000Y-27658750D01*
G75*
G02*
X72628750Y-27415000I243750J0D01*
G01*
X73116250Y-27415000D01*
G75*
G02*
X73360000Y-27658750I0J-243750D01*
G01*
X73360000Y-28221250D01*
G75*
G02*
X73116250Y-28465000I-243750J0D01*
G01*
X72628750Y-28465000D01*
G75*
G02*
X72385000Y-28221250I0J243750D01*
G01*
G37*
G36*
G01*
X73960000Y-28221250D02*
X73960000Y-27658750D01*
G75*
G02*
X74203750Y-27415000I243750J0D01*
G01*
X74691250Y-27415000D01*
G75*
G02*
X74935000Y-27658750I0J-243750D01*
G01*
X74935000Y-28221250D01*
G75*
G02*
X74691250Y-28465000I-243750J0D01*
G01*
X74203750Y-28465000D01*
G75*
G02*
X73960000Y-28221250I0J243750D01*
G01*
G37*
%TD*%
%TO.C,C15*%
G36*
G01*
X53843000Y-38381250D02*
X53843000Y-37818750D01*
G75*
G02*
X54086750Y-37575000I243750J0D01*
G01*
X54574250Y-37575000D01*
G75*
G02*
X54818000Y-37818750I0J-243750D01*
G01*
X54818000Y-38381250D01*
G75*
G02*
X54574250Y-38625000I-243750J0D01*
G01*
X54086750Y-38625000D01*
G75*
G02*
X53843000Y-38381250I0J243750D01*
G01*
G37*
G36*
G01*
X55418000Y-38381250D02*
X55418000Y-37818750D01*
G75*
G02*
X55661750Y-37575000I243750J0D01*
G01*
X56149250Y-37575000D01*
G75*
G02*
X56393000Y-37818750I0J-243750D01*
G01*
X56393000Y-38381250D01*
G75*
G02*
X56149250Y-38625000I-243750J0D01*
G01*
X55661750Y-38625000D01*
G75*
G02*
X55418000Y-38381250I0J243750D01*
G01*
G37*
%TD*%
%TO.C,C17*%
G36*
G01*
X58701250Y-22560000D02*
X58138750Y-22560000D01*
G75*
G02*
X57895000Y-22316250I0J243750D01*
G01*
X57895000Y-21828750D01*
G75*
G02*
X58138750Y-21585000I243750J0D01*
G01*
X58701250Y-21585000D01*
G75*
G02*
X58945000Y-21828750I0J-243750D01*
G01*
X58945000Y-22316250D01*
G75*
G02*
X58701250Y-22560000I-243750J0D01*
G01*
G37*
G36*
G01*
X58701250Y-24135000D02*
X58138750Y-24135000D01*
G75*
G02*
X57895000Y-23891250I0J243750D01*
G01*
X57895000Y-23403750D01*
G75*
G02*
X58138750Y-23160000I243750J0D01*
G01*
X58701250Y-23160000D01*
G75*
G02*
X58945000Y-23403750I0J-243750D01*
G01*
X58945000Y-23891250D01*
G75*
G02*
X58701250Y-24135000I-243750J0D01*
G01*
G37*
%TD*%
%TO.C,C18*%
G36*
G01*
X35024750Y-26665000D02*
X35587250Y-26665000D01*
G75*
G02*
X35831000Y-26908750I0J-243750D01*
G01*
X35831000Y-27396250D01*
G75*
G02*
X35587250Y-27640000I-243750J0D01*
G01*
X35024750Y-27640000D01*
G75*
G02*
X34781000Y-27396250I0J243750D01*
G01*
X34781000Y-26908750D01*
G75*
G02*
X35024750Y-26665000I243750J0D01*
G01*
G37*
G36*
G01*
X35024750Y-28240000D02*
X35587250Y-28240000D01*
G75*
G02*
X35831000Y-28483750I0J-243750D01*
G01*
X35831000Y-28971250D01*
G75*
G02*
X35587250Y-29215000I-243750J0D01*
G01*
X35024750Y-29215000D01*
G75*
G02*
X34781000Y-28971250I0J243750D01*
G01*
X34781000Y-28483750D01*
G75*
G02*
X35024750Y-28240000I243750J0D01*
G01*
G37*
%TD*%
%TO.C,C19*%
G36*
G01*
X72598000Y-57376750D02*
X72598000Y-57939250D01*
G75*
G02*
X72354250Y-58183000I-243750J0D01*
G01*
X71866750Y-58183000D01*
G75*
G02*
X71623000Y-57939250I0J243750D01*
G01*
X71623000Y-57376750D01*
G75*
G02*
X71866750Y-57133000I243750J0D01*
G01*
X72354250Y-57133000D01*
G75*
G02*
X72598000Y-57376750I0J-243750D01*
G01*
G37*
G36*
G01*
X74173000Y-57376750D02*
X74173000Y-57939250D01*
G75*
G02*
X73929250Y-58183000I-243750J0D01*
G01*
X73441750Y-58183000D01*
G75*
G02*
X73198000Y-57939250I0J243750D01*
G01*
X73198000Y-57376750D01*
G75*
G02*
X73441750Y-57133000I243750J0D01*
G01*
X73929250Y-57133000D01*
G75*
G02*
X74173000Y-57376750I0J-243750D01*
G01*
G37*
%TD*%
%TO.C,C20*%
G36*
G01*
X40127000Y-41175250D02*
X40127000Y-40612750D01*
G75*
G02*
X40370750Y-40369000I243750J0D01*
G01*
X40858250Y-40369000D01*
G75*
G02*
X41102000Y-40612750I0J-243750D01*
G01*
X41102000Y-41175250D01*
G75*
G02*
X40858250Y-41419000I-243750J0D01*
G01*
X40370750Y-41419000D01*
G75*
G02*
X40127000Y-41175250I0J243750D01*
G01*
G37*
G36*
G01*
X41702000Y-41175250D02*
X41702000Y-40612750D01*
G75*
G02*
X41945750Y-40369000I243750J0D01*
G01*
X42433250Y-40369000D01*
G75*
G02*
X42677000Y-40612750I0J-243750D01*
G01*
X42677000Y-41175250D01*
G75*
G02*
X42433250Y-41419000I-243750J0D01*
G01*
X41945750Y-41419000D01*
G75*
G02*
X41702000Y-41175250I0J243750D01*
G01*
G37*
%TD*%
%TO.C,C21*%
G36*
G01*
X39629000Y-17752750D02*
X39629000Y-18315250D01*
G75*
G02*
X39385250Y-18559000I-243750J0D01*
G01*
X38897750Y-18559000D01*
G75*
G02*
X38654000Y-18315250I0J243750D01*
G01*
X38654000Y-17752750D01*
G75*
G02*
X38897750Y-17509000I243750J0D01*
G01*
X39385250Y-17509000D01*
G75*
G02*
X39629000Y-17752750I0J-243750D01*
G01*
G37*
G36*
G01*
X38054000Y-17752750D02*
X38054000Y-18315250D01*
G75*
G02*
X37810250Y-18559000I-243750J0D01*
G01*
X37322750Y-18559000D01*
G75*
G02*
X37079000Y-18315250I0J243750D01*
G01*
X37079000Y-17752750D01*
G75*
G02*
X37322750Y-17509000I243750J0D01*
G01*
X37810250Y-17509000D01*
G75*
G02*
X38054000Y-17752750I0J-243750D01*
G01*
G37*
%TD*%
D19*
%TO.C,C22*%
X75692000Y-2834000D03*
D20*
X75692000Y-5334000D03*
%TD*%
%TO.C,C23*%
G36*
G01*
X63726750Y-56434000D02*
X64289250Y-56434000D01*
G75*
G02*
X64533000Y-56677750I0J-243750D01*
G01*
X64533000Y-57165250D01*
G75*
G02*
X64289250Y-57409000I-243750J0D01*
G01*
X63726750Y-57409000D01*
G75*
G02*
X63483000Y-57165250I0J243750D01*
G01*
X63483000Y-56677750D01*
G75*
G02*
X63726750Y-56434000I243750J0D01*
G01*
G37*
G36*
G01*
X63726750Y-54859000D02*
X64289250Y-54859000D01*
G75*
G02*
X64533000Y-55102750I0J-243750D01*
G01*
X64533000Y-55590250D01*
G75*
G02*
X64289250Y-55834000I-243750J0D01*
G01*
X63726750Y-55834000D01*
G75*
G02*
X63483000Y-55590250I0J243750D01*
G01*
X63483000Y-55102750D01*
G75*
G02*
X63726750Y-54859000I243750J0D01*
G01*
G37*
%TD*%
%TO.C,C25*%
G36*
G01*
X14270000Y-53113250D02*
X14270000Y-52550750D01*
G75*
G02*
X14513750Y-52307000I243750J0D01*
G01*
X15001250Y-52307000D01*
G75*
G02*
X15245000Y-52550750I0J-243750D01*
G01*
X15245000Y-53113250D01*
G75*
G02*
X15001250Y-53357000I-243750J0D01*
G01*
X14513750Y-53357000D01*
G75*
G02*
X14270000Y-53113250I0J243750D01*
G01*
G37*
G36*
G01*
X12695000Y-53113250D02*
X12695000Y-52550750D01*
G75*
G02*
X12938750Y-52307000I243750J0D01*
G01*
X13426250Y-52307000D01*
G75*
G02*
X13670000Y-52550750I0J-243750D01*
G01*
X13670000Y-53113250D01*
G75*
G02*
X13426250Y-53357000I-243750J0D01*
G01*
X12938750Y-53357000D01*
G75*
G02*
X12695000Y-53113250I0J243750D01*
G01*
G37*
%TD*%
%TO.C,C26*%
G36*
G01*
X93197500Y-22070750D02*
X93197500Y-22633250D01*
G75*
G02*
X92953750Y-22877000I-243750J0D01*
G01*
X92466250Y-22877000D01*
G75*
G02*
X92222500Y-22633250I0J243750D01*
G01*
X92222500Y-22070750D01*
G75*
G02*
X92466250Y-21827000I243750J0D01*
G01*
X92953750Y-21827000D01*
G75*
G02*
X93197500Y-22070750I0J-243750D01*
G01*
G37*
G36*
G01*
X91622500Y-22070750D02*
X91622500Y-22633250D01*
G75*
G02*
X91378750Y-22877000I-243750J0D01*
G01*
X90891250Y-22877000D01*
G75*
G02*
X90647500Y-22633250I0J243750D01*
G01*
X90647500Y-22070750D01*
G75*
G02*
X90891250Y-21827000I243750J0D01*
G01*
X91378750Y-21827000D01*
G75*
G02*
X91622500Y-22070750I0J-243750D01*
G01*
G37*
%TD*%
%TO.C,D1*%
G36*
G01*
X105367000Y-50889000D02*
X105367000Y-48679000D01*
G75*
G02*
X105637000Y-48409000I270000J0D01*
G01*
X106447000Y-48409000D01*
G75*
G02*
X106717000Y-48679000I0J-270000D01*
G01*
X106717000Y-50889000D01*
G75*
G02*
X106447000Y-51159000I-270000J0D01*
G01*
X105637000Y-51159000D01*
G75*
G02*
X105367000Y-50889000I0J270000D01*
G01*
G37*
G36*
G01*
X108167000Y-50889000D02*
X108167000Y-48679000D01*
G75*
G02*
X108437000Y-48409000I270000J0D01*
G01*
X109247000Y-48409000D01*
G75*
G02*
X109517000Y-48679000I0J-270000D01*
G01*
X109517000Y-50889000D01*
G75*
G02*
X109247000Y-51159000I-270000J0D01*
G01*
X108437000Y-51159000D01*
G75*
G02*
X108167000Y-50889000I0J270000D01*
G01*
G37*
%TD*%
%TO.C,D2*%
G36*
G01*
X88851000Y-9424750D02*
X88851000Y-10387250D01*
G75*
G02*
X88582250Y-10656000I-268750J0D01*
G01*
X88044750Y-10656000D01*
G75*
G02*
X87776000Y-10387250I0J268750D01*
G01*
X87776000Y-9424750D01*
G75*
G02*
X88044750Y-9156000I268750J0D01*
G01*
X88582250Y-9156000D01*
G75*
G02*
X88851000Y-9424750I0J-268750D01*
G01*
G37*
G36*
G01*
X86976000Y-9424750D02*
X86976000Y-10387250D01*
G75*
G02*
X86707250Y-10656000I-268750J0D01*
G01*
X86169750Y-10656000D01*
G75*
G02*
X85901000Y-10387250I0J268750D01*
G01*
X85901000Y-9424750D01*
G75*
G02*
X86169750Y-9156000I268750J0D01*
G01*
X86707250Y-9156000D01*
G75*
G02*
X86976000Y-9424750I0J-268750D01*
G01*
G37*
%TD*%
D11*
%TO.C,J1*%
X101600000Y-2794000D03*
D12*
X99060000Y-2794000D03*
%TD*%
D11*
%TO.C,J2*%
X37846000Y-57404000D03*
D12*
X37846000Y-54864000D03*
X40386000Y-57404000D03*
X40386000Y-54864000D03*
X42926000Y-57404000D03*
X42926000Y-54864000D03*
X45466000Y-57404000D03*
X45466000Y-54864000D03*
X48006000Y-57404000D03*
X48006000Y-54864000D03*
X50546000Y-57404000D03*
X50546000Y-54864000D03*
X53086000Y-57404000D03*
X53086000Y-54864000D03*
X55626000Y-57404000D03*
X55626000Y-54864000D03*
X58166000Y-57404000D03*
X58166000Y-54864000D03*
X60706000Y-57404000D03*
X60706000Y-54864000D03*
%TD*%
%TO.C,J3*%
X60706000Y-2032000D03*
X60706000Y-4572000D03*
X58166000Y-2032000D03*
X58166000Y-4572000D03*
X55626000Y-2032000D03*
X55626000Y-4572000D03*
X53086000Y-2032000D03*
X53086000Y-4572000D03*
X50546000Y-2032000D03*
X50546000Y-4572000D03*
X48006000Y-2032000D03*
X48006000Y-4572000D03*
X45466000Y-2032000D03*
X45466000Y-4572000D03*
X42926000Y-2032000D03*
X42926000Y-4572000D03*
X40386000Y-2032000D03*
X40386000Y-4572000D03*
X37846000Y-2032000D03*
D11*
X37846000Y-4572000D03*
%TD*%
%TO.C,J4*%
X17526000Y-57404000D03*
D12*
X14986000Y-57404000D03*
X12446000Y-57404000D03*
X9906000Y-57404000D03*
%TD*%
%TO.C,J5*%
X67056000Y-9652000D03*
X67056000Y-7112000D03*
X67056000Y-4572000D03*
D11*
X67056000Y-2032000D03*
%TD*%
%TO.C,J7*%
X2286000Y-9398000D03*
D12*
X4826000Y-9398000D03*
X2286000Y-11938000D03*
X4826000Y-11938000D03*
X2286000Y-14478000D03*
X4826000Y-14478000D03*
X2286000Y-17018000D03*
X4826000Y-17018000D03*
X2286000Y-19558000D03*
X4826000Y-19558000D03*
X2286000Y-22098000D03*
X4826000Y-22098000D03*
X2286000Y-24638000D03*
X4826000Y-24638000D03*
X2286000Y-27178000D03*
X4826000Y-27178000D03*
X2286000Y-29718000D03*
X4826000Y-29718000D03*
X2286000Y-32258000D03*
X4826000Y-32258000D03*
X2286000Y-34798000D03*
X4826000Y-34798000D03*
X2286000Y-37338000D03*
X4826000Y-37338000D03*
X2286000Y-39878000D03*
X4826000Y-39878000D03*
X2286000Y-42418000D03*
X4826000Y-42418000D03*
X2286000Y-44958000D03*
X4826000Y-44958000D03*
X2286000Y-47498000D03*
X4826000Y-47498000D03*
X2286000Y-50038000D03*
X4826000Y-50038000D03*
%TD*%
D21*
%TO.C,J9*%
X96266000Y-25698300D03*
X96269200Y-24631500D03*
X96266000Y-16916400D03*
X96266000Y-18008600D03*
X96266000Y-19075400D03*
X96266000Y-20167600D03*
X96266000Y-21259800D03*
X96266000Y-22377400D03*
X96266000Y-23495000D03*
D22*
X97428800Y-12190300D03*
D23*
X106861000Y-27133400D03*
X106988000Y-11545700D03*
D22*
X97205000Y-27178000D03*
D24*
X107289600Y-23992200D03*
X107289600Y-15951200D03*
%TD*%
D25*
%TO.C,J10*%
X105512000Y-45976000D03*
X105512000Y-37336000D03*
D26*
X109682000Y-45976000D03*
X109682000Y-37336000D03*
D27*
X104932000Y-42406000D03*
X104932000Y-41906000D03*
X104932000Y-41406000D03*
X104932000Y-43406000D03*
X104932000Y-42906000D03*
X104932000Y-40406000D03*
X104932000Y-40906000D03*
X104932000Y-39906000D03*
D28*
X105992000Y-38766000D03*
X105992000Y-44546000D03*
D29*
X104932000Y-44056000D03*
X104932000Y-44056000D03*
X104932000Y-44856000D03*
X104932000Y-44856000D03*
X104932000Y-39256000D03*
X104932000Y-38456000D03*
X104932000Y-39256000D03*
X104932000Y-38456000D03*
%TD*%
%TO.C,R1*%
G36*
G01*
X29182750Y-46477000D02*
X29745250Y-46477000D01*
G75*
G02*
X29989000Y-46720750I0J-243750D01*
G01*
X29989000Y-47208250D01*
G75*
G02*
X29745250Y-47452000I-243750J0D01*
G01*
X29182750Y-47452000D01*
G75*
G02*
X28939000Y-47208250I0J243750D01*
G01*
X28939000Y-46720750D01*
G75*
G02*
X29182750Y-46477000I243750J0D01*
G01*
G37*
G36*
G01*
X29182750Y-48052000D02*
X29745250Y-48052000D01*
G75*
G02*
X29989000Y-48295750I0J-243750D01*
G01*
X29989000Y-48783250D01*
G75*
G02*
X29745250Y-49027000I-243750J0D01*
G01*
X29182750Y-49027000D01*
G75*
G02*
X28939000Y-48783250I0J243750D01*
G01*
X28939000Y-48295750D01*
G75*
G02*
X29182750Y-48052000I243750J0D01*
G01*
G37*
%TD*%
%TO.C,R3*%
G36*
G01*
X30761250Y-45217000D02*
X30198750Y-45217000D01*
G75*
G02*
X29955000Y-44973250I0J243750D01*
G01*
X29955000Y-44485750D01*
G75*
G02*
X30198750Y-44242000I243750J0D01*
G01*
X30761250Y-44242000D01*
G75*
G02*
X31005000Y-44485750I0J-243750D01*
G01*
X31005000Y-44973250D01*
G75*
G02*
X30761250Y-45217000I-243750J0D01*
G01*
G37*
G36*
G01*
X30761250Y-43642000D02*
X30198750Y-43642000D01*
G75*
G02*
X29955000Y-43398250I0J243750D01*
G01*
X29955000Y-42910750D01*
G75*
G02*
X30198750Y-42667000I243750J0D01*
G01*
X30761250Y-42667000D01*
G75*
G02*
X31005000Y-42910750I0J-243750D01*
G01*
X31005000Y-43398250D01*
G75*
G02*
X30761250Y-43642000I-243750J0D01*
G01*
G37*
%TD*%
%TO.C,R4*%
G36*
G01*
X93423000Y-39904750D02*
X93423000Y-40867250D01*
G75*
G02*
X93154250Y-41136000I-268750J0D01*
G01*
X92616750Y-41136000D01*
G75*
G02*
X92348000Y-40867250I0J268750D01*
G01*
X92348000Y-39904750D01*
G75*
G02*
X92616750Y-39636000I268750J0D01*
G01*
X93154250Y-39636000D01*
G75*
G02*
X93423000Y-39904750I0J-268750D01*
G01*
G37*
G36*
G01*
X91548000Y-39904750D02*
X91548000Y-40867250D01*
G75*
G02*
X91279250Y-41136000I-268750J0D01*
G01*
X90741750Y-41136000D01*
G75*
G02*
X90473000Y-40867250I0J268750D01*
G01*
X90473000Y-39904750D01*
G75*
G02*
X90741750Y-39636000I268750J0D01*
G01*
X91279250Y-39636000D01*
G75*
G02*
X91548000Y-39904750I0J-268750D01*
G01*
G37*
%TD*%
%TO.C,R5*%
G36*
G01*
X36545500Y-15013250D02*
X36545500Y-14450750D01*
G75*
G02*
X36789250Y-14207000I243750J0D01*
G01*
X37276750Y-14207000D01*
G75*
G02*
X37520500Y-14450750I0J-243750D01*
G01*
X37520500Y-15013250D01*
G75*
G02*
X37276750Y-15257000I-243750J0D01*
G01*
X36789250Y-15257000D01*
G75*
G02*
X36545500Y-15013250I0J243750D01*
G01*
G37*
G36*
G01*
X38120500Y-15013250D02*
X38120500Y-14450750D01*
G75*
G02*
X38364250Y-14207000I243750J0D01*
G01*
X38851750Y-14207000D01*
G75*
G02*
X39095500Y-14450750I0J-243750D01*
G01*
X39095500Y-15013250D01*
G75*
G02*
X38851750Y-15257000I-243750J0D01*
G01*
X38364250Y-15257000D01*
G75*
G02*
X38120500Y-15013250I0J243750D01*
G01*
G37*
%TD*%
%TO.C,R6*%
G36*
G01*
X45692750Y-46020000D02*
X46255250Y-46020000D01*
G75*
G02*
X46499000Y-46263750I0J-243750D01*
G01*
X46499000Y-46751250D01*
G75*
G02*
X46255250Y-46995000I-243750J0D01*
G01*
X45692750Y-46995000D01*
G75*
G02*
X45449000Y-46751250I0J243750D01*
G01*
X45449000Y-46263750D01*
G75*
G02*
X45692750Y-46020000I243750J0D01*
G01*
G37*
G36*
G01*
X45692750Y-44445000D02*
X46255250Y-44445000D01*
G75*
G02*
X46499000Y-44688750I0J-243750D01*
G01*
X46499000Y-45176250D01*
G75*
G02*
X46255250Y-45420000I-243750J0D01*
G01*
X45692750Y-45420000D01*
G75*
G02*
X45449000Y-45176250I0J243750D01*
G01*
X45449000Y-44688750D01*
G75*
G02*
X45692750Y-44445000I243750J0D01*
G01*
G37*
%TD*%
%TO.C,R7*%
G36*
G01*
X31745000Y-15013250D02*
X31745000Y-14450750D01*
G75*
G02*
X31988750Y-14207000I243750J0D01*
G01*
X32476250Y-14207000D01*
G75*
G02*
X32720000Y-14450750I0J-243750D01*
G01*
X32720000Y-15013250D01*
G75*
G02*
X32476250Y-15257000I-243750J0D01*
G01*
X31988750Y-15257000D01*
G75*
G02*
X31745000Y-15013250I0J243750D01*
G01*
G37*
G36*
G01*
X33320000Y-15013250D02*
X33320000Y-14450750D01*
G75*
G02*
X33563750Y-14207000I243750J0D01*
G01*
X34051250Y-14207000D01*
G75*
G02*
X34295000Y-14450750I0J-243750D01*
G01*
X34295000Y-15013250D01*
G75*
G02*
X34051250Y-15257000I-243750J0D01*
G01*
X33563750Y-15257000D01*
G75*
G02*
X33320000Y-15013250I0J243750D01*
G01*
G37*
%TD*%
%TO.C,R8*%
G36*
G01*
X92248000Y-26951250D02*
X92248000Y-26388750D01*
G75*
G02*
X92491750Y-26145000I243750J0D01*
G01*
X92979250Y-26145000D01*
G75*
G02*
X93223000Y-26388750I0J-243750D01*
G01*
X93223000Y-26951250D01*
G75*
G02*
X92979250Y-27195000I-243750J0D01*
G01*
X92491750Y-27195000D01*
G75*
G02*
X92248000Y-26951250I0J243750D01*
G01*
G37*
G36*
G01*
X90673000Y-26951250D02*
X90673000Y-26388750D01*
G75*
G02*
X90916750Y-26145000I243750J0D01*
G01*
X91404250Y-26145000D01*
G75*
G02*
X91648000Y-26388750I0J-243750D01*
G01*
X91648000Y-26951250D01*
G75*
G02*
X91404250Y-27195000I-243750J0D01*
G01*
X90916750Y-27195000D01*
G75*
G02*
X90673000Y-26951250I0J243750D01*
G01*
G37*
%TD*%
%TO.C,R9*%
G36*
G01*
X91648000Y-12672750D02*
X91648000Y-13235250D01*
G75*
G02*
X91404250Y-13479000I-243750J0D01*
G01*
X90916750Y-13479000D01*
G75*
G02*
X90673000Y-13235250I0J243750D01*
G01*
X90673000Y-12672750D01*
G75*
G02*
X90916750Y-12429000I243750J0D01*
G01*
X91404250Y-12429000D01*
G75*
G02*
X91648000Y-12672750I0J-243750D01*
G01*
G37*
G36*
G01*
X93223000Y-12672750D02*
X93223000Y-13235250D01*
G75*
G02*
X92979250Y-13479000I-243750J0D01*
G01*
X92491750Y-13479000D01*
G75*
G02*
X92248000Y-13235250I0J243750D01*
G01*
X92248000Y-12672750D01*
G75*
G02*
X92491750Y-12429000I243750J0D01*
G01*
X92979250Y-12429000D01*
G75*
G02*
X93223000Y-12672750I0J-243750D01*
G01*
G37*
%TD*%
%TO.C,R10*%
G36*
G01*
X91648000Y-14704750D02*
X91648000Y-15267250D01*
G75*
G02*
X91404250Y-15511000I-243750J0D01*
G01*
X90916750Y-15511000D01*
G75*
G02*
X90673000Y-15267250I0J243750D01*
G01*
X90673000Y-14704750D01*
G75*
G02*
X90916750Y-14461000I243750J0D01*
G01*
X91404250Y-14461000D01*
G75*
G02*
X91648000Y-14704750I0J-243750D01*
G01*
G37*
G36*
G01*
X93223000Y-14704750D02*
X93223000Y-15267250D01*
G75*
G02*
X92979250Y-15511000I-243750J0D01*
G01*
X92491750Y-15511000D01*
G75*
G02*
X92248000Y-15267250I0J243750D01*
G01*
X92248000Y-14704750D01*
G75*
G02*
X92491750Y-14461000I243750J0D01*
G01*
X92979250Y-14461000D01*
G75*
G02*
X93223000Y-14704750I0J-243750D01*
G01*
G37*
%TD*%
%TO.C,R11*%
G36*
G01*
X93223000Y-24356750D02*
X93223000Y-24919250D01*
G75*
G02*
X92979250Y-25163000I-243750J0D01*
G01*
X92491750Y-25163000D01*
G75*
G02*
X92248000Y-24919250I0J243750D01*
G01*
X92248000Y-24356750D01*
G75*
G02*
X92491750Y-24113000I243750J0D01*
G01*
X92979250Y-24113000D01*
G75*
G02*
X93223000Y-24356750I0J-243750D01*
G01*
G37*
G36*
G01*
X91648000Y-24356750D02*
X91648000Y-24919250D01*
G75*
G02*
X91404250Y-25163000I-243750J0D01*
G01*
X90916750Y-25163000D01*
G75*
G02*
X90673000Y-24919250I0J243750D01*
G01*
X90673000Y-24356750D01*
G75*
G02*
X90916750Y-24113000I243750J0D01*
G01*
X91404250Y-24113000D01*
G75*
G02*
X91648000Y-24356750I0J-243750D01*
G01*
G37*
%TD*%
%TO.C,R12*%
G36*
G01*
X101859000Y-40358750D02*
X101859000Y-40921250D01*
G75*
G02*
X101615250Y-41165000I-243750J0D01*
G01*
X101127750Y-41165000D01*
G75*
G02*
X100884000Y-40921250I0J243750D01*
G01*
X100884000Y-40358750D01*
G75*
G02*
X101127750Y-40115000I243750J0D01*
G01*
X101615250Y-40115000D01*
G75*
G02*
X101859000Y-40358750I0J-243750D01*
G01*
G37*
G36*
G01*
X100284000Y-40358750D02*
X100284000Y-40921250D01*
G75*
G02*
X100040250Y-41165000I-243750J0D01*
G01*
X99552750Y-41165000D01*
G75*
G02*
X99309000Y-40921250I0J243750D01*
G01*
X99309000Y-40358750D01*
G75*
G02*
X99552750Y-40115000I243750J0D01*
G01*
X100040250Y-40115000D01*
G75*
G02*
X100284000Y-40358750I0J-243750D01*
G01*
G37*
%TD*%
%TO.C,R13*%
G36*
G01*
X101859000Y-42390750D02*
X101859000Y-42953250D01*
G75*
G02*
X101615250Y-43197000I-243750J0D01*
G01*
X101127750Y-43197000D01*
G75*
G02*
X100884000Y-42953250I0J243750D01*
G01*
X100884000Y-42390750D01*
G75*
G02*
X101127750Y-42147000I243750J0D01*
G01*
X101615250Y-42147000D01*
G75*
G02*
X101859000Y-42390750I0J-243750D01*
G01*
G37*
G36*
G01*
X100284000Y-42390750D02*
X100284000Y-42953250D01*
G75*
G02*
X100040250Y-43197000I-243750J0D01*
G01*
X99552750Y-43197000D01*
G75*
G02*
X99309000Y-42953250I0J243750D01*
G01*
X99309000Y-42390750D01*
G75*
G02*
X99552750Y-42147000I243750J0D01*
G01*
X100040250Y-42147000D01*
G75*
G02*
X100284000Y-42390750I0J-243750D01*
G01*
G37*
%TD*%
%TO.C,R14*%
G36*
G01*
X99309000Y-38889250D02*
X99309000Y-38326750D01*
G75*
G02*
X99552750Y-38083000I243750J0D01*
G01*
X100040250Y-38083000D01*
G75*
G02*
X100284000Y-38326750I0J-243750D01*
G01*
X100284000Y-38889250D01*
G75*
G02*
X100040250Y-39133000I-243750J0D01*
G01*
X99552750Y-39133000D01*
G75*
G02*
X99309000Y-38889250I0J243750D01*
G01*
G37*
G36*
G01*
X100884000Y-38889250D02*
X100884000Y-38326750D01*
G75*
G02*
X101127750Y-38083000I243750J0D01*
G01*
X101615250Y-38083000D01*
G75*
G02*
X101859000Y-38326750I0J-243750D01*
G01*
X101859000Y-38889250D01*
G75*
G02*
X101615250Y-39133000I-243750J0D01*
G01*
X101127750Y-39133000D01*
G75*
G02*
X100884000Y-38889250I0J243750D01*
G01*
G37*
%TD*%
%TO.C,R15*%
G36*
G01*
X100884000Y-44985250D02*
X100884000Y-44422750D01*
G75*
G02*
X101127750Y-44179000I243750J0D01*
G01*
X101615250Y-44179000D01*
G75*
G02*
X101859000Y-44422750I0J-243750D01*
G01*
X101859000Y-44985250D01*
G75*
G02*
X101615250Y-45229000I-243750J0D01*
G01*
X101127750Y-45229000D01*
G75*
G02*
X100884000Y-44985250I0J243750D01*
G01*
G37*
G36*
G01*
X99309000Y-44985250D02*
X99309000Y-44422750D01*
G75*
G02*
X99552750Y-44179000I243750J0D01*
G01*
X100040250Y-44179000D01*
G75*
G02*
X100284000Y-44422750I0J-243750D01*
G01*
X100284000Y-44985250D01*
G75*
G02*
X100040250Y-45229000I-243750J0D01*
G01*
X99552750Y-45229000D01*
G75*
G02*
X99309000Y-44985250I0J243750D01*
G01*
G37*
%TD*%
D13*
%TO.C,RN2*%
X35306000Y-44642000D03*
D14*
X36976000Y-44642000D03*
X36176000Y-44642000D03*
D13*
X37846000Y-44642000D03*
D14*
X36176000Y-43242000D03*
D13*
X35306000Y-43242000D03*
D14*
X36976000Y-43242000D03*
D13*
X37846000Y-43242000D03*
%TD*%
D30*
%TO.C,SW1*%
X24892000Y-19812000D03*
X24892000Y-26416000D03*
%TD*%
D31*
%TO.C,SW2*%
X32004000Y-10668000D03*
X38608000Y-10668000D03*
%TD*%
D32*
%TO.C,U5*%
X79862000Y-16887000D03*
X79862000Y-17537000D03*
X79862000Y-18187000D03*
X79862000Y-18837000D03*
X79862000Y-19487000D03*
X79862000Y-20137000D03*
X79862000Y-20787000D03*
X79862000Y-21437000D03*
X79862000Y-22087000D03*
X79862000Y-22737000D03*
X74062000Y-22737000D03*
X74062000Y-22087000D03*
X74062000Y-21437000D03*
X74062000Y-20787000D03*
X74062000Y-20137000D03*
X74062000Y-19487000D03*
X74062000Y-18837000D03*
X74062000Y-18187000D03*
X74062000Y-17537000D03*
X74062000Y-16887000D03*
%TD*%
%TO.C,U6*%
X75544000Y-55249000D03*
X75544000Y-54599000D03*
X75544000Y-53949000D03*
X75544000Y-53299000D03*
X75544000Y-52649000D03*
X75544000Y-51999000D03*
X75544000Y-51349000D03*
X75544000Y-50699000D03*
X75544000Y-50049000D03*
X75544000Y-49399000D03*
X69744000Y-49399000D03*
X69744000Y-50049000D03*
X69744000Y-50699000D03*
X69744000Y-51349000D03*
X69744000Y-51999000D03*
X69744000Y-52649000D03*
X69744000Y-53299000D03*
X69744000Y-53949000D03*
X69744000Y-54599000D03*
X69744000Y-55249000D03*
%TD*%
D33*
%TO.C,Y1*%
X29464000Y-23642000D03*
X29464000Y-26142000D03*
%TD*%
D34*
%TO.C,Y2*%
X27552000Y-30808000D03*
X27552000Y-33708000D03*
X29852000Y-33708000D03*
X29852000Y-30808000D03*
%TD*%
%TO.C,R17*%
G36*
G01*
X14686000Y-21816750D02*
X14686000Y-22379250D01*
G75*
G02*
X14442250Y-22623000I-243750J0D01*
G01*
X13954750Y-22623000D01*
G75*
G02*
X13711000Y-22379250I0J243750D01*
G01*
X13711000Y-21816750D01*
G75*
G02*
X13954750Y-21573000I243750J0D01*
G01*
X14442250Y-21573000D01*
G75*
G02*
X14686000Y-21816750I0J-243750D01*
G01*
G37*
G36*
G01*
X16261000Y-21816750D02*
X16261000Y-22379250D01*
G75*
G02*
X16017250Y-22623000I-243750J0D01*
G01*
X15529750Y-22623000D01*
G75*
G02*
X15286000Y-22379250I0J243750D01*
G01*
X15286000Y-21816750D01*
G75*
G02*
X15529750Y-21573000I243750J0D01*
G01*
X16017250Y-21573000D01*
G75*
G02*
X16261000Y-21816750I0J-243750D01*
G01*
G37*
%TD*%
%TO.C,R18*%
G36*
G01*
X14483000Y-13688750D02*
X14483000Y-14251250D01*
G75*
G02*
X14239250Y-14495000I-243750J0D01*
G01*
X13751750Y-14495000D01*
G75*
G02*
X13508000Y-14251250I0J243750D01*
G01*
X13508000Y-13688750D01*
G75*
G02*
X13751750Y-13445000I243750J0D01*
G01*
X14239250Y-13445000D01*
G75*
G02*
X14483000Y-13688750I0J-243750D01*
G01*
G37*
G36*
G01*
X12908000Y-13688750D02*
X12908000Y-14251250D01*
G75*
G02*
X12664250Y-14495000I-243750J0D01*
G01*
X12176750Y-14495000D01*
G75*
G02*
X11933000Y-14251250I0J243750D01*
G01*
X11933000Y-13688750D01*
G75*
G02*
X12176750Y-13445000I243750J0D01*
G01*
X12664250Y-13445000D01*
G75*
G02*
X12908000Y-13688750I0J-243750D01*
G01*
G37*
%TD*%
%TO.C,R19*%
G36*
G01*
X17552750Y-18337000D02*
X18515250Y-18337000D01*
G75*
G02*
X18784000Y-18605750I0J-268750D01*
G01*
X18784000Y-19143250D01*
G75*
G02*
X18515250Y-19412000I-268750J0D01*
G01*
X17552750Y-19412000D01*
G75*
G02*
X17284000Y-19143250I0J268750D01*
G01*
X17284000Y-18605750D01*
G75*
G02*
X17552750Y-18337000I268750J0D01*
G01*
G37*
G36*
G01*
X17552750Y-20212000D02*
X18515250Y-20212000D01*
G75*
G02*
X18784000Y-20480750I0J-268750D01*
G01*
X18784000Y-21018250D01*
G75*
G02*
X18515250Y-21287000I-268750J0D01*
G01*
X17552750Y-21287000D01*
G75*
G02*
X17284000Y-21018250I0J268750D01*
G01*
X17284000Y-20480750D01*
G75*
G02*
X17552750Y-20212000I268750J0D01*
G01*
G37*
%TD*%
%TO.C,R16*%
G36*
G01*
X93731000Y-9624750D02*
X93731000Y-10187250D01*
G75*
G02*
X93487250Y-10431000I-243750J0D01*
G01*
X92999750Y-10431000D01*
G75*
G02*
X92756000Y-10187250I0J243750D01*
G01*
X92756000Y-9624750D01*
G75*
G02*
X92999750Y-9381000I243750J0D01*
G01*
X93487250Y-9381000D01*
G75*
G02*
X93731000Y-9624750I0J-243750D01*
G01*
G37*
G36*
G01*
X92156000Y-9624750D02*
X92156000Y-10187250D01*
G75*
G02*
X91912250Y-10431000I-243750J0D01*
G01*
X91424750Y-10431000D01*
G75*
G02*
X91181000Y-10187250I0J243750D01*
G01*
X91181000Y-9624750D01*
G75*
G02*
X91424750Y-9381000I243750J0D01*
G01*
X91912250Y-9381000D01*
G75*
G02*
X92156000Y-9624750I0J-243750D01*
G01*
G37*
%TD*%
D35*
%TO.C,U1*%
G36*
X93886000Y-44523504D02*
G01*
X94836000Y-45194092D01*
X94836000Y-46245908D01*
X93886000Y-46916496D01*
X93886000Y-44523504D01*
G37*
D22*
X90214000Y-44220000D03*
D33*
X90360500Y-45720000D03*
D22*
X90214000Y-47220000D03*
D36*
X93027500Y-45720000D03*
D35*
G36*
X92167800Y-46916033D02*
G01*
X91067800Y-46146033D01*
X91067800Y-45293967D01*
X92167800Y-44523967D01*
X92167800Y-46916033D01*
G37*
%TD*%
%TO.C,U2*%
G36*
X85270033Y-4098200D02*
G01*
X84500033Y-5198200D01*
X83647967Y-5198200D01*
X82877967Y-4098200D01*
X85270033Y-4098200D01*
G37*
D37*
X84074000Y-3238500D03*
D38*
X85574000Y-6052000D03*
D39*
X84074000Y-5905500D03*
D38*
X82574000Y-6052000D03*
D35*
G36*
X82877504Y-2380000D02*
G01*
X83548092Y-1430000D01*
X84599908Y-1430000D01*
X85270496Y-2380000D01*
X82877504Y-2380000D01*
G37*
%TD*%
%TO.C,C28*%
G36*
G01*
X21109250Y-38130500D02*
X20546750Y-38130500D01*
G75*
G02*
X20303000Y-37886750I0J243750D01*
G01*
X20303000Y-37399250D01*
G75*
G02*
X20546750Y-37155500I243750J0D01*
G01*
X21109250Y-37155500D01*
G75*
G02*
X21353000Y-37399250I0J-243750D01*
G01*
X21353000Y-37886750D01*
G75*
G02*
X21109250Y-38130500I-243750J0D01*
G01*
G37*
G36*
G01*
X21109250Y-36555500D02*
X20546750Y-36555500D01*
G75*
G02*
X20303000Y-36311750I0J243750D01*
G01*
X20303000Y-35824250D01*
G75*
G02*
X20546750Y-35580500I243750J0D01*
G01*
X21109250Y-35580500D01*
G75*
G02*
X21353000Y-35824250I0J-243750D01*
G01*
X21353000Y-36311750D01*
G75*
G02*
X21109250Y-36555500I-243750J0D01*
G01*
G37*
%TD*%
%TO.C,U8*%
G36*
X14404496Y-29116000D02*
G01*
X13733908Y-30066000D01*
X12682092Y-30066000D01*
X12011504Y-29116000D01*
X14404496Y-29116000D01*
G37*
D38*
X14708000Y-25444000D03*
D39*
X13208000Y-25590500D03*
D38*
X11708000Y-25444000D03*
D37*
X13208000Y-28257500D03*
D35*
G36*
X12011967Y-27397800D02*
G01*
X12781967Y-26297800D01*
X13634033Y-26297800D01*
X14404033Y-27397800D01*
X12011967Y-27397800D01*
G37*
%TD*%
D20*
%TO.C,C13*%
X92202000Y-5334000D03*
D19*
X92202000Y-2834000D03*
%TD*%
%TO.C,C16*%
G36*
G01*
X87348000Y-54686375D02*
X87348000Y-53517625D01*
G75*
G02*
X87613625Y-53252000I265625J0D01*
G01*
X90682375Y-53252000D01*
G75*
G02*
X90948000Y-53517625I0J-265625D01*
G01*
X90948000Y-54686375D01*
G75*
G02*
X90682375Y-54952000I-265625J0D01*
G01*
X87613625Y-54952000D01*
G75*
G02*
X87348000Y-54686375I0J265625D01*
G01*
G37*
G36*
G01*
X92948000Y-54686375D02*
X92948000Y-53517625D01*
G75*
G02*
X93213625Y-53252000I265625J0D01*
G01*
X96282375Y-53252000D01*
G75*
G02*
X96548000Y-53517625I0J-265625D01*
G01*
X96548000Y-54686375D01*
G75*
G02*
X96282375Y-54952000I-265625J0D01*
G01*
X93213625Y-54952000D01*
G75*
G02*
X92948000Y-54686375I0J265625D01*
G01*
G37*
%TD*%
%TO.C,C24*%
G36*
G01*
X53908000Y-49860375D02*
X53908000Y-48691625D01*
G75*
G02*
X54173625Y-48426000I265625J0D01*
G01*
X56742375Y-48426000D01*
G75*
G02*
X57008000Y-48691625I0J-265625D01*
G01*
X57008000Y-49860375D01*
G75*
G02*
X56742375Y-50126000I-265625J0D01*
G01*
X54173625Y-50126000D01*
G75*
G02*
X53908000Y-49860375I0J265625D01*
G01*
G37*
G36*
G01*
X58308000Y-49860375D02*
X58308000Y-48691625D01*
G75*
G02*
X58573625Y-48426000I265625J0D01*
G01*
X61142375Y-48426000D01*
G75*
G02*
X61408000Y-48691625I0J-265625D01*
G01*
X61408000Y-49860375D01*
G75*
G02*
X61142375Y-50126000I-265625J0D01*
G01*
X58573625Y-50126000D01*
G75*
G02*
X58308000Y-49860375I0J265625D01*
G01*
G37*
%TD*%
%TO.C,C27*%
G36*
G01*
X104292000Y-32842375D02*
X104292000Y-31673625D01*
G75*
G02*
X104557625Y-31408000I265625J0D01*
G01*
X106726375Y-31408000D01*
G75*
G02*
X106992000Y-31673625I0J-265625D01*
G01*
X106992000Y-32842375D01*
G75*
G02*
X106726375Y-33108000I-265625J0D01*
G01*
X104557625Y-33108000D01*
G75*
G02*
X104292000Y-32842375I0J265625D01*
G01*
G37*
G36*
G01*
X107892000Y-32842375D02*
X107892000Y-31673625D01*
G75*
G02*
X108157625Y-31408000I265625J0D01*
G01*
X110326375Y-31408000D01*
G75*
G02*
X110592000Y-31673625I0J-265625D01*
G01*
X110592000Y-32842375D01*
G75*
G02*
X110326375Y-33108000I-265625J0D01*
G01*
X108157625Y-33108000D01*
G75*
G02*
X107892000Y-32842375I0J265625D01*
G01*
G37*
%TD*%
%TO.C,C29*%
G36*
G01*
X12623625Y-32738000D02*
X13792375Y-32738000D01*
G75*
G02*
X14058000Y-33003625I0J-265625D01*
G01*
X14058000Y-36072375D01*
G75*
G02*
X13792375Y-36338000I-265625J0D01*
G01*
X12623625Y-36338000D01*
G75*
G02*
X12358000Y-36072375I0J265625D01*
G01*
X12358000Y-33003625D01*
G75*
G02*
X12623625Y-32738000I265625J0D01*
G01*
G37*
G36*
G01*
X12623625Y-38338000D02*
X13792375Y-38338000D01*
G75*
G02*
X14058000Y-38603625I0J-265625D01*
G01*
X14058000Y-41672375D01*
G75*
G02*
X13792375Y-41938000I-265625J0D01*
G01*
X12623625Y-41938000D01*
G75*
G02*
X12358000Y-41672375I0J265625D01*
G01*
X12358000Y-38603625D01*
G75*
G02*
X12623625Y-38338000I265625J0D01*
G01*
G37*
%TD*%
%TO.C,C30*%
G36*
G01*
X30911625Y-55610000D02*
X32080375Y-55610000D01*
G75*
G02*
X32346000Y-55875625I0J-265625D01*
G01*
X32346000Y-58944375D01*
G75*
G02*
X32080375Y-59210000I-265625J0D01*
G01*
X30911625Y-59210000D01*
G75*
G02*
X30646000Y-58944375I0J265625D01*
G01*
X30646000Y-55875625D01*
G75*
G02*
X30911625Y-55610000I265625J0D01*
G01*
G37*
G36*
G01*
X30911625Y-50010000D02*
X32080375Y-50010000D01*
G75*
G02*
X32346000Y-50275625I0J-265625D01*
G01*
X32346000Y-53344375D01*
G75*
G02*
X32080375Y-53610000I-265625J0D01*
G01*
X30911625Y-53610000D01*
G75*
G02*
X30646000Y-53344375I0J265625D01*
G01*
X30646000Y-50275625D01*
G75*
G02*
X30911625Y-50010000I265625J0D01*
G01*
G37*
%TD*%
D40*
%TO.C,Q1*%
X11050000Y-17592000D03*
X11050000Y-19492000D03*
X14350000Y-18542000D03*
%TD*%
M02*
