M48
; DRILL file {KiCad 5.1.5-br-unknown-alt1.rc1} date Tue Nov 25 07:27:39 2025
; FORMAT={-:-/ absolute / metric / decimal}
; #@! TF.CreationDate,2025-11-25T07:27:39+07:00
; #@! TF.GenerationSoftware,Kicad,Pcbnew,5.1.5-br-unknown-alt1.rc1
; #@! TF.FileFunction,Plated,1,2,PTH
FMAT,2
METRIC
T1C0.400
T2C0.600
T3C0.762
T4C0.800
T5C1.000
%
G90
G05
T1
X6.858Y-26.67
X6.858Y-28.448
X7.366Y-29.464
X7.366Y-43.434
X7.62Y-18.288
X7.62Y-30.734
X7.874Y-44.45
X8.382Y-41.148
X8.776Y-30.108
X9.481Y-30.845
X9.906Y-8.668
X13.301Y-48.877
X14.661Y-49.657
X14.986Y-20.32
X15.494Y-14.478
X15.495Y-51.9
X15.55Y-50.881
X16.256Y-34.29
X16.506Y-32.491
X16.843Y-33.456
X18.034Y-11.938
X18.542Y-45.72
X18.882Y-49.569
X19.376Y-33.274
X19.558Y-35.052
X19.558Y-39.878
X19.812Y-24.892
X19.812Y-48.26
X20.267Y-19.119
X20.796Y-30.542
X20.823Y-48.648
X20.828Y-22.606
X21.147Y-27.653
X21.236Y-31.782
X21.336Y-19.05
X21.344Y-26.424
X22.021Y-32.433
X22.074Y-28.08
X22.799Y-31.476
X23.106Y-36.33
X23.114Y-32.766
X23.122Y-28.948
X23.876Y-23.876
X24.13Y-56.134
X24.249Y-14.359
X24.384Y-22.936
X25.138Y-27.932
X25.393Y-54.144
X25.4Y-23.114
X25.954Y-53.292
X26.416Y-28.448
X26.416Y-52.07
X27.894Y-24.846
X27.932Y-19.566
X27.94Y-16.51
X28.202Y-17.772
X28.247Y-20.872
X28.448Y-54.864
X28.956Y-15.748
X29.21Y-12.446
X29.464Y-14.478
X29.464Y-54.102
X29.653Y-56.661
X30.03Y-55.713
X30.48Y-37.864
X30.988Y-13.208
X31.242Y-26.924
X31.496Y-22.352
X31.75Y-19.082
X32.512Y-5.842
X33.02Y-0.645
X33.052Y-44.958
X33.528Y-46.99
X34.036Y-27.432
X34.29Y-46.228
X35.306Y-50.038
X36.068Y-46.736
X36.322Y-50.546
X36.976Y-45.828
X37.846Y-46.736
X38.1Y-13.208
X38.727Y-53.205
X40.278Y-29.363
X40.862Y-14.762
X41.91Y-17.018
X42.129Y-19.1
X42.164Y-51.308
X42.496Y-26.144
X42.749Y-18.29
X43.018Y-50.038
X43.18Y-39.37
X43.226Y-27.926
X43.452Y-11.938
X43.688Y-8.382
X43.688Y-42.164
X43.942Y-52.07
X43.956Y-24.13
X44.143Y-10.615
X44.196Y-40.64
X44.196Y-50.038
X44.382Y-25.468
X44.966Y-23.868
X45.53Y-23.018
X45.847Y-26.044
X45.974Y-10.439
X46.235Y-35.429
X46.672Y-12.829
X46.818Y-25.702
X46.855Y-22.979
X47.202Y-27.161
X47.236Y-10.382
X47.498Y-6.178
X47.498Y-28.198
X48.006Y-8.858
X48.153Y-29.103
X48.31Y-12.282
X48.347Y-26.358
X48.492Y-10.382
X49.022Y-46.482
X49.022Y-50.324
X49.24Y-45.241
X49.835Y-13.01
X49.929Y-41.488
X50.024Y-42.551
X50.035Y-43.573
X50.037Y-44.604
X50.205Y-47.302
X50.212Y-17.086
X50.546Y-50.8
X50.636Y-8.922
X50.8Y-51.816
X50.812Y-13.302
X51.054Y-46.736
X51.062Y-49.776
X51.3Y-17.358
X51.786Y-38.862
X51.816Y-39.882
X52.134Y-8.479
X52.292Y-30.445
X52.296Y-6.181
X52.454Y-31.452
X52.459Y-32.631
X52.832Y-49.276
X52.985Y-19.653
X53.594Y-8.636
X53.594Y-51.308
X54.356Y-16.256
X54.61Y-20.828
X54.872Y-19.82
X55.88Y-15.24
X56.769Y-19.701
X56.896Y-43.688
X57.404Y-15.748
X57.658Y-47.974
X57.801Y-19.701
X57.874Y-41.396
X57.909Y-42.416
X57.929Y-43.435
X58.69Y-18.812
X59.054Y-32.276
X59.69Y-27.178
X60.063Y-32.123
X61.214Y-34.555
X61.654Y-38.037
X62.484Y-30.988
X62.584Y-44.369
X62.738Y-42.418
X62.738Y-48.006
X62.838Y-40.382
X62.838Y-41.402
X62.992Y-43.434
X63.548Y-39.338
X64.008Y-34.544
X64.527Y-39.627
X65.278Y-28.956
X65.532Y-32.004
X65.939Y-16.224
X66.008Y-24.384
X66.04Y-26.67
X66.975Y-27.881
X67.754Y-28.539
X68.733Y-27.777
X69.682Y-25.146
X69.682Y-26.416
X69.778Y-44.736
X69.85Y-32.004
X69.85Y-48.26
X70.824Y-44.45
X71.12Y-16.764
X71.62Y-32.504
X71.628Y-36.322
X71.844Y-43.202
X71.882Y-15.526
X72.136Y-35.306
X72.898Y-47.752
X72.898Y-32.512
X72.933Y-37.761
X73.049Y-40.101
X73.553Y-36.952
X73.66Y-35.052
X73.914Y-15.187
X73.914Y-32.258
X73.963Y-47.547
X74.26Y-40.0
X74.899Y-36.548
X75.27Y-32.384
X75.454Y-28.662
X75.692Y-34.512
X77.47Y-34.29
X78.486Y-22.606
X78.486Y-26.924
X80.929Y-24.541
X81.534Y-48.768
X84.328Y-26.162
X93.472Y-19.05
X93.726Y-16.51
X94.234Y-21.336
X94.488Y-23.368
X95.504Y-41.148
X95.504Y-42.418
X102.87Y-39.37
X102.87Y-43.942
X110.744Y-49.53
T2
X8.636Y-34.036
X9.144Y-47.244
X11.43Y-12.192
X11.48Y-33.02
X12.446Y-22.86
X13.915Y-44.083
X15.116Y-38.23
X15.24Y-23.368
X16.256Y-24.638
X16.51Y-20.828
X16.54Y-36.284
X17.526Y-54.356
X19.748Y-21.082
X20.066Y-9.652
X20.066Y-14.478
X20.574Y-56.388
X20.828Y-53.404
X24.734Y-16.926
X27.686Y-47.752
X28.324Y-50.659
X31.75Y-32.004
X39.37Y-44.45
X39.37Y-48.26
X40.64Y-24.892
X41.148Y-30.226
X43.713Y-46.508
X44.196Y-30.48
X44.196Y-33.782
X45.974Y-32.258
X48.514Y-34.798
X50.8Y-35.052
X51.816Y-23.876
X52.124Y-25.416
X53.086Y-44.45
X55.458Y-51.73
X58.733Y-44.353
X60.706Y-44.45
X62.738Y-52.578
X65.532Y-55.451
X67.056Y-20.828
X69.342Y-16.256
X71.628Y-24.13
X74.168Y-45.974
X74.422Y-25.59
X76.708Y-48.514
X76.962Y-57.468
X77.47Y-53.34
X79.312Y-45.974
X80.264Y-15.494
X84.582Y-9.398
X84.582Y-23.114
X84.626Y-15.45
X86.614Y-43.942
X90.424Y-49.276
X99.568Y-49.276
T4
X75.692Y-2.834
X75.692Y-5.334
X16.929Y-6.604
X24.219Y-6.591
X92.202Y-2.834
X92.202Y-5.334
X107.29Y-15.951
X107.29Y-23.992
T5
X2.286Y-9.398
X2.286Y-11.938
X2.286Y-14.478
X2.286Y-17.018
X2.286Y-19.558
X2.286Y-22.098
X2.286Y-24.638
X2.286Y-27.178
X2.286Y-29.718
X2.286Y-32.258
X2.286Y-34.798
X2.286Y-37.338
X2.286Y-39.878
X2.286Y-42.418
X2.286Y-44.958
X2.286Y-47.498
X2.286Y-50.038
X4.826Y-9.398
X4.826Y-11.938
X4.826Y-14.478
X4.826Y-17.018
X4.826Y-19.558
X4.826Y-22.098
X4.826Y-24.638
X4.826Y-27.178
X4.826Y-29.718
X4.826Y-32.258
X4.826Y-34.798
X4.826Y-37.338
X4.826Y-39.878
X4.826Y-42.418
X4.826Y-44.958
X4.826Y-47.498
X4.826Y-50.038
X37.846Y-54.864
X37.846Y-57.404
X40.386Y-54.864
X40.386Y-57.404
X42.926Y-54.864
X42.926Y-57.404
X45.466Y-54.864
X45.466Y-57.404
X48.006Y-54.864
X48.006Y-57.404
X50.546Y-54.864
X50.546Y-57.404
X53.086Y-54.864
X53.086Y-57.404
X55.626Y-54.864
X55.626Y-57.404
X58.166Y-54.864
X58.166Y-57.404
X60.706Y-54.864
X60.706Y-57.404
X9.906Y-57.404
X12.446Y-57.404
X14.986Y-57.404
X17.526Y-57.404
X37.846Y-2.032
X37.846Y-4.572
X40.386Y-2.032
X40.386Y-4.572
X42.926Y-2.032
X42.926Y-4.572
X45.466Y-2.032
X45.466Y-4.572
X48.006Y-2.032
X48.006Y-4.572
X50.546Y-2.032
X50.546Y-4.572
X53.086Y-2.032
X53.086Y-4.572
X55.626Y-2.032
X55.626Y-4.572
X58.166Y-2.032
X58.166Y-4.572
X60.706Y-2.032
X60.706Y-4.572
X21.336Y-42.926
X21.336Y-45.466
X99.06Y-2.794
X101.6Y-2.794
X67.056Y-2.032
X67.056Y-4.572
X67.056Y-7.112
X67.056Y-9.652
T2
G00X106.062Y-37.336
M15
G01X104.962Y-37.336
M16
G05
G00X106.062Y-45.976
M15
G01X104.962Y-45.976
M16
G05
G00X110.082Y-37.336
M15
G01X109.282Y-37.336
M16
G05
G00X110.082Y-45.976
M15
G01X109.282Y-45.976
M16
G05
T3
G00X25.111Y-19.812
M15
G01X24.673Y-19.812
M16
G05
G00X25.111Y-26.416
M15
G01X24.673Y-26.416
M16
G05
G00X32.004Y-10.887
M15
G01X32.004Y-10.449
M16
G05
G00X38.608Y-10.887
M15
G01X38.608Y-10.449
M16
G05
T0
M30
