%TF.GenerationSoftware,KiCad,Pcbnew,5.1.5-br-unknown-alt1.rc1*%
%TF.CreationDate,2025-11-25T07:27:36+07:00*%
%TF.ProjectId,ch32v307_100,63683332-7633-4303-975f-3130302e6b69,rev?*%
%TF.SameCoordinates,PX21e9a40PY1d11680*%
%TF.FileFunction,Soldermask,Bot*%
%TF.FilePolarity,Negative*%
%FSLAX46Y46*%
G04 Gerber Fmt 4.6, Leading zero omitted, Abs format (unit mm)*
G04 Created by KiCad (PCBNEW 5.1.5-br-unknown-alt1.rc1) date 2025-11-25 07:27:36*
%MOMM*%
%LPD*%
G01*
G04 APERTURE LIST*
%ADD10R,2.300000X1.900000*%
%ADD11R,1.400000X0.400000*%
%ADD12R,1.800000X1.800000*%
%ADD13O,1.800000X1.800000*%
%ADD14C,3.300000*%
%ADD15C,1.400000*%
%ADD16C,1.700000*%
%ADD17R,1.700000X1.700000*%
%ADD18C,1.300000*%
%ADD19O,2.100000X1.000000*%
%ADD20O,1.800000X1.000000*%
%ADD21C,0.700000*%
%ADD22O,2.624000X1.624000*%
%ADD23O,1.624000X2.624000*%
G04 APERTURE END LIST*
D10*
%TO.C,J8*%
X14856000Y-17814000D03*
X14856000Y-41114000D03*
D11*
X18106000Y-39214000D03*
X18106000Y-38714000D03*
X18106000Y-38214000D03*
X18106000Y-37714000D03*
X18106000Y-37214000D03*
X18106000Y-36714000D03*
X18106000Y-36214000D03*
X18106000Y-35714000D03*
X18106000Y-35214000D03*
X18106000Y-34714000D03*
X18106000Y-34214000D03*
X18106000Y-33714000D03*
X18106000Y-33214000D03*
X18106000Y-32714000D03*
X18106000Y-32214000D03*
X18106000Y-31714000D03*
X18106000Y-31214000D03*
X18106000Y-30714000D03*
X18106000Y-30214000D03*
X18106000Y-29714000D03*
X18106000Y-29214000D03*
X18106000Y-28714000D03*
X18106000Y-28214000D03*
X18106000Y-27714000D03*
X18106000Y-27214000D03*
X18106000Y-26714000D03*
X18106000Y-26214000D03*
X18106000Y-25714000D03*
X18106000Y-25214000D03*
X18106000Y-24714000D03*
X18106000Y-24214000D03*
X18106000Y-23714000D03*
X18106000Y-23214000D03*
X18106000Y-22714000D03*
X18106000Y-22214000D03*
X18106000Y-21714000D03*
X18106000Y-21214000D03*
X18106000Y-20714000D03*
X18106000Y-20214000D03*
X18106000Y-19714000D03*
%TD*%
D12*
%TO.C,J6*%
X21336000Y-45466000D03*
D13*
X21336000Y-42926000D03*
%TD*%
D14*
%TO.C,REF\u002A\u002A*%
X3556000Y-55880000D03*
%TD*%
%TO.C,REF\u002A\u002A*%
X3556000Y-3556000D03*
%TD*%
%TO.C,REF\u002A\u002A*%
X108204000Y-3556000D03*
%TD*%
%TO.C,REF\u002A\u002A*%
X108204000Y-55880000D03*
%TD*%
D15*
%TO.C,BT1*%
X16929100Y-6604000D03*
X24218900Y-6591300D03*
%TD*%
D16*
%TO.C,C22*%
X75692000Y-2834000D03*
D17*
X75692000Y-5334000D03*
%TD*%
D12*
%TO.C,J1*%
X101600000Y-2794000D03*
D13*
X99060000Y-2794000D03*
%TD*%
D12*
%TO.C,J2*%
X37846000Y-57404000D03*
D13*
X37846000Y-54864000D03*
X40386000Y-57404000D03*
X40386000Y-54864000D03*
X42926000Y-57404000D03*
X42926000Y-54864000D03*
X45466000Y-57404000D03*
X45466000Y-54864000D03*
X48006000Y-57404000D03*
X48006000Y-54864000D03*
X50546000Y-57404000D03*
X50546000Y-54864000D03*
X53086000Y-57404000D03*
X53086000Y-54864000D03*
X55626000Y-57404000D03*
X55626000Y-54864000D03*
X58166000Y-57404000D03*
X58166000Y-54864000D03*
X60706000Y-57404000D03*
X60706000Y-54864000D03*
%TD*%
%TO.C,J3*%
X60706000Y-2032000D03*
X60706000Y-4572000D03*
X58166000Y-2032000D03*
X58166000Y-4572000D03*
X55626000Y-2032000D03*
X55626000Y-4572000D03*
X53086000Y-2032000D03*
X53086000Y-4572000D03*
X50546000Y-2032000D03*
X50546000Y-4572000D03*
X48006000Y-2032000D03*
X48006000Y-4572000D03*
X45466000Y-2032000D03*
X45466000Y-4572000D03*
X42926000Y-2032000D03*
X42926000Y-4572000D03*
X40386000Y-2032000D03*
X40386000Y-4572000D03*
X37846000Y-2032000D03*
D12*
X37846000Y-4572000D03*
%TD*%
%TO.C,J4*%
X17526000Y-57404000D03*
D13*
X14986000Y-57404000D03*
X12446000Y-57404000D03*
X9906000Y-57404000D03*
%TD*%
%TO.C,J5*%
X67056000Y-9652000D03*
X67056000Y-7112000D03*
X67056000Y-4572000D03*
D12*
X67056000Y-2032000D03*
%TD*%
%TO.C,J7*%
X2286000Y-9398000D03*
D13*
X4826000Y-9398000D03*
X2286000Y-11938000D03*
X4826000Y-11938000D03*
X2286000Y-14478000D03*
X4826000Y-14478000D03*
X2286000Y-17018000D03*
X4826000Y-17018000D03*
X2286000Y-19558000D03*
X4826000Y-19558000D03*
X2286000Y-22098000D03*
X4826000Y-22098000D03*
X2286000Y-24638000D03*
X4826000Y-24638000D03*
X2286000Y-27178000D03*
X4826000Y-27178000D03*
X2286000Y-29718000D03*
X4826000Y-29718000D03*
X2286000Y-32258000D03*
X4826000Y-32258000D03*
X2286000Y-34798000D03*
X4826000Y-34798000D03*
X2286000Y-37338000D03*
X4826000Y-37338000D03*
X2286000Y-39878000D03*
X4826000Y-39878000D03*
X2286000Y-42418000D03*
X4826000Y-42418000D03*
X2286000Y-44958000D03*
X4826000Y-44958000D03*
X2286000Y-47498000D03*
X4826000Y-47498000D03*
X2286000Y-50038000D03*
X4826000Y-50038000D03*
%TD*%
D18*
%TO.C,J9*%
X107289600Y-23992200D03*
X107289600Y-15951200D03*
%TD*%
D19*
%TO.C,J10*%
X105512000Y-45976000D03*
X105512000Y-37336000D03*
D20*
X109682000Y-45976000D03*
X109682000Y-37336000D03*
D21*
X105992000Y-38766000D03*
X105992000Y-44546000D03*
%TD*%
D22*
%TO.C,SW1*%
X24892000Y-19812000D03*
X24892000Y-26416000D03*
%TD*%
D23*
%TO.C,SW2*%
X32004000Y-10668000D03*
X38608000Y-10668000D03*
%TD*%
D17*
%TO.C,C13*%
X92202000Y-5334000D03*
D16*
X92202000Y-2834000D03*
%TD*%
M02*
